<?xml version="1.0" encoding="UTF-8"?>
<svg width="317px" height="293px" viewBox="0 0 317 293" version="1.1" xmlns="http://www.w3.org/2000/svg" xmlns:xlink="http://www.w3.org/1999/xlink">
    <!-- Generator: Sketch 51.3 (57544) - http://www.bohemiancoding.com/sketch -->
    <title>VECTOR-BOX-SPEED</title>
    <desc>Created with Sketch.</desc>
    <defs>
        <polygon id="path-1" points="1.3308843 0.574361165 286.640341 0.574361165 286.640341 231.047864 1.3308843 231.047864"></polygon>
        <path d="M86.0441076,127.707476 C136.877596,139.207456 162.191605,150.201398 161.9833,160.686466 C161.681471,175.829359 108.127265,189.911981 1.3306009,202.932913 C1.3306009,202.932913 183.751874,209.646078 224.69017,136.517087 C240.932287,107.499942 210.825848,54.0327573 168.596628,0.0850485437 L86.0441076,127.707476 Z" id="path-3"></path>
        <linearGradient x1="38.5490005%" y1="52.3991172%" x2="75.2927813%" y2="101.080965%" id="linearGradient-5">
            <stop stop-color="#AFE2DB" offset="0%"></stop>
            <stop stop-color="#AFE2DB" offset="100%"></stop>
        </linearGradient>
        <path d="M1.17189238,12.7870485 C31.5617399,29.8194369 98.5168969,73.5074563 107.41591,132.002427 C110.779964,154.112214 103.857722,171.732854 92.3598565,185.614194 C98.8003049,179.711825 103.791121,172.926369 106.939785,165.076388 C124.227677,121.966699 84.1523587,52.2042136 9.07189238,0.57407767 L1.17189238,12.7870485 Z" id="path-6"></path>
        <linearGradient x1="-9.53670604%" y1="7.22295077%" x2="82.9987389%" y2="71.639863%" id="linearGradient-8">
            <stop stop-color="#FFFFFF" offset="0%"></stop>
            <stop stop-color="#FFFFFF" offset="100%"></stop>
        </linearGradient>
        <path d="M5.372,76.1496311 L5.3790852,76.155301 C161.086314,55.5480388 38.0659552,0.127572816 38.0659552,0.127572816 L9.39781166,1.35935922 L1.0216861,14.308 C51.8551749,25.8093981 77.1691839,36.8033398 76.9608789,47.2869903" id="path-9"></path>
        <linearGradient x1="11.456412%" y1="35.9334799%" x2="70.084784%" y2="84.2243532%" id="linearGradient-11">
            <stop stop-color="#FFFFFF" offset="0%"></stop>
            <stop stop-color="#FFFFFF" offset="100%"></stop>
        </linearGradient>
        <path d="M48.7490224,0.146 C48.7490224,0.146 124.468574,48.3174951 135.026942,107.018 C145.585309,165.717087 16.3994081,180.806117 16.3994081,180.806117 C19.3326816,180.419146 126.47652,163.833262 121.954744,114.948777 C117.432969,66.0642913 0.692932735,36.5935534 0.692932735,36.5935534 L48.7490224,0.146 Z" id="path-12"></path>
        <linearGradient x1="-0.457082549%" y1="19.0838757%" x2="101.629545%" y2="120.139604%" id="linearGradient-14">
            <stop stop-color="#FFFFFF" offset="0%"></stop>
            <stop stop-color="#FFFFFF" offset="100%"></stop>
        </linearGradient>
        <path d="M3.53693274,1.41038835 C5.18069955,2.68186408 52.3950673,7.80887379 71.4230852,45.8808544 C90.4525202,83.952835 51.7120538,97.8327573 51.7120538,97.8327573 C54.4327713,96.6576699 71.5987982,80.740835 66.5116233,60.7501748 C61.4258655,40.7595146 0.915408072,22.2458641 0.915408072,22.2458641 L3.53693274,1.41038835 Z" id="path-15"></path>
        <linearGradient x1="22.8644258%" y1="22.9061217%" x2="103.05089%" y2="90.2392801%" id="linearGradient-17">
            <stop stop-color="#FFFFFF" offset="0%"></stop>
            <stop stop-color="#FFFFFF" offset="100%"></stop>
        </linearGradient>
        <path d="M1.02593722,1.40330097 C2.8369148,2.42246602 50.2935964,0.635029126 74.6496861,35.5389515 C99.0043587,70.4414563 62.6912825,89.8027573 62.6912825,89.8027573 C65.2121973,88.2463689 79.8856502,70.0048738 71.9488072,50.9653398 C64.0133812,31.9243883 1.45813453,22.3989515 1.45813453,22.3989515 L1.02593722,1.40330097 Z" id="path-18"></path>
        <linearGradient x1="21.6424526%" y1="22.3012462%" x2="106.410643%" y2="84.9845323%" id="linearGradient-20">
            <stop stop-color="#FFFFFF" offset="0%"></stop>
            <stop stop-color="#FFFFFF" offset="100%"></stop>
        </linearGradient>
        <polygon id="path-21" points="0 0.903357282 107.270947 0.903357282 107.270947 177.790153 0 177.790153"></polygon>
    </defs>
    <g id="STATIC-PAGES" stroke="none" stroke-width="1" fill="none" fill-rule="evenodd">
        <g id="HOW-IT-WORKS" transform="translate(-867.000000, -1085.000000)">
            <g id="VECTOR-BOX-SPEED" transform="translate(867.000000, 1085.000000)">
                <g id="Group-3" transform="translate(29.757848, 61.466000)">
                    <mask id="mask-2" fill="white">
                        <use xlink:href="#path-1"></use>
                    </mask>
                    <g id="Clip-2"></g>
                    <path d="M86.044391,153.220905 C136.87788,164.722303 162.191889,175.716245 161.982167,186.199895 C161.680337,201.344206 108.127548,215.42541 1.3308843,228.447759 C26.9268843,230.986458 63.18753,232.734206 106.173449,228.447759 C176.838418,221.397235 263.532947,212.749216 282.653073,165.076672 C299.940965,121.966983 259.867064,52.2044971 184.78518,0.574361165 L86.044391,153.220905 Z" id="Fill-1" fill="#BFEFE9" mask="url(#mask-2)"></path>
                </g>
                <g id="Group-6" transform="translate(29.757848, 86.980563)">
                    <mask id="mask-4" fill="white">
                        <use xlink:href="#path-3"></use>
                    </mask>
                    <g id="Clip-5"></g>
                    <path d="M86.0441076,127.707476 C136.877596,139.207456 162.191605,150.201398 161.9833,160.686466 C161.681471,175.829359 108.127265,189.911981 1.3306009,202.932913 C1.3306009,202.932913 183.751874,209.646078 224.69017,136.517087 C240.932287,107.499942 210.825848,54.0327573 168.596628,0.0850485437 L86.0441076,127.707476 Z" id="Fill-4" fill="url(#linearGradient-5)" mask="url(#mask-4)"></path>
                </g>
                <g id="Group-9" transform="translate(205.470852, 61.466000)">
                    <mask id="mask-7" fill="white">
                        <use xlink:href="#path-6"></use>
                    </mask>
                    <g id="Clip-8"></g>
                    <path d="M1.17189238,12.7870485 C31.5617399,29.8194369 98.5168969,73.5074563 107.41591,132.002427 C110.779964,154.112214 103.857722,171.732854 92.3598565,185.614194 C98.8003049,179.711825 103.791121,172.926369 106.939785,165.076388 C124.227677,121.966699 84.1523587,52.2042136 9.07189238,0.57407767 L1.17189238,12.7870485 Z" id="Fill-7" fill="url(#linearGradient-8)" mask="url(#mask-7)"></path>
                </g>
                <g id="Group-100" transform="translate(0.000000, -0.902932)">
                    <g id="Group-12" transform="translate(114.780269, 201.281553)">
                        <mask id="mask-10" fill="white">
                            <use xlink:href="#path-9"></use>
                        </mask>
                        <g id="Clip-11"></g>
                        <path d="M5.372,76.1496311 L5.3790852,76.155301 C161.086314,55.5480388 38.0659552,0.127572816 38.0659552,0.127572816 L9.39781166,1.35935922 L1.0216861,14.308 C51.8551749,25.8093981 77.1691839,36.8033398 76.9608789,47.2869903 C76.7596592,57.3794175 52.8726099,67.0012427 5.372,76.1496311" id="Fill-10" fill="url(#linearGradient-11)" mask="url(#mask-10)"></path>
                    </g>
                    <g id="Group-15" transform="translate(165.793722, 100.640777)">
                        <mask id="mask-13" fill="white">
                            <use xlink:href="#path-12"></use>
                        </mask>
                        <g id="Clip-14"></g>
                        <path d="M48.7490224,0.146 C48.7490224,0.146 124.468574,48.3174951 135.026942,107.018 C145.585309,165.717087 16.3994081,180.806117 16.3994081,180.806117 C19.3326816,180.419146 126.47652,163.833262 121.954744,114.948777 C117.432969,66.0642913 0.692932735,36.5935534 0.692932735,36.5935534 L48.7490224,0.146 Z" id="Fill-13" fill="url(#linearGradient-14)" mask="url(#mask-13)"></path>
                    </g>
                    <g id="Group-18" transform="translate(187.049327, 154.504854)">
                        <mask id="mask-16" fill="white">
                            <use xlink:href="#path-15"></use>
                        </mask>
                        <g id="Clip-17"></g>
                        <path d="M3.53693274,1.41038835 C5.18069955,2.68186408 52.3950673,7.80887379 71.4230852,45.8808544 C90.4525202,83.952835 51.7120538,97.8327573 51.7120538,97.8327573 C54.4327713,96.6576699 71.5987982,80.740835 66.5116233,60.7501748 C61.4258655,40.7595146 0.915408072,22.2458641 0.915408072,22.2458641 L3.53693274,1.41038835 Z" id="Fill-16" fill="url(#linearGradient-17)" mask="url(#mask-16)"></path>
                    </g>
                    <g id="Group-21" transform="translate(137.452915, 171.514563)">
                        <mask id="mask-19" fill="white">
                            <use xlink:href="#path-18"></use>
                        </mask>
                        <g id="Clip-20"></g>
                        <path d="M1.02593722,1.40330097 C2.8369148,2.42246602 50.2935964,0.635029126 74.6496861,35.5389515 C99.0043587,70.4414563 62.6912825,89.8027573 62.6912825,89.8027573 C65.2121973,88.2463689 79.8856502,70.0048738 71.9488072,50.9653398 C64.0133812,31.9243883 1.45813453,22.3989515 1.45813453,22.3989515 L1.02593722,1.40330097 Z" id="Fill-19" fill="url(#linearGradient-20)" mask="url(#mask-19)"></path>
                    </g>
                    <g id="Group-24">
                        <mask id="mask-22" fill="white">
                            <use xlink:href="#path-21"></use>
                        </mask>
                        <g id="Clip-23"></g>
                        <polygon id="Fill-22" fill="#E0B27E" mask="url(#mask-22)" points="107.270947 127.822717 -0.000425112108 177.790153 -0.000425112108 62.943435 107.270947 0.903357282"></polygon>
                    </g>
                    <polygon id="Fill-25" fill="#BA8656" points="107.270947 127.822717 214.543736 177.790153 214.543736 62.943435 107.270947 0.903357282"></polygon>
                    <polygon id="Fill-29" fill="#BA8656" points="214.54317 177.79072 115.80238 215.590546 0.000425112108 177.79072 107.27038 127.823283"></polygon>
                    <polygon id="Fill-33" fill="#FFD8A4" points="36.8804592 160.611482 61.0140735 149.369482 61.0140735 27.6550932 36.8804592 41.6129767"></polygon>
                    <polygon id="Fill-35" fill="#DBB17F" points="61.014357 149.36934 175.094608 192.892932 148.390483 203.115767 36.8807426 160.61134"></polygon>
                    <path d="M214.54317,100.786777 L214.54317,80.8046214 L169.863887,75.4862524 C169.863887,75.4862524 171.854829,89.3477476 214.54317,100.786777" id="Fill-45" fill="#997044"></path>
                    <path d="M176.349539,81.6765107 C172.812606,80.0974427 170.123064,77.0640447 168.983763,73.3615981 C164.454902,58.6538699 158.731476,21.9284913 215.928893,25.0908796 C250.382813,26.995967 279.529916,41.8270155 292.514257,36.745365 C292.514257,36.745365 293.642221,53.1200447 273.321862,58.2016951 L283.483458,60.459734 C283.483458,60.459734 282.354077,79.0938699 255.82283,80.2235981 L264.855046,83.0457922 C264.855046,83.0457922 251.187691,115.090666 176.349539,81.6765107" id="Fill-47" fill="#E8EFEE"></path>
                    <path d="M61.014357,149.36934 L36.8807426,160.61134 L39.8352717,161.738233 C46.5718816,157.682835 54.7510386,153.572155 62.984043,150.120602 L61.014357,149.36934 Z" id="Fill-61" fill="#C49D72"></path>
                    <path d="M174.024743,192.484557 C171.485406,193.740441 168.878052,194.994907 166.306124,196.25646 L175.094608,192.89279 L174.024743,192.484557 Z" id="Fill-70" fill="#C49D72"></path>
                    <path d="M175.437674,76.9361883 C169.592382,72.2216641 166.487647,60.8946155 166.487647,60.8946155 C166.902839,65.6885184 167.971288,70.0756058 168.983055,73.3613146 C170.123772,77.0637612 172.811898,80.0971592 176.350248,81.6762272 C251.1884,115.090383 264.855754,83.0469262 264.855754,83.0469262 C236.429925,103.678285 181.282965,81.6521301 175.437674,76.9361883" id="Fill-88" fill="#CEDBD8"></path>
                    <path d="M283.48275,60.4600175 C272.931467,75.2924835 246.519252,77.8793767 246.519252,77.8793767 C252.55301,79.9531437 255.822122,80.2224641 255.822122,80.2224641 C282.353369,79.0941534 283.48275,60.4600175 283.48275,60.4600175" id="Fill-90" fill="#CEDBD8"></path>
                    <path d="M260.472565,58.2016951 C266.127973,60.2130932 273.32087,58.2016951 273.32087,58.2016951 C293.642646,53.1200447 292.513265,36.745365 292.513265,36.745365 C286.469587,52.0044913 260.472565,58.2016951 260.472565,58.2016951" id="Fill-92" fill="#CEDBD8"></path>
                    <path d="M265.000434,34.2160214 C251.269313,30.8254194 234.35977,26.1094777 215.928326,25.0903126 C185.435035,23.404934 172.827627,33.0565262 168.386622,44.6656524 L168.386622,44.6670699 C168.386622,44.6670699 181.433313,24.8819437 214.543878,27.898332 C247.651609,30.9161379 265.000434,34.2160214 265.000434,34.2160214 Z" id="Fill-94" fill="#F7F9F9"></path>
                    <path d="M279.703503,42.9873612 C280.266068,42.7889146 253.306875,57.6979243 223.893369,53.9260214 C223.893369,53.9260214 262.545978,49.0229728 279.703503,42.9873612" id="Fill-96" fill="#F7F9F9"></path>
                    <path d="M261.688952,67.3411534 C262.251517,67.1427068 235.292325,82.0517165 205.878818,78.2798136 C205.878818,78.2798136 244.531428,73.376765 261.688952,67.3411534" id="Fill-98" fill="#F7F9F9"></path>
                </g>
            </g>
        </g>
    </g>
</svg>