<?xml version="1.0" encoding="UTF-8"?>
<svg width="298px" height="39px" viewBox="0 0 298 39" version="1.1" xmlns="http://www.w3.org/2000/svg" xmlns:xlink="http://www.w3.org/1999/xlink">
    <!-- Generator: Sketch 51.3 (57544) - http://www.bohemiancoding.com/sketch -->
    <title>LOGO</title>
    <desc>Created with Sketch.</desc>
    <defs>
        <polygon id="path-1" points="0 0.459465217 9.00893358 0.459465217 9.00893358 12.6438565 0 12.6438565"></polygon>
    </defs>
    <g id="STATIC-PAGES" stroke="none" stroke-width="1" fill="none" fill-rule="evenodd">
        <g id="REGISTRATION" transform="translate(-571.000000, -75.000000)">
            <g id="LOGO" transform="translate(571.000000, 75.000000)">
                <g>
                    <polygon id="Fill-1" fill="#FFFFFF" points="248.06071 20.4182522 247.779578 38.5052087 285.451276 38.5052087 285.920205 17.2389043 267.155201 10.8101217 266.240959 10.5269478"></polygon>
                    <polygon id="Fill-2" fill="#FFF000" points="267.084524 11.5637826 267.92792 29.3675652 284.279686 17.875"></polygon>
                    <polygon id="Fill-3" fill="#BC1E2C" points="247.779859 31.2519435 247.779859 38.5053783 267.365769 38.5053783 267.365769 30.5923348"></polygon>
                    <polygon id="Fill-4" fill="#BC1E2C" points="267.740012 30.4039478 267.740012 38.5052087 285.451332 38.5052087 285.451332 27.5784261"></polygon>
                    <polygon id="Fill-5" fill="#00ACEE" points="260.197013 0.000226086957 239.603526 8.33661739 247.498277 20.8895304 266.803055 10.8100087"></polygon>
                    <polygon id="Fill-6" fill="#00ACEE" points="267.155032 10.8100087 285.638904 17.8746609 267.752157 30.3981826 280.202934 33.6069217 297.633685 18.9112696 285.920598 17.2387913 291.448217 6.75853043 273.269655 1.0600087"></polygon>
                    <polygon id="Fill-7" fill="#00ACEE" points="267.365656 30.5923913 256.893486 37.6576087 237.073675 26.7065217 248.060879 20.4184783"></polygon>
                    <g id="Group-49" transform="translate(0.000000, 11.940217)">
                        <g id="Group-10">
                            <mask id="mask-2" fill="white">
                                <use xlink:href="#path-1"></use>
                            </mask>
                            <g id="Clip-9"></g>
                            <path d="M4.33258264,7.04481304 C6.32693358,7.04481304 7.63363547,5.97316087 7.63363547,4.38263913 L7.63363547,4.34816087 C7.63363547,2.6202913 6.34436377,1.72103043 4.40174113,1.72103043 L1.35820528,1.72103043 L1.35820528,7.04481304 L4.33258264,7.04481304 Z M-0.00022490566,1.15072609 C-0.00022490566,0.770334783 0.309582642,0.459465217 0.670556226,0.459465217 L4.50463547,0.459465217 C7.22093358,0.459465217 9.00893358,1.9115087 9.00893358,4.29616087 L9.00893358,4.33063913 C9.00893358,6.94081304 6.84309208,8.28885652 4.28085434,8.28885652 L1.35820528,8.28885652 L1.35820528,11.9531609 C1.35820528,12.332987 1.04896,12.6438565 0.670556226,12.6438565 C0.309582642,12.6438565 -0.00022490566,12.332987 -0.00022490566,11.9531609 L-0.00022490566,1.15072609 Z" id="Fill-8" fill="#353535" mask="url(#mask-2)"></path>
                        </g>
                        <path d="M11.9494626,1.0641913 C11.9494626,0.6838 12.2592702,0.372365217 12.6202438,0.372365217 C12.9980853,0.372365217 13.3078928,0.6838 13.3078928,1.0641913 L13.3078928,11.9531043 C13.3078928,12.3329304 12.9980853,12.6438 12.6202438,12.6438 C12.2592702,12.6438 11.9494626,12.3329304 11.9494626,11.9531043 L11.9494626,1.0641913 Z" id="Fill-11" fill="#353535"></path>
                        <path d="M17.176214,1.08131739 C17.176214,0.718447826 17.4854592,0.408143478 17.8464328,0.408143478 L18.0359158,0.408143478 C18.3451611,0.408143478 18.5346442,0.563013043 18.7235649,0.805491304 L26.0307498,10.1728391 L26.0307498,1.04683913 C26.0307498,0.683969565 26.3231272,0.372534783 26.7009687,0.372534783 C27.0625045,0.372534783 27.3548819,0.683969565 27.3548819,1.04683913 L27.3548819,11.9707957 C27.3548819,12.3331 27.0968026,12.6094913 26.7352668,12.6094913 L26.6666706,12.6094913 C26.3742932,12.6094913 26.1685045,12.4371 25.9615913,12.1946217 L18.4997838,2.60231739 L18.4997838,11.9707957 C18.4997838,12.3331 18.2074064,12.6439696 17.8295649,12.6439696 C17.4685913,12.6439696 17.176214,12.3331 17.176214,11.9707957 L17.176214,1.08131739 Z" id="Fill-13" fill="#353535"></path>
                        <path d="M41.4359442,6.54306957 L41.4359442,6.50802609 C41.4359442,3.76050435 39.4415932,1.51433043 36.6904347,1.51433043 C33.9392762,1.51433043 31.9797857,3.7265913 31.9797857,6.47411304 L31.9797857,6.50802609 C31.9797857,9.25724348 33.9741366,11.5034174 36.7247328,11.5034174 C39.4758913,11.5034174 41.4359442,9.29115652 41.4359442,6.54306957 M30.5696272,6.54306957 L30.5696272,6.50802609 C30.5696272,3.17324348 33.0627064,0.2522 36.7247328,0.2522 C40.3867592,0.2522 42.8455404,3.1382 42.8455404,6.47411304 L42.8455404,6.50802609 C42.8455404,9.84450435 40.3524611,12.7655478 36.6904347,12.7655478 C33.0284083,12.7655478 30.5696272,9.87841739 30.5696272,6.54306957" id="Fill-15" fill="#353535"></path>
                        <path d="M48.846417,7.80486087 L44.376417,1.5139913 C44.2903906,1.37551304 44.2212321,1.22007826 44.2212321,1.04712174 C44.2212321,0.683686957 44.5479075,0.372817391 44.9263113,0.372817391 C45.2186887,0.372817391 45.4076094,0.545773913 45.5796623,0.787686957 L49.5514962,6.54329565 L53.5576283,0.787686957 C53.7296811,0.545773913 53.9011717,0.372817391 54.1935491,0.372817391 C54.5719528,0.372817391 54.8643302,0.683686957 54.8643302,1.04712174 C54.8643302,1.22007826 54.7608736,1.41055652 54.6748472,1.54846957 L50.2217151,7.76981739 L50.2217151,11.9529913 C50.2217151,12.3333826 49.9124698,12.6442522 49.534066,12.6442522 C49.1562245,12.6442522 48.846417,12.3333826 48.846417,11.9529913 L48.846417,7.80486087 Z" id="Fill-17" fill="#353535"></path>
                        <path d="M63.0479725,11.3308565 C64.8708328,11.3308565 66.0054819,10.5186391 66.0054819,9.17059565 L66.0054819,9.13555217 C66.0054819,7.82198696 64.9051309,7.06120435 62.8073234,7.06120435 L59.0075423,7.06120435 L59.0075423,11.3308565 L63.0479725,11.3308565 Z M62.5666743,5.85220435 C64.2000517,5.85220435 65.3347008,5.10837826 65.3347008,3.69081304 L65.3347008,3.6569 C65.3347008,2.4642913 64.3889725,1.68655217 62.6701309,1.68655217 L59.0075423,1.68655217 L59.0075423,5.85220435 L62.5666743,5.85220435 Z M57.6665423,1.15072609 C57.6665423,0.770334783 57.9757875,0.459465217 58.3373234,0.459465217 L62.7904555,0.459465217 C64.1657536,0.459465217 65.2486743,0.857378261 65.9368857,1.53055217 C66.4350517,2.04942174 66.7105611,2.68868261 66.7105611,3.46698696 L66.7105611,3.5009 C66.7105611,5.07446522 65.7474026,5.88668261 64.8016743,6.30155217 C66.2287008,6.73337826 67.38078,7.56255217 67.38078,9.22203043 L67.38078,9.25707391 C67.38078,11.3308565 65.6445083,12.5579435 63.0136743,12.5579435 L58.3373234,12.5579435 C57.9757875,12.5579435 57.6665423,12.2465087 57.6665423,11.8666826 L57.6665423,1.15072609 Z" id="Fill-19" fill="#353535"></path>
                        <path d="M80.7571004,6.54306957 L80.7571004,6.50802609 C80.7571004,3.76050435 78.7627494,1.51433043 76.0121532,1.51433043 C73.2609947,1.51433043 71.3009419,3.7265913 71.3009419,6.47411304 L71.3009419,6.50802609 C71.3009419,9.25724348 73.2952928,11.5034174 76.0464513,11.5034174 C78.7970475,11.5034174 80.7571004,9.29115652 80.7571004,6.54306957 M69.8913457,6.54306957 L69.8913457,6.50802609 C69.8913457,3.17324348 72.3838626,0.2522 76.0464513,0.2522 C79.7084777,0.2522 82.1672589,3.1382 82.1672589,6.47411304 L82.1672589,6.50802609 C82.1672589,9.84450435 79.6741796,12.7655478 76.0121532,12.7655478 C72.3495645,12.7655478 69.8913457,9.87841739 69.8913457,6.54306957" id="Fill-21" fill="#353535"></path>
                        <path d="M84.264954,11.520713 L88.287954,6.38797391 L84.4713049,1.54801739 C84.3509804,1.39258261 84.2475238,1.23714783 84.2475238,1.02914783 C84.2475238,0.6838 84.5399011,0.372365217 84.9183049,0.372365217 C85.1932521,0.372365217 85.3478747,0.510843478 85.5199275,0.718843478 L89.1482181,5.45423478 L92.7242181,0.770278261 C92.9131389,0.545886957 93.0851917,0.372365217 93.3775691,0.372365217 C93.7042445,0.372365217 93.9966219,0.649886957 93.9966219,1.0121913 C93.9966219,1.18514783 93.9274634,1.35866957 93.8071389,1.49658261 L89.9730596,6.37045217 L93.9448936,11.4692783 C94.082086,11.624713 94.1681125,11.7801478 94.1681125,11.9706261 C94.1681125,12.3329304 93.8757351,12.6438 93.4978936,12.6438 C93.2229464,12.6438 93.0677615,12.505887 92.8962709,12.2984522 L89.0964898,7.33866957 L85.3478747,12.2464522 C85.158954,12.4719739 84.9869011,12.6438 84.6776558,12.6438 C84.3684106,12.6438 84.0760332,12.3679739 84.0760332,12.0045391 C84.0760332,11.8321478 84.1446294,11.6591913 84.264954,11.520713" id="Fill-23" fill="#353535"></path>
                        <path d="M101.527138,11.2960957 C104.570112,11.2960957 106.513297,9.22174783 106.513297,6.54318261 L106.513297,6.50813913 C106.513297,3.82957391 104.570112,1.72131304 101.527138,1.72131304 L98.7073834,1.72131304 L98.7073834,11.2960957 L101.527138,11.2960957 Z M97.3489532,1.1510087 C97.3489532,0.770617391 97.6587608,0.459182609 98.0197343,0.459182609 L101.527138,0.459182609 C105.309489,0.459182609 107.922893,3.06935652 107.922893,6.47422609 L107.922893,6.50813913 C107.922893,9.91357391 105.309489,12.5576609 101.527138,12.5576609 L98.0197343,12.5576609 C97.6587608,12.5576609 97.3489532,12.2467913 97.3489532,11.8669652 L97.3489532,1.1510087 Z" id="Fill-25" fill="#353535"></path>
                        <path d="M111.138313,11.8667957 L111.138313,1.15083913 C111.138313,0.770447826 111.447558,0.459013043 111.808532,0.459013043 L119.287769,0.459013043 C119.631875,0.459013043 119.906822,0.735969565 119.906822,1.08131739 C119.906822,1.42723043 119.631875,1.70418696 119.287769,1.70418696 L112.496743,1.70418696 L112.496743,5.83479565 L118.514094,5.83479565 C118.8582,5.83479565 119.133147,6.1287087 119.133147,6.45653478 C119.133147,6.80244783 118.8582,7.07883913 118.514094,7.07883913 L112.496743,7.07883913 L112.496743,11.3134478 L119.373796,11.3134478 C119.717902,11.3134478 119.992849,11.5898391 119.992849,11.9357522 C119.992849,12.2811 119.717902,12.5580565 119.373796,12.5580565 L111.808532,12.5580565 C111.447558,12.5580565 111.138313,12.2466217 111.138313,11.8667957" id="Fill-27" fill="#353535"></path>
                        <path d="M123.001862,1.0641913 C123.001862,0.6838 123.311107,0.372365217 123.67208,0.372365217 C124.050484,0.372365217 124.360292,0.6838 124.360292,1.0641913 L124.360292,11.2963217 L130.601424,11.2963217 C130.944967,11.2963217 131.220477,11.5896696 131.220477,11.9355826 C131.220477,12.2814957 130.944967,12.557887 130.601424,12.557887 L123.67208,12.557887 C123.311107,12.557887 123.001862,12.2464522 123.001862,11.8666261 L123.001862,1.0641913 Z" id="Fill-29" fill="#353535"></path>
                        <path d="M134.108771,1.0641913 C134.108771,0.6838 134.418017,0.372365217 134.779552,0.372365217 C135.157394,0.372365217 135.467202,0.6838 135.467202,1.0641913 L135.467202,11.9531043 C135.467202,12.3329304 135.157394,12.6438 134.779552,12.6438 C134.418017,12.6438 134.108771,12.3329304 134.108771,11.9531043 L134.108771,1.0641913 Z" id="Fill-31" fill="#353535"></path>
                        <path d="M143.203563,12.1256652 L138.56151,1.35827391 C138.509782,1.25483913 138.492914,1.16779565 138.492914,1.04683913 C138.492914,0.701491304 138.802159,0.372534783 139.180563,0.372534783 C139.524668,0.372534783 139.765317,0.597491304 139.885642,0.891404348 L144.046397,10.9161 L148.224019,0.856926087 C148.344344,0.615013043 148.584993,0.372534783 148.8948,0.372534783 C149.272642,0.372534783 149.565019,0.683969565 149.565019,1.02931739 C149.565019,1.13331739 149.548151,1.21979565 149.513853,1.30627391 L144.85437,12.1256652 C144.699748,12.4715783 144.458536,12.6959696 144.063265,12.6959696 L143.994668,12.6959696 C143.599397,12.6959696 143.341317,12.4715783 143.203563,12.1256652" id="Fill-33" fill="#353535"></path>
                        <path d="M152.471025,11.8667957 L152.471025,1.15083913 C152.471025,0.770447826 152.780271,0.459013043 153.141244,0.459013043 L160.620482,0.459013043 C160.964588,0.459013043 161.239535,0.735969565 161.239535,1.08131739 C161.239535,1.42723043 160.964588,1.70418696 160.620482,1.70418696 L153.828893,1.70418696 L153.828893,5.83479565 L159.846806,5.83479565 C160.19035,5.83479565 160.465859,6.1287087 160.465859,6.45653478 C160.465859,6.80244783 160.19035,7.07883913 159.846806,7.07883913 L153.828893,7.07883913 L153.828893,11.3134478 L160.706508,11.3134478 C161.050614,11.3134478 161.325561,11.5898391 161.325561,11.9357522 C161.325561,12.2811 161.050614,12.5580565 160.706508,12.5580565 L153.141244,12.5580565 C152.780271,12.5580565 152.471025,12.2466217 152.471025,11.8667957" id="Fill-35" fill="#353535"></path>
                        <path d="M169.389497,6.62971739 C171.194365,6.62971739 172.484199,5.69654348 172.484199,4.14106522 L172.484199,4.10602174 C172.484199,2.62006522 171.348988,1.72080435 169.406365,1.72080435 L165.692611,1.72080435 L165.692611,6.62971739 L169.389497,6.62971739 Z M164.334743,1.15106522 C164.334743,0.770673913 164.643988,0.45923913 165.004962,0.45923913 L169.509822,0.45923913 C170.988577,0.45923913 172.174954,0.909152174 172.931199,1.66936957 C173.515954,2.25719565 173.859497,3.1038913 173.859497,4.05402174 L173.859497,4.08906522 C173.859497,6.07636957 172.518497,7.2345 170.643909,7.59793478 L173.636278,11.4696739 C173.774033,11.6245435 173.859497,11.7799783 173.859497,11.9704565 C173.859497,12.3333261 173.515954,12.6441957 173.172411,12.6441957 C172.896339,12.6441957 172.69055,12.4887609 172.535928,12.2813261 L169.148286,7.85680435 L165.692611,7.85680435 L165.692611,11.9529348 C165.692611,12.3333261 165.383365,12.6441957 165.004962,12.6441957 C164.643988,12.6441957 164.334743,12.3333261 164.334743,11.9529348 L164.334743,1.15106522 Z" id="Fill-37" fill="#353535"></path>
                        <path d="M180.427755,7.80486087 L175.957755,1.5139913 C175.871166,1.37551304 175.80257,1.22007826 175.80257,1.04712174 C175.80257,0.683686957 176.129245,0.372817391 176.507649,0.372817391 C176.800026,0.372817391 176.989509,0.545773913 177.161,0.787686957 L181.132834,6.54329565 L185.138966,0.787686957 C185.311019,0.545773913 185.482509,0.372817391 185.774887,0.372817391 C186.153291,0.372817391 186.445668,0.683686957 186.445668,1.04712174 C186.445668,1.22007826 186.342774,1.41055652 186.256185,1.54846957 L181.803053,7.76981739 L181.803053,11.9529913 C181.803053,12.3333826 181.493808,12.6442522 181.115404,12.6442522 C180.737562,12.6442522 180.427755,12.3333826 180.427755,11.9529913 L180.427755,7.80486087 Z" id="Fill-39" fill="#353535"></path>
                        <path d="M187.425301,10.6568913 C187.889731,10.6568913 188.233274,11.0022391 188.233274,11.4691087 L188.233274,11.8150217 C188.233274,12.2813261 187.889731,12.6441957 187.425301,12.6441957 C186.944565,12.6441957 186.599897,12.2813261 186.599897,11.8150217 L186.599897,11.4691087 C186.599897,11.0022391 186.944565,10.6568913 187.425301,10.6568913" id="Fill-41" fill="#353535"></path>
                        <path d="M190.348681,6.54306957 L190.348681,6.50802609 C190.348681,3.08676522 192.892926,0.2522 196.43519,0.2522 C198.377813,0.2522 199.615918,0.89146087 200.7337,1.82463478 C200.871454,1.9455913 201.008647,2.13550435 201.008647,2.37798261 C201.008647,2.74028696 200.681971,3.05172174 200.320998,3.05172174 C200.131515,3.05172174 199.976892,2.9658087 199.873435,2.89628696 C198.945137,2.06711304 197.896515,1.51433043 196.418322,1.51433043 C193.75319,1.51433043 191.758839,3.69098261 191.758839,6.47411304 L191.758839,6.50802609 C191.758839,9.30867826 193.770058,11.5034174 196.418322,11.5034174 C197.913945,11.5034174 198.962568,10.9845478 199.994322,10.0344174 C200.097217,9.93041739 200.251839,9.84450435 200.423892,9.84450435 C200.767998,9.84450435 201.077243,10.1559391 201.077243,10.501287 C201.077243,10.7087217 200.973786,10.881113 200.854024,10.9845478 C199.667647,12.0737217 198.360945,12.7655478 196.383462,12.7655478 C192.910918,12.7655478 190.348681,10.0168957 190.348681,6.54306957" id="Fill-43" fill="#353535"></path>
                        <path d="M213.903894,6.54306957 L213.903894,6.50802609 C213.903894,3.76050435 211.908981,1.51433043 209.158385,1.51433043 C206.407226,1.51433043 204.447735,3.7265913 204.447735,6.47411304 L204.447735,6.50802609 C204.447735,9.25724348 206.442086,11.5034174 209.192683,11.5034174 C211.943841,11.5034174 213.903894,9.29115652 213.903894,6.54306957 M203.037577,6.54306957 L203.037577,6.50802609 C203.037577,3.17324348 205.530656,0.2522 209.192683,0.2522 C212.855271,0.2522 215.31349,3.1382 215.31349,6.47411304 L215.31349,6.50802609 C215.31349,9.84450435 212.820411,12.7655478 209.158385,12.7655478 C205.496358,12.7655478 203.037577,9.87841739 203.037577,6.54306957" id="Fill-45" fill="#353535"></path>
                        <path d="M218.528854,1.08131739 C218.528854,0.718447826 218.838662,0.408143478 219.199073,0.408143478 L219.354258,0.408143478 C219.646073,0.408143478 219.852424,0.563013043 219.990741,0.770447826 L224.288688,7.26875217 L228.587197,0.770447826 C228.72439,0.546056522 228.947609,0.408143478 229.223118,0.408143478 L229.377741,0.408143478 C229.738714,0.408143478 230.04796,0.718447826 230.04796,1.08131739 L230.04796,11.9527087 C230.04796,12.3331 229.738714,12.6439696 229.377741,12.6439696 C228.999337,12.6439696 228.690092,12.3161435 228.690092,11.9527087 L228.690092,2.9307087 L224.839145,8.61736087 C224.68396,8.84175217 224.512469,8.9627087 224.271258,8.9627087 C224.030609,8.9627087 223.841688,8.84175217 223.687065,8.61736087 L219.852424,2.94823043 L219.852424,11.9707957 C219.852424,12.3500565 219.560609,12.6439696 219.182205,12.6439696 C218.821231,12.6439696 218.528854,12.3500565 218.528854,11.9707957 L218.528854,1.08131739 Z" id="Fill-47" fill="#353535"></path>
                    </g>
                </g>
            </g>
        </g>
    </g>
</svg>