<?xml version="1.0" encoding="UTF-8"?>
<svg width="201px" height="310px" viewBox="0 0 201 310" version="1.1" xmlns="http://www.w3.org/2000/svg" xmlns:xlink="http://www.w3.org/1999/xlink">
    <!-- Generator: Sketch 51.3 (57544) - http://www.bohemiancoding.com/sketch -->
    <title>SHIPPING</title>
    <desc>Created with Sketch.</desc>
    <defs>
        <polygon id="path-1" points="0.930535086 0.92112125 30.4049494 0.92112125 30.4049494 26.2598166 0.930535086 26.2598166"></polygon>
        <polygon id="path-3" points="1.77684024 1.12193148 29.5717258 1.12193148 29.5717258 20.5771417 1.77684024 20.5771417"></polygon>
    </defs>
    <g id="STATIC-PAGES" stroke="none" stroke-width="1" fill="none" fill-rule="evenodd">
        <g id="HOW-IT-WORKS" transform="translate(-885.000000, -1580.000000)">
            <g id="VECTOR-DOORSTEP" transform="translate(832.000000, 1578.000000)">
                <g id="DOOR" transform="translate(53.666667, 1.788889)">
                    <path d="M5.63356252,283.74253 C5.65696402,288.028084 3.86674922,288.028084 9.25689486,289.786349 C10.2865609,290.121923 25.0841098,284.179475 29.2612776,281.994752 C33.430645,279.806533 25.2245188,278.743883 21.1526577,279.152863 C14.8966565,279.775073 5.63356252,283.74253 5.63356252,283.74253" id="Fill-1" fill="#0A1925"></path>
                    <path d="M42.7352893,88.4564063 C43.1031167,99.3984435 43.2793673,111.306404 40.2447917,111.863814 C37.2063845,112.421224 33.248409,112.321959 29.5471464,111.333129 C26.5087392,110.523739 26.378467,112.978634 26.3708039,119.846996 C26.3708039,119.846996 19.2479806,120.23642 16.9490597,115.761867 C14.6463073,111.287314 12.3933648,87.7577347 16.9490597,80.9848197 C20.2633374,76.048304 42.03795,67.8322313 42.7352893,88.4564063" id="Fill-3" fill="#FFA784"></path>
                    <path d="M5.29489114,169.433796 C-0.413476549,178.399928 -0.721931438,191.296523 0.984331682,209.990739 C2.68278582,228.681184 3.53396513,235.218124 3.53396513,235.218124 C3.53396513,235.218124 -0.600892178,241.755064 0.0745849841,256.251003 C0.750062146,270.746942 5.29489114,285.269285 5.29489114,285.269285 C6.09140756,286.457476 7.36036755,286.619674 9.33213614,285.269285 L23.2555556,183.333753 C23.2555556,183.333753 20.3623268,162.934576 5.29489114,169.433796" id="Fill-5" fill="#0F3858"></path>
                    <path d="M46.3864528,140.622447 C49.7261289,138.513502 55.6986517,136.871923 59.5955639,138.254712 C63.7916632,139.737926 63.3428825,144.330482 59.8872713,146.393077 C54.6215781,149.541044 48.6864537,151.487763 42.6279146,152.055556 C41.8649875,150.027724 40.4849869,148.262544 39.3555556,146.400802 C39.3555556,146.400802 42.0931177,143.333947 46.3864528,140.622447" id="Fill-7" fill="#EB9073"></path>
                    <path d="M37.834688,303.420308 C37.8580907,307.709357 36.0638834,307.709357 41.4582067,309.464127 C42.4879257,309.7997 57.2862355,303.857253 61.4597177,301.672529 C65.6332,299.48431 57.4227513,298.421661 53.3545812,298.830641 C47.0982584,299.45285 37.834688,303.420308 37.834688,303.420308" id="Fill-9" fill="#0A1925"></path>
                    <path d="M15.4950981,176.107545 C15.4950981,176.107545 13.1040276,183.714159 15.1177573,191.961843 C19.0331352,208.011086 32.1205101,242.613868 31.9150275,246.092891 C31.7095449,249.571914 27.9174565,261.684762 29.4716523,274.161258 C31.0258482,286.634006 37.989841,303.365557 37.989841,303.365557 C38.9014366,304.257806 40.1343323,304.4565 41.9649957,303.365557 C41.9649957,303.365557 43.2389879,261.137416 43.6798416,247.153843 C44.1244312,233.174019 46.1232167,221.364835 43.0148251,177.704597 C43.0148251,177.704597 28.0706345,169.471909 15.4950981,176.107545" id="Fill-11" fill="#08668D"></path>
                    <path d="M22.2043027,112.755265 C28.6834819,114.565397 34.8671328,119.599469 41.2079,125.026054 C50.9528549,133.356472 49.4228408,138.60395 43.9873631,143.782833 C41.3163851,149.720066 41.3949433,155.66492 42.210452,164.948039 C43.0222198,174.234969 43.2466717,177.630396 43.2466717,177.630396 C43.2466717,177.630396 19.2826867,183.742926 5.36666667,169.0256 C7.67852161,162.006098 13.1139993,158.248645 13.2973017,153.629951 C13.5329763,147.746069 8.34813655,136.66425 6.93783022,127.887968 C5.52752389,119.107875 3.67953628,110.556431 11.0153737,113.182075 C18.3512112,115.81153 22.2043027,112.755265 22.2043027,112.755265" id="Fill-13" fill="#FF4D7C"></path>
                    <path d="M39.9810691,77.4400805 C42.9925443,80.7994454 39.6121634,89.378226 36.0360366,91.7944135 C32.4561455,94.2181163 30.4422215,94.5525497 30.4422215,94.5525497 C30.4422215,94.5525497 31.116039,100.779023 29.6027727,100.177795 C28.0970351,99.5765663 28.5525208,93.8799252 27.5963774,92.2077582 C26.640234,90.5318334 22.8382466,89.1076732 22.1681934,92.9480209 C21.4981401,96.7846109 21.9423327,100.305556 26.8660947,101.33516 C26.8660947,101.33516 28.5412277,114.201452 28.5412277,120.341499 C28.5412277,126.485304 27.2048856,133.034938 23.2335027,132.324737 C19.2583554,131.618293 19.2583554,129.164529 19.2583554,129.164529 C19.2583554,129.164529 15.3434377,132.956027 9.86255284,131.509321 C4.38543232,130.055099 3.60244877,123.358915 3.60244877,123.358915 C3.60244877,123.358915 0.447928503,123.948871 0.0225576313,119.785363 C-0.406577584,115.618097 5.39427651,122.303008 8.29658573,113.89708 C11.2064236,105.49491 9.75338686,98.9302455 9.75338686,88.5778405 C9.75338686,78.2254354 14.7863148,71.5555556 23.1732732,71.5555556 C31.563996,71.5555556 36.4651719,73.5245792 39.9810691,77.4400805" id="Fill-15" fill="#1B1F3A"></path>
                    <path d="M31.6805865,130.832791 C37.4864242,128.55652 42.7353288,142.741483 46.6414903,151.383726 C50.5438372,160.029763 53.8930656,167.469376 53.8930656,167.469376 C53.8930656,167.469376 80.416055,156.110783 82.4187257,155.367201 C86.4851009,153.849687 91.9781405,151.694816 96.2161732,152.662232 C97.5627308,152.965735 100.400801,156.05767 96.1093641,159.407582 C94.3813454,160.761963 92.5388883,161.960799 90.7536504,163.235511 C90.3683747,163.512458 89.9487675,163.834929 89.8495876,164.297771 C89.6359694,165.318299 91.0016001,165.891161 92.0468035,165.948068 C93.0958215,166.004975 94.453823,166.19087 94.6521827,167.215192 C94.7742503,167.863929 94.266907,168.505079 93.6527547,168.755469 C93.0386023,169.009652 92.3481578,168.975508 91.6844155,168.926189 C89.3575028,168.763056 87.0382194,168.535429 84.7265653,168.239514 C82.8726644,168.004299 80.5571956,167.215192 78.6994801,167.624921 C77.2804448,167.939805 75.926258,169.058972 74.6178464,169.669771 C72.5083666,170.659949 70.3721845,171.597014 68.2321878,172.530285 C58.4286379,176.802087 50.9443714,181.825059 48.2283684,176.76415 C45.5123655,171.70324 35.7584055,151.224387 31.6805865,143.1588 C27.6027675,135.097006 27.6027675,132.426181 31.6805865,130.832791" id="Fill-17" fill="#FFA784"></path>
                    <path d="M153.844444,69.7666667 C153.844444,69.7666667 151.89031,85.2005365 151.613817,87.9248173 C151.34106,90.6453765 148.527556,93.5780722 143.326495,96.5144897 C138.117962,99.4434638 127.723313,106.123907 122.260705,111.036544 C117.754613,115.096914 109.471028,111.066318 114.025692,106.001091 C116.050818,103.749465 122.152349,101.092175 121.464853,99.7746947 C121.464853,99.7746947 114.459114,99.2983177 117.242727,96.6596358 C119.140816,94.8546137 124.599688,96.9945884 127.043289,96.1497636 C129.483155,95.3049388 141.054767,86.4249742 141.054767,86.4249742 L143.21814,71.1250854 L153.844444,69.7666667 Z" id="Fill-19" fill="#FFA784"></path>
                    <path d="M153.965792,46.5112301 C149.717143,46.5496672 144.846919,50.1396865 143.720771,55.7476502 C142.601936,61.355614 141.322222,73.5709045 141.322222,73.5709045 C141.322222,73.5709045 149.172351,77.2570164 154.331425,73.305689 C154.331425,73.305689 161.523415,46.4458872 153.965792,46.5112301" id="Fill-21" fill="#E0DEDF"></path>
                    <g id="Group-25" transform="translate(169.944444, 221.822222)">
                        <mask id="mask-2" fill="white">
                            <use xlink:href="#path-1"></use>
                        </mask>
                        <g id="Clip-24"></g>
                        <path d="M28.755733,0.92112125 C28.755733,0.92112125 30.9801169,7.57735319 30.2625737,9.76315181 C29.5450305,11.9489504 12.4675021,22.5282157 6.7951342,25.1055574 C1.11898975,27.682899 -1.33953988,26.1015212 3.54730704,18.7648407 C8.69095889,11.0404185 19.6882527,2.25540875 19.6882527,2.25540875 L28.755733,0.92112125 Z" id="Fill-23" fill="#0A1925" mask="url(#mask-2)"></path>
                    </g>
                    <path d="M157.608188,202.144444 C157.608188,202.144444 159.77202,208.719995 159.071525,210.880533 C158.374698,213.041071 141.790208,223.498076 136.281605,226.045632 C130.773002,228.596946 128.385451,227.033843 133.127544,219.778193 C138.122696,212.143039 148.806159,203.459555 148.806159,203.459555 L157.608188,202.144444 Z" id="Fill-26" fill="#0A1925"></path>
                    <path d="M149.84983,101.261939 C148.76529,117.385079 150.279279,140.79243 149.991767,146.303585 C149.704254,151.818504 148.477778,205.190878 148.477778,205.190878 C148.477778,205.190878 156.105953,207.122041 159.345016,203.621102 C159.850892,201.467837 161.714263,196.464883 163.286483,184.211598 C164.684011,173.324808 168.163274,165.487223 164.152659,157.87174 C164.152659,157.87174 167.184276,144.858036 170.394224,130.809108 C173.600533,116.756416 170.608949,103.697539 166.066982,101.261939 C161.525015,98.8225757 149.84983,101.261939 149.84983,101.261939" id="Fill-28" fill="#A0641C"></path>
                    <path d="M162.788889,105.765729 C162.788889,105.765729 174.089519,158.878974 175.292656,162.371682 C176.495792,165.868153 179.96496,189.101434 182.596361,201.423767 C185.227762,213.742337 187.283428,225.007072 187.283428,225.007072 C187.283428,225.007072 194.299267,226.94161 198.550842,222.225702 C198.753826,220.73528 196.941739,199.086514 196.679706,185.544744 C196.417673,172.010501 190.96296,166.571964 190.96296,166.571964 C190.96296,166.571964 191.845015,140.162125 191.737987,128.803298 C191.627269,117.448234 189.778277,110.327325 183.541156,98.3888889 L162.788889,105.765729 Z" id="Fill-30" fill="#B77825"></path>
                    <path d="M161.866213,44.7274727 C161.866213,44.7274727 157.541187,44.5056391 153.078494,46.9458092 C145.839525,50.9049758 146.722886,70.2797007 146.722886,70.2797007 L149.369144,100.922823 C149.369144,100.922823 170.986626,112.961998 184.244686,98.1781016 C183.869927,94.1286976 181.380455,84.0221071 181.518122,81.0555521 C181.724622,76.5925599 183.227483,65.0910494 185.269537,59.2218575 C187.315416,53.3564255 185.323074,51.1869677 179.139549,48.9235125 C172.948375,46.6638173 161.866213,44.7274727 161.866213,44.7274727" id="Fill-32" fill="#EAEAEA"></path>
                    <path d="M150.539384,12.4737329 C150.539384,21.1641402 149.33244,34.3508888 151.996685,36.1758743 C154.660929,38.0046383 161.984799,36.1758743 161.984799,36.1758743 L161.984799,57.2444444 C161.984799,57.2444444 172.869713,56.0391227 172.869713,48.8185278 C172.645513,40.9215924 172.869713,31.9704728 172.869713,31.9704728 C172.869713,31.9704728 177.084674,29.5144881 177.084674,23.5445561 C177.084674,17.5746241 177.974001,8.59327708 166.203497,7.69400885 C154.436729,6.79474061 151.327821,7.29349442 151.327821,7.29349442 L150.539384,12.4737329 Z" id="Fill-34" fill="#FFA784"></path>
                    <polygon id="Fill-36" fill="#BA8656" points="107.464516 121.764581 107.333333 94.8111111 130.457706 107.216909 130.588889 134.166667"></polygon>
                    <polygon id="Fill-38" fill="#E0B27E" points="107.333333 94.7808546 140.864251 75.1333333 164.577778 87.6555556 130.588889 107.333333"></polygon>
                    <polygon id="Fill-40" fill="#E0B27E" points="164.437937 87.6555556 164.577778 114.690232 130.72495 134.166667 130.588889 107.135714"></polygon>
                    <polygon id="Fill-42" fill="#FFD8A4" points="129.99978 82.2888889 152.055556 94.4601842 141.930172 100.177778 119.855556 88.0101265"></polygon>
                    <polygon id="Fill-44" fill="#FFD8A4" points="152.011795 94.8111111 152.055556 102.491753 150.265341 101.536762 150.273297 103.457848 148.479104 102.506559 148.491039 104.427645 146.700824 103.476356 146.70878 105.39374 144.918565 104.446152 144.926522 106.363537 143.140285 105.412248 143.144263 107.333333 141.354048 106.382044 141.322222 100.618787"></polygon>
                    <path d="M162.788889,57.8896566 C162.788889,57.8896566 173.483313,48.2792306 173.442551,43.8260754 L173.483313,41.1444444 C173.483313,41.1444444 175.547344,43.3841306 176.195828,44.8747579 C176.840606,46.3691304 177.1,49.6724802 177.1,49.6724802 C175.910495,52.7398765 171.660147,55.4215074 169.247788,56.0881699 L168.002699,60.8222222 L162.788889,57.8896566 Z" id="Fill-50" fill="#F2F2F2"></path>
                    <path d="M161,57.9791667 L157.422222,59.0333333 L158.837267,54.9567308 C158.837267,54.9567308 157.422222,51.3666667 158.614815,47.6439103 C159.603493,44.5514423 161,42.9333333 161,42.9333333 L161,57.9791667 Z" id="Fill-52" fill="#F2F2F2"></path>
                    <path d="M164.577778,12.5222222 C164.577778,12.5222222 165.029562,15.8471069 166.186284,17.7257413 C167.343006,19.6081032 167.91942,21.382369 167.23006,23.7082973 C166.532911,26.0342256 170.23676,22.2657744 170.23676,19.3881836 C170.23676,16.5068654 173.005883,15.6868266 175.331012,18.478686 C177.648351,21.2705455 172.581362,26.5858881 171.120854,25.3670122 C171.120854,25.3670122 169.691503,27.5848444 170.252338,30.5742587 C170.817068,33.5674004 173.185039,35.7777778 173.185039,35.7777778 C173.185039,35.7777778 174.209342,34.443351 175.926899,32.933734 C177.648351,31.4203897 179.560643,25.1470927 178.657076,19.3881836 C177.757403,13.6292746 164.577778,12.5222222 164.577778,12.5222222" id="Fill-54" fill="#1B1F3A"></path>
                    <g id="Group-58" transform="translate(148.477778, 0.000000)">
                        <mask id="mask-4" fill="white">
                            <use xlink:href="#path-3"></use>
                        </mask>
                        <g id="Clip-57"></g>
                        <path d="M29.3271836,20.5771417 C29.3271836,20.5771417 20.9357046,9.67416204 1.78485395,11.8253009 C1.78485395,11.8253009 1.25991444,7.06566389 8.70725765,2.612225 C16.1508243,-1.83733796 27.876991,4.55406389 28.9721885,10.201288 C30.067386,15.8446361 29.3271836,20.5771417 29.3271836,20.5771417" id="Fill-56" fill="#E6354B" mask="url(#mask-4)"></path>
                    </g>
                    <path d="M171.733333,12.5222222 C171.733333,12.5222222 165.425086,4.4911334 158.844764,3.74480278 C152.256668,2.99847216 140.553567,4.93393242 141.362017,5.9873656 C142.170468,7.03722781 150.344371,11.2759572 150.344371,11.2759572 C150.344371,11.2759572 154.36719,8.03709658 171.733333,12.5222222" id="Fill-59" fill="#D32A46"></path>
                    <path d="M187.833333,71.5555556 C187.833333,71.5555556 186.859943,87.5404959 186.764513,90.3566347 C186.661448,93.1727735 183.993215,96.375892 178.881964,99.7322697 C173.766895,103.084816 163.613103,110.640497 158.372066,116.050549 C154.043344,120.518056 145.336276,116.93179 149.642095,111.425951 C151.558337,108.977634 157.600989,105.839651 156.810825,104.533116 C156.810825,104.533116 149.642095,104.510127 152.298877,101.613527 C154.115871,99.6364827 159.822608,101.475594 162.261809,100.441094 C164.693375,99.4104253 175.900719,89.5175403 175.900719,89.5175403 L177.087872,73.6590388 L187.833333,71.5555556 Z" id="Fill-61" fill="#FFA784"></path>
                    <path d="M186.625793,51.1127142 C184.020892,47.9495864 176.97886,52.624531 176.167936,58.1929933 C175.357012,63.7576854 175.311111,77.6204042 175.311111,77.6204042 C175.311111,77.6204042 183.749309,80.7081297 188.874959,76.4931394 C188.874959,76.4931394 191.606089,57.1675215 186.625793,51.1127142" id="Fill-63" fill="#E0DEDF"></path>
                </g>
            </g>
        </g>
    </g>
</svg>