<?xml version="1.0" encoding="UTF-8"?>
<svg width="84px" height="62px" viewBox="0 0 84 62" version="1.1" xmlns="http://www.w3.org/2000/svg" xmlns:xlink="http://www.w3.org/1999/xlink">
    <!-- Generator: Sketch 51.3 (57544) - http://www.bohemiancoding.com/sketch -->
    <title>box-open</title>
    <desc>Created with Sketch.</desc>
    <defs></defs>
    <g id="STATIC-PAGES" stroke="none" stroke-width="1" fill="none" fill-rule="evenodd">
        <g id="FAQs" transform="translate(-145.000000, -492.000000)" fill="#00ACEE" fill-rule="nonzero">
            <g id="Group-5" transform="translate(96.000000, 452.000000)">
                <g id="box-open" transform="translate(49.000000, 40.000000)">
                    <path d="M83.7760244,15.472249 L77.0210707,1.24552988 C76.6480978,0.470533512 75.902152,0 75.100951,0 C75.0180681,0 42.0030595,4.4285507 42.0030595,4.4285507 C42.0030595,4.4285507 8.98805086,0 8.90516799,0 C8.10396694,0 7.35802114,0.484372732 6.98504824,1.24552988 L0.23009459,15.472249 C-0.377713101,16.7454573 0.271536023,18.2677716 1.55622046,18.6552698 L8.39405698,20.7173137 L8.39405698,49.9595876 C8.39405698,51.993953 9.70636904,53.7653733 11.5712335,54.249746 L39.9448016,61.7367646 C41.7405971,62.2072981 43.2186749,61.9443529 44.0198759,61.7367646 L72.4210716,54.249746 C74.2859361,53.7515341 75.5982482,51.9801138 75.5982482,49.9595876 L75.5982482,20.7173137 L82.4360847,18.6552698 C83.734583,18.2677716 84.3700183,16.7454573 83.7760244,15.472249 Z M10.0931557,4.60846057 L35.0823401,7.97139125 L27.1946539,21.7829337 L5.10636992,15.1262685 L10.0931557,4.60846057 Z M12.6072694,21.9905221 C28.7832422,26.8619278 27.705765,26.5713042 28.1339931,26.5713042 C28.8799389,26.5713042 29.5844433,26.1699668 29.97123,25.4780057 L39.9033602,8.10978346 L39.9033602,57.1559824 L12.6072694,49.9595876 L12.6072694,21.9905221 Z M71.3988496,49.9595876 L44.1027588,57.1559824 L44.1027588,8.09594424 L54.034889,25.4641665 C54.4354895,26.1561276 55.1399939,26.557465 55.8721259,26.557465 C56.300354,26.557465 55.1814353,26.8480886 71.3988496,21.9766828 L71.3988496,49.9595876 Z M56.8252789,21.7690945 L48.9375927,7.95755203 L73.9129632,4.60846057 L78.8997491,15.1262685 L56.8252789,21.7690945 Z" id="Shape"></path>
                </g>
            </g>
        </g>
    </g>
</svg>