<?xml version="1.0" encoding="UTF-8"?>
<svg width="52px" height="60px" viewBox="0 0 52 60" version="1.1" xmlns="http://www.w3.org/2000/svg" xmlns:xlink="http://www.w3.org/1999/xlink">
    <!-- Generator: Sketch 51.3 (57544) - http://www.bohemiancoding.com/sketch -->
    <title>user</title>
    <desc>Created with Sketch.</desc>
    <defs></defs>
    <g id="STATIC-PAGES" stroke="none" stroke-width="1" fill="none" fill-rule="evenodd">
        <g id="FAQs" transform="translate(-376.000000, -493.000000)" fill="#00ACEE" fill-rule="nonzero">
            <g id="Group-5" transform="translate(311.000000, 452.000000)">
                <g id="user" transform="translate(65.000000, 41.000000)">
                    <path d="M36.4,33.75 C33.06875,33.75 31.4669643,35.625 26,35.625 C20.5330357,35.625 18.9428571,33.75 15.6,33.75 C6.9875,33.75 0,40.8046875 0,49.5 L0,54.375 C0,57.4804687 2.49553571,60 5.57142857,60 L46.4285714,60 C49.5044643,60 52,57.4804687 52,54.375 L52,49.5 C52,40.8046875 45.0125,33.75 36.4,33.75 Z M48.2857143,54.375 C48.2857143,55.40625 47.45,56.25 46.4285714,56.25 L5.57142857,56.25 C4.55,56.25 3.71428571,55.40625 3.71428571,54.375 L3.71428571,49.5 C3.71428571,42.8789062 9.04196429,37.5 15.6,37.5 C17.875,37.5 20.1383929,39.375 26,39.375 C31.85,39.375 34.125,37.5 36.4,37.5 C42.9580357,37.5 48.2857143,42.8789062 48.2857143,49.5 L48.2857143,54.375 Z M26,30 C34.20625,30 40.8571429,23.2851562 40.8571429,15 C40.8571429,6.71484375 34.20625,0 26,0 C17.79375,0 11.1428571,6.71484375 11.1428571,15 C11.1428571,23.2851562 17.79375,30 26,30 Z M26,3.75 C32.1401786,3.75 37.1428571,8.80078125 37.1428571,15 C37.1428571,21.1992187 32.1401786,26.25 26,26.25 C19.8598214,26.25 14.8571429,21.1992187 14.8571429,15 C14.8571429,8.80078125 19.8598214,3.75 26,3.75 Z" id="Shape"></path>
                </g>
            </g>
        </g>
    </g>
</svg>