<?xml version="1.0" encoding="UTF-8"?>
<svg width="98px" height="98px" viewBox="0 0 98 98" version="1.1" xmlns="http://www.w3.org/2000/svg" xmlns:xlink="http://www.w3.org/1999/xlink">
    <!-- Generator: Sketch 51.3 (57544) - http://www.bohemiancoding.com/sketch -->
    <title>conversation</title>
    <desc>Created with Sketch.</desc>
    <defs></defs>
    <g id="STATIC-PAGES" stroke="none" stroke-width="1" fill="none" fill-rule="evenodd">
        <g id="MOBILE---FAQs" transform="translate(-111.000000, -1653.000000)" fill="#002C3D" fill-rule="nonzero">
            <g id="conversation" transform="translate(111.000000, 1653.000000)">
                <path d="M34.8244259,69.9547021 C34.6858718,69.9149095 34.5440598,69.892502 34.4012896,69.8847753 C36.5004904,67.6608314 37.7932791,64.6564885 37.7932791,61.3517694 L37.7932791,51.1890046 C37.7932791,51.0960908 37.7844638,51.0054949 37.7720073,50.9162513 C37.7846554,50.7327416 37.7932791,50.548073 37.7932791,50.3614726 L37.7932791,43.9316806 C37.7932791,42.8648134 36.9353166,42 35.8769009,42 L23.0231769,42 C17.6103665,42 13.2069125,46.4388088 13.2069125,51.8946475 L13.2069125,61.3517694 C13.2069125,64.6564885 14.4995096,67.6608314 16.598902,69.8847753 C16.4563235,69.892502 16.3145115,69.9149095 16.176149,69.9547021 C7.11992019,70.7812682 0,78.4753452 0,87.8154072 L0,96.0683194 C0,97.1351866 0.857962552,98 1.91637827,98 L49.0836217,98 C50.1420374,98 51,97.1351866 51,96.0683194 L51,87.8154072 C51,78.4755384 43.8804631,70.7814614 34.8244259,69.9547021 Z M17.039669,54.3442117 L17.039669,51.8944544 C17.039669,48.568873 19.7239401,45.863168 23.0231769,45.863168 L33.9605226,45.863168 L33.9605226,50.3612795 C33.9605226,52.6257886 32.1328727,54.4680324 29.8863024,54.4680324 L17.039669,54.4680324 L17.039669,54.3442117 Z M17.039669,58.3313936 L29.8863024,58.3313936 C31.3757116,58.3313936 32.7698768,57.9137643 33.9605226,57.1889977 L33.9605226,61.3515762 C33.9605226,66.0538663 30.1651354,69.8795597 25.5000958,69.8795597 C20.8350562,69.8795597 17.039669,66.0538663 17.039669,61.3515762 L17.039669,58.3313936 Z M29.6710931,73.7431141 L25.5000958,77.9476101 L21.3290985,73.7431141 L29.6710931,73.7431141 Z M47.1674351,94.1366388 L3.83275654,94.1366388 L3.83275654,90.2732776 L11.7857264,90.2732776 C12.8441421,90.2732776 13.7021046,89.4084642 13.7021046,88.341597 C13.7021046,87.2747298 12.8441421,86.4099164 11.7857264,86.4099164 L3.90270435,86.4099164 C4.54641581,79.8970621 9.61466142,74.6813313 16.0247551,73.8599808 L24.1450247,82.0450909 C24.5043457,82.4072811 24.9918723,82.6108802 25.5000958,82.6108802 C26.0083193,82.6108802 26.495846,82.4072811 26.8551669,82.0450909 L34.9754365,73.8599808 C41.8406701,74.7394749 47.1674351,80.6602691 47.1674351,87.8154072 L47.1674351,94.1366388 Z" id="Shape"></path>
                <path d="M81.82487,27.9548953 C81.6863164,27.9151026 81.5443133,27.8926951 81.401352,27.8849684 C83.5005449,25.6610245 84.7931371,22.6566817 84.7931371,19.3519626 L84.7931371,9.1890046 C84.7931371,9.09609076 84.7843218,9.00549494 84.7718654,8.9162513 C84.7845135,8.73274164 84.7931371,8.54807298 84.7931371,8.36147263 L84.7931371,1.9316806 C84.7931371,0.864813403 83.9351778,0 82.8767661,0 L70.0230904,0 C64.6103003,0 60.2068629,4.43880884 60.2068629,9.89464752 L60.2068629,19.3517694 C60.2068629,22.6564885 61.4994551,25.6608314 63.598648,27.8847753 C63.4558784,27.892502 63.3136836,27.9149095 63.17513,27.9547021 C54.1193185,28.7816546 47,36.4757315 47,45.8154072 L47,54.0681262 C47,55.1349934 47.8579593,55.9998068 48.9163711,55.9998068 L64.3354927,55.9998068 C65.3939044,55.9998068 66.2518638,55.1349934 66.2518638,54.0681262 C66.2518638,53.001259 65.3939044,52.1364456 64.3354927,52.1364456 L50.8327421,52.1364456 L50.8327421,45.8156004 C50.8327421,38.6604623 56.1592955,32.7396681 63.0245032,31.8601739 L71.1447424,40.0452841 C71.5190096,40.4225413 72.009409,40.6110734 72.4998084,40.6110734 C72.9902077,40.6110734 73.4807987,40.4225413 73.8548743,40.0452841 L81.9751135,31.8601739 C88.8407045,32.7398613 94.1672579,38.6604623 94.1672579,45.8156004 L94.1672579,52.1366388 L80.0499271,52.1366388 C78.9915154,52.1366388 78.133556,53.0014522 78.133556,54.0683194 C78.133556,55.1351866 78.9915154,56 80.0499271,56 L96.0836289,56 C97.1420407,56 98,55.1351866 98,54.0683194 L98,45.8156004 C98,36.4759247 90.8804898,28.7818477 81.82487,27.9548953 Z M72.5001916,35.9476101 L68.32921,31.7433072 L76.6711733,31.7433072 L72.5001916,35.9476101 Z M80.9605866,19.3517694 C80.9605866,24.0540595 77.1652137,27.8797529 72.5001916,27.8797529 C67.8351695,27.8797529 64.0397966,24.0542526 64.0397966,19.3519626 L64.0397966,16.3315868 L76.8863817,16.3315868 C78.3757853,16.3315868 79.7699453,15.9137643 80.9605866,15.1891909 L80.9605866,19.3517694 Z M80.9605866,8.36147263 C80.9605866,10.6259818 79.1329435,12.4682256 76.8863817,12.4682256 L64.0397966,12.4682256 L64.0397966,12.3444049 L64.0397966,9.89464752 C64.0397966,6.5690662 66.7240576,3.86336119 70.023282,3.86336119 L80.9605866,3.86336119 L80.9605866,8.36147263 Z" id="Shape"></path>
                <path d="M73.414,52.586 C73.042,52.214 72.526,52 72,52 C71.472,52 70.958,52.214 70.586,52.586 C70.212,52.958 70,53.474 70,54 C70,54.528 70.212,55.042 70.586,55.414 C70.958,55.788 71.472,56 72,56 C72.526,56 73.042,55.788 73.414,55.414 C73.786,55.042 74,54.528 74,54 C74,53.474 73.786,52.958 73.414,52.586 Z" id="Shape"></path>
                <path d="M51.4366784,26.7949149 L43.3922016,18.7866383 L43.3922016,9.57446809 C43.3922016,4.29510638 39.0776798,0 33.7744535,0 L9.61774807,0 C4.31452178,0 0,4.29510638 0,9.57446809 L0,26.4255319 C0,31.7048936 4.31452178,36 9.61774807,36 L33.7742612,36 C37.7510076,36 41.2187829,33.6241915 42.6737558,30.0638298 L50.0763442,30.0638298 C50.8542276,30.0638298 51.5557462,29.5971702 51.8535116,28.881766 C52.1512771,28.1663617 51.9866213,27.3425745 51.4366784,26.7949149 Z M41.2705264,26.2340426 C40.3743446,26.2340426 39.5968459,26.8500638 39.3958349,27.719617 C38.7903015,30.3399574 36.4787719,32.1702128 33.7742612,32.1702128 L9.61774807,32.1702128 C6.4358123,32.1702128 3.84709923,29.5931489 3.84709923,26.4255319 L3.84709923,9.57446809 C3.84709923,6.40685106 6.4358123,3.82978723 9.61774807,3.82978723 L33.7742612,3.82978723 C36.9561969,3.82978723 39.54491,6.40685106 39.54491,9.57446809 L39.54491,19.5797872 C39.54491,20.087617 39.7476521,20.574766 40.1083177,20.9338085 L45.4325107,26.2340426 L41.2705264,26.2340426 Z" id="Shape"></path>
                <path d="M88.3822519,62 L64.2257388,62 C60.2489924,62 56.7812171,64.3758085 55.3262442,67.9361702 L47.9236558,67.9361702 C47.1457724,67.9361702 46.4442538,68.4028298 46.1464884,69.118234 C45.8487229,69.8336383 46.0133787,70.6574255 46.5633216,71.2050851 L54.6077984,79.2133617 L54.6077984,88.4255319 C54.6077984,93.7048936 58.9223202,98 64.2255465,98 L88.3822519,98 C93.6854782,98 98,93.7048936 98,88.4255319 L98,71.5744681 C98,66.2951064 93.6854782,62 88.3822519,62 Z M94.1529008,88.4255319 C94.1529008,91.5931489 91.5641877,94.1702128 88.3822519,94.1702128 L64.2257388,94.1702128 C61.0438031,94.1702128 58.45509,91.5931489 58.45509,88.4255319 L58.45509,78.4202128 C58.45509,77.912383 58.2523479,77.425234 57.8916823,77.0661915 L52.5674893,71.7659574 L56.7294736,71.7659574 C57.6256554,71.7659574 58.4031541,71.1499362 58.6041651,70.280383 C59.2096985,67.6600426 61.5212281,65.8297872 64.2257388,65.8297872 L88.3822519,65.8297872 C91.5641877,65.8297872 94.1529008,68.4068511 94.1529008,71.5744681 L94.1529008,88.4255319 Z" id="Shape"></path>
                <path d="M84.438979,74.545851 C83.6911426,73.8180497 82.478207,73.8180497 81.730179,74.545851 L76.6380335,79.5003052 L74.2702041,77.1965017 C73.5221761,76.4687003 72.3092405,76.4687003 71.561021,77.1965017 C70.812993,77.9243031 70.812993,79.1044409 71.561021,79.8324286 L75.2833462,83.4541024 C75.657456,83.8180963 76.147649,84 76.637842,84 C77.128035,84 77.6184195,83.8180963 77.9923377,83.4541024 L84.438979,77.1817779 C85.187007,76.4539766 85.187007,75.2738388 84.438979,74.545851 Z" id="Shape"></path>
                <path d="M29.9839915,12.3841215 C29.7624018,8.98831328 27.1711901,6.25099122 23.9566404,6.01690681 C22.1338686,5.88441742 20.3963958,6.53399174 19.0653581,7.84660718 C17.7528799,9.14080481 17,10.9707032 17,12.8667473 C17.0001875,13.9607255 17.8394911,14.8473549 18.8748884,14.8473549 C19.9102858,14.8473549 20.7495894,13.9607255 20.7495894,12.8669454 C20.7495894,12.052799 21.0600399,11.298263 21.6239499,10.742164 C22.1869226,10.1868571 22.9246175,9.91118412 23.6990565,9.968616 C25.0561525,10.0674384 26.1500405,11.2230074 26.2435881,12.6566259 C26.3382605,14.1060876 25.438779,15.3870165 24.1049292,15.7022977 C22.6449121,16.047285 21.6252622,17.3882203 21.6252622,18.963042 L21.6252622,20.0195905 C21.6252622,21.1133707 22.4645659,22 23.4999632,22 C24.5353606,22 25.3746642,21.1133707 25.3746642,20.0195905 L25.3746642,19.4432913 C28.2793259,18.527946 30.1962076,15.6351618 29.9839915,12.3841215 Z" id="Shape"></path>
                <path d="M25.414,25.586 C25.042,25.214 24.526,25 24,25 C23.472,25 22.958,25.214 22.586,25.586 C22.212,25.958 22,26.474 22,27 C22,27.526 22.212,28.042 22.586,28.414 C22.958,28.786 23.472,29 24,29 C24.526,29 25.042,28.786 25.414,28.414 C25.786,28.042 26,27.526 26,27 C26,26.474 25.786,25.958 25.414,25.586 Z" id="Shape"></path>
                <path d="M20.414,86.586 C20.042,86.214 19.526,86 19,86 C18.474,86 17.958,86.214 17.586,86.586 C17.214,86.958 17,87.474 17,88 C17,88.526 17.214,89.042 17.586,89.414 C17.958,89.786 18.474,90 19,90 C19.526,90 20.042,89.786 20.414,89.414 C20.786,89.042 21,88.526 21,88 C21,87.474 20.786,86.958 20.414,86.586 Z" id="Shape"></path>
            </g>
        </g>
    </g>
</svg>