<?xml version="1.0" encoding="UTF-8"?>
<svg width="79px" height="47px" viewBox="0 0 79 47" version="1.1" xmlns="http://www.w3.org/2000/svg" xmlns:xlink="http://www.w3.org/1999/xlink">
    <!-- Generator: Sketch 51.3 (57544) - http://www.bohemiancoding.com/sketch -->
    <title>money-bill</title>
    <desc>Created with Sketch.</desc>
    <defs></defs>
    <g id="STATIC-PAGES" stroke="none" stroke-width="1" fill="none" fill-rule="evenodd">
        <g id="FAQs" transform="translate(-575.000000, -495.000000)" fill="#00ACEE" fill-rule="nonzero">
            <g id="Group-5" transform="translate(523.000000, 452.000000)">
                <g id="money-bill" transform="translate(52.000000, 43.000000)">
                    <path d="M75.05,0 L3.95,0 C1.76885938,0 0,1.75393229 0,3.91666667 L0,43.0833333 C0,45.2460677 1.76885938,47 3.95,47 L75.05,47 C77.2311406,47 79,45.2460677 79,43.0833333 L79,3.91666667 C79,1.75393229 77.2311406,0 75.05,0 Z M3.95,3.91666667 L11.85,3.91666667 C11.85,8.23723958 8.304875,11.75 3.95,11.75 L3.95,3.91666667 Z M75.05,31.3333333 C68.5152187,31.3333333 63.2,36.6036979 63.2,43.0833333 L67.15,43.0833333 C67.15,38.7627604 70.695125,35.25 75.05,35.25 L75.05,43.0833333 L3.95,43.0833333 L3.95,35.25 C8.304875,35.25 11.85,38.7627604 11.85,43.0833333 L15.8,43.0833333 C15.8,36.6036979 10.4847812,31.3333333 3.95,31.3333333 L3.95,15.6666667 C10.4847812,15.6666667 15.8,10.3963021 15.8,3.91666667 L63.2,3.91666667 C63.2,10.3963021 68.5152187,15.6666667 75.05,15.6666667 L75.05,31.3333333 Z M75.05,11.75 C70.695125,11.75 67.15,8.23723958 67.15,3.91666667 L75.05,3.91666667 L75.05,11.75 Z M39.5,9.79166667 C32.9553437,9.79166667 27.65,15.9285938 27.65,23.5 C27.65,31.0701823 32.9553437,37.2083333 39.5,37.2083333 C46.0421875,37.2083333 51.35,31.0726302 51.35,23.5 C51.35,15.9285938 46.0446562,9.79166667 39.5,9.79166667 Z M39.5,33.2916667 C35.1438906,33.2916667 31.6,28.8988802 31.6,23.5 C31.6,18.1011198 35.1438906,13.7083333 39.5,13.7083333 C43.8561094,13.7083333 47.4,18.1011198 47.4,23.5 C47.4,28.8988802 43.8561094,33.2916667 39.5,33.2916667 Z" id="Shape"></path>
                </g>
            </g>
        </g>
    </g>
</svg>