<?xml version="1.0" encoding="UTF-8"?>
<svg width="66px" height="66px" viewBox="0 0 66 66" version="1.1" xmlns="http://www.w3.org/2000/svg" xmlns:xlink="http://www.w3.org/1999/xlink">
    <!-- Generator: Sketch 51.3 (57544) - http://www.bohemiancoding.com/sketch -->
    <title>undo</title>
    <desc>Created with Sketch.</desc>
    <defs></defs>
    <g id="STATIC-PAGES" stroke="none" stroke-width="1" fill="none" fill-rule="evenodd">
        <g id="FAQs" transform="translate(-1219.000000, -485.000000)" fill="#00ACEE" fill-rule="nonzero">
            <g id="Group-5" transform="translate(1161.000000, 452.000000)">
                <g id="undo" transform="translate(58.000000, 33.000000)">
                    <path d="M1.59677321,3.15354795e-05 L2.92741755,3.15354795e-05 C3.80923555,3.15354795e-05 4.52419076,0.714986839 4.52419076,1.59680497 L4.52419076,16.31706 C10.2720421,6.52644374 20.9229185,-0.0378918335 33.1054997,0.000164599932 C51.2537587,0.0569831212 66.028302,14.9044478 65.9999593,33.0527093 C65.9714835,51.2539304 51.2077184,66 32.9999796,66 C24.4937026,66 16.7392397,62.7815701 10.8875981,57.496117 C10.2072397,56.8816253 10.1751711,55.8246944 10.8234611,55.1764044 L11.7640936,54.2357718 C12.3632827,53.6365825 13.3274676,53.6085059 13.9572616,54.1753605 C18.999206,58.7131244 25.6727866,61.4758086 32.9999796,61.4758086 C48.6675184,61.4758086 61.4757685,48.7906413 61.4757685,33.0000158 C61.4757685,17.3324749 48.790603,4.52422292 32.9999796,4.52422292 C21.9739945,4.52422292 12.4099883,10.7884982 7.67928155,19.9596994 L22.8870827,19.9596994 C23.7689007,19.9596994 24.4838559,20.6746547 24.4838559,21.5564728 L24.4838559,22.8871174 C24.4838559,23.7689355 23.7689007,24.4838908 22.8870827,24.4838908 L1.59677321,24.4838908 C0.714955204,24.4838908 0,23.7689355 0,22.8871174 L0,1.59680497 C0,0.714986839 0.714955204,3.15354795e-05 1.59677321,3.15354795e-05 Z" id="Shape"></path>
                </g>
            </g>
        </g>
    </g>
</svg>