<?xml version="1.0" encoding="UTF-8"?>
<svg width="82px" height="82px" viewBox="0 0 82 82" version="1.1" xmlns="http://www.w3.org/2000/svg" xmlns:xlink="http://www.w3.org/1999/xlink">
    <!-- Generator: Sketch 51.3 (57544) - http://www.bohemiancoding.com/sketch -->
    <title>door</title>
    <desc>Created with Sketch.</desc>
    <defs></defs>
    <g id="STATIC-PAGES" stroke="none" stroke-width="1" fill="none" fill-rule="evenodd">
        <g id="HOMEPAGE" transform="translate(-845.000000, -2328.000000)" fill="#002C3D" fill-rule="nonzero">
            <g id="FEATURES" transform="translate(0.000000, 2036.000000)">
                <g id="TABS">
                    <g transform="translate(95.000000, 279.000000)">
                        <g id="US-CANADA" transform="translate(668.000000, 13.000000)">
                            <g id="door" transform="translate(82.000000, 0.000000)">
                                <path d="M60.1614528,38.2667084 C58.3156561,38.27359 56.4773704,38.5157013 54.6922867,38.986786 L54.6922867,2.73329159 C54.6922867,1.22369385 53.4680146,0 51.9577037,0 L5.469166,0 C3.95885501,0 2.734583,1.22369385 2.734583,2.73329159 L2.734583,73.8001251 C1.22427201,73.8001251 0,75.0238189 0,76.5334168 L0,80.6330414 C0,81.3881532 0.612135926,82 1.36760443,82 L56.0598912,82 C56.3440525,81.9949951 56.6200769,81.8992768 56.8460291,81.7266083 C64.9552663,82.9603119 73.0732663,79.5526123 77.8708353,72.9023742 C82.6684044,66.2515107 83.3374979,57.4766998 79.6045948,50.1758271 C75.8716918,42.8749542 68.3645759,38.2767182 60.1614528,38.2667084 Z M49.2231207,41.2252197 L49.2231207,8.19987492 L51.9577037,8.19987492 L51.9577037,39.8764038 C51.0163411,40.2624054 50.1025185,40.7128448 49.2231207,41.2252197 Z M39.8952444,68.3335419 L16.4074983,68.3335419 L16.4074983,51.9331665 L39.8996258,51.9225312 C37.749013,57.1814117 37.749013,63.0740356 39.8996258,68.3335419 L39.8952444,68.3335419 Z M41.2340573,49.2192687 C41.1558189,49.2123871 41.0919766,49.1998749 41.0193715,49.1998749 L16.4074983,49.1998749 C14.8971872,49.1998749 13.6729152,50.4235688 13.6729152,51.9331665 L13.6729152,68.3335419 C13.6729152,69.8431396 14.8971872,71.0668335 16.4074983,71.0668335 L41.0193715,71.0668335 C41.0919766,71.0668335 41.1558189,71.0543213 41.2340573,71.0474395 C41.7886099,72.011505 42.4163935,72.9317779 43.1111492,73.8001251 L10.9383322,73.8001251 L10.9383322,8.19987492 L46.4885375,8.19987492 L46.4885375,43.0907899 C44.3736015,44.7918243 42.5922731,46.870102 41.2340573,49.2192687 Z M51.9577037,2.73329159 L51.9577037,5.46658317 L5.469166,5.46658317 L5.469166,2.73329159 L51.9577037,2.73329159 Z M5.469166,8.19987492 L8.20374916,8.19987492 L8.20374916,73.8001251 L5.469166,73.8001251 L5.469166,8.19987492 Z M2.734583,79.2667084 L2.734583,76.5334168 L45.74058,76.5334168 C46.9229163,77.5806885 48.2147861,78.4972076 49.593657,79.2667084 L2.734583,79.2667084 Z M60.1614528,79.2667084 C52.4196223,79.2667084 45.4395193,74.6052856 42.4764805,67.455185 C39.5134417,60.3057099 41.1514377,52.0764312 46.626237,46.6042176 C52.1010361,41.1320038 60.3342028,39.4947814 67.4870559,42.4564209 C74.6405348,45.4180604 79.30416,52.394867 79.30416,60.1330414 C79.2928936,70.6958466 70.7292487,79.2554473 60.1614528,79.2667084 Z" id="Shape"></path>
                                <path d="M59.4996853,43 C50.3875335,43 43,50.3875335 43,59.4996853 C43,68.6124663 50.3875335,76 59.4996853,76 C68.6124663,76 76,68.6124663 76,59.4996853 C75.9899292,50.3913102 68.6086898,43.0100708 59.4996853,43 Z M60.8749737,73.179557 L60.8749737,71.8747639 C60.8749737,71.1156803 60.2593985,70.5001048 59.4996853,70.5001048 C58.7406015,70.5001048 58.1250263,71.1156803 58.1250263,71.8747639 L58.1250263,73.179557 C51.6230902,72.5180338 46.4819661,67.3769096 45.8204428,60.8749737 L47.1252361,60.8749737 C47.8843197,60.8749737 48.4998952,60.2593985 48.4998952,59.4996853 C48.4998952,58.7406015 47.8843197,58.1250263 47.1252361,58.1250263 L45.8204428,58.1250263 C46.4819661,51.6230902 51.6230902,46.4819661 58.1250263,45.8204428 L58.1250263,47.1252361 C58.1250263,47.8843197 58.7406015,48.4998952 59.4996853,48.4998952 C60.2593985,48.4998952 60.8749737,47.8843197 60.8749737,47.1252361 L60.8749737,45.8204428 C67.3769096,46.4819661 72.5180338,51.6230902 73.179557,58.1250263 L71.8747639,58.1250263 C71.1156803,58.1250263 70.5001048,58.7406015 70.5001048,59.4996853 C70.5001048,60.2593985 71.1156803,60.8749737 71.8747639,60.8749737 L73.179557,60.8749737 C72.5180338,67.3769096 67.3769096,72.5180338 60.8749737,73.179557 Z" id="Shape"></path>
                                <path d="M60.575921,59.4556766 L60.575921,53.3349711 C60.575921,52.5975295 59.9993016,52 59.2876657,52 C58.5766195,52 58,52.5975295 58,53.3349711 L58,60.0079942 C58,60.3623573 58.1356057,60.7014461 58.3773379,60.9519441 L64.8174353,67.6255781 C65.3227145,68.130851 66.1257367,68.1241303 66.6227616,67.6090819 C67.1197865,67.0940334 67.126272,66.2618913 66.6386806,65.7382892 L60.575921,59.4556766 Z" id="Shape"></path>
                                <path d="M17.0000001,39 C14.7906623,39 13,40.7907988 13,43.0003052 C13,45.2092012 14.7906623,47 17.0000001,47 C19.2087275,47 21,45.2092012 21,43.0003052 C21,40.7907988 19.2087275,39 17.0000001,39 Z M17.0000001,44.3333333 C16.2633507,44.3333333 15.6664633,43.7364005 15.6664633,43.0003052 C15.6664633,42.2635995 16.2633507,41.6666667 17.0000001,41.6666667 C17.7360391,41.6666667 18.3329265,42.2635995 18.3329265,43.0003052 C18.3329265,43.7364005 17.7360391,44.3333333 17.0000001,44.3333333 Z" id="Shape"></path>
                                <path d="M15.7998719,36 L24.2001281,36 C25.7464982,36 27,34.7564212 27,33.2222928 L27,13.7777071 C27,12.2435787 25.7464982,11 24.2001281,11 L15.7998719,11 C14.2535018,11 13,12.2435787 13,13.7777071 L13,33.2222928 C13,34.7564212 14.2535018,36 15.7998719,36 Z M15.7998719,13.7777071 L24.2001281,13.7777071 L24.2001281,33.2222928 L15.7998719,33.2222928 L15.7998719,13.7777071 Z" id="Shape"></path>
                                <path d="M40.4,11 L32.6,11 C31.1640192,11 30,12.2435787 30,13.7777071 L30,33.2222928 C30,34.7564212 31.1640192,36 32.6,36 L40.4,36 C41.8359808,36 43,34.7564212 43,33.2222928 L43,13.7777071 C43,12.2435787 41.8359808,11 40.4,11 Z M32.6,33.2222928 L32.6,13.7777071 L40.4,13.7777071 L40.4,33.2222928 L32.6,33.2222928 Z" id="Shape"></path>
                                <path d="M31.6663615,41 L26.3330281,41 C25.596933,41 25,41.6715495 25,42.5003433 C25,43.3284505 25.596933,44 26.3330281,44 L31.6663615,44 C32.4030671,44 33,43.3284505 33,42.5003433 C33,41.6715495 32.4030671,41 31.6663615,41 Z" id="Shape"></path>
                            </g>
                        </g>
                    </g>
                </g>
            </g>
        </g>
    </g>
</svg>