<?xml version="1.0" encoding="UTF-8"?>
<svg width="96px" height="78px" viewBox="0 0 96 78" version="1.1" xmlns="http://www.w3.org/2000/svg" xmlns:xlink="http://www.w3.org/1999/xlink">
    <!-- Generator: Sketch 51.3 (57544) - http://www.bohemiancoding.com/sketch -->
    <title>worldwide</title>
    <desc>Created with Sketch.</desc>
    <defs></defs>
    <g id="STATIC-PAGES" stroke="none" stroke-width="1" fill="none" fill-rule="evenodd">
        <g id="HOMEPAGE" transform="translate(-511.000000, -2330.000000)" fill="#002C3D" fill-rule="nonzero">
            <g id="FEATURES" transform="translate(0.000000, 2036.000000)">
                <g id="TABS">
                    <g transform="translate(95.000000, 279.000000)">
                        <g id="US-CANADA" transform="translate(342.000000, 15.000000)">
                            <g id="worldwide" transform="translate(74.000000, 0.000000)">
                                <path d="M84.5831507,11.4393538 C71.2448779,-1.90239293 50.3288546,-3.7973506 34.8485874,6.93355722 C33.9979738,7.5232829 33.7862106,8.69111219 34.3759618,9.5421467 C34.9655257,10.3929938 36.1330345,10.6044402 36.983648,10.0150894 C40.5824986,7.52028366 44.5070523,5.78278611 48.5560403,4.78028995 C47.81768,5.69393361 47.1094913,6.73392027 46.4363465,7.89931269 C43.7518259,12.5477607 41.7571287,18.9065256 40.6681409,26.287844 C40.5169082,27.3118972 41.2245348,28.2647185 42.2484943,28.4159927 C43.2713295,28.5657672 44.2248262,27.8594461 44.3760589,26.8352054 C44.6043135,25.288722 44.8781065,23.7817911 45.1925655,22.3265971 L68.857388,22.3265971 C69.8352469,26.8672598 70.4028848,31.8937995 70.5121397,37.1353473 L65.2641595,37.1353473 C64.2293306,37.1353473 63.3901485,37.9745723 63.3901485,39.0098727 C63.3901485,40.0449856 64.2293306,40.884398 65.2641595,40.884398 L70.5121397,40.884398 C70.4028848,46.1259458 69.8352469,51.1524856 68.857388,55.6931483 L59.581971,55.6931483 C58.5471421,55.6931483 57.70796,56.5325608 57.70796,57.5676737 C57.70796,58.6027866 58.5471421,59.442199 59.581971,59.442199 L67.9245054,59.442199 C67.409902,61.2494289 66.8240862,62.9554344 66.1685571,64.5365966 C63.7939979,70.265146 60.751916,73.7245826 57.7255757,74.1939637 C57.260821,74.2038987 56.7958789,74.2055858 56.3309368,74.1973379 C51.0430402,73.4016019 46.0304358,63.5584692 44.2379443,50.2043506 C44.1002045,49.178048 43.1573896,48.4580428 42.1311812,48.5960079 C41.1053477,48.7337855 40.3855401,49.6774216 40.5232799,50.7033493 C41.5481764,58.3386659 43.5286312,64.9399944 46.2506321,69.7937029 C46.965942,71.0693174 47.7221054,72.2000311 48.5125632,73.185844 C44.0825888,72.1006813 39.81734,70.1446141 35.9943577,67.2928986 C35.1645456,66.6744927 33.9906652,66.8450745 33.3718668,67.6751144 C32.7530684,68.5049667 32.9241656,69.6793569 33.7539776,70.2983251 C40.4715572,75.3089314 48.6439314,77.9986878 57.0181366,78 C57.0190736,78 57.0200106,78 57.0209476,78 C57.021135,78 57.0215098,78 57.0218846,78 C57.0226342,78 57.0233838,78 57.0243208,78 C57.912602,78 58.8035068,77.9696327 59.6949738,77.9087106 C69.0832063,77.2666857 77.9221662,73.2433919 84.5837129,66.5800167 C91.9455774,59.2155689 96,49.4243606 96,39.0096852 C96,28.5950098 91.9455774,18.8038016 84.5831507,11.4393538 Z M92.2019421,37.1351599 L74.2607237,37.1351599 C74.1561539,31.9344767 73.6156891,26.9180595 72.6829939,22.3264096 L88.0714346,22.3264096 C90.5121464,26.8573248 91.9288987,31.889863 92.2019421,37.1351599 Z M46.1258229,18.5773589 C47.0944992,15.1692844 48.3011748,12.1649826 49.6817587,9.77458785 C51.9183907,5.90163102 54.5245777,3.76860862 57.0203854,3.76860862 C60.2747928,3.76860862 63.609033,7.30939956 66.1681823,13.4829614 C66.8237114,15.0641235 67.4095272,16.770129 67.9241306,18.5773589 L46.1258229,18.5773589 Z M69.6306049,12.0470749 C68.414934,9.11438002 67.0184211,6.68105866 65.4862298,4.7872257 C71.5415339,6.2883456 77.2531443,9.40943031 81.9329244,14.090495 C83.3354342,15.4933898 84.60339,16.9948846 85.7339808,18.5773589 L71.8097048,18.5773589 C71.1914686,16.2452619 70.463228,14.0554414 69.6306049,12.0470749 Z M81.932737,63.928688 C77.2958718,68.5670135 71.595318,71.6596055 65.5475099,73.1562265 C67.0557139,71.2734532 68.4310505,68.8656254 69.6306049,65.9721081 C70.463228,63.9635542 71.1914686,61.7739211 71.8097048,59.4418241 L85.7339808,59.4418241 C84.6035774,61.0244859 83.3356216,62.5259807 81.932737,63.928688 Z M72.6831813,55.6929609 C73.6158765,51.101311 74.1563413,46.0848937 74.2609111,40.8842106 L92.2021295,40.8842106 C91.9290861,46.1295074 90.5125212,51.1620456 88.071622,55.6929609 L72.6831813,55.6929609 Z" id="Shape"></path>
                                <path d="M53.414,56.586 C53.042,56.214 52.526,56 52,56 C51.4722,56 50.9582,56.2138 50.586,56.586 C50.212,56.958 50,57.474 50,58 C50,58.526 50.212,59.042 50.586,59.4138 C50.958,59.7858 51.474,60 52,60 C52.526,60 53.042,59.786 53.414,59.4138 C53.7858,59.042 54,58.526 54,58 C54,57.474 53.7858,56.958 53.414,56.586 Z" id="Shape"></path>
                                <path d="M58.6124381,37.8482655 C55.6635758,34.0013894 51.0078532,31.7048676 46.1587842,31.7048676 L39.3371679,31.7048676 L32.4520423,15.1568041 C32.1606134,14.4564504 31.4762909,14 30.7171853,14 L23.6219904,14 C22.5844208,14 21.743016,14.8406123 21.743016,15.877624 L21.743016,31.7048676 L14.8860751,31.7048676 L10.0858594,25.9578361 C9.72885425,25.5304889 9.20029877,25.2833935 8.64318288,25.2833935 L1.87906323,25.2833935 C1.20977258,25.2833935 0.591026333,25.6392033 0.254502033,26.2173237 C-0.0818343706,26.7956319 -0.085028627,27.5089412 0.246234546,28.0900659 L6.45774785,38.9900486 L0.246234546,49.8900313 C-0.085028627,50.4711559 -0.0818343706,51.1846531 0.254502033,51.7627735 C0.590838436,52.3410817 1.20958468,52.6968914 1.87906323,52.6968914 L8.64337078,52.6968914 C9.20048667,52.6968914 9.72885425,52.4499839 10.0858594,52.0224489 L14.8864509,46.2754174 L21.7433918,46.2754174 L21.7433918,62.122376 C21.7433918,63.1592 22.5847965,64 23.6223662,64 L30.7175611,64 C31.4768546,64 32.1617408,63.5431741 32.4527939,62.8424448 L39.3381074,46.2754174 L46.1589721,46.2754174 L46.1589721,46.2752296 C51.008229,46.2752296 55.6637637,43.9787077 58.612626,40.1318317 C59.129156,39.4581403 59.129156,38.5219569 58.6124381,37.8482655 Z M25.5011526,17.755248 L29.4637215,17.755248 L35.2676853,31.7048676 L25.5011526,31.7048676 L25.5011526,17.755248 Z M29.4631578,60.2445643 L25.5011526,60.2445643 L25.5011526,46.2637761 L35.2735101,46.2637761 L29.4631578,60.2445643 Z M46.15916,42.5199817 L14.2987077,42.5199817 C14.1792049,42.502332 14.0568837,42.4965114 13.9353141,42.5017687 C13.4097649,42.5267411 12.9186011,42.7706445 12.5815131,43.1741459 L7.7641987,48.9414557 L5.11127486,48.9414557 L10.2527123,39.9190969 C10.5809691,39.3432297 10.5809691,38.6368675 10.2527123,38.0610002 L5.11127486,29.0386415 L7.7641987,29.0386415 L12.5815131,34.8059513 C12.9195405,35.210767 13.4123955,35.4548582 13.9396357,35.4785162 C14.0604537,35.4837736 14.1814597,35.4775774 14.300023,35.4601155 L46.1589721,35.4601155 C49.3378208,35.4601155 52.4073133,36.7579292 54.6303278,38.9900486 C52.4073133,41.222168 49.3378208,42.5199817 46.15916,42.5199817 Z" id="Shape"></path>
                                <path d="M3.4138,14.586 C3.042,14.214 2.526,14 2,14 C1.474,14 0.958,14.214 0.586,14.586 C0.214,14.958 0,15.474 0,16 C0,16.526 0.2138,17.042 0.586,17.414 C0.958,17.788 1.474,18 2,18 C2.526,18 3.042,17.788 3.4138,17.414 C3.7858,17.042 4,16.528 4,16 C3.9998,15.474 3.7858,14.958 3.4138,14.586 Z" id="Shape"></path>
                                <path d="M17.08,14 L8.92,14 C7.859776,14 7,14.8954 7,16 C7,17.1046 7.859584,18 8.92,18 L17.08,18 C18.140224,18 19,17.1046 19,16 C19,14.8954 18.140416,14 17.08,14 Z" id="Shape"></path>
                                <path d="M15.1644191,60 L3.8355809,60 C2.82197313,60 2,60.8956 2,62 C2,63.1044 2.82197313,64 3.8355809,64 L15.1644191,64 C16.1780269,64 17,63.1044 17,62 C17,60.8956 16.1780269,60 15.1644191,60 Z" id="Shape"></path>
                            </g>
                        </g>
                    </g>
                </g>
            </g>
        </g>
    </g>
</svg>