<?xml version="1.0" encoding="UTF-8"?>
<svg width="88px" height="89px" viewBox="0 0 88 89" version="1.1" xmlns="http://www.w3.org/2000/svg" xmlns:xlink="http://www.w3.org/1999/xlink">
    <!-- Generator: Sketch 51.3 (57544) - http://www.bohemiancoding.com/sketch -->
    <title>money (1)</title>
    <desc>Created with Sketch.</desc>
    <defs></defs>
    <g id="STATIC-PAGES" stroke="none" stroke-width="1" fill="none" fill-rule="evenodd">
        <g id="HOMEPAGE" transform="translate(-205.000000, -2315.000000)" fill="#002C3D" fill-rule="nonzero">
            <g id="FEATURES" transform="translate(0.000000, 2036.000000)">
                <g id="TABS">
                    <g transform="translate(95.000000, 279.000000)">
                        <g id="US-CANADA" transform="translate(31.000000, 0.000000)">
                            <g id="money-(1)" transform="translate(79.000000, 0.000000)">
                                <path d="M37,3.40321739 L38.5759103,6 C44.3398388,2.18424075 51.6601612,2.18424075 57.4240897,6 L59,3.40321739 C52.2952676,-1.1344058 43.7047324,-1.1344058 37,3.40321739 Z" id="Shape"></path>
                                <path d="M30.7359925,21 L28.0000227,21 C27.9961127,23.7465207 28.497475,26.4663203 29.474721,29 L32,27.8539618 C31.1621163,25.6836148 30.7324016,23.3533123 30.7359925,21 Z" id="Shape"></path>
                                <path d="M54.8503528,37 C52.6812105,37.8378237 50.3520238,38.2671698 48,38.2630645 L48,40.9999665 C50.7465652,41.004722 53.46658,40.5037041 56,39.5261291 L54.8503528,37 Z" id="Shape"></path>
                                <path d="M66.263066,21 C66.2668292,23.3529521 65.8373115,25.6830672 65,27.8533234 L67.526132,29 C68.5035371,26.46658 69.0045556,23.7465652 68.9999688,21 L66.263066,21 Z" id="Shape"></path>
                                <path d="M48.5,6 C40.4918313,6 34,12.4918312 34,20.5 C34,28.5081687 40.4918313,35 48.5,35 C56.5045438,34.9911187 62.9913,28.5045437 63,20.5 C63,12.4920125 56.5081688,6 48.5,6 Z M48.5,32.1 C42.0935375,32.1 36.9,26.9064625 36.9,20.5 C36.9,14.0935375 42.0935375,8.9 48.5,8.9 C54.9064625,8.9 60.1,14.0935375 60.1,20.5 C60.09275,26.9035625 54.9035625,32.0929313 48.5,32.1 Z" id="Shape"></path>
                                <path d="M52.3,19.0480833 L50.5,18.4814167 L50.5,14.84625 C51.3355,15.1216146 51.9225625,15.8340208 52,16.6666667 L55,16.6666667 C54.8659375,14.2758646 52.99825,12.2907604 50.5,11.884 L50.5,11 L47.5,11 L47.5,11.884 C45.00175,12.2907604 43.1340625,14.2758646 43,16.6666667 C43.058875,18.1959583 44.146,19.5187708 45.7,19.9519167 L47.5,20.5185833 L47.5,24.1509167 C46.6654375,23.8759063 46.0785625,23.1649167 46,22.3333333 L43,22.3333333 C43.1340625,24.7241354 45.00175,26.7092396 47.5,27.116 L47.5,28 L50.5,28 L50.5,27.116 C52.99825,26.7092396 54.8659375,24.7241354 55,22.3333333 C54.941125,20.8040417 53.854,19.4814063 52.3,19.0480833 Z M47.5,17.5379167 L46.645,17.2659167 C46.2655,17.1455 46,16.899 46,16.6666667 C46.0774375,15.8340208 46.6645,15.1216146 47.5,14.84625 L47.5,17.5379167 Z M50.5,24.15375 L50.5,21.4620833 L51.355,21.7340833 C51.7345,21.8545 52,22.101 52,22.3333333 C51.9225625,23.1659792 51.3355,23.8783854 50.5,24.15375 Z" id="Shape"></path>
                                <path d="M87.5705859,60.3777791 L82.740835,55.5950638 L87.5705859,50.8123484 C88.143138,50.2451907 88.143138,49.3258288 87.5705859,48.7586711 L68.5038498,29.8776206 C67.9311143,29.3106445 67.0027109,29.3106445 66.4299755,29.8776206 L47.6668405,48.4580267 L27.4370334,28.4252321 C26.8642979,27.858256 25.9358946,27.858256 25.3631591,28.4252321 L6.29642296,47.3062826 C5.72387087,47.8734403 5.72387087,48.7928022 6.29642296,49.3599599 L16.992862,59.9522292 L2.60533286e-15,59.9522292 L2.60533286e-15,62.8570062 L19.0667362,62.8570062 C19.2654702,62.8575509 19.4621876,62.8174287 19.644605,62.7393628 L29.634108,58.4998407 L51.3335205,58.4998407 L51.3335205,64.3093947 L35.2001283,64.3093947 C34.3901587,64.3093947 33.7334563,64.9595201 33.7334563,65.7617832 C33.7334563,66.3283963 34.0662075,66.843268 34.5855928,67.080552 L53.6523289,75.794883 C54.132114,76.0109258 54.6920161,75.9555535 55.119001,75.6496441 L80.5202936,57.4976927 L84.382041,61.3218316 L55.1908679,86.0952222 L47.1960387,86.0952222 L19.5742047,76.0185508 C19.4117708,75.9591844 19.2399868,75.9286843 19.0667362,75.9285027 L0,75.9285027 L0,78.8332797 L18.8042019,78.8332797 L46.4260359,88.9099511 C46.5884699,88.969499 46.7602538,88.9998177 46.9335044,88.9999992 L55.7335365,88.9999992 C56.0835211,89.0003623 56.4217724,88.8761831 56.6868733,88.6499736 L87.4869856,62.5069806 C88.1020712,61.9850285 88.1735715,61.0682083 87.6464862,60.4591128 C87.6222861,60.4311544 87.596986,60.4039221 87.5705859,60.3777791 Z M29.3334403,55.5950638 C29.1347062,55.5945191 28.9379888,55.6344598 28.7555715,55.7127072 L28.3991702,55.8579461 C29.8473255,52.1365636 34.0678575,50.2822266 37.8258379,51.7162787 C39.6551446,52.4143329 41.1234666,53.8124384 41.8998861,55.5950638 L29.3334403,55.5950638 Z M45.0341642,55.5950638 C43.7500928,51.2792913 39.7435116,48.320776 35.2001283,48.3331213 C30.0099427,48.3639845 25.6484268,52.2026473 25.0082245,57.3030726 L20.4278078,59.2463684 L9.4072343,48.3331213 L26.4000963,31.5057481 L50.7263183,55.5950638 L45.0341642,55.5950638 Z M54.1040639,72.8015103 L41.877886,67.2141717 L52.8001925,67.2141717 C53.6101621,67.2141717 54.2668645,66.5638648 54.2668645,65.7617832 L54.2668645,59.1011296 L62.2308936,66.9875991 L54.1040639,72.8015103 Z M54.4047317,55.1302994 C54.9602337,52.0299946 57.6871437,49.7744353 60.8668886,49.7855098 C64.5038685,49.778974 67.4575626,52.6931915 67.464346,56.2947519 C67.4702127,59.4460719 65.1994377,62.1506008 62.0695596,62.7204817 L54.4047317,55.1302994 Z M64.4499683,65.0748035 C65.0384705,64.8384273 65.6009392,64.5435924 66.1302244,64.19629 L64.639169,65.2621616 L64.4499683,65.0748035 Z M79.7150906,54.4839866 L66.7907768,63.7284393 C70.9082752,60.4790832 71.5862443,54.5393589 68.304749,50.4619597 C65.0234371,46.3845605 59.0252985,45.713194 54.9078002,48.9627317 C53.6334455,49.9683292 52.6406919,51.2807437 52.0241397,52.7745253 L49.7405313,50.511704 L67.4667293,32.9581366 L84.4595913,49.7855098 L79.7150906,54.4839866 Z" id="Shape"></path>
                            </g>
                        </g>
                    </g>
                </g>
            </g>
        </g>
    </g>
</svg>