<?xml version="1.0" encoding="UTF-8"?>
<svg width="64px" height="78px" viewBox="0 0 64 78" version="1.1" xmlns="http://www.w3.org/2000/svg" xmlns:xlink="http://www.w3.org/1999/xlink">
    <!-- Generator: Sketch 51.3 (57544) - http://www.bohemiancoding.com/sketch -->
    <title>shield</title>
    <desc>Created with Sketch.</desc>
    <defs></defs>
    <g id="STATIC-PAGES" stroke="none" stroke-width="1" fill="none" fill-rule="evenodd">
        <g id="HOMEPAGE" transform="translate(-1154.000000, -2330.000000)" fill="#002C3D" fill-rule="nonzero">
            <g id="FEATURES" transform="translate(0.000000, 2036.000000)">
                <g id="TABS">
                    <g transform="translate(95.000000, 279.000000)">
                        <g id="US-CANADA" transform="translate(968.000000, 15.000000)">
                            <g id="shield" transform="translate(91.000000, 0.000000)">
                                <path d="M32.5,7 C31.6684685,7 31,7.66971772 31,8.50010763 C31,9.2729859 31.5813814,9.91612514 32.3498498,9.99240689 C33.2394895,10.0807015 34,9.38770885 34,8.50010763 C34,7.66851643 33.3303303,7 32.5,7 Z" id="Shape"></path>
                                <path d="M62.4761905,9.140625 C58.2750476,9.140625 54.8571429,5.72355469 54.8571429,1.5234375 C54.8571429,0.682195312 54.174781,0 53.3333333,0 L10.6666667,0 C9.82521905,0 9.14285714,0.682195312 9.14285714,1.5234375 C9.14285714,5.72355469 5.72495238,9.140625 1.52380952,9.140625 C0.682361905,9.140625 0,9.82282031 0,10.6640625 L0,35.5250391 C0,54.8996602 12.631619,72.2604492 31.5623619,77.9358633 C31.7051429,77.9785195 31.8524952,78 32,78 C32.1475048,78 32.2951619,77.9785195 32.4377905,77.9357109 C50.9584762,72.3814102 64,55.3234805 64,35.5250391 L64,10.6640625 C64,9.82282031 63.3176381,9.140625 62.4761905,9.140625 Z M60.952381,35.5250391 C60.952381,53.7221953 49.3377524,69.4812422 32,74.8835039 C14.8004571,69.5243555 3.04761905,53.6225625 3.04761905,35.5250391 L3.04761905,12.0790313 C7.71215238,11.4090234 11.4118095,7.71026953 12.081981,3.046875 L51.918019,3.046875 C52.5881905,7.71026953 56.2878476,11.4090234 60.952381,12.0790313 L60.952381,35.5250391 Z" id="Shape"></path>
                                <path d="M57.0841882,15.0579351 C53.8947529,13.6558943 51.3689294,11.1206153 49.9721176,7.91924015 C49.7283294,7.36075724 49.1786588,7 48.5711765,7 L38.1145882,7 C37.2700471,7 36.5851765,7.68743444 36.5851765,8.5351372 C36.5851765,9.38283996 37.2700471,10.0702744 38.1145882,10.0702744 L47.6041294,10.0702744 C49.2199529,13.2450916 51.7782,15.8127621 54.9411765,17.4347881 L54.9411765,36.6573155 C54.9411765,51.6806287 45.9560353,64.6433272 32,69.8322444 C18.0439647,64.6431736 9.05882353,51.6806287 9.05882353,36.6573155 L9.05882353,17.4347881 C12.2218,15.8127621 14.7798941,13.2450916 16.3958706,10.0702744 L25.8854118,10.0702744 C26.7299529,10.0702744 27.4148235,9.38283996 27.4148235,8.5351372 C27.4148235,7.68743444 26.7299529,7 25.8854118,7 L15.4288235,7 C14.8213412,7 14.2716706,7.36091076 14.0278824,7.91924015 C12.6310706,11.1206153 10.1052471,13.6558943 6.91581176,15.0579351 C6.35956471,15.302636 6,15.8545178 6,16.4641208 L6,36.6573155 C6,53.1159819 16.1416824,67.4603039 31.4897882,72.9120366 C31.6548118,72.9706789 31.8273294,73 32,73 C32.1726706,73 32.3451882,72.9706789 32.5102118,72.9120366 C47.8454706,67.4649093 58,53.1293376 58,36.6573155 L58,16.4641208 C58,15.8543643 57.6404353,15.302636 57.0841882,15.0579351 Z" id="Shape"></path>
                                <path d="M33,22 C25.2804,22 19,28.2804 19,36 C19,43.7196 25.2804,50 33,50 C40.7196,50 47,43.7196 47,36 C47,28.2804 40.7196,22 33,22 Z M33,46.8888889 C26.9958667,46.8888889 22.1111111,42.0041333 22.1111111,36 C22.1111111,29.9958667 26.9958667,25.1111111 33,25.1111111 C39.0041333,25.1111111 43.8888889,29.9958667 43.8888889,36 C43.8888889,42.0041333 39.0041333,46.8888889 33,46.8888889 Z" id="Shape"></path>
                                <path d="M40.5118777,32.4182857 C39.8608813,31.8605714 38.8058872,31.8605714 38.1547241,32.4182857 L31.0000972,38.551 L28.8452759,36.7041429 C28.1942795,36.1464286 27.1392853,36.1464286 26.4881223,36.7041429 C25.8372926,37.262 25.8372926,38.1665714 26.4881223,38.7245714 L29.8214371,41.5817143 C30.147102,41.8604286 30.5734329,42 31.0000972,42 C31.4267615,42 31.8530925,41.8604286 32.1785907,41.5815714 L40.5118777,34.4387143 C41.1627074,33.8808571 41.1627074,32.9762857 40.5118777,32.4182857 Z" id="Shape"></path>
                            </g>
                        </g>
                    </g>
                </g>
            </g>
        </g>
    </g>
</svg>