<?xml version="1.0" encoding="UTF-8"?>
<svg width="53px" height="71px" viewBox="0 0 53 71" version="1.1" xmlns="http://www.w3.org/2000/svg" xmlns:xlink="http://www.w3.org/1999/xlink">
    <!-- Generator: Sketch 51.3 (57544) - http://www.bohemiancoding.com/sketch -->
    <title>map-marker-alt</title>
    <desc>Created with Sketch.</desc>
    <defs></defs>
    <g id="STATIC-PAGES" stroke="none" stroke-width="1" fill="none" fill-rule="evenodd">
        <g id="HOMEPAGE" transform="translate(-266.000000, -1645.000000)" fill="#00ACEE" fill-rule="nonzero">
            <g id="FAQs" transform="translate(201.000000, 1491.000000)">
                <g id="Group-5" transform="translate(0.000000, 121.000000)">
                    <g id="map-marker-alt" transform="translate(65.000000, 33.000000)">
                        <path d="M26.5,13.3125065 C19.1938672,13.3125065 13.25,19.2844137 13.25,26.625013 C13.25,33.9656123 19.1938672,39.9375195 26.5,39.9375195 C33.8061328,39.9375195 39.75,33.9656123 39.75,26.625013 C39.75,19.2844137 33.8061328,13.3125065 26.5,13.3125065 Z M26.5,35.5000173 C21.6292448,35.5000173 17.6666667,31.5187459 17.6666667,26.625013 C17.6666667,21.7312801 21.6292448,17.7500087 26.5,17.7500087 C31.3707552,17.7500087 35.3333333,21.7312801 35.3333333,26.625013 C35.3333333,31.5187459 31.3707552,35.5000173 26.5,35.5000173 Z M26.5,0 C11.8644089,0 0,11.9203789 0,26.625013 C0,37.3600241 3.72242188,40.3578342 23.7765729,69.5675535 C25.0924635,71.4773435 27.9073984,71.4776208 29.2235651,69.5675535 C49.2775781,40.3578342 53,37.3600241 53,26.625013 C53,11.9203789 41.1355911,0 26.5,0 Z M26.5,65.7209325 C7.27438802,37.7864403 4.41666667,35.5685213 4.41666667,26.625013 C4.41666667,20.6984515 6.7137474,15.1267515 10.884737,10.9360854 C15.0557266,6.74541931 20.6012656,4.43750217 26.5,4.43750217 C32.3987344,4.43750217 37.9442734,6.74541931 42.115263,10.9360854 C46.2862526,15.1267515 48.5833333,20.6984515 48.5833333,26.625013 C48.5833333,35.5679666 45.7274062,37.7839442 26.5,65.7209325 Z" id="Shape"></path>
                    </g>
                </g>
            </g>
        </g>
    </g>
</svg>