<?xml version="1.0" encoding="UTF-8"?>
<svg width="125px" height="92px" viewBox="0 0 125 92" version="1.1" xmlns="http://www.w3.org/2000/svg" xmlns:xlink="http://www.w3.org/1999/xlink">
    <!-- Generator: Sketch 51.3 (57544) - http://www.bohemiancoding.com/sketch -->
    <title>delivery</title>
    <desc>Created with Sketch.</desc>
    <defs></defs>
    <g id="STATIC-PAGES" stroke="none" stroke-width="1" fill="none" fill-rule="evenodd">
        <g id="HOMEPAGE" transform="translate(-126.000000, -3653.000000)" fill="#002C3D" fill-rule="nonzero">
            <g id="PARTNER" transform="translate(96.000000, 3594.000000)">
                <g id="delivery" transform="translate(30.000000, 59.000000)">
                    <path d="M101.196196,29.4139041 L93.3265364,29.4139041 L95.6976394,2.00315821 C95.702034,1.95350329 95.7027664,1.90458581 95.7030106,1.85566834 C95.7030106,1.85148946 95.7034988,1.8475564 95.7034988,1.84337752 C95.7034988,1.84264007 95.7034988,1.84214844 95.7034988,1.84141099 C95.7034988,1.09535808 95.2564756,0.437799088 94.5994906,0.151914563 C94.5938754,0.149456398 94.5885043,0.146506601 94.582889,0.144048437 C94.5421174,0.126841285 94.4998809,0.112092299 94.4574002,0.0978349449 C94.441531,0.0926727996 94.4263942,0.086281572 94.410525,0.0813652432 C94.3758569,0.070795136 94.3402123,0.0624373769 94.3048117,0.0538338014 C94.2799093,0.0479342067 94.2559834,0.0408055298 94.2308368,0.0358892009 C94.1998309,0.0297437898 94.1676042,0.0258107267 94.1358658,0.0211402142 C94.1060805,0.0167155182 94.0767835,0.0115533729 94.0467541,0.00884939201 C94.0416271,0.00835775912 94.0369884,0.00737449334 94.0318615,0.00688286045 C93.9996348,0.00393306311 93.9678964,0.004424696 93.9359138,0.00319561378 C93.9144294,0.00245816445 93.8934332,1.04797853e-14 93.8719487,1.04797853e-14 L93.8489994,1.04797853e-14 C93.8470463,1.04797853e-14 93.8450931,1.04797853e-14 93.8433842,1.04797853e-14 L56.3991461,1.04797853e-14 C55.3884,1.04797853e-14 54.5680843,0.825943254 54.5680843,1.84362333 C54.5680843,2.85884525 55.3884,3.68724667 56.3991461,3.68724667 L91.8760913,3.68724667 L88.2320341,45.8140399 C88.2315458,45.8172355 88.2315458,45.8204311 88.2310575,45.8236267 L87.3116204,56.4529756 L23.6861277,56.4529756 L24.7503408,45.3917272 L36.8648901,45.3917272 C37.8763687,45.3917272 38.6959519,44.5662756 38.6959519,43.5481039 C38.6959519,42.5299322 37.8763687,41.7044805 36.8648901,41.7044805 L25.1053227,41.7044805 L27.3524018,18.3531474 L46.6334829,18.3531474 C47.6449615,18.3531474 48.4645448,17.5276958 48.4645448,16.5095241 C48.4645448,15.4913523 47.6449615,14.6659007 46.6334829,14.6659007 L27.7073836,14.6659007 L28.7640284,3.68724667 L49.0748987,3.68724667 C50.0832035,3.68724667 50.9059606,2.85884525 50.9059606,1.84362333 C50.9059606,0.825943254 50.0832035,0 49.0748987,0 L27.1021566,0 C27.1011801,0 27.1004477,0.000245816445 27.0994711,0.000245816445 C26.2393603,0 25.4932636,0.609624783 25.312843,1.45474172 C25.3116223,1.46088713 25.309425,1.46678672 25.3082043,1.47293214 C25.2989269,1.51889981 25.2928234,1.56585075 25.2867199,1.61304751 C25.2850109,1.62804231 25.281837,1.64229967 25.2803722,1.65729447 C25.280128,1.66024427 25.2793956,1.66294825 25.2791515,1.66589804 L24.02817,14.6659007 L1.83106184,14.6659007 C0.81958328,14.6659007 0,15.4913523 0,16.5095241 C0,17.5276958 0.81958328,18.3531474 1.83106184,18.3531474 L23.6731882,18.3531474 L21.4261091,41.7044805 L14.8931246,41.7044805 C13.881646,41.7044805 13.0620627,42.5299322 13.0620627,43.5481039 C13.0620627,44.5662756 13.881646,45.3917272 14.8931246,45.3917272 L21.0713714,45.3917272 L19.8477338,58.1055995 C19.8474896,58.1075661 19.8474896,58.1095326 19.8472455,58.1112533 L17.9553924,77.7714067 C17.9551483,77.7736191 17.9549041,77.7760773 17.95466,77.7780438 L17.9539276,77.7851725 C17.9514861,77.8107374 17.9517303,77.8358106 17.9502654,77.8613756 C17.9485564,77.8952982 17.9451385,77.9284834 17.9451385,77.9628977 C17.9451385,77.9643726 17.9453826,77.9658475 17.9453826,77.9675683 C17.9453826,78.0150108 17.9488006,78.061716 17.9522186,78.1084211 C17.9536834,78.1234159 17.9531951,78.1386565 17.9549041,78.1534055 C17.959787,78.2010939 17.9678436,78.2480448 17.9763886,78.2947499 C17.97883,78.3085157 17.9800507,78.3225272 17.9827363,78.3360471 C17.9898164,78.3714447 17.9998262,78.4056132 18.0091036,78.4402733 C18.0154512,78.4646091 18.0205782,78.4894366 18.0279025,78.5132808 C18.0300997,78.5199178 18.0330294,78.526309 18.0349826,78.5331919 C18.123606,78.8075231 18.2739972,79.0538311 18.470287,79.254909 C18.4739491,79.2585962 18.4768788,79.2627751 18.4805409,79.2662165 C18.5000723,79.2858819 18.5213126,79.3035806 18.5418205,79.3222627 C18.6680417,79.4387797 18.8106204,79.5375979 18.9666268,79.6150301 C18.9990977,79.631254 19.0310802,79.6482153 19.0642835,79.6622268 C19.0742933,79.6666515 19.0850355,79.6696013 19.0952894,79.6735344 C19.1411881,79.6919706 19.1873308,79.7096694 19.2349384,79.7246642 C19.239333,79.7258933 19.2434834,79.7266307 19.2478779,79.7281056 C19.3020774,79.7443295 19.3567651,79.7585869 19.4126735,79.7701402 C19.4199977,79.7716151 19.4275661,79.7721068 19.4346462,79.7735817 C19.4878691,79.7836602 19.5413361,79.7922637 19.5957797,79.7976717 C19.5970004,79.7976717 19.5979769,79.7979175 19.5991977,79.7981633 C19.6592565,79.8040629 19.718827,79.8070127 19.7779093,79.8070127 C19.7786417,79.8070127 19.7796183,79.8067669 19.7805948,79.8067669 L27.9319939,79.8067669 C28.8321439,86.678074 34.6829968,92 41.7496748,92 C48.8158645,92 54.6667174,86.678074 55.5668674,79.8067669 L84.9368552,79.8067669 C85.8372494,86.678074 91.6878582,92 98.754292,92 C105.820482,92 111.671823,86.678074 112.572217,79.8067669 L120.725569,79.8067669 C120.72679,79.8067669 120.728255,79.8070127 120.729476,79.8070127 C120.790511,79.8070127 120.85057,79.8033255 120.91014,79.7974259 C120.920883,79.7964426 120.931136,79.7942303 120.941879,79.7930012 C120.989486,79.7873474 121.03685,79.7807104 121.083237,79.7713693 C121.103256,79.7674363 121.122543,79.7620283 121.142319,79.7573578 C121.178208,79.749 121.214341,79.7401506 121.249497,79.7295805 C121.273423,79.7224519 121.296616,79.7140941 121.320054,79.7059822 C121.350083,79.6956579 121.380113,79.6848419 121.409654,79.6727969 C121.435045,79.6627185 121.459215,79.6516567 121.483873,79.640595 C121.510729,79.6280583 121.537584,79.6152759 121.563707,79.601756 C121.58861,79.5889735 121.612536,79.5756994 121.636461,79.5619337 C121.661608,79.5471847 121.68651,79.5319441 121.711169,79.5162119 C121.734118,79.5014629 121.757067,79.4864681 121.77904,79.4707358 C121.803943,79.4532829 121.827624,79.4348466 121.851794,79.4161646 C121.871814,79.4001865 121.892078,79.3844542 121.911609,79.3677387 C121.936756,79.3463527 121.960437,79.3239834 121.984363,79.3011225 C122.000965,79.2851444 122.018299,79.2694122 122.034412,79.2526966 C122.059803,79.2266401 122.083973,79.1991086 122.108143,79.1713314 C122.121083,79.1563366 122.13451,79.1418334 122.146962,79.1265928 C122.173817,79.0931618 122.198231,79.0587475 122.222645,79.0240873 C122.230946,79.0120423 122.240224,79.0007348 122.24828,78.988444 C122.278066,78.9434595 122.306142,78.8972461 122.332021,78.8495577 C122.333974,78.8466079 122.335927,78.8439039 122.337148,78.8407083 C122.364736,78.7895785 122.390127,78.7372195 122.412832,78.6831399 C122.419179,78.6676535 122.424062,78.6516754 122.430166,78.636189 C122.445058,78.5980874 122.459707,78.5599859 122.472158,78.5204094 C122.480215,78.4948445 122.486074,78.4685422 122.493154,78.4427314 C122.501211,78.4120044 122.509756,78.3815232 122.516592,78.3503045 C122.522695,78.3225272 122.526602,78.2940125 122.53124,78.2657436 C122.535391,78.2409161 122.540762,78.2165803 122.543936,78.1912612 C122.621573,77.5649209 124.055416,65.9822959 124.6958,58.4927604 C124.696532,58.4856318 124.696776,58.4782573 124.697509,58.4711286 C124.881835,56.3121228 125,54.4940643 125,53.3810075 C125,40.1656696 114.321736,29.4139041 101.196196,29.4139041 Z M93.0074434,33.1016424 L100.498439,33.1016424 L99.5416486,44.1623992 L92.0506525,44.1623992 L93.0074434,33.1016424 Z M41.7501631,88.3125075 C36.0819281,88.3125075 31.4705819,83.6695265 31.4705819,77.9626519 C31.4705819,72.2557774 36.0821722,67.6127963 41.7501631,67.6127963 C47.418154,67.6127963 52.0295001,72.2557774 52.0295001,77.9626519 C52.0295001,83.6695265 47.418154,88.3125075 41.7501631,88.3125075 Z M98.754292,88.3125075 C93.0863011,88.3125075 88.4751991,83.6695265 88.4751991,77.9626519 C88.4751991,72.2557774 93.0865453,67.6127963 98.754292,67.6127963 C104.422527,67.6127963 109.033873,72.2557774 109.033873,77.9626519 C109.033873,83.6695265 104.422527,88.3125075 98.754292,88.3125075 Z M119.107643,76.1182911 L112.572705,76.1182911 C111.6728,69.2464924 105.821702,63.9243206 98.7547803,63.9243206 C91.6883464,63.9243206 85.8372494,69.2467383 84.9373435,76.1182911 L55.5675999,76.1182911 C54.667694,69.2464924 48.8168411,63.9243206 41.7501631,63.9243206 C34.6834851,63.9243206 28.8321439,69.2467383 27.932238,76.1182911 L21.7935422,76.1182911 L23.33139,60.139239 L88.9896054,60.139239 L88.9896054,60.1402223 C88.990582,60.1402223 88.9913144,60.1402223 88.992291,60.1402223 C89.0535705,60.1402223 89.1143618,60.1367808 89.1744206,60.1306354 C89.1856511,60.1296521 89.1966375,60.127194 89.207868,60.1257191 C89.2557197,60.1200653 89.3033274,60.1131824 89.3502025,60.1038414 C89.3704663,60.0996625 89.3902418,60.0940088 89.4102614,60.0890924 C89.4468826,60.080243 89.4835038,60.0716395 89.5191485,60.0608235 C89.5435627,60.053449 89.5667561,60.0445997 89.5904379,60.0362419 C89.6211997,60.025426 89.6519615,60.0148559 89.6817468,60.002565 C89.7073817,59.9919949 89.73204,59.9801957 89.7569424,59.9683966 C89.7840421,59.9558599 89.8111418,59.9433233 89.837265,59.9295576 C89.8621674,59.9162835 89.8865816,59.9020261 89.9112399,59.8877688 C89.9363865,59.8730198 89.9612889,59.858025 89.9857031,59.8422927 C90.0093848,59.8268063 90.0318458,59.8105824 90.054551,59.7943585 C90.078721,59.7771514 90.1021586,59.7594526 90.1255962,59.7410163 C90.1465924,59.724055 90.1673444,59.706602 90.1878523,59.6886574 C90.2110457,59.6685005 90.2337509,59.6478519 90.2557237,59.6264659 C90.2742784,59.6085213 90.2928332,59.590085 90.3108997,59.5711572 C90.3328724,59.5480504 90.3541127,59.5242062 90.3751089,59.4998704 C90.3914664,59.4806967 90.4075797,59.461523 90.4232048,59.4418577 C90.4434685,59.416047 90.4627557,59.3894988 90.4817988,59.3627048 C90.4962031,59.3425479 90.5101192,59.3223909 90.5237911,59.3017424 C90.5416134,59.2739651 90.5587034,59.2454504 90.5750608,59.2164441 C90.5875121,59.1948122 90.6002074,59.1731804 90.6114379,59.1510569 C90.6268189,59.1220505 90.6400025,59.0925526 90.6539186,59.0628088 C90.6646608,59.0389646 90.6756472,59.015612 90.6854128,58.9910304 C90.6973758,58.962024 90.7073856,58.9322802 90.7178837,58.9025365 C90.7269169,58.8762341 90.7364384,58.8499317 90.7444951,58.8228919 C90.7525518,58.7943772 90.7591436,58.7651251 90.7664678,58.7361187 C90.7735479,58.7068666 90.7813605,58.6778602 90.7869757,58.6481164 C90.792591,58.6191101 90.796009,58.5896121 90.8004035,58.5601141 C90.8047981,58.5296329 90.809925,58.4996433 90.8128547,58.4686704 C90.813343,58.4642457 90.8143196,58.4600669 90.8145637,58.4556422 L91.7322919,47.8486626 L101.195708,47.8486626 C106.805837,47.8486626 109.33612,50.7753532 112.014598,53.8741153 C114.224811,56.4308521 116.69235,59.2835519 120.886703,59.9794583 C120.353986,65.6504437 119.492898,72.9305435 119.107643,76.1182911 Z M121.199692,56.2848371 C118.478734,55.7263422 116.804655,53.8003703 114.776571,51.4542982 C112.240185,48.5204789 109.143737,44.9401624 103.207923,44.2730166 L104.155192,33.3223856 C113.863238,34.7680321 121.337876,43.2113353 121.337876,53.3814991 C121.337876,54.0724891 121.286607,55.0764035 121.199692,56.2848371 Z" id="Shape"></path>
                    <path d="M41.5,71 C37.9160182,71 35,73.9157818 35,77.5 C35,81.0842182 37.9160182,84 41.5,84 C45.0839818,84 48,81.0842182 48,77.5 C48,73.9160182 45.0839818,71 41.5,71 Z M41.5,80.4545455 C39.8707455,80.4545455 38.5454545,79.1292545 38.5454545,77.5 C38.5454545,75.8707455 39.8707455,74.5454545 41.5,74.5454545 C43.1292545,74.5454545 44.4545455,75.8707455 44.4545455,77.5 C44.4545455,79.1292545 43.1290182,80.4545455 41.5,80.4545455 Z" id="Shape"></path>
                    <path d="M98.5,71 C94.9160182,71 92,73.9157818 92,77.5 C92,81.0842182 94.9160182,84 98.5,84 C102.083982,84 105,81.0842182 105,77.5 C105,73.9160182 102.083982,71 98.5,71 Z M98.5,80.4545455 C96.8707455,80.4545455 95.5454545,79.1292545 95.5454545,77.5 C95.5454545,75.8707455 96.8707455,74.5454545 98.5,74.5454545 C100.129255,74.5454545 101.454545,75.8707455 101.454545,77.5 C101.454545,79.1292545 100.129255,80.4545455 98.5,80.4545455 Z" id="Shape"></path>
                    <path d="M18.1128789,29 L8.88712112,29 C7.84467542,29 7,29.8954667 7,31 C7,32.1045333 7.84467542,33 8.88712112,33 L18.1128789,33 C19.1553246,33 20,32.1045333 20,31 C20,29.8954667 19.1553246,29 18.1128789,29 Z" id="Shape"></path>
                </g>
            </g>
        </g>
    </g>
</svg>