<?xml version="1.0" encoding="UTF-8"?>
<svg width="254px" height="254px" viewBox="0 0 254 254" version="1.1" xmlns="http://www.w3.org/2000/svg" xmlns:xlink="http://www.w3.org/1999/xlink">
    <!-- Generator: Sketch 51.3 (57544) - http://www.bohemiancoding.com/sketch -->
    <title>ICON</title>
    <desc>Created with Sketch.</desc>
    <defs>
        <circle id="path-1" cx="100" cy="100" r="100"></circle>
        <filter x="-20.8%" y="-19.8%" width="141.5%" height="141.5%" filterUnits="objectBoundingBox" id="filter-2">
            <feMorphology radius="1.5" operator="dilate" in="SourceAlpha" result="shadowSpreadOuter1"></feMorphology>
            <feOffset dx="0" dy="2" in="shadowSpreadOuter1" result="shadowOffsetOuter1"></feOffset>
            <feGaussianBlur stdDeviation="12" in="shadowOffsetOuter1" result="shadowBlurOuter1"></feGaussianBlur>
            <feColorMatrix values="0 0 0 0 0   0 0 0 0 0   0 0 0 0 0  0 0 0 0.0819180254 0" type="matrix" in="shadowBlurOuter1"></feColorMatrix>
        </filter>
        <polygon id="path-3" points="0.745463677 0.322586408 160.554874 0.322586408 160.554874 129.766608 0.745463677 129.766608"></polygon>
        <path d="M48.1955919,71.7261165 C76.6687803,78.1850097 90.8478296,84.3596893 90.7311525,90.2485631 C90.5620897,98.7534757 60.5649552,106.662893 0.745304933,113.976019 C0.745304933,113.976019 102.924309,117.746427 125.854937,76.6739806 C134.952578,60.3766796 118.089161,30.347165 94.4354529,0.0477669903 L48.1955919,71.7261165 Z" id="path-5"></path>
        <linearGradient x1="38.5490005%" y1="52.3991172%" x2="75.2927813%" y2="101.080965%" id="linearGradient-7">
            <stop stop-color="#AFE2DB" offset="0%"></stop>
            <stop stop-color="#AFE2DB" offset="100%"></stop>
        </linearGradient>
        <path d="M0.656408072,7.18176699 C17.6785695,16.7479029 55.1819327,41.2850097 60.1665067,74.1383495 C62.0508027,86.5561748 58.1734709,96.452699 51.7332108,104.249068 C55.3406771,100.934039 58.1361659,97.1230291 59.8998161,92.7141359 C69.5832242,68.5018447 47.1359731,29.3201748 5.08140807,0.322427184 L0.656408072,7.18176699 Z" id="path-8"></path>
        <linearGradient x1="-9.53670604%" y1="7.22295077%" x2="82.9987389%" y2="71.639863%" id="linearGradient-10">
            <stop stop-color="#FFFFFF" offset="0%"></stop>
            <stop stop-color="#FFFFFF" offset="100%"></stop>
        </linearGradient>
        <path d="M3.009,42.7689709 L3.01296861,42.7721553 C90.2287265,31.1982136 21.3217534,0.0716504854 21.3217534,0.0716504854 L5.26396413,0.763475728 L0.572273543,8.036 C29.0454619,14.4956893 43.2245112,20.6703689 43.1078341,26.5584466" id="path-11"></path>
        <linearGradient x1="11.456412%" y1="35.9334799%" x2="70.084784%" y2="84.2243532%" id="linearGradient-13">
            <stop stop-color="#FFFFFF" offset="0%"></stop>
            <stop stop-color="#FFFFFF" offset="100%"></stop>
        </linearGradient>
        <path d="M27.3056233,0.082 C27.3056233,0.082 69.718157,27.1372233 75.6321794,60.106 C81.5462018,93.0739806 9.18574439,101.548641 9.18574439,101.548641 C10.8287489,101.331301 70.842861,92.0159417 68.3100942,64.5602718 C65.7773274,37.1046019 0.388130045,20.5525437 0.388130045,20.5525437 L27.3056233,0.082 Z" id="path-14"></path>
        <linearGradient x1="-0.457082549%" y1="19.0838757%" x2="101.629545%" y2="120.139604%" id="linearGradient-16">
            <stop stop-color="#FFFFFF" offset="0%"></stop>
            <stop stop-color="#FFFFFF" offset="100%"></stop>
        </linearGradient>
        <path d="M1.98113004,0.792135922 C2.90184753,1.50625243 29.34787,4.38580583 40.0059686,25.768699 C50.664861,47.1515922 28.965296,54.947165 28.965296,54.947165 C30.4892422,54.2871845 40.1043901,45.3475922 37.2549283,34.1199612 C34.4062601,22.8923301 0.512744395,12.4942524 0.512744395,12.4942524 L1.98113004,0.792135922 Z" id="path-17"></path>
        <linearGradient x1="22.8644258%" y1="22.9061217%" x2="103.05089%" y2="90.2392801%" id="linearGradient-19">
            <stop stop-color="#FFFFFF" offset="0%"></stop>
            <stop stop-color="#FFFFFF" offset="100%"></stop>
        </linearGradient>
        <path d="M0.574654709,0.78815534 C1.58903139,1.36056311 28.1707803,0.356660194 41.8132735,19.960233 C55.4549731,39.5630097 35.1150538,50.437165 35.1150538,50.437165 C36.5270852,49.5630291 44.7460762,39.3178058 40.3004395,28.6243689 C35.8555964,17.9301359 0.81673991,12.580233 0.81673991,12.580233 L0.574654709,0.78815534 Z" id="path-20"></path>
        <linearGradient x1="21.6424526%" y1="22.3012462%" x2="106.410643%" y2="84.9845323%" id="linearGradient-22">
            <stop stop-color="#FFFFFF" offset="0%"></stop>
            <stop stop-color="#FFFFFF" offset="100%"></stop>
        </linearGradient>
        <polygon id="path-23" points="0 0.507365049 60.085309 0.507365049 60.085309 99.8547437 0 99.8547437"></polygon>
    </defs>
    <g id="STATIC-PAGES" stroke="none" stroke-width="1" fill="none" fill-rule="evenodd">
        <g id="HOMEPAGE" transform="translate(-593.000000, -794.000000)">
            <g id="HOW-IT-WORKS" transform="translate(162.000000, 668.000000)">
                <g id="STEP-" transform="translate(413.000000, 151.000000)">
                    <g id="ICON" transform="translate(45.000000, 0.000000)">
                        <g id="Oval">
                            <use fill="black" fill-opacity="1" filter="url(#filter-2)" xlink:href="#path-1"></use>
                            <use fill="#FFFFFF" fill-rule="evenodd" xlink:href="#path-1"></use>
                        </g>
                        <g id="VECTOR-BOX-SPEED" transform="translate(10.000000, 17.000000)">
                            <g id="Group-3" transform="translate(16.668161, 34.522000)">
                                <mask id="mask-4" fill="white">
                                    <use xlink:href="#path-3"></use>
                                </mask>
                                <g id="Clip-2"></g>
                                <path d="M48.1957507,86.0555767 C76.668939,92.515266 90.8479883,98.6899456 90.7305175,104.578023 C90.5614547,113.083732 60.5651139,120.992353 0.745463677,128.306276 C15.0824637,129.73212 35.3930152,130.713732 59.4705713,128.306276 C99.0518987,124.346392 147.611809,119.489285 158.3215,92.7142951 C168.004908,68.5020039 145.55845,29.320334 103.503091,0.322586408 L48.1957507,86.0555767 Z" id="Fill-1" fill="#BFEFE9" mask="url(#mask-4)"></path>
                            </g>
                            <g id="Group-6" transform="translate(16.668161, 48.852097)">
                                <mask id="mask-6" fill="white">
                                    <use xlink:href="#path-5"></use>
                                </mask>
                                <g id="Clip-5"></g>
                                <path d="M48.1955919,71.7261165 C76.6687803,78.1850097 90.8478296,84.3596893 90.7311525,90.2485631 C90.5620897,98.7534757 60.5649552,106.662893 0.745304933,113.976019 C0.745304933,113.976019 102.924309,117.746427 125.854937,76.6739806 C134.952578,60.3766796 118.089161,30.347165 94.4354529,0.0477669903 L48.1955919,71.7261165 Z" id="Fill-4" fill="url(#linearGradient-7)" mask="url(#mask-6)"></path>
                            </g>
                            <g id="Group-9" transform="translate(115.089686, 34.522000)">
                                <mask id="mask-9" fill="white">
                                    <use xlink:href="#path-8"></use>
                                </mask>
                                <g id="Clip-8"></g>
                                <path d="M0.656408072,7.18176699 C17.6785695,16.7479029 55.1819327,41.2850097 60.1665067,74.1383495 C62.0508027,86.5561748 58.1734709,96.452699 51.7332108,104.249068 C55.3406771,100.934039 58.1361659,97.1230291 59.8998161,92.7141359 C69.5832242,68.5018447 47.1359731,29.3201748 5.08140807,0.322427184 L0.656408072,7.18176699 Z" id="Fill-7" fill="url(#linearGradient-10)" mask="url(#mask-9)"></path>
                            </g>
                            <g id="Group-100" transform="translate(0.000000, -0.507126)">
                                <g id="Group-12" transform="translate(64.291480, 113.048544)">
                                    <mask id="mask-12" fill="white">
                                        <use xlink:href="#path-11"></use>
                                    </mask>
                                    <g id="Clip-11"></g>
                                    <path d="M3.009,42.7689709 L3.01296861,42.7721553 C90.2287265,31.1982136 21.3217534,0.0716504854 21.3217534,0.0716504854 L5.26396413,0.763475728 L0.572273543,8.036 C29.0454619,14.4956893 43.2245112,20.6703689 43.1078341,26.5584466 C42.9951256,32.2267961 29.6153543,37.630835 3.009,42.7689709" id="Fill-10" fill="url(#linearGradient-13)" mask="url(#mask-12)"></path>
                                </g>
                                <g id="Group-15" transform="translate(92.865471, 56.524272)">
                                    <mask id="mask-15" fill="white">
                                        <use xlink:href="#path-14"></use>
                                    </mask>
                                    <g id="Clip-14"></g>
                                    <path d="M27.3056233,0.082 C27.3056233,0.082 69.718157,27.1372233 75.6321794,60.106 C81.5462018,93.0739806 9.18574439,101.548641 9.18574439,101.548641 C10.8287489,101.331301 70.842861,92.0159417 68.3100942,64.5602718 C65.7773274,37.1046019 0.388130045,20.5525437 0.388130045,20.5525437 L27.3056233,0.082 Z" id="Fill-13" fill="url(#linearGradient-16)" mask="url(#mask-15)"></path>
                                </g>
                                <g id="Group-18" transform="translate(104.771300, 86.776699)">
                                    <mask id="mask-18" fill="white">
                                        <use xlink:href="#path-17"></use>
                                    </mask>
                                    <g id="Clip-17"></g>
                                    <path d="M1.98113004,0.792135922 C2.90184753,1.50625243 29.34787,4.38580583 40.0059686,25.768699 C50.664861,47.1515922 28.965296,54.947165 28.965296,54.947165 C30.4892422,54.2871845 40.1043901,45.3475922 37.2549283,34.1199612 C34.4062601,22.8923301 0.512744395,12.4942524 0.512744395,12.4942524 L1.98113004,0.792135922 Z" id="Fill-16" fill="url(#linearGradient-19)" mask="url(#mask-18)"></path>
                                </g>
                                <g id="Group-21" transform="translate(76.991031, 96.330097)">
                                    <mask id="mask-21" fill="white">
                                        <use xlink:href="#path-20"></use>
                                    </mask>
                                    <g id="Clip-20"></g>
                                    <path d="M0.574654709,0.78815534 C1.58903139,1.36056311 28.1707803,0.356660194 41.8132735,19.960233 C55.4549731,39.5630097 35.1150538,50.437165 35.1150538,50.437165 C36.5270852,49.5630291 44.7460762,39.3178058 40.3004395,28.6243689 C35.8555964,17.9301359 0.81673991,12.580233 0.81673991,12.580233 L0.574654709,0.78815534 Z" id="Fill-19" fill="url(#linearGradient-22)" mask="url(#mask-21)"></path>
                                </g>
                                <g id="Group-24">
                                    <mask id="mask-24" fill="white">
                                        <use xlink:href="#path-23"></use>
                                    </mask>
                                    <g id="Clip-23"></g>
                                    <polygon id="Fill-22" fill="#E0B27E" mask="url(#mask-24)" points="60.085309 71.7908408 -0.000238116592 99.8547437 -0.000238116592 35.3517922 60.085309 0.507365049"></polygon>
                                </g>
                                <polygon id="Fill-25" fill="#BA8656" points="60.085309 71.7908408 120.17165 99.8547437 120.17165 35.3517922 60.085309 0.507365049"></polygon>
                                <polygon id="Fill-29" fill="#BA8656" points="120.171332 99.8550621 64.8639915 121.085101 0.000238116592 99.8550621 60.0849915 71.7911592"></polygon>
                                <polygon id="Fill-33" fill="#FFD8A4" points="20.6577256 90.2064485 34.1756045 83.8924485 34.1756045 15.5323126 20.6577256 23.3716718"></polygon>
                                <polygon id="Fill-35" fill="#DBB17F" points="34.1757632 83.8923689 98.0751444 108.337126 83.1174538 114.078718 20.6578843 90.2063689"></polygon>
                                <path d="M120.171332,56.6062718 L120.171332,45.3834175 L95.1452785,42.3963883 C95.1452785,42.3963883 96.2604578,50.1816117 120.171332,56.6062718" id="Fill-45" fill="#997044"></path>
                                <path d="M98.7780646,45.8731087 C96.7969345,44.986235 95.2904502,43.2825456 94.6522978,41.2030893 C92.1155623,32.9425845 88.9097193,12.3160019 120.947513,14.0921379 C140.246069,15.1621184 156.572136,23.4918854 163.845011,20.6378078 C163.845011,20.6378078 164.476813,29.8345456 153.09484,32.6886233 L158.786621,33.9568369 C158.786621,33.9568369 158.154024,44.4225845 143.293168,45.0570893 L148.352352,46.6421573 C148.352352,46.6421573 140.696903,64.6399631 98.7780646,45.8731087" id="Fill-47" fill="#E8EFEE"></path>
                                <path d="M34.1757632,83.8923689 L20.6578843,90.2063689 L22.3127946,90.8392816 C26.0861489,88.5615922 30.6675121,86.2528544 35.2790368,84.3143107 L34.1757632,83.8923689 Z" id="Fill-61" fill="#C49D72"></path>
                                <path d="M97.4758843,108.107765 C96.0535345,108.813124 94.5930861,109.517687 93.1524807,110.226231 L98.0751444,108.337047 L97.4758843,108.107765 Z" id="Fill-70" fill="#C49D72"></path>
                                <path d="M98.2673045,43.2107359 C94.9932013,40.5628524 93.2541565,34.2010854 93.2541565,34.2010854 C93.486717,36.8935515 94.0851834,39.357532 94.6519009,41.2029301 C95.2908471,43.2823864 96.7965377,44.9860757 98.7784614,45.8729495 C140.6973,64.6398039 148.352748,46.6427942 148.352748,46.6427942 C132.430686,58.2302699 101.541408,45.8594155 98.2673045,43.2107359" id="Fill-88" fill="#CEDBD8"></path>
                                <path d="M158.786224,33.9569961 C152.87617,42.2875592 138.081986,43.7404718 138.081986,43.7404718 C141.461654,44.9051903 143.292771,45.0564524 143.292771,45.0564524 C158.153627,44.4227437 158.786224,33.9569961 158.786224,33.9569961" id="Fill-90" fill="#CEDBD8"></path>
                                <path d="M145.897608,32.6886233 C149.065352,33.8183126 153.094285,32.6886233 153.094285,32.6886233 C164.477052,29.8345456 163.844455,20.6378078 163.844455,20.6378078 C160.459231,29.2080019 145.897608,32.6886233 145.897608,32.6886233" id="Fill-92" fill="#CEDBD8"></path>
                                <path d="M148.433787,19.2172175 C140.742622,17.3129068 131.271137,14.6642272 120.947196,14.0918194 C103.867092,13.1452369 96.805348,18.5659942 94.3178233,25.0861883 L94.3178233,25.0869845 C94.3178233,25.0869845 101.625622,13.9747903 120.171729,15.6689262 C138.716249,17.3638583 148.433787,19.2172175 148.433787,19.2172175 Z" id="Fill-94" fill="#F7F9F9"></path>
                                <path d="M156.669367,24.1435864 C156.984475,24.0321301 141.883914,32.4056835 125.408627,30.2872175 C125.408627,30.2872175 147.058982,27.5334505 156.669367,24.1435864" id="Fill-96" fill="#F7F9F9"></path>
                                <path d="M146.578939,37.8217437 C146.894046,37.7102874 131.793486,46.0838408 115.318199,43.9653748 C115.318199,43.9653748 136.968553,41.2116078 146.578939,37.8217437" id="Fill-98" fill="#F7F9F9"></path>
                            </g>
                        </g>
                    </g>
                </g>
            </g>
        </g>
    </g>
</svg>