<?xml version="1.0" encoding="UTF-8"?>
<svg width="253px" height="254px" viewBox="0 0 253 254" version="1.1" xmlns="http://www.w3.org/2000/svg" xmlns:xlink="http://www.w3.org/1999/xlink">
    <!-- Generator: Sketch 51.3 (57544) - http://www.bohemiancoding.com/sketch -->
    <title>ICON</title>
    <desc>Created with Sketch.</desc>
    <defs>
        <ellipse id="path-1" cx="99.942341" cy="100" rx="99.942341" ry="100"></ellipse>
        <filter x="-20.8%" y="-19.8%" width="141.5%" height="141.5%" filterUnits="objectBoundingBox" id="filter-2">
            <feMorphology radius="1.5" operator="dilate" in="SourceAlpha" result="shadowSpreadOuter1"></feMorphology>
            <feOffset dx="0" dy="2" in="shadowSpreadOuter1" result="shadowOffsetOuter1"></feOffset>
            <feGaussianBlur stdDeviation="12" in="shadowOffsetOuter1" result="shadowBlurOuter1"></feGaussianBlur>
            <feColorMatrix values="0 0 0 0 0   0 0 0 0 0   0 0 0 0 0  0 0 0 0.0819180254 0" type="matrix" in="shadowBlurOuter1"></feColorMatrix>
        </filter>
        <polygon id="path-3" points="0.523064753 0.5149125 17.0909809 0.5149125 17.0909809 14.6794006 0.523064753 14.6794006"></polygon>
        <polygon id="path-5" points="0.998782866 0.627166667 16.6226161 0.627166667 16.6226161 11.50275 0.998782866 11.50275"></polygon>
    </defs>
    <g id="STATIC-PAGES" stroke="none" stroke-width="1" fill="none" fill-rule="evenodd">
        <g id="HOMEPAGE" transform="translate(-988.000000, -794.000000)">
            <g id="HOW-IT-WORKS" transform="translate(162.000000, 668.000000)">
                <g id="STEP-" transform="translate(810.000000, 151.000000)">
                    <g id="ICON" transform="translate(43.000000, 0.000000)">
                        <g id="Oval">
                            <use fill="black" fill-opacity="1" filter="url(#filter-2)" xlink:href="#path-1"></use>
                            <use fill="#FFFFFF" fill-rule="evenodd" xlink:href="#path-1"></use>
                        </g>
                        <g id="VECTOR-DOORSTEP" transform="translate(9.302326, 9.230769)">
                            <g id="DOOR" transform="translate(30.166667, 1.000000)">
                                <path d="M3.16669197,158.613837 C3.17984623,161.009488 2.17354537,161.009488 5.20340984,161.992369 C5.78219727,162.179957 14.1000741,158.858092 16.4481095,157.636818 C18.7917601,156.41359 14.1789997,155.819562 11.8901585,156.048184 C8.37358642,156.396003 3.16669197,158.613837 3.16669197,158.613837" id="Fill-1" fill="#0A1925"></path>
                                <path d="M24.0220105,49.4476805 C24.2287706,55.5643473 24.3278431,62.2209711 22.6220723,62.5325668 C20.9141478,62.8441626 18.6893231,62.7886729 16.6087997,62.2359106 C14.9008751,61.7834566 14.8276476,63.1557583 14.8233401,66.9952152 C14.8233401,66.9952152 10.8195171,67.2129054 9.52726649,64.7116027 C8.23286216,62.2103 6.96645659,49.0571187 9.52726649,45.2710172 C11.3902611,42.5114743 23.6300278,37.9186386 24.0220105,49.4476805" id="Fill-3" fill="#FFA784"></path>
                                <path d="M2.9763208,94.7145444 C-0.232420048,99.726668 -0.405806181,106.935945 0.553304455,117.386128 C1.50802557,127.834202 1.9864835,131.488392 1.9864835,131.488392 C1.9864835,131.488392 -0.337768584,135.142583 0.0419250998,143.245902 C0.421618784,151.349222 2.9763208,159.467302 2.9763208,159.467302 C3.42405208,160.131509 4.13734946,160.222178 5.24570386,159.467302 L13.0722222,102.484707 C13.0722222,102.484707 11.4459042,91.08144 2.9763208,94.7145444" id="Fill-5" fill="#0F3858"></path>
                                <path d="M26.0743725,78.6088211 C27.9516439,77.4299077 31.3088694,76.5122553 33.4993698,77.2852425 C35.8580467,78.1143684 35.6057818,80.6816359 33.663342,81.8346391 C30.7034337,83.5943725 27.3672302,84.6826002 23.9616539,85 C23.5328035,83.8664294 22.7570889,82.8796832 22.1222222,81.8389575 C22.1222222,81.8389575 23.6610382,80.1245669 26.0743725,78.6088211" id="Fill-7" fill="#EB9073"></path>
                                <path d="M21.2673246,169.613837 C21.2804796,172.011442 20.2719345,172.011442 23.3041472,172.992369 C23.8829644,173.179957 32.201269,169.858092 34.5472326,168.636818 C36.8931963,167.41359 32.2780062,166.819562 29.9912398,167.048184 C26.4744868,167.396003 21.2673246,169.613837 21.2673246,169.613837" id="Fill-9" fill="#0A1925"></path>
                                <path d="M8.70997749,98.4452117 C8.70997749,98.4452117 7.36592855,102.697356 8.49786977,107.307862 C10.6987499,116.279489 18.0553178,135.622659 17.9398136,137.567455 C17.8243094,139.51225 15.6927318,146.283407 16.5663636,153.257846 C17.4399954,160.230189 21.354538,169.58323 21.354538,169.58323 C21.8669566,170.082003 22.5599818,170.193075 23.5890193,169.58323 C23.5890193,169.58323 24.3051454,145.977437 24.5529544,138.160533 C24.8028635,130.345725 25.9264044,123.744318 24.1791408,99.3379734 C24.1791408,99.3379734 15.7788349,94.7358497 8.70997749,98.4452117" id="Fill-11" fill="#08668D"></path>
                                <path d="M12.4813006,63.0308932 C16.1233237,64.0427683 19.5992268,66.856846 23.1634469,69.8903408 C28.641201,74.5470963 27.7811621,77.4804687 24.7258159,80.3754964 C23.2244276,83.6944466 23.2685861,87.0176572 23.7269932,92.2069784 C24.1832975,97.3984299 24.3094645,99.2964945 24.3094645,99.2964945 C24.3094645,99.2964945 10.8390258,102.713437 3.01666667,94.4863601 C4.31618761,90.5624152 7.37153378,88.4619757 7.47457023,85.8800966 C7.60704567,82.5909702 4.69258607,76.3961647 3.89983624,71.4901685 C3.10708641,66.582042 2.06831077,61.8017313 6.19187156,63.2694827 C10.3154324,64.7393643 12.4813006,63.0308932 12.4813006,63.0308932" id="Fill-13" fill="#FF4D7C"></path>
                                <path d="M22.4738308,43.289486 C24.1666165,45.1673918 22.2664645,49.9629835 20.2562815,51.3136473 C18.2439824,52.6685122 17.1119319,52.8554626 17.1119319,52.8554626 C17.1119319,52.8554626 17.4906927,56.3361001 16.6400679,56.0000096 C15.793675,55.663919 16.0497089,52.4794613 15.5122494,51.5447095 C14.9747899,50.6078572 12.8376479,49.8117428 12.4610031,51.958521 C12.0843583,54.1031987 12.3340442,56.0714288 15.1017489,56.6469838 C15.1017489,56.6469838 16.0433609,63.8393211 16.0433609,67.2716455 C16.0433609,70.7060706 15.2921873,74.3673567 13.0598261,73.9703498 C10.8253489,73.5754434 10.8253489,72.203774 10.8253489,72.203774 C10.8253489,72.203774 8.6247274,74.3232449 5.54385734,73.514527 C2.46510326,72.7016081 2.02497897,68.9583999 2.02497897,68.9583999 C2.02497897,68.9583999 0.251785898,69.2881887 0.0126799108,66.9607618 C-0.228542058,64.6312344 3.03218649,68.3681409 4.66360875,63.6691752 C6.29926298,58.9723101 5.48249386,55.3026217 5.48249386,49.515563 C5.48249386,43.7285043 8.31156204,40 13.0259703,40 C17.7424946,40 20.4975034,41.1006965 22.4738308,43.289486" id="Fill-15" fill="#1B1F3A"></path>
                                <path d="M17.8080315,73.136343 C21.0715614,71.8638932 24.0220326,79.7933757 26.2177321,84.6244432 C28.4112874,89.4576313 30.2939282,93.6164212 30.2939282,93.6164212 C30.2939282,93.6164212 45.2028135,87.2668971 46.3285383,86.8512302 C48.6142958,86.0029304 51.7019982,84.7983446 54.0842464,85.3391357 C54.8411624,85.5087957 56.4364753,87.2372066 54.0242078,89.1098284 C53.052868,89.866936 52.0172012,90.5370928 51.0136979,91.2496647 C50.7971299,91.4044794 50.5612637,91.5847431 50.5055136,91.8434746 C50.3854362,92.4139562 51.1530734,92.7341894 51.7405945,92.7660006 C52.3302599,92.7978118 53.0936086,92.9017286 53.2051089,93.4743309 C53.2737245,93.8369791 52.9885409,94.1953858 52.6433186,94.3353553 C52.2980963,94.4774455 51.9099893,94.4583587 51.5368919,94.430789 C50.2289069,94.3395968 48.9252103,94.2123518 47.6258022,94.0469333 C46.5837026,93.9154468 45.2821503,93.4743309 44.2379065,93.7033719 C43.44025,93.8793941 42.6790456,94.5050152 41.9435721,94.8464559 C40.7578086,95.3999715 39.5570354,95.9237966 38.354118,96.445501 C32.8434269,98.833465 28.6364324,101.641337 27.1097351,98.8122575 C25.5830378,95.9831776 20.1002217,84.5353717 17.8080315,80.0266582 C15.5158413,75.5200654 15.5158413,74.0270578 17.8080315,73.136343" id="Fill-17" fill="#FFA784"></path>
                                <path d="M86.4777778,39 C86.4777778,39 85.3793359,47.6276291 85.2239158,49.150519 C85.070596,50.6713285 83.4890918,52.3107236 80.5655142,53.9521992 C77.6377361,55.5895139 71.7947815,59.3239229 68.724185,62.0701179 C66.1912579,64.3398896 61.5349565,62.0867615 64.0951872,59.2552681 C65.2335342,57.9965954 68.6632771,56.5111536 68.2768272,55.774674 C68.2768272,55.774674 64.3388187,55.5083763 65.9035207,54.0333368 C66.9704585,53.0243182 70.0389548,54.2205774 71.4125322,53.748315 C72.7840093,53.2760527 79.2885493,48.3120974 79.2885493,48.3120974 L80.5046064,39.7593645 L86.4777778,39 Z" id="Fill-19" fill="#FFA784"></path>
                                <path d="M86.5459888,26.0000665 C84.1577731,26.0215531 81.4201626,28.0283962 80.7871415,31.1632827 C80.158231,34.2981693 79.4388889,41.1265926 79.4388889,41.1265926 C79.4388889,41.1265926 83.8515389,43.187152 86.7515152,40.9783355 C86.7515152,40.9783355 90.7942178,25.9635394 86.5459888,26.0000665" id="Fill-21" fill="#E0DEDF"></path>
                                <g id="Group-25" transform="translate(95.527778, 124.000000)">
                                    <mask id="mask-4" fill="white">
                                        <use xlink:href="#path-3"></use>
                                    </mask>
                                    <g id="Clip-24"></g>
                                    <path d="M16.1639369,0.5149125 C16.1639369,0.5149125 17.4142893,4.2357875 17.0109498,5.4576625 C16.6076103,6.6795375 7.00813006,12.5934125 3.81962512,14.0341625 C0.628997346,15.4749125 -0.752971173,14.5909125 1.99398315,10.4896625 C4.88529056,6.1716625 11.0669992,1.2607875 11.0669992,1.2607875 L16.1639369,0.5149125 Z" id="Fill-23" fill="#0A1925" mask="url(#mask-4)"></path>
                                </g>
                                <path d="M88.5934225,113 C88.5934225,113 89.8097381,116.675774 89.4159817,117.883528 C89.0242868,119.091282 79.7019493,124.936812 76.6054984,126.360912 C73.5090475,127.787112 72.1669773,126.913329 74.8325638,122.857375 C77.6403975,118.589276 83.645698,113.735155 83.645698,113.735155 L88.5934225,113 Z" id="Fill-26" fill="#0A1925"></path>
                                <path d="M84.232358,56.6060531 C83.6227252,65.6189884 84.4737563,78.7038429 84.3121422,81.7846127 C84.1505281,84.8674869 83.4611111,114.702975 83.4611111,114.702975 C83.4611111,114.702975 87.7489985,115.782507 89.569714,113.825461 C89.854073,112.621772 90.9014958,109.82509 91.7852589,102.975427 C92.570826,96.8896441 94.5265609,92.5083854 92.2721469,88.2512833 C92.2721469,88.2512833 93.9762548,80.9765419 95.7806043,73.123104 C97.5829081,65.2675618 95.9013034,57.9675682 93.3482102,56.6060531 C90.795117,55.2424336 84.232358,56.6060531 84.232358,56.6060531" id="Fill-28" fill="#A0641C"></path>
                                <path d="M91.5055556,59.1236992 C91.5055556,59.1236992 97.8577729,88.8143332 98.5340703,90.7667785 C99.2103678,92.7213278 101.160428,105.708876 102.639569,112.597137 C104.118711,119.483294 105.274225,125.780351 105.274225,125.780351 C105.274225,125.780351 109.217911,126.86177 111.607772,124.225548 C111.721871,123.392392 110.703276,111.290598 110.555984,103.720664 C110.408692,96.1549385 107.342534,93.1147623 107.342534,93.1147623 C107.342534,93.1147623 107.838347,78.3514985 107.778185,72.0018434 C107.715949,65.6542921 106.676609,61.6736601 103.17065,55 L91.5055556,59.1236992 Z" id="Fill-30" fill="#B77825"></path>
                                <path d="M90.9869087,25.0029351 C90.9869087,25.0029351 88.5557605,24.8789287 86.0472282,26.2429989 C81.9781181,28.4561976 82.4746657,39.2867892 82.4746657,39.2867892 L83.9621586,56.4164849 C83.9621586,56.4164849 96.1136005,63.1464585 103.566112,54.8821686 C103.355456,52.6185266 101.956095,46.9688797 102.033479,45.310557 C102.149555,42.8157167 102.99433,36.3863009 104.142193,33.1053862 C105.292206,29.8265733 104.172287,28.6138329 100.696455,27.3485474 C97.2163229,26.0853637 90.9869087,25.0029351 90.9869087,25.0029351" id="Fill-32" fill="#EAEAEA"></path>
                                <path d="M84.6199644,6.97289416 C84.6199644,11.8308858 83.9415271,19.2023602 85.4391303,20.2225384 C86.9367335,21.2448289 91.0535669,20.2225384 91.0535669,20.2225384 L91.0535669,32 C91.0535669,32 97.1721056,31.3262177 97.1721056,27.2898602 C97.0460801,22.8754243 97.1721056,17.8716929 97.1721056,17.8716929 C97.1721056,17.8716929 99.5413853,16.4987822 99.5413853,13.1615531 C99.5413853,9.82432406 100.041286,4.80369526 93.424947,4.30099873 C86.810708,3.7983022 85.0631542,4.07710868 85.0631542,4.07710868 L84.6199644,6.97289416 Z" id="Fill-34" fill="#FFA784"></path>
                                <polygon id="Fill-36" fill="#BA8656" points="60.4070729 68.0671571 60.3333333 53 73.331816 59.9349179 73.4055556 75"></polygon>
                                <polygon id="Fill-38" fill="#E0B27E" points="60.3333333 52.9830864 79.181458 42 92.5111111 49 73.4055556 60"></polygon>
                                <polygon id="Fill-40" fill="#E0B27E" points="92.4325049 49 92.5111111 64.112552 73.4820373 75 73.4055556 59.8895293"></polygon>
                                <polygon id="Fill-42" fill="#FFD8A4" points="73.0744106 46 85.4722222 52.8038297 79.7806248 56 67.3722222 49.1982074"></polygon>
                                <polygon id="Fill-44" fill="#FFD8A4" points="85.4476238 53 85.4722222 57.2935265 84.4659213 56.7596808 84.4703937 57.8335797 83.4618565 57.3018031 83.4685652 58.375702 82.4622642 57.8439255 82.4667367 58.9157552 81.4604357 58.3860479 81.4649082 59.4578776 80.4608434 58.9261011 80.4630796 60 79.4567787 59.4682235 79.4388889 56.2465268"></polygon>
                                <path d="M91.5055556,32.3606776 C91.5055556,32.3606776 97.5170177,26.9883898 97.494105,24.4990483 L97.5170177,23 C97.5170177,23 98.677234,24.2519985 99.0417544,25.0852684 C99.4041918,25.9206319 99.55,27.767225 99.55,27.767225 C98.8813654,29.4819185 96.4921946,30.9809669 95.1361787,31.3536353 L94.4362996,34 L91.5055556,32.3606776 Z" id="Fill-50" fill="#F2F2F2"></path>
                                <path d="M90.5,32.4107143 L88.4888889,33 L89.2843024,30.7211538 C89.2843024,30.7211538 88.4888889,28.7142857 89.1592593,26.6332418 C89.7150067,24.904533 90.5,24 90.5,24 L90.5,32.4107143 Z" id="Fill-52" fill="#F2F2F2"></path>
                                <path d="M92.5111111,7 C92.5111111,7 92.7650641,8.85863119 93.4152714,9.90879949 C94.0654787,10.9610515 94.3894878,11.9528771 94.0019905,13.2530854 C93.6101147,14.5532938 95.6920916,12.4467062 95.6920916,10.8381151 C95.6920916,9.22744029 97.2486485,8.7690335 98.5556309,10.3297003 C99.8582347,11.890367 97.0100202,14.8616766 96.1890514,14.1803174 C96.1890514,14.1803174 95.3855966,15.4200994 95.7008486,17.0912005 C96.0182899,18.7643853 97.349354,20 97.349354,20 C97.349354,20 97.9251268,19.2540471 98.8905861,18.4101619 C99.8582347,17.564193 100.933157,14.057381 100.425251,10.8381151 C99.9195337,7.61884917 92.5111111,7 92.5111111,7" id="Fill-54" fill="#1B1F3A"></path>
                                <g id="Group-58" transform="translate(83.461111, 0.000000)">
                                    <mask id="mask-6" fill="white">
                                        <use xlink:href="#path-5"></use>
                                    </mask>
                                    <g id="Clip-57"></g>
                                    <path d="M16.485156,11.50275 C16.485156,11.50275 11.7682066,5.40791667 1.00328747,6.61041667 C1.00328747,6.61041667 0.708212778,3.94975 4.89445228,1.46025 C9.07856895,-1.02708333 15.6699856,2.54575 16.2856091,5.70258333 C16.9012325,8.85725 16.485156,11.50275 16.485156,11.50275" id="Fill-56" fill="#E6354B" mask="url(#mask-6)"></path>
                                </g>
                                <path d="M96.5333333,7 C96.5333333,7 92.987393,2.51057146 89.2885162,2.09336801 C85.5852698,1.67616456 79.0068185,2.75809887 79.4612582,3.34697456 C79.9156978,3.93385405 84.5103451,6.30333012 84.5103451,6.30333012 C84.5103451,6.30333012 86.7716195,4.49278691 96.5333333,7" id="Fill-59" fill="#D32A46"></path>
                                <path d="M105.583333,40 C105.583333,40 105.036179,48.9356809 104.982537,50.50992 C104.924603,52.0841591 103.424757,53.8747222 100.551663,55.7509582 C97.6764225,57.6250524 91.9688559,61.8487251 89.0228075,64.8729777 C86.5895817,67.370342 81.6952361,65.3655967 84.1155876,62.2877986 C85.1927299,60.9191744 88.5893757,59.1650223 88.1452154,58.434661 C88.1452154,58.434661 84.1155876,58.4218101 85.608996,56.8025928 C86.63035,55.6974127 89.8381741,56.7254872 91.2092775,56.1471953 C92.5760895,55.5710452 98.8758698,50.040861 98.8758698,50.040861 L99.543183,41.1758602 L105.583333,40 Z" id="Fill-61" fill="#FFA784"></path>
                                <path d="M104.904561,28.5723247 C103.440315,26.8041166 99.4819058,29.4174397 99.026076,32.5302447 C98.5702461,35.6409421 98.5444444,43.3902881 98.5444444,43.3902881 C98.5444444,43.3902881 103.287655,45.1163458 106.168844,42.76014 C106.168844,42.76014 107.704044,31.9569996 104.904561,28.5723247" id="Fill-63" fill="#E0DEDF"></path>
                            </g>
                        </g>
                    </g>
                </g>
            </g>
        </g>
    </g>
</svg>