<?xml version="1.0" encoding="UTF-8"?>
<svg width="74px" height="75px" viewBox="0 0 74 75" version="1.1" xmlns="http://www.w3.org/2000/svg" xmlns:xlink="http://www.w3.org/1999/xlink">
    <!-- Generator: Sketch 51.3 (57544) - http://www.bohemiancoding.com/sketch -->
    <title>around</title>
    <desc>Created with Sketch.</desc>
    <defs></defs>
    <g id="STATIC-PAGES" stroke="none" stroke-width="1" fill="none" fill-rule="evenodd">
        <g id="HOMEPAGE" transform="translate(-174.000000, -512.000000)" fill="#002C3D" fill-rule="nonzero">
            <g id="COUNTRY" transform="translate(-1.000000, 486.000000)">
                <g id="around" transform="translate(175.000000, 26.000000)">
                    <path d="M72.2930533,25.9532308 C66.1996459,6.48096791 45.4122488,-4.40095389 25.9442551,1.69248729 C6.47875888,7.78842697 -4.39996471,28.5894598 1.69226741,48.0617228 L4.08426441,47.3121678 C-1.59573681,29.1598565 8.54623055,9.76769307 26.6934987,4.0841556 C35.4846239,1.33270089 44.8207871,2.16999791 52.9791687,6.44084468 C61.1412231,10.71419 67.1507446,17.90933 69.9023785,26.7029328 C72.6526902,35.4963886 71.8169163,44.835256 67.5466684,52.9995265 C63.2775958,61.1649728 56.0854446,67.1769918 47.2943194,69.9297692 C32.5802031,74.536446 16.4514853,68.7188705 8.06260114,55.7799346 L5.96001786,57.1438308 C12.8941941,67.8414502 24.7626539,74.0013225 37.0659687,73.9999998 C40.7247751,73.9999998 44.4248633,73.455911 48.0423878,72.3202617 C57.4712515,69.3681908 65.1861103,62.9187845 69.7670739,54.1616307 C74.3480376,45.4043299 75.2438979,35.38616 72.2930533,25.9532308 Z" id="Shape"></path>
                    <path d="M30.2655405,17.2650352 L31,14.8440931 L18.2053142,11.0535749 C17.757528,10.9196543 17.2674383,11.0409828 16.9335113,11.3707477 L14.3746041,13.8977598 C14.07653,14.1921186 13.9446693,14.6128429 14.0214755,15.0223083 C14.0982817,15.4316256 14.3746041,15.7766491 14.7596853,15.9459758 L26.2749175,21 L27.3139016,18.6903127 L17.5017573,14.382926 L18.202914,13.6905086 L30.2655405,17.2650352 Z" id="Shape"></path>
                    <path d="M41.9999953,10.2727748 C41.9999953,9.57020428 41.4310509,9 40.7273683,9 C40.7260254,9 40.7260254,9 40.7248317,9 C37.9250225,9 35.2918828,10.0907153 33.3116937,12.0712835 L22.519805,22.8632316 L18.1279064,21.7647564 C17.6939987,21.6565653 17.2357694,21.7825146 16.9188436,22.0994772 L14.3735897,24.6450267 C14.096205,24.9224435 13.9613176,25.3119314 14.0096622,25.7002254 C14.0580068,26.0883703 14.2819736,26.4345817 14.6179985,26.6357425 L20.708822,30.2911086 L24.3637637,36.3826393 C24.5649012,36.7187032 24.9097295,36.942696 25.2991722,36.9910463 C25.3500534,36.9974631 25.4022775,37 25.4545016,37 C25.7891835,37 26.1137191,36.8676338 26.3555913,36.6284196 L28.9008453,34.0828701 C29.2164281,33.7659076 29.3437058,33.3077743 29.2355273,32.8736669 L28.1385225,28.4863322 L39.1023032,17.6294695 C40.9729709,15.6705395 42.0025319,13.0970842 41.9999953,10.2727748 Z M25.831112,27.1855024 C25.5116497,27.5011219 25.3831784,27.9619413 25.4913569,28.3984363 L26.5897046,32.7908448 L25.7065202,33.6741317 L22.7272093,28.7077882 C22.6190308,28.5282656 22.4701174,28.3781411 22.2907649,28.2712931 L17.324998,25.2916362 L18.2081823,24.4083494 L22.6000809,25.5068246 C23.0339886,25.6150156 23.4922179,25.4890663 23.8091437,25.1721038 L35.1101429,13.8697923 C36.2810075,12.6975979 37.7546227,11.9377235 39.3531282,11.6615005 C39.1011095,13.2346734 38.3845947,14.6932383 37.2850533,15.8451375 L25.831112,27.1855024 Z" id="Shape"></path>
                    <path d="M38.9481594,32.963434 L35.1594068,20 L32.737075,20.726951 L36.2972024,32.9073185 L35.5306267,33.5933081 L31.3200131,23.6959718 L29,24.709502 L33.9001911,36.2269863 C34.0605545,36.6032903 34.3889812,36.8796667 34.784189,36.9692415 C34.8764387,36.9896471 34.9685403,37 35.06079,37 C35.3652288,37 35.6631523,36.8886692 35.8956275,36.6801116 L38.5730896,34.2871 C38.9417923,33.9577589 39.0870522,33.4420663 38.9481594,32.963434 Z" id="Shape"></path>
                    <path d="M23.9221406,68.8241013 C14.9543973,73.0856135 7.91944901,73.6361976 4.62548933,70.3343214 C-1.08357821,64.6092236 5.11651254,47.9757796 19.0466019,31.6415372 L17.1327039,30 C1.85414605,47.9150807 -4.0223359,65.2354594 2.84386933,72.1197596 C4.7616058,74.0415484 7.47005795,75 10.8294185,75 C14.7453508,75 19.545302,73.698229 25,71.1057906 L23.9221406,68.8241013 Z" id="Shape"></path>
                    <path d="M66.851049,43.3083777 C66.6312796,42.8947346 66.203144,42.6364315 65.7369486,42.6364315 L61.4652184,42.6364315 L58.0245837,35.7038798 C57.8098494,35.2724792 57.3728283,35 56.894045,35 L44.2630815,35 C43.5645289,35 43,35.5701769 43,36.2727137 L43,46.4545726 C43,47.1584524 43.564677,47.7272863 44.2630815,47.7272863 L48.0523261,47.7272863 L48.0523261,61.7272863 C48.0523261,62.4311661 48.616855,63 49.3154077,63 L55.6308154,63 C55.9655046,63 56.2864212,62.8662972 56.5251464,62.6257514 L61.5774725,57.5348966 C61.8148649,57.2968877 61.9475559,56.973673 61.9475559,56.6350885 L61.9475559,51.9298231 L66.7876654,44.6142187 C67.0454945,44.2247495 67.0708183,43.7220209 66.851049,43.3083777 Z M59.6324247,50.8391601 C59.4946986,51.0479216 59.4202081,51.2947346 59.4202081,51.5455766 L59.4202081,56.1095289 L55.1080486,60.4545726 L50.5786373,60.4545726 L50.5773045,60.4545726 L50.5773045,46.4545726 C50.5773045,45.7506928 50.0127756,45.1818589 49.3142229,45.1818589 L45.5249783,45.1818589 L45.5249783,37.5455766 L56.1122643,37.5455766 L59.552899,44.4781283 C59.7676332,44.9095289 60.2046544,45.1820081 60.6832896,45.1820081 L63.3762049,45.1820081 L59.6324247,50.8391601 Z" id="Shape"></path>
                    <path d="M66.7656189,32.5294288 L62.1697839,24.5049243 C61.9494277,24.1195222 61.5383284,23.8822848 61.0951482,23.8822848 L53.6666183,23.8822848 C53.2530512,23.8822848 52.8667746,24.0885278 52.6365474,24.4319282 L50.5280666,27.5881416 L47.4761767,27.5881416 L47.4761767,21.4117136 L53.6666183,21.4117136 C53.9959913,21.4117136 54.3092513,21.2819427 54.5419463,21.0497745 L59.1315393,16.4705712 L64.8094132,16.4705712 L64.8094132,14 L58.6189716,14 C58.2895986,14 57.9763386,14.1297709 57.7436436,14.3619391 L53.1540506,18.9411424 L46.2380883,18.9411424 C45.5533583,18.9411424 45,19.4945515 45,20.176428 L45,28.8234272 C45,29.5053037 45.5535034,30.0587128 46.2380883,30.0587128 L51.1904416,30.0587128 C51.6040087,30.0587128 51.9902853,29.8524698 52.2205125,29.5090693 L54.3289934,26.352856 L60.377176,26.352856 L64.973011,34.3773604 C65.1933672,34.7627626 65.6044665,35 66.0476467,35 L71,35 L71,32.5294288 L66.7656189,32.5294288 Z" id="Shape"></path>
                    <path d="M36.7498626,44.749978 L29.7674129,44.749978 L26.3836881,41.3662483 C26.1499286,41.1311694 25.8311655,41 25.499945,41 L19.2499908,41 C18.5599971,41 18,41.5588254 18,42.2499927 L18,50.9999414 C18,51.6912552 18.5599971,52.249934 19.2499908,52.249934 L24.2499542,52.249934 L24.2499542,64.7500073 C24.2499542,65.2238291 24.517422,65.6563216 24.941267,65.8686841 C25.1175759,65.9561792 25.3100062,66 25.5000916,66 C25.765068,66 26.0288719,65.9163154 26.2500275,65.7499722 L31.2499908,61.9999941 C31.5649434,61.7637427 31.7500458,61.3925115 31.7500458,61.0000293 L31.7500458,57.8500595 L37.5313084,53.226303 C37.8275016,52.9888792 38,52.6301053 38,52.2500806 L38,46.0001172 C37.9998534,45.3088034 37.4398564,44.749978 36.7498626,44.749978 Z M35.4998718,51.6500724 L29.7186092,56.2738289 C29.422416,56.5113993 29.2499176,56.8700266 29.2499176,57.2500513 L29.2499176,60.3751063 L26.7499359,62.2501685 L26.7499359,51.0000879 C26.7499359,50.3087741 26.1899388,49.7500953 25.499945,49.7500953 L20.4999817,49.7500953 L20.4999817,43.5001319 L24.9824497,43.5001319 L28.3661745,46.8838616 C28.599934,47.118794 28.9186971,47.2501099 29.2499176,47.2501099 L35.4998718,47.2501099 L35.4998718,51.6500724 Z" id="Shape"></path>
                    <path d="M10.8218716,27.0522084 L7.07167049,20.623637 C6.84669067,20.2366715 6.43908878,20 6.00041477,20 L4.75034772,20 L4.75034772,22.5714286 L5.2929375,22.5714286 L8.17692968,27.5149992 L5.11676437,30.662429 C4.88167144,30.9028692 4.75049428,31.2307422 4.75049428,31.5714286 L4.75049428,35.4285714 L1,35.4285714 L1,38 L6.0002682,38 C6.69030404,38 7.25033525,37.4239988 7.25033525,36.7142857 L7.25033525,32.1037134 L10.6342663,28.6232853 C11.0393766,28.2054168 11.1169103,27.5587156 10.8218716,27.0522084 Z" id="Shape"></path>
                    <path d="M38.508326,1 L38.508326,2.42328135 L34.4680105,3.36944542 C34.3296816,3.4021378 34.1976337,3.45698988 34.0793164,3.53044515 L30.9434706,5.48815805 L24.1149576,2.29032321 L23,4.37743776 L30.4750219,7.87743776 C30.650745,7.95910032 30.8413672,8 31.0319895,8 C31.2737365,8 31.5141689,7.93352093 31.7221735,7.80398249 L35.2803097,5.5826787 L40.0556529,4.46498222 C40.6099912,4.33544378 41,3.86885919 41,3.33333333 L41,1 L38.508326,1 Z" id="Shape"></path>
                </g>
            </g>
        </g>
    </g>
</svg>