<?xml version="1.0" encoding="UTF-8"?>
<svg width="216px" height="28px" viewBox="0 0 216 28" version="1.1" xmlns="http://www.w3.org/2000/svg" xmlns:xlink="http://www.w3.org/1999/xlink">
    <!-- Generator: Sketch 51.3 (57544) - http://www.bohemiancoding.com/sketch -->
    <title>LOGO</title>
    <desc>Created with Sketch.</desc>
    <defs>
        <polygon id="path-1" points="0 0.329872464 6.52996528 0.329872464 6.52996528 9.07764058 0 9.07764058"></polygon>
    </defs>
    <g id="STATIC-PAGES" stroke="none" stroke-width="1" fill="none" fill-rule="evenodd">
        <g id="HOMEPAGE" transform="translate(-96.000000, -65.000000)">
            <g id="HEADER" transform="translate(-5.000000, 44.000000)">
                <g id="LOGO" transform="translate(101.000000, 21.000000)">
                    <g>
                        <polygon id="Fill-1" fill="#FFFFFF" points="179.802394 14.659258 179.59862 27.6447652 206.904281 27.6447652 207.244175 12.3766493 193.642696 7.76111304 192.980024 7.5578087"></polygon>
                        <polygon id="Fill-2" fill="#FFF000" points="193.591467 8.3022029 194.202788 21.0844058 206.055075 12.8333333"></polygon>
                        <polygon id="Fill-3" fill="#BC1E2C" points="179.598824 22.4372928 179.598824 27.644887 193.795322 27.644887 193.795322 21.9637275"></polygon>
                        <polygon id="Fill-4" fill="#BC1E2C" points="194.066586 21.8284754 194.066586 27.6447652 206.904322 27.6447652 206.904322 19.7998957"></polygon>
                        <polygon id="Fill-5" fill="#00ACEE" points="188.599177 0.000162318841 173.672355 5.98526377 179.394725 14.9976116 193.387449 7.76103188"></polygon>
                        <polygon id="Fill-6" fill="#00ACEE" points="193.642574 7.76103188 207.040279 12.8330899 194.075389 21.8243362 203.100113 24.1280464 215.734483 13.5773217 207.24446 12.3765681 211.251057 4.85227826 198.074649 0.761031884"></polygon>
                        <polygon id="Fill-7" fill="#00ACEE" points="193.795241 21.9637681 186.204675 27.0362319 171.838637 19.173913 179.802516 14.6594203"></polygon>
                        <g id="Group-49" transform="translate(0.000000, 8.572464)">
                            <g id="Group-10">
                                <mask id="mask-2" fill="white">
                                    <use xlink:href="#path-1"></use>
                                </mask>
                                <g id="Clip-9"></g>
                                <path d="M3.14039547,5.05781449 C4.58596528,5.05781449 5.53310491,4.28842319 5.53310491,3.14651014 L5.53310491,3.12175652 C5.53310491,1.88123478 4.59859925,1.23561159 3.19052377,1.23561159 L0.984470943,1.23561159 L0.984470943,5.05781449 L3.14039547,5.05781449 Z M-0.000163018868,0.826162319 C-0.000163018868,0.55306087 0.224395472,0.329872464 0.486040755,0.329872464 L3.26510491,0.329872464 C5.23396528,0.329872464 6.52996528,1.37236522 6.52996528,3.08442319 L6.52996528,3.10917681 C6.52996528,4.98314783 4.96009358,5.95097391 3.10290113,5.95097391 L0.984470943,5.95097391 L0.984470943,8.58175652 C0.984470943,8.85445217 0.76032,9.07764058 0.486040755,9.07764058 C0.224395472,9.07764058 -0.000163018868,8.85445217 -0.000163018868,8.58175652 L-0.000163018868,0.826162319 Z" id="Fill-8" fill="#353535" mask="url(#mask-2)"></path>
                            </g>
                            <path d="M8.66135547,0.764034783 C8.66135547,0.490933333 8.88591396,0.26733913 9.14755925,0.26733913 C9.42143094,0.26733913 9.64598943,0.490933333 9.64598943,0.764034783 L9.64598943,8.58171594 C9.64598943,8.85441159 9.42143094,9.0776 9.14755925,9.0776 C8.88591396,9.0776 8.66135547,8.85441159 8.66135547,8.58171594 L8.66135547,0.764034783 Z" id="Fill-11" fill="#353535"></path>
                            <path d="M12.4498732,0.776330435 C12.4498732,0.515808696 12.6740242,0.293026087 12.9356694,0.293026087 L13.0730128,0.293026087 C13.2971638,0.293026087 13.4345072,0.404214493 13.571443,0.578301449 L18.867926,7.30357681 L18.867926,0.751576812 C18.867926,0.491055072 19.0798506,0.26746087 19.3537223,0.26746087 C19.6157751,0.26746087 19.8276996,0.491055072 19.8276996,0.751576812 L19.8276996,8.59441739 C19.8276996,8.85453333 19.6406355,9.05296812 19.3785826,9.05296812 L19.3288619,9.05296812 C19.1169374,9.05296812 18.9677751,8.9292 18.8177977,8.75511304 L13.4092392,1.86833043 L13.4092392,8.59441739 C13.4092392,8.85453333 13.1973147,9.07772174 12.923443,9.07772174 C12.6617977,9.07772174 12.4498732,8.85453333 12.4498732,8.59441739 L12.4498732,0.776330435 Z" id="Fill-13" fill="#353535"></path>
                            <path d="M30.0341072,4.69758841 L30.0341072,4.67242899 C30.0341072,2.69984928 28.5885374,1.08721159 26.5944091,1.08721159 C24.6002808,1.08721159 23.1799789,2.67550145 23.1799789,4.64808116 L23.1799789,4.67242899 C23.1799789,6.64622609 24.6255487,8.25886377 26.6192694,8.25886377 C28.6133977,8.25886377 30.0341072,6.67057391 30.0341072,4.69758841 M22.1578506,4.69758841 L22.1578506,4.67242899 C22.1578506,2.27822609 23.9649147,0.181066667 26.6192694,0.181066667 C29.2736242,0.181066667 31.0558279,2.25306667 31.0558279,4.64808116 L31.0558279,4.67242899 C31.0558279,7.06784928 29.2487638,9.1650087 26.5944091,9.1650087 C23.9400543,9.1650087 22.1578506,7.0921971 22.1578506,4.69758841" id="Fill-15" fill="#353535"></path>
                            <path d="M35.4054566,5.60348986 L32.1654566,1.08696812 C32.1031019,0.987547826 32.0529736,0.875953623 32.0529736,0.75177971 C32.0529736,0.490852174 32.2897585,0.267663768 32.5640377,0.267663768 C32.7759623,0.267663768 32.9128981,0.391837681 33.0376075,0.565518841 L35.9165208,4.69775072 L38.8202943,0.565518841 C38.9450038,0.391837681 39.0693057,0.267663768 39.2812302,0.267663768 C39.5555094,0.267663768 39.767434,0.490852174 39.767434,0.75177971 C39.767434,0.875953623 39.6924453,1.01270725 39.6300906,1.11172174 L36.402317,5.57833043 L36.402317,8.58163478 C36.402317,8.85473623 36.178166,9.07792464 35.9038868,9.07792464 C35.6300151,9.07792464 35.4054566,8.85473623 35.4054566,8.58163478 L35.4054566,5.60348986 Z" id="Fill-17" fill="#353535"></path>
                            <path d="M45.6992015,8.13497391 C47.0204694,8.13497391 47.8428996,7.55184348 47.8428996,6.58401739 L47.8428996,6.55885797 C47.8428996,5.61578551 47.0453298,5.06958261 45.5247713,5.06958261 L42.7705675,5.06958261 L42.7705675,8.13497391 L45.6992015,8.13497391 Z M45.3503411,4.20158261 C46.5342657,4.20158261 47.3566958,3.66755362 47.3566958,2.64981449 L47.3566958,2.62546667 C47.3566958,1.76923478 46.6712015,1.21085797 45.4253298,1.21085797 L42.7705675,1.21085797 L42.7705675,4.20158261 L45.3503411,4.20158261 Z M41.7985675,0.826162319 C41.7985675,0.55306087 42.0227185,0.329872464 42.2847713,0.329872464 L45.5125449,0.329872464 C46.5094053,0.329872464 47.2943411,0.615553623 47.7931789,1.09885797 C48.1542657,1.47137971 48.3539638,1.93033623 48.3539638,2.48911884 L48.3539638,2.51346667 C48.3539638,3.6432058 47.6558355,4.22633623 46.9703411,4.5241913 C48.0046958,4.83422029 48.83976,5.42952464 48.83976,6.62094493 L48.83976,6.64610435 C48.83976,8.13497391 47.5812543,9.01595942 45.6743411,9.01595942 L42.2847713,9.01595942 C42.0227185,9.01595942 41.7985675,8.79236522 41.7985675,8.51966957 L41.7985675,0.826162319 Z" id="Fill-19" fill="#353535"></path>
                            <path d="M58.5353479,4.69758841 L58.5353479,4.67242899 C58.5353479,2.69984928 57.0897781,1.08721159 55.0960574,1.08721159 C53.1019291,1.08721159 51.6812196,2.67550145 51.6812196,4.64808116 L51.6812196,4.67242899 C51.6812196,6.64622609 53.1267894,8.25886377 55.1209177,8.25886377 C57.1146385,8.25886377 58.5353479,6.67057391 58.5353479,4.69758841 M50.6594989,4.69758841 L50.6594989,4.67242899 C50.6594989,2.27822609 52.4661555,0.181066667 55.1209177,0.181066667 C57.7752725,0.181066667 59.5574762,2.25306667 59.5574762,4.64808116 L59.5574762,4.67242899 C59.5574762,7.06784928 57.7504121,9.1650087 55.0960574,9.1650087 C52.4412951,9.1650087 50.6594989,7.0921971 50.6594989,4.69758841" id="Fill-21" fill="#353535"></path>
                            <path d="M61.0779532,8.27128116 L63.9939532,4.58623768 L61.227523,1.1113971 C61.1403079,0.999802899 61.0653192,0.888208696 61.0653192,0.738875362 C61.0653192,0.490933333 61.2772438,0.26733913 61.551523,0.26733913 C61.7508136,0.26733913 61.8628891,0.36675942 61.9875985,0.516092754 L64.6175004,3.91586087 L67.2095004,0.55302029 C67.3464362,0.391918841 67.4711457,0.26733913 67.6830702,0.26733913 C67.9198551,0.26733913 68.1317796,0.466585507 68.1317796,0.726701449 C68.1317796,0.850875362 68.0816513,0.975455072 67.9944362,1.07446957 L65.2153721,4.57365797 L68.0942853,8.23435362 C68.1937268,8.34594783 68.2560815,8.45754203 68.2560815,8.59429565 C68.2560815,8.85441159 68.044157,9.0776 67.7702853,9.0776 C67.5709947,9.0776 67.4585117,8.97858551 67.3342098,8.82965797 L64.580006,5.26878841 L61.8628891,8.79232464 C61.7259532,8.95423768 61.6012438,9.0776 61.3770928,9.0776 C61.1529419,9.0776 60.9410174,8.87957101 60.9410174,8.61864348 C60.9410174,8.49487536 60.9907381,8.37070145 61.0779532,8.27128116" id="Fill-23" fill="#353535"></path>
                            <path d="M73.5901404,8.11001739 C75.7957857,8.11001739 77.2042687,6.62074203 77.2042687,4.69766957 L77.2042687,4.67251014 C77.2042687,2.74943768 75.7957857,1.23581449 73.5901404,1.23581449 L71.5462913,1.23581449 L71.5462913,8.11001739 L73.5901404,8.11001739 Z M70.5616574,0.826365217 C70.5616574,0.553263768 70.7862158,0.329669565 71.0478611,0.329669565 L73.5901404,0.329669565 C76.3317102,0.329669565 78.2259894,2.20364058 78.2259894,4.64816232 L78.2259894,4.67251014 C78.2259894,7.11743768 76.3317102,9.01575652 73.5901404,9.01575652 L71.0478611,9.01575652 C70.7862158,9.01575652 70.5616574,8.79256812 70.5616574,8.51987246 L70.5616574,0.826365217 Z" id="Fill-25" fill="#353535"></path>
                            <path d="M80.5566294,8.51975072 L80.5566294,0.826243478 C80.5566294,0.553142029 80.7807804,0.329547826 81.0424257,0.329547826 L86.4636181,0.329547826 C86.713037,0.329547826 86.9123275,0.528388406 86.9123275,0.776330435 C86.9123275,1.02467826 86.713037,1.22351884 86.4636181,1.22351884 L81.5412634,1.22351884 L81.5412634,4.18908406 L85.9028332,4.18908406 C86.1522521,4.18908406 86.3515426,4.40009855 86.3515426,4.63546087 C86.3515426,4.8838087 86.1522521,5.08224348 85.9028332,5.08224348 L81.5412634,5.08224348 L81.5412634,8.12247536 L86.5259728,8.12247536 C86.7753917,8.12247536 86.9746823,8.32091014 86.9746823,8.56925797 C86.9746823,8.8172 86.7753917,9.01604058 86.5259728,9.01604058 L81.0424257,9.01604058 C80.7807804,9.01604058 80.5566294,8.79244638 80.5566294,8.51975072" id="Fill-27" fill="#353535"></path>
                            <path d="M89.1557117,0.764034783 C89.1557117,0.490933333 89.3798626,0.26733913 89.6415079,0.26733913 C89.9157872,0.26733913 90.1403457,0.490933333 90.1403457,0.764034783 L90.1403457,8.11017971 L94.6641192,8.11017971 C94.9131306,8.11017971 95.1128287,8.32078841 95.1128287,8.56913623 C95.1128287,8.81748406 94.9131306,9.01591884 94.6641192,9.01591884 L89.6415079,9.01591884 C89.3798626,9.01591884 89.1557117,8.79232464 89.1557117,8.51962899 L89.1557117,0.764034783 Z" id="Fill-29" fill="#353535"></path>
                            <path d="M97.2063577,0.764034783 C97.2063577,0.490933333 97.4305087,0.26733913 97.6925615,0.26733913 C97.9664332,0.26733913 98.1909917,0.490933333 98.1909917,0.764034783 L98.1909917,8.58171594 C98.1909917,8.85441159 97.9664332,9.0776 97.6925615,9.0776 C97.4305087,9.0776 97.2063577,8.85441159 97.2063577,8.58171594 L97.2063577,0.764034783 Z" id="Fill-31" fill="#353535"></path>
                            <path d="M103.798555,8.7056058 L100.433846,0.975171014 C100.396352,0.900910145 100.384125,0.838417391 100.384125,0.751576812 C100.384125,0.503634783 100.608276,0.26746087 100.882555,0.26746087 C101.131974,0.26746087 101.306405,0.428968116 101.39362,0.639982609 L104.409469,7.8372 L107.437544,0.615228986 C107.524759,0.441547826 107.699189,0.26746087 107.923748,0.26746087 C108.19762,0.26746087 108.409544,0.491055072 108.409544,0.738997101 C108.409544,0.813663768 108.397318,0.875750725 108.372457,0.937837681 L104.995114,8.7056058 C104.883038,8.95395362 104.708201,9.11505507 104.421695,9.11505507 L104.371974,9.11505507 C104.085469,9.11505507 103.898405,8.95395362 103.798555,8.7056058" id="Fill-33" fill="#353535"></path>
                            <path d="M110.515911,8.51975072 L110.515911,0.826243478 C110.515911,0.553142029 110.740062,0.329547826 111.001707,0.329547826 L116.4229,0.329547826 C116.672318,0.329547826 116.871609,0.528388406 116.871609,0.776330435 C116.871609,1.02467826 116.672318,1.22351884 116.4229,1.22351884 L111.500137,1.22351884 L111.500137,4.18908406 L115.862115,4.18908406 C116.111126,4.18908406 116.310824,4.40009855 116.310824,4.63546087 C116.310824,4.8838087 116.111126,5.08224348 115.862115,5.08224348 L111.500137,5.08224348 L111.500137,8.12247536 L116.485254,8.12247536 C116.734673,8.12247536 116.933964,8.32091014 116.933964,8.56925797 C116.933964,8.8172 116.734673,9.01604058 116.485254,9.01604058 L111.001707,9.01604058 C110.740062,9.01604058 110.515911,8.79244638 110.515911,8.51975072" id="Fill-35" fill="#353535"></path>
                            <path d="M122.778965,4.7597971 C124.087191,4.7597971 125.022104,4.08982609 125.022104,2.97307246 L125.022104,2.94791304 C125.022104,1.88107246 124.199266,1.23544928 122.791191,1.23544928 L120.099342,1.23544928 L120.099342,4.7597971 L122.778965,4.7597971 Z M119.115115,0.826405797 C119.115115,0.553304348 119.339266,0.329710145 119.600912,0.329710145 L122.86618,0.329710145 C123.938029,0.329710145 124.797953,0.652724638 125.346104,1.19852174 C125.769953,1.62055072 126.018965,2.22843478 126.018965,2.91057971 L126.018965,2.93573913 C126.018965,4.36252174 125.046965,5.194 123.688202,5.45492754 L125.857168,8.23463768 C125.957017,8.34582609 126.018965,8.45742029 126.018965,8.59417391 C126.018965,8.85469565 125.769953,9.07788406 125.520942,9.07788406 C125.320836,9.07788406 125.171674,8.96628986 125.059598,8.81736232 L122.604127,5.64078261 L120.099342,5.64078261 L120.099342,8.5815942 C120.099342,8.85469565 119.875191,9.07788406 119.600912,9.07788406 C119.339266,9.07788406 119.115115,8.85469565 119.115115,8.5815942 L119.115115,0.826405797 Z" id="Fill-37" fill="#353535"></path>
                            <path d="M130.779849,5.60348986 L127.539849,1.08696812 C127.477087,0.987547826 127.427366,0.875953623 127.427366,0.75177971 C127.427366,0.490852174 127.664151,0.267663768 127.93843,0.267663768 C128.150355,0.267663768 128.287698,0.391837681 128.412,0.565518841 L131.290913,4.69775072 L134.194687,0.565518841 C134.319396,0.391837681 134.443698,0.267663768 134.655623,0.267663768 C134.929902,0.267663768 135.141826,0.490852174 135.141826,0.75177971 C135.141826,0.875953623 135.067245,1.01270725 135.004483,1.11172174 L131.776709,5.57833043 L131.776709,8.58163478 C131.776709,8.85473623 131.552558,9.07792464 131.278279,9.07792464 C131.004408,9.07792464 130.779849,8.85473623 130.779849,8.58163478 L130.779849,5.60348986 Z" id="Fill-39" fill="#353535"></path>
                            <path d="M135.851896,7.65110145 C136.18853,7.65110145 136.437541,7.89904348 136.437541,8.23423188 L136.437541,8.48257971 C136.437541,8.81736232 136.18853,9.07788406 135.851896,9.07788406 C135.503443,9.07788406 135.253617,8.81736232 135.253617,8.48257971 L135.253617,8.23423188 C135.253617,7.89904348 135.503443,7.65110145 135.851896,7.65110145" id="Fill-41" fill="#353535"></path>
                            <path d="M137.970856,4.69758841 L137.970856,4.67242899 C137.970856,2.21613913 139.815007,0.181066667 142.382554,0.181066667 C143.790629,0.181066667 144.688048,0.640023188 145.498252,1.3099942 C145.598101,1.39683478 145.697543,1.53318261 145.697543,1.70726957 C145.697543,1.96738551 145.460758,2.19097971 145.199112,2.19097971 C145.061769,2.19097971 144.949694,2.12929855 144.874705,2.07938551 C144.201845,1.48408116 143.441769,1.08721159 142.370328,1.08721159 C140.438554,1.08721159 138.992984,2.64993623 138.992984,4.64808116 L138.992984,4.67242899 C138.992984,6.68315362 140.45078,8.25886377 142.370328,8.25886377 C143.454403,8.25886377 144.214478,7.88634203 144.962328,7.2041971 C145.036909,7.12953043 145.148984,7.06784928 145.273694,7.06784928 C145.523112,7.06784928 145.747263,7.29144348 145.747263,7.53938551 C145.747263,7.68831304 145.672275,7.81208116 145.585467,7.88634203 C144.725543,8.66831304 143.778403,9.1650087 142.34506,9.1650087 C139.828048,9.1650087 137.970856,7.19161739 137.970856,4.69758841" id="Fill-43" fill="#353535"></path>
                            <path d="M155.044433,4.69758841 L155.044433,4.67242899 C155.044433,2.69984928 153.598456,1.08721159 151.604735,1.08721159 C149.610607,1.08721159 148.190305,2.67550145 148.190305,4.64808116 L148.190305,4.67242899 C148.190305,6.64622609 149.635875,8.25886377 151.629595,8.25886377 C153.623724,8.25886377 155.044433,6.67057391 155.044433,4.69758841 M147.168177,4.69758841 L147.168177,4.67242899 C147.168177,2.27822609 148.975241,0.181066667 151.629595,0.181066667 C154.284358,0.181066667 156.066154,2.25306667 156.066154,4.64808116 L156.066154,4.67242899 C156.066154,7.06784928 154.25909,9.1650087 151.604735,9.1650087 C148.95038,9.1650087 147.168177,7.0921971 147.168177,4.69758841" id="Fill-45" fill="#353535"></path>
                            <path d="M158.396753,0.776330435 C158.396753,0.515808696 158.621312,0.293026087 158.882549,0.293026087 L158.995032,0.293026087 C159.206549,0.293026087 159.356119,0.404214493 159.456376,0.553142029 L162.571666,5.2185913 L165.687365,0.553142029 C165.786806,0.39204058 165.948602,0.293026087 166.1483,0.293026087 L166.260376,0.293026087 C166.522021,0.293026087 166.746172,0.515808696 166.746172,0.776330435 L166.746172,8.58143188 C166.746172,8.85453333 166.522021,9.07772174 166.260376,9.07772174 C165.986097,9.07772174 165.761946,8.84235942 165.761946,8.58143188 L165.761946,2.10409855 L162.970655,6.18682319 C162.858172,6.34792464 162.73387,6.43476522 162.559032,6.43476522 C162.384602,6.43476522 162.247666,6.34792464 162.135591,6.18682319 L159.356119,2.11667826 L159.356119,8.59441739 C159.356119,8.86670725 159.144602,9.07772174 158.870323,9.07772174 C158.608678,9.07772174 158.396753,8.86670725 158.396753,8.59441739 L158.396753,0.776330435 Z" id="Fill-47" fill="#353535"></path>
                        </g>
                    </g>
                </g>
            </g>
        </g>
    </g>
</svg>