<?xml version="1.0" encoding="UTF-8"?>
<svg width="87px" height="74px" viewBox="0 0 87 74" version="1.1" xmlns="http://www.w3.org/2000/svg" xmlns:xlink="http://www.w3.org/1999/xlink">
    <!-- Generator: Sketch 51.3 (57544) - http://www.bohemiancoding.com/sketch -->
    <title>Group 9</title>
    <desc>Created with Sketch.</desc>
    <defs>
        <polygon id="path-1" points="0 0.136152128 86.9998032 0.136152128 86.9998032 73.9999606 0 73.9999606"></polygon>
    </defs>
    <g id="STATIC-PAGES" stroke="none" stroke-width="1" fill="none" fill-rule="evenodd">
        <g id="RATES" transform="translate(-235.000000, -913.000000)">
            <g transform="translate(199.000000, 407.000000)" id="DATA">
                <g transform="translate(36.000000, 203.000000)">
                    <g id="JUMBO" transform="translate(0.000000, 303.000000)">
                        <g id="Group-9">
                            <polygon id="Fill-1" fill="#D9F6FF" points="9 59.6818182 43.8005698 74 44 20.9733542 9.6980057 11"></polygon>
                            <polygon id="Fill-2" fill="#FFFFFF" points="8.69837587 11 1 21.7 32.8654292 33 43 20.7"></polygon>
                            <g id="Group-8">
                                <g id="Group-5">
                                    <mask id="mask-2" fill="white">
                                        <use xlink:href="#path-1"></use>
                                    </mask>
                                    <g id="Clip-4"></g>
                                    <path d="M11.3143106,10.5307904 L43.4999803,19.396817 L75.6854532,10.5307904 L43.4999803,1.44355106 L11.3143106,10.5307904 Z M1.68407986,21.2855883 L33.0448242,31.9278117 L42.3841364,20.4186468 L9.17867715,11.2727585 L1.68407986,21.2855883 Z M44.6162179,20.4192372 L53.9555301,31.9284021 L85.3160776,21.2855883 L77.8216771,11.2729553 L44.6162179,20.4192372 Z M44.141064,72.3995138 L77.4317518,58.6449606 L77.4317518,25.315833 L53.9447043,33.2869713 C53.8787654,33.3094074 53.8096771,33.3208223 53.7386206,33.3208223 C53.5449373,33.3208223 53.363064,33.2342266 53.2406342,33.0834713 L44.141064,21.8699128 L44.141064,72.3995138 Z M9.56860249,58.6449606 L42.8592903,72.3995138 L42.8592903,21.8695191 L33.7595233,33.0830777 C33.6370934,33.2342266 33.4558106,33.3204287 33.2617337,33.3204287 C33.190874,33.3204287 33.1217857,33.3092106 33.0570278,33.2871681 L9.56860249,25.3154394 L9.56860249,58.6449606 Z M43.4999803,73.9999606 C43.3706613,73.9999606 43.3401523,73.9871681 43.2850391,73.9635511 L8.68226538,59.6663968 C8.44153914,59.5670085 8.28584457,59.3343809 8.28584457,59.0738064 L8.28584457,24.8804926 L0.435177149,22.2166894 C0.241100226,22.1507585 0.0893423077,21.9944926 0.0283242081,21.7988649 C-0.0321033937,21.6036309 0.0050979638,21.388716 0.127724661,21.2245777 C0.46115905,20.7790032 8.30218167,10.3044606 8.41555724,10.1515404 C8.5125957,10.0210564 8.70686946,9.93603511 8.76769072,9.91694468 L43.3253898,0.160359574 C43.3820776,0.144221277 43.4411274,0.136152128 43.4999803,0.136152128 C43.5586364,0.136152128 43.6176862,0.144221277 43.6745708,0.160359574 L78.2326636,9.91714149 C78.4334328,9.98307234 78.5188581,10.0682904 78.5379509,10.0897426 L78.5481862,10.1064713 L86.8724328,21.2249713 C86.9946658,21.388716 87.0318672,21.603434 86.9712428,21.7988649 C86.9106183,21.9940989 86.7584667,22.1503649 86.5645867,22.2162957 L78.7139192,24.8800989 L78.7139192,59.0742 C78.7139192,59.3345777 78.5584215,59.5672053 78.3174984,59.6665936 L43.7133468,73.9641415 L43.7135437,73.9645351 C43.7015369,73.9684713 43.6100097,73.9999606 43.4999803,73.9999606 Z" id="Fill-3" fill="#666666" mask="url(#mask-2)"></path>
                                </g>
                                <path d="M63.1528867,40.6592213 L63.1528867,47.0466415 C63.1528867,49.9035138 61.5973188,51.20245 60.0716695,51.7578436 C59.3087464,52.0355404 58.635579,52.086317 58.0822826,51.9733489 C57.9027713,51.9339872 57.7531785,51.8239713 57.7531785,51.539583 C57.7531785,51.2254766 57.9775676,50.8448489 58.321631,50.7194819 C58.3962305,50.6923223 58.5009455,50.6690989 58.5907011,50.6814979 C58.9946016,50.7289287 59.4581423,50.694684 59.9819138,50.5041734 C60.8794704,50.1774713 61.7915925,49.5163915 61.7915925,47.6315564 L61.7915925,41.1547851 C61.7915925,40.7806521 62.0907781,40.3579074 62.4649568,40.2215191 C62.8387419,40.0855245 63.1528867,40.2852851 63.1528867,40.6592213" id="Fill-6" fill="#666666"></path>
                            </g>
                        </g>
                    </g>
                </g>
            </g>
        </g>
    </g>
</svg>