<?xml version="1.0" encoding="UTF-8"?>
<svg width="70px" height="53px" viewBox="0 0 70 53" version="1.1" xmlns="http://www.w3.org/2000/svg" xmlns:xlink="http://www.w3.org/1999/xlink">
    <!-- Generator: Sketch 51.3 (57544) - http://www.bohemiancoding.com/sketch -->
    <title>Group 9</title>
    <desc>Created with Sketch.</desc>
    <defs>
        <polygon id="path-1" points="0 0.110268712 69.9998416 0.110268712 69.9998416 52 0 52"></polygon>
    </defs>
    <g id="STATIC-PAGES" stroke="none" stroke-width="1" fill="none" fill-rule="evenodd">
        <g id="RATES" transform="translate(-242.000000, -705.000000)">
            <g transform="translate(199.000000, 407.000000)" id="DATA">
                <g transform="translate(36.000000, 203.000000)">
                    <g id="MEDIUM" transform="translate(2.000000, 95.333333)">
                        <g id="Group-9" transform="translate(5.000000, 0.000000)">
                            <polygon id="Fill-1" fill="#D9F6FF" points="7 40.4107807 34.8404558 52 35 17.0724907 7.55840456 9"></polygon>
                            <polygon id="Fill-2" fill="#FFFFFF" points="7.41531323 9 1 17.2681818 27.5545244 26 36 16.4954545"></polygon>
                            <g id="Group-8">
                                <g id="Group-5">
                                    <mask id="mask-2" fill="white">
                                        <use xlink:href="#path-1"></use>
                                    </mask>
                                    <g id="Clip-4"></g>
                                    <path d="M9.10338914,8.53506626 L34.999905,15.7206368 L60.8964208,8.53506626 L34.999905,1.17004785 L9.10338914,8.53506626 Z M1.35508597,17.2516061 L26.5877104,25.8769067 L34.1019412,16.5491276 L7.38506335,9.13657546 L1.35508597,17.2516061 Z M35.8980271,16.5494466 L43.4122579,25.8772258 L68.6450407,17.2516061 L62.614905,9.13641595 L35.8980271,16.5494466 Z M35.5157195,50.702919 L62.3013303,39.5551399 L62.3013303,20.5180356 L43.4037059,26.9783178 C43.3506516,26.9966613 43.294905,27.0057534 43.2378914,27.0057534 C43.0817376,27.0057534 42.9355611,26.9357288 42.8370543,26.8133853 L35.5157195,17.725189 L35.5157195,50.702919 Z M7.69879638,39.5551399 L34.4842489,50.702919 L34.4842489,17.7248699 L27.1627557,26.8130663 C27.0642489,26.9355693 26.9183891,27.0054344 26.7622353,27.0054344 C26.7050633,27.0054344 26.6496335,26.9965018 26.5975294,26.9784773 L7.69879638,20.5177166 L7.69879638,39.5551399 Z M34.999905,52.0000479 C34.8960136,52.0000479 34.8714661,51.9895202 34.8269638,51.9705387 L6.98580995,40.3831521 C6.79212217,40.3026 6.66685068,40.1140601 6.66685068,39.9030294 L6.66685068,20.1652012 L0.350063348,18.0060847 C0.194067873,17.9528086 0.0718054299,17.8261583 0.0228687783,17.6674466 C-0.0257511312,17.509373 0.00418099548,17.3350294 0.102846154,17.2019988 C0.371285068,16.8408699 6.68015385,8.35147117 6.77121719,8.22769202 C6.84913575,8.12177791 7.00560633,8.05318896 7.05438462,8.03739755 L34.8595882,0.129888344 C34.9051991,0.116968098 34.952552,0.110268712 34.999905,0.110268712 C35.0472579,0.110268712 35.0947692,0.116968098 35.1405385,0.129888344 L62.9457421,8.03755706 C63.1074389,8.09099264 63.1760136,8.16006012 63.1915339,8.17744663 L63.1997692,8.19100491 L69.8974389,17.2023178 C69.9957873,17.3350294 70.0255611,17.509054 69.9769412,17.6674466 C69.9281629,17.8258393 69.8057421,17.9524896 69.6495882,18.0057656 L63.3329593,20.1648822 L63.3329593,39.9030294 C63.3329593,40.1140601 63.2078462,40.3026 63.0141584,40.3831521 L35.1715792,51.9710172 L35.1717376,51.9713362 C35.1620769,51.9745264 35.0885928,52.0000479 34.999905,52.0000479 Z" id="Fill-3" fill="#666666" mask="url(#mask-2)"></path>
                                </g>
                                <path d="M55.8281833,27.0202209 L55.8281833,34.2579509 C55.8281833,34.5611779 55.5874593,34.891681 55.2865543,35.0020613 C54.9856493,35.1122822 54.7328891,34.9625031 54.7328891,34.6594356 L54.7328891,27.7732638 L51.9526855,35.714908 C51.8202873,36.0664663 51.5315769,36.3784663 51.1825271,36.5063926 C50.8334774,36.6344785 50.5446086,36.5341472 50.4122104,36.2795706 L47.6321652,30.3762945 L47.6321652,37.2624663 C47.6321652,37.5656933 47.379405,37.9005031 47.0785,38.0110429 C46.7777534,38.1212638 46.536871,37.9670184 46.536871,37.6639509 L46.536871,30.4262209 C46.536871,29.9899632 46.8859208,29.4983558 47.319224,29.3394847 L47.7162602,29.1938528 C48.0412376,29.0746994 48.3301063,29.1869939 48.4504683,29.4339141 L51.1825271,35.2942822 L53.914586,27.4309571 C54.034948,27.0958282 54.3238167,26.7717055 54.6486357,26.6525521 L55.0458303,26.5069202 C55.4792919,26.3480491 55.8281833,26.5839632 55.8281833,27.0202209" id="Fill-6" fill="#666666"></path>
                            </g>
                        </g>
                    </g>
                </g>
            </g>
        </g>
    </g>
</svg>