<?xml version="1.0" encoding="UTF-8"?>
<svg width="81px" height="66px" viewBox="0 0 81 66" version="1.1" xmlns="http://www.w3.org/2000/svg" xmlns:xlink="http://www.w3.org/1999/xlink">
    <!-- Generator: Sketch 51.3 (57544) - http://www.bohemiancoding.com/sketch -->
    <title>Group 9</title>
    <desc>Created with Sketch.</desc>
    <defs>
        <polygon id="path-1" points="0 0.127963006 80.9998167 0.127963006 80.9998167 63.999963 0 63.999963"></polygon>
    </defs>
    <g id="STATIC-PAGES" stroke="none" stroke-width="1" fill="none" fill-rule="evenodd">
        <g id="RATES" transform="translate(-238.000000, -804.000000)">
            <g transform="translate(199.000000, 407.000000)" id="DATA">
                <g transform="translate(36.000000, 203.000000)">
                    <g id="REGULAR" transform="translate(2.000000, 194.666667)">
                        <g id="Group-9" transform="translate(1.000000, 0.000000)">
                            <polygon id="Fill-1" fill="#D9F6FF" points="7 50.449827 41.8005698 65 42 17.1349481 7.6980057 7"></polygon>
                            <polygon id="Fill-2" fill="#FFFFFF" points="7.88167053 11 0 21.7 32.6241299 33 43 20.7"></polygon>
                            <g id="Group-8">
                                <g id="Group-5">
                                    <mask id="mask-2" fill="white">
                                        <use xlink:href="#path-1"></use>
                                    </mask>
                                    <g id="Clip-4"></g>
                                    <path d="M10.5339217,9.89739653 L40.49989,18.2301595 L70.4658584,9.89739653 L40.49989,1.35672601 L10.5339217,9.89739653 Z M1.56802805,20.0053272 L30.7657792,30.0076393 L39.4608176,19.1907145 L8.5455733,10.5949225 L1.56802805,20.0053272 Z M41.5391457,19.1910844 L50.2341842,30.0080092 L79.4321186,20.0053272 L72.45439,10.5949225 L41.5391457,19.1910844 Z M41.0967611,62.495778 L72.0915394,49.5687029 L72.0915394,23.7931653 L50.2242882,31.2848647 C50.1628968,31.3059514 50.09839,31.3166798 50.0324172,31.3166798 C49.8517249,31.3166798 49.6825778,31.2352925 49.5685914,31.0936046 L41.0967611,20.5545064 L41.0967611,62.495778 Z M8.90860724,49.5687029 L39.9032023,62.495778 L39.9032023,20.5541364 L31.4311887,31.0932347 C31.3172023,31.2351075 31.1484217,31.3163098 30.9677294,31.3163098 C30.9015733,31.3163098 30.837433,31.3057665 30.7771412,31.2850497 L8.90860724,23.7927954 L8.90860724,49.5687029 Z M40.49989,63.999963 C40.3796729,63.999963 40.3512679,63.9879399 40.2997724,63.9659283 L8.08358009,50.5287029 C7.85945566,50.4352925 7.71449864,50.2168416 7.71449864,49.9719399 L7.71449864,23.3840092 L0.405073303,20.8804254 C0.224564253,20.8184601 0.0830891403,20.6715931 0.0264624434,20.4877318 C-0.0297977376,20.3042405 0.00483800905,20.102252 0.119007692,19.9479861 C0.429629864,19.5292116 7.72989231,9.68467977 7.83526561,9.54095723 C7.92542851,9.41832139 8.10648733,9.33859884 8.16293077,9.32047168 L40.3375235,0.150714451 C40.3903018,0.135546821 40.4450959,0.127963006 40.49989,0.127963006 C40.5546842,0.127963006 40.6096615,0.135546821 40.6626231,0.150714451 L72.8372158,9.32065665 C73.0243222,9.38262197 73.1036729,9.46252948 73.1216321,9.4828763 L73.1311615,9.49859884 L80.8813222,19.9483561 C80.9951253,20.102252 81.0295778,20.3040555 80.9733176,20.4877318 C80.9168742,20.6712231 80.7752158,20.8180902 80.5945235,20.8800555 L73.2852814,23.3836393 L73.2852814,49.9719399 C73.2852814,50.2168416 73.1405077,50.4352925 72.9163833,50.5287029 L40.6985416,63.9664832 L40.6987249,63.9666682 C40.6875462,63.9703676 40.6025145,63.999963 40.49989,63.999963 Z" id="Fill-3" fill="#666666" mask="url(#mask-2)"></path>
                                </g>
                                <path d="M60.67646,36.5433542 C60.67646,35.4609542 60.0364141,34.9639161 57.8837237,35.7517109 L55.3237314,36.6884439 L55.3237314,40.4032405 L57.9564562,39.4399527 C59.585664,38.8438149 60.67646,37.786238 60.67646,36.5433542 Z M61.912721,42.6428944 C61.912721,43.0086975 61.621791,43.407598 61.2581286,43.5405648 C60.8508266,43.6896954 60.589181,43.5222842 60.589181,43.1272323 L60.589181,42.688692 C60.589181,41.723095 60.530995,39.7555324 58.3346652,40.5592985 L55.3237314,41.6611336 L55.3237314,45.0541929 C55.3237314,45.4198035 55.0182549,45.8238995 54.6545924,45.9570588 C54.2911214,46.0900256 54,45.9041414 54,45.5383384 L54,36.5876123 C54,36.2220016 54.2911214,35.8086692 54.6545924,35.6755099 L58.0437352,34.4353201 C60.8073785,33.424118 62,34.2746438 62,35.9564528 C62,37.0827261 61.3745006,38.3937289 60.0946001,39.3010206 C61.70907,39.1343791 61.912721,41.1510105 61.912721,41.9701708 L61.912721,42.6428944 Z" id="Fill-6" fill="#666666"></path>
                            </g>
                        </g>
                    </g>
                </g>
            </g>
        </g>
    </g>
</svg>