<?xml version="1.0" encoding="UTF-8"?>
<svg width="61px" height="43px" viewBox="0 0 61 43" version="1.1" xmlns="http://www.w3.org/2000/svg" xmlns:xlink="http://www.w3.org/1999/xlink">
    <!-- Generator: Sketch 51.3 (57544) - http://www.bohemiancoding.com/sketch -->
    <title>Group 9</title>
    <desc>Created with Sketch.</desc>
    <defs>
        <polygon id="path-1" points="0 0.0957557003 60.9998767 0.0957557003 60.9998767 42.3857143 0 42.3857143"></polygon>
    </defs>
    <g id="STATIC-PAGES" stroke="none" stroke-width="1" fill="none" fill-rule="evenodd">
        <g id="RATES" transform="translate(-245.000000, -610.000000)">
            <g transform="translate(199.000000, 407.000000)" id="DATA">
                <g transform="translate(36.000000, 203.000000)">
                    <g id="SMALL" transform="translate(2.000000, 0.000000)">
                        <g id="Group-9" transform="translate(8.000000, 0.000000)">
                            <polygon id="Fill-1" fill="#D9F6FF" points="6 31.1004016 29.8632479 41 30 13.8955823 6.47863248 7"></polygon>
                            <polygon id="Fill-2" fill="#FFFFFF" points="6.49883991 8 1 15.2954545 23.7610209 23 31 14.6136364"></polygon>
                            <g id="Group-8">
                                <g id="Group-5">
                                    <mask id="mask-2" fill="white">
                                        <use xlink:href="#path-1"></use>
                                    </mask>
                                    <g id="Clip-4"></g>
                                    <path d="M7.93295339,7.41172391 L30.4999172,13.6515659 L53.066881,7.41172391 L30.4999172,1.01605206 L7.93295339,7.41172391 Z M1.18086063,14.9810368 L23.1692905,22.4711189 L29.7174059,14.3710149 L6.4355552,7.9340655 L1.18086063,14.9810368 Z M31.2825665,14.371292 L37.8306819,22.4713959 L59.8192498,14.9810368 L54.5644172,7.93392699 L31.2825665,14.371292 Z M30.9494127,41.2593486 L54.2911593,31.5787839 L54.2911593,17.8175553 L37.8232294,23.4275677 C37.7769964,23.443497 37.7284172,23.4513924 37.6787339,23.4513924 C37.542657,23.4513924 37.4152747,23.3905841 37.329433,23.2843428 L30.9494127,15.392289 L30.9494127,41.2593486 Z M6.70895113,31.5787839 L30.0505597,41.2593486 L30.0505597,15.392012 L23.6704014,23.2840658 C23.5845597,23.3904456 23.4574534,23.4511154 23.3213765,23.4511154 C23.2715552,23.4511154 23.223252,23.4433585 23.1778471,23.4277063 L6.70895113,17.8172782 L6.70895113,31.5787839 Z M30.4999172,42.3857558 C30.4093833,42.3857558 30.3879919,42.3766138 30.3492113,42.3601305 L6.08763439,32.2978173 C5.91884932,32.227867 5.80968416,32.0641418 5.80968416,31.880886 L5.80968416,17.5111592 L0.305055204,15.6362147 C0.16911629,15.5899505 0.0625733032,15.4799693 0.0199285068,15.3421465 C-0.0224402715,15.2048777 0.00364343891,15.0534804 0.0896230769,14.9379585 C0.323548416,14.6243596 5.82127692,7.25229268 5.90063213,7.14480472 C5.96853258,7.05283049 6.10488552,6.99326887 6.14739231,6.97955584 L30.3776412,0.112793095 C30.4173878,0.101573347 30.4586525,0.0957557003 30.4999172,0.0957557003 C30.5411819,0.0957557003 30.5825846,0.101573347 30.6224692,0.112793095 L54.8527181,6.97969436 C54.9936253,7.02609702 55.0533833,7.08607419 55.0669081,7.10117237 L55.0740846,7.11294618 L60.9106253,14.9382355 C60.996329,15.0534804 61.0222747,15.2046007 60.9799059,15.3421465 C60.9373991,15.4796923 60.8307181,15.5896735 60.6946412,15.6359376 L55.1901502,17.5108822 L55.1901502,31.880886 C55.1901502,32.0641418 55.0811231,32.227867 54.912338,32.2978173 L30.649519,42.360546 L30.649657,42.3608231 C30.6412385,42.3635934 30.5772023,42.3857558 30.4999172,42.3857558 Z" id="Fill-3" fill="#666666" mask="url(#mask-2)"></path>
                                </g>
                                <path d="M46.9259751,28.5255165 C46.9259751,29.7150868 45.8666176,30.9653268 44.2411471,31.5591424 C43.1921403,31.9424145 42.3531833,32.0066856 41.7448394,31.9658236 C41.587509,31.9601445 41.4511561,31.8307711 41.4511561,31.6414205 C41.4511561,31.4096842 41.6189751,31.137917 41.8811923,31.0422029 C41.9441244,31.0192093 42.0070566,31.0067429 42.0806154,31.0114525 C42.5526063,31.0496827 43.2445837,31.0178242 44.1466109,30.688296 C45.184991,30.3090408 45.9819932,29.7231207 45.9819932,28.8071183 C45.9819932,27.249097 41.5245769,29.7405736 41.5245769,27.1507511 C41.5245769,25.9823736 42.4685588,24.6479162 44.2411471,24.0003567 C45.0591267,23.7015789 45.7617308,23.5816246 46.3281199,23.5853645 C46.4749615,23.5842564 46.6218032,23.6463113 46.6218032,23.8991019 C46.6218032,24.1097838 46.4644729,24.398727 46.2022557,24.4944411 C46.1498122,24.5136947 46.0870181,24.515634 46.0345747,24.5136947 C45.551957,24.5215901 44.9855679,24.6125947 44.3460339,24.8462702 C43.2866765,25.2331438 42.4790475,25.9388798 42.4790475,26.7284176 C42.4790475,28.5497567 46.9259751,25.7462048 46.9259751,28.5255165" id="Fill-6" fill="#666666"></path>
                            </g>
                        </g>
                    </g>
                </g>
            </g>
        </g>
    </g>
</svg>