<?xml version="1.0" encoding="UTF-8"?>
<svg width="257px" height="206px" viewBox="0 0 257 206" version="1.1" xmlns="http://www.w3.org/2000/svg" xmlns:xlink="http://www.w3.org/1999/xlink">
    <!-- Generator: Sketch 51.3 (57544) - http://www.bohemiancoding.com/sketch -->
    <title>SHIPPING</title>
    <desc>Created with Sketch.</desc>
    <defs>
        <polygon id="path-1" points="0 0.0500423257 23.9374062 0.0500423257 23.9374062 37.6448327 0 37.6448327"></polygon>
        <polygon id="path-3" points="0 37.6448598 24 37.6448598 24 0 0 0"></polygon>
        <polygon id="path-5" points="0 0.115590989 31.7358865 0.115590989 31.7358865 54.2493265 0 54.2493265"></polygon>
        <polygon id="path-7" points="0.0607052982 0.115567505 27.5193699 0.115567505 27.5193699 54.2493265 0.0607052982 54.2493265"></polygon>
        <polygon id="path-9" points="0.0391225549 0.0204697548 12.1840287 0.0204697548 12.1840287 15.7929155 0.0391225549 15.7929155"></polygon>
        <polygon id="path-11" points="0.0535868263 0.0204697548 12.198493 0.0204697548 12.198493 15.7929155 0.0535868263 15.7929155"></polygon>
        <polygon id="path-13" points="0.049308982 0.0361711172 16.4597645 0.0361711172 16.4597645 16.5431248 0.049308982 16.5431248"></polygon>
    </defs>
    <g id="STATIC-PAGES" stroke="none" stroke-width="1" fill="none" fill-rule="evenodd">
        <g id="SERVICES" transform="translate(-107.000000, -931.000000)">
            <g id="CONSILIDATE" transform="translate(98.000000, 870.000000)">
                <g id="Group">
                    <g id="VECTOR-SHIPPING" transform="translate(-2.000000, 18.000000)">
                        <g id="VECTOR-BOX" transform="translate(11.238889, 43.350000)" fill-rule="evenodd" stroke-width="1">
                            <g id="Group">
                                <polygon id="Fill-1" fill="#E0B27E" points="10.1666667 41.5053966 31.6913485 52.9707586 31.6913485 30.655931 10.1666667 19.1896552"></polygon>
                                <polygon id="Fill-2" fill="#EECB96" points="38.7738182 0 30.5 10.1513276 51.6115455 21.0921724 60.939 10.3185517"></polygon>
                                <polygon id="Fill-3" fill="#BA8656" points="31.4242424 30.6678103 31.4242424 52.9826379 51.1032121 42.1322586 51.1032121 21.0172414"></polygon>
                                <polygon id="Fill-4" fill="#BA8656" points="10.1666667 19.1777759 31.6913485 30.6431379 51.3703182 20.9934828 30.2587727 10.0517241"></polygon>
                                <polygon id="Fill-5" fill="#E0B27E" points="0.924242424 9.12422414 10.1999394 19.0964483 30.2920455 9.97131034 21.0145 0"></polygon>
                                <polygon id="Fill-6" fill="#D59C73" points="30.5 10.0517241 51.6115455 20.9934828 31.9325758 30.6431379"></polygon>
                                <g id="Group-11" transform="translate(9.242424, 19.189655)">
                                    <polygon id="Fill-7" fill="#E0B27E" points="0.767213636 13.9888931 12.4940015 20.2191345 22.2918955 11.4951517 0.767213636 0.0297896552"></polygon>
                                    <polygon id="Fill-9" fill="#BA8656" points="22.2918955 11.4956086 31.4040015 21.0822121 41.9708652 15.3710052 41.9708652 1.84595345"></polygon>
                                </g>
                                <polygon id="Fill-12" fill="#EECB96" points="0 26.4287241 21.5246818 37.895 31.5342273 30.655931 10.0095455 19.1896552"></polygon>
                                <polygon id="Fill-13" fill="#EECB96" points="31.4242424 30.6678103 40.9254545 38.1609138 60.6035 27.3096207 51.1032121 21.0172414"></polygon>
                            </g>
                        </g>
                        <g id="VECTOR-BOX" transform="translate(207.116667, 43.350000)" fill-rule="evenodd" stroke-width="1">
                            <g id="Group">
                                <polygon id="Fill-1" fill="#E0B27E" points="10.1666667 41.5053966 31.6913485 52.9707586 31.6913485 30.655931 10.1666667 19.1896552"></polygon>
                                <polygon id="Fill-2" fill="#EECB96" points="38.7738182 0 30.5 10.1513276 51.6115455 21.0921724 60.939 10.3185517"></polygon>
                                <polygon id="Fill-3" fill="#BA8656" points="31.4242424 30.6678103 31.4242424 52.9826379 51.1032121 42.1322586 51.1032121 21.0172414"></polygon>
                                <polygon id="Fill-4" fill="#BA8656" points="10.1666667 19.1777759 31.6913485 30.6431379 51.3703182 20.9934828 30.2587727 10.0517241"></polygon>
                                <polygon id="Fill-5" fill="#E0B27E" points="0.924242424 9.12422414 10.1999394 19.0964483 30.2920455 9.97131034 21.0145 0"></polygon>
                                <polygon id="Fill-6" fill="#D59C73" points="30.5 10.0517241 51.6115455 20.9934828 31.9325758 30.6431379"></polygon>
                                <g id="Group-11" transform="translate(9.242424, 19.189655)">
                                    <polygon id="Fill-7" fill="#E0B27E" points="0.767213636 13.9888931 12.4940015 20.2191345 22.2918955 11.4951517 0.767213636 0.0297896552"></polygon>
                                    <polygon id="Fill-9" fill="#BA8656" points="22.2918955 11.4956086 31.4040015 21.0822121 41.9708652 15.3710052 41.9708652 1.84595345"></polygon>
                                </g>
                                <polygon id="Fill-12" fill="#EECB96" points="0 26.4287241 21.5246818 37.895 31.5342273 30.655931 10.0095455 19.1896552"></polygon>
                                <polygon id="Fill-13" fill="#EECB96" points="31.4242424 30.6678103 40.9254545 38.1609138 60.6035 27.3096207 51.1032121 21.0172414"></polygon>
                            </g>
                        </g>
                        <g id="VECTOR-BOX-WITH-ITEMS" transform="translate(65.827778, 112.388889)" fill-rule="evenodd">
                            <g id="Group" stroke-width="1">
                                <polygon id="Fill-2" fill="#EECB96" points="99.7949091 0 78.5 26.0486897 132.836273 54.1233103 156.843 26.4777931"></polygon>
                                <polygon id="Fill-4" fill="#BA8656" points="26.1666667 49.2108966 81.5662576 78.6314483 132.215409 53.870069 77.8791364 25.7931034"></polygon>
                                <polygon id="Fill-5" fill="#E0B27E" points="2.37878788 23.4131034 26.252303 49.0022069 77.9647727 25.5867586 54.0865 0"></polygon>
                                <polygon id="Fill-6" fill="#D59C73" points="78.5 25.7931034 132.836273 53.870069 82.1871212 78.6314483"></polygon>
                                <g id="VECTOR-PHONE" transform="translate(40.439394, 42.206897) rotate(-14.000000) translate(-40.439394, -42.206897) translate(28.545455, 23.448276)">
                                    <g id="PHONE">
                                        <g id="Group-3">
                                            <mask id="mask-2" fill="white">
                                                <use xlink:href="#path-1"></use>
                                            </mask>
                                            <g id="Clip-2"></g>
                                            <path d="M22.8310985,0.0500151779 L1.10620615,0.0500151779 C0.491713846,0.0500151779 -9.23076923e-06,0.531977974 -9.23076923e-06,1.13447672 L-9.23076923e-06,36.5603711 C-9.23076923e-06,37.1628699 0.491621538,37.6448327 1.10620615,37.6448327 L22.8311908,37.6448327 C23.4456831,37.6448327 23.9374062,37.1629604 23.9374062,36.5603711 L23.9374062,1.10443322 C23.9065754,0.531977974 23.4456831,0.0500151779 22.8310985,0.0500151779" id="Fill-1" fill="#F1F3F7" mask="url(#mask-2)"></path>
                                        </g>
                                        <mask id="mask-4" fill="white">
                                            <use xlink:href="#path-3"></use>
                                        </mask>
                                        <g id="Clip-5"></g>
                                        <polygon id="Fill-4" fill="#0090FF" mask="url(#mask-4)" points="0.727272727 32.6728972 23.2727273 32.6728972 23.2727273 3.19626168 0.727272727 3.19626168"></polygon>
                                        <path d="M13.5430794,1.42056075 L10.4568288,1.42056075 C10.3040859,1.42056075 10.1818182,1.57842717 10.1818182,1.77576019 C10.1818182,1.9729747 10.3039941,2.13084112 10.4568288,2.13084112 L13.5430794,2.13084112 C13.6958223,2.13084112 13.8181818,1.97309322 13.8181818,1.77576019 C13.7876149,1.57842717 13.6654389,1.42056075 13.5430794,1.42056075" id="Fill-6" fill="#DEDEDF" mask="url(#mask-4)"></path>
                                        <path d="M11.8181818,33.7383178 C12.7218637,33.7383178 13.4545455,34.4539015 13.4545455,35.3364948 C13.4545455,36.219088 12.7218637,36.9345794 11.8181818,36.9345794 C10.9144054,36.9345794 10.1818182,36.219088 10.1818182,35.3364948 C10.1818182,34.4539015 10.9144054,33.7383178 11.8181818,33.7383178" id="Fill-7" fill="#DEDEDF" mask="url(#mask-4)"></path>
                                    </g>
                                </g>
                                <g id="Group-24" transform="translate(49.954545, 23.448276)">
                                    <g id="Group-4" transform="translate(0.000000, 5.753716)">
                                        <mask id="mask-6" fill="white">
                                            <use xlink:href="#path-5"></use>
                                        </mask>
                                        <g id="Clip-3"></g>
                                        <path d="M27.4591172,0.115590989 L6.51304952,0.115590989 C2.91659415,0.115590989 -2.38246853e-05,2.98916138 -2.38246853e-05,6.53556432 L-2.38246853e-05,47.8279911 C-2.38246853e-05,51.374394 2.91659415,54.2493735 6.51304952,54.2493735 L27.4591172,54.2493735 L31.7358865,27.1822474 L27.4591172,0.115590989 Z" id="Fill-2" fill="#5DC8EB" mask="url(#mask-6)"></path>
                                    </g>
                                    <g id="Group-7" transform="translate(27.398388, 5.753716)">
                                        <mask id="mask-8" fill="white">
                                            <use xlink:href="#path-7"></use>
                                        </mask>
                                        <g id="Clip-6"></g>
                                        <path d="M27.5193699,6.53554083 L27.5193699,47.8279676 C27.5193699,51.3743705 24.602871,54.24935 21.0068921,54.24935 L0.0607052982,54.24935 L0.0607052982,0.115567505 L21.0068921,0.115567505 C24.602871,0.115567505 27.5193699,2.98913789 27.5193699,6.53554083" id="Fill-5" fill="#94D9FD" mask="url(#mask-8)"></path>
                                    </g>
                                    <path d="M41.8992233,0 L27.4590815,5.86879078 C27.4590815,5.86879078 31.2594762,8.16006157 32.4697702,12.4815723 C32.8171341,13.7226137 34.2554304,14.3067921 35.3728081,13.6406526 L48.4047918,5.86879078 C48.4047918,5.86879078 46.3422888,0.43810441 41.8992233,0" id="Fill-8" fill="#EFEDEE"></path>
                                    <path d="M13.0185347,0 C8.57546915,0.43810441 6.51344263,5.86879078 6.51344263,5.86879078 L19.5449499,13.6406526 C20.6623276,14.3067921 22.1006239,13.7226137 22.4481069,12.4815723 C23.6582818,8.16006157 27.459153,5.86879078 27.459153,5.86879078 L13.0185347,0 Z" id="Fill-10" fill="#EFEDEE"></path>
                                    <path d="M33.1486546,20.3559443 C33.1486546,21.1487829 32.4966921,21.7910855 31.6927281,21.7910855 C30.8882876,21.7910855 30.2363251,21.1487829 30.2363251,20.3559443 C30.2363251,19.5631056 30.8882876,18.9203333 31.6927281,18.9203333 C32.4966921,18.9203333 33.1486546,19.5631056 33.1486546,20.3559443" id="Fill-12" fill="#EFEDEE"></path>
                                    <path d="M33.1486546,30.6767025 C33.1486546,31.4696586 32.4966921,32.1124309 31.6927281,32.1124309 C30.8882876,32.1124309 30.2363251,31.4696586 30.2363251,30.6767025 C30.2363251,29.8843335 30.8882876,29.2415612 31.6927281,29.2415612 C32.4966921,29.2415612 33.1486546,29.8843335 33.1486546,30.6767025" id="Fill-14" fill="#EFEDEE"></path>
                                    <path d="M33.1486546,40.9975194 C33.1486546,41.7904755 32.4966921,42.4332478 31.6927281,42.4332478 C30.8882876,42.4332478 30.2363251,41.7904755 30.2363251,40.9975194 C30.2363251,40.2051505 30.8882876,39.5623782 31.6927281,39.5623782 C32.4966921,39.5623782 33.1486546,40.2051505 33.1486546,40.9975194" id="Fill-16" fill="#EFEDEE"></path>
                                    <path d="M33.1486546,51.3188061 C33.1486546,52.1117621 32.4966921,52.7540648 31.6927281,52.7540648 C30.8882876,52.7540648 30.2363251,52.1117621 30.2363251,51.3188061 C30.2363251,50.5259674 30.8882876,49.8831951 31.6927281,49.8831951 C32.4966921,49.8831951 33.1486546,50.5259674 33.1486546,51.3188061" id="Fill-18" fill="#EFEDEE"></path>
                                    <path d="M43.0547443,24.204112 L36.5895586,26.7388002 L36.5895586,33.813523 C36.5895586,34.785314 37.1663542,35.6680985 38.0640684,36.0699192 L42.0167028,37.836545 C42.6766466,38.1322156 43.4322465,38.1322156 44.0926667,37.836545 L48.0449438,36.0699192 C48.9426579,35.6680985 49.5194536,34.785314 49.5194536,33.813523 L49.5194536,26.7388002 L43.0547443,24.204112 Z" id="Fill-20" fill="#5DC8EB"></path>
                                    <path d="M49.519394,24.1468919 L49.519394,26.7388824 L36.589499,26.7388824 L36.589499,24.1468919 C36.589499,22.7790339 37.7153345,21.6692711 39.1030033,21.6692711 L47.0063662,21.6692711 C48.3941541,21.6692711 49.519394,22.7790339 49.519394,24.1468919" id="Fill-22" fill="#EFEDEE"></path>
                                </g>
                                <g id="VECTOR-CONTROLLER" transform="translate(104.666667, 49.241379) rotate(10.000000) translate(-104.666667, -49.241379) translate(85.636364, 35.172414)">
                                    <g id="Group-2">
                                        <g id="Group-3" transform="translate(1.061861, 12.207084)">
                                            <mask id="mask-10" fill="white">
                                                <use xlink:href="#path-9"></use>
                                            </mask>
                                            <g id="Clip-2"></g>
                                            <path d="M7.28695888,3.69945613 C4.53942994,3.69945613 2.14125828,2.22285668 0.814292216,0.0204697548 L0.0391225549,11.3648185 C0.0391225549,13.8102027 2.01026826,15.7929384 4.44135808,15.7929384 C6.38527425,15.7929384 8.09944591,14.5103553 8.65822036,12.6371019 L12.1840287,1.88670409 C10.8634339,3.01524905 9.15624032,3.69945613 7.28695888,3.69945613" id="Fill-1" fill="#38454F" mask="url(#mask-10)"></path>
                                        </g>
                                        <g id="Group-6" transform="translate(24.726532, 12.207084)">
                                            <mask id="mask-12" fill="white">
                                                <use xlink:href="#path-11"></use>
                                            </mask>
                                            <g id="Clip-5"></g>
                                            <path d="M4.95065669,3.69945613 C7.69818563,3.69945613 10.0963573,2.22285668 11.4233234,0.0204697548 L12.198493,11.3648185 C12.198493,13.8102027 10.2273473,15.7929384 7.79625749,15.7929384 C5.85234132,15.7929384 4.13816966,14.5103553 3.57939521,12.6371782 L0.0535868263,1.88670409 C1.37418164,3.01524905 3.08205788,3.69945613 4.95065669,3.69945613" id="Fill-4" fill="#38454F" mask="url(#mask-12)"></path>
                                        </g>
                                        <path d="M19.376921,17.1795488 C19.2137162,16.974012 19.1270693,16.7614561 19.1270693,16.5431019 C19.1270693,16.7614561 19.0404224,16.974012 18.876921,17.1795488 L19.376921,17.1795488 Z" id="Fill-7" fill="#38454F"></path>
                                        <path d="M25.1427341,15.1994757 L24.7801034,14.0938191 C24.8332731,14.1390616 24.8908419,14.1791161 24.9452251,14.2236719 C23.215277,12.8303095 22.1047062,10.693612 22.1047062,8.29026594 C22.1047062,5.99251117 23.1209976,3.93721962 24.7206383,2.54080545 L13.4275086,2.54080545 C15.0271493,3.93721962 16.0433649,5.99251117 16.0433649,8.29026594 C16.0433649,10.5874104 15.020778,12.6330125 13.4205305,14.028206 C13.5135206,14.0881733 13.562291,14.1924676 13.5610016,14.3007292 C14.1305465,13.7259281 14.906323,13.3605548 15.7769856,13.3605548 C17.4917641,13.3605548 18.8794846,14.735454 18.9307581,16.4475738 C18.9383429,16.4470398 18.9434248,16.4437591 18.9510096,16.4437591 L18.9516164,16.4437591 C19.0047102,14.7335466 20.3911413,13.3605548 22.1047062,13.3605548 C23.391776,13.3605548 24.4940794,14.1363913 24.988307,15.2458627 C25.0351054,15.2185493 25.0875924,15.2039008 25.1427341,15.1994757" id="Fill-9" fill="#38454F"></path>
                                        <path d="M8.20519361,0.0361711172 C12.7368263,0.0361711172 16.4103872,3.73140817 16.4103872,8.28960981 C16.4103872,12.8478877 12.7368263,16.5431248 8.20519361,16.5431248 C3.67356088,16.5431248 0,12.8478877 0,8.28960981 C0,3.73140817 3.67356088,0.0361711172 8.20519361,0.0361711172" id="Fill-11" fill="#546A79"></path>
                                        <g id="Group-15" transform="translate(21.465055, 0.000000)">
                                            <mask id="mask-14" fill="white">
                                                <use xlink:href="#path-13"></use>
                                            </mask>
                                            <g id="Clip-14"></g>
                                            <path d="M8.25450259,0.0361711172 C12.7861353,0.0361711172 16.4597721,3.73140817 16.4597721,8.28960981 C16.4597721,12.8478877 12.7861353,16.5431248 8.25450259,16.5431248 C3.72294571,16.5431248 0.049308982,12.8478877 0.049308982,8.28960981 C0.049308982,3.73140817 3.72294571,0.0361711172 8.25450259,0.0361711172" id="Fill-13" fill="#546A79" mask="url(#mask-14)"></path>
                                        </g>
                                        <path d="M15.7769856,13.3605853 C17.5243788,13.3605853 18.9408459,14.7854572 18.9408459,16.5431248 C18.9408459,18.3007161 17.5243788,19.725588 15.7769856,19.725588 C14.0295924,19.725588 12.6131253,18.3007161 12.6131253,16.5431248 C12.6131253,14.7854572 14.0295924,13.3605853 15.7769856,13.3605853" id="Fill-16" fill="#283238"></path>
                                        <path d="M22.1047289,13.3605853 C23.8521222,13.3605853 25.2686651,14.7854572 25.2686651,16.5431248 C25.2686651,18.3007161 23.8521222,19.725588 22.1047289,19.725588 C20.3574116,19.725588 18.9408687,18.3007161 18.9408687,16.5431248 C18.9408687,14.7854572 20.3574116,13.3605853 22.1047289,13.3605853" id="Fill-18" fill="#283238"></path>
                                        <path d="M18.308089,5.72262779 L19.573618,5.72262779" id="Stroke-20" stroke="#AFB6BB" stroke-width="0.2" stroke-linecap="round"></path>
                                        <path d="M33.8110727,6.35913569 C34.6848451,6.35913569 35.3929649,7.07149537 35.3929649,7.95032916 C35.3929649,8.82916294 34.6848451,9.54159891 33.8110727,9.54159891 C32.937376,9.54159891 32.2291804,8.82916294 32.2291804,7.95032916 C32.2291804,7.07149537 32.937376,6.35913569 33.8110727,6.35913569 Z" id="Stroke-22" stroke="#DD352E" stroke-width="0.5"></path>
                                        <path d="M25.5850132,6.35913569 C26.4587098,6.35913569 27.1669054,7.07149537 27.1669054,7.95032916 C27.1669054,8.82916294 26.4587098,9.54159891 25.5850132,9.54159891 C24.7113166,9.54159891 24.003121,8.82916294 24.003121,7.95032916 C24.003121,7.07149537 24.7113166,6.35913569 25.5850132,6.35913569 Z" id="Stroke-24" stroke="#BF4D90" stroke-width="0.5"></path>
                                        <path d="M11.5285174,6.99560545 L9.44921198,6.99560545 L9.44921198,4.90407411 C9.44921198,4.65268447 9.24677285,4.4495891 8.99738363,4.4495891 L7.37058922,4.4495891 C7.12059321,4.4495891 6.91876088,4.65329482 6.91876088,4.90407411 L6.91876088,6.99560545 L4.83945549,6.99560545 C4.58953533,6.99560545 4.38770299,7.19931117 4.38770299,7.45009046 L4.38770299,9.08652643 C4.38770299,9.33791608 4.59014212,9.54093515 4.83945549,9.54093515 L6.91876088,9.54093515 L6.91876088,11.6324665 C6.91876088,11.8839324 7.12127585,12.0868752 7.37058922,12.0868752 L8.99738363,12.0868752 C9.24737964,12.0868752 9.44921198,11.8832458 9.44921198,11.6324665 L9.44921198,9.54093515 L11.5285174,9.54093515 C11.7784375,9.54093515 11.9803457,9.33730572 11.9803457,9.08652643 L11.9803457,7.45009046 C11.9803457,7.19931117 11.7778307,6.99560545 11.5285174,6.99560545" id="Fill-26" fill="#283238"></path>
                                        <path d="M11.5285174,6.99560545 L9.44921198,6.99560545 L9.44921198,4.90407411 C9.44921198,4.65268447 9.24677285,4.4495891 8.99738363,4.4495891 L7.37058922,4.4495891 C7.12059321,4.4495891 6.91876088,4.65329482 6.91876088,4.90407411 L6.91876088,6.99560545 L4.83945549,6.99560545 C4.58953533,6.99560545 4.38770299,7.19931117 4.38770299,7.45009046 L4.38770299,9.08652643 C4.38770299,9.33791608 4.59014212,9.54093515 4.83945549,9.54093515 L6.91876088,9.54093515 L6.91876088,11.6324665 C6.91876088,11.8839324 7.12127585,12.0868752 7.37058922,12.0868752 L8.99738363,12.0868752 C9.24737964,12.0868752 9.44921198,11.8832458 9.44921198,11.6324665 L9.44921198,9.54093515 L11.5285174,9.54093515 C11.7784375,9.54093515 11.9803457,9.33730572 11.9803457,9.08652643 L11.9803457,7.45009046 C11.9803457,7.19931117 11.7778307,6.99560545 11.5285174,6.99560545 Z" id="Stroke-28"></path>
                                        <path d="M29.698077,9.85984523 C30.5717737,9.85984523 31.2799693,10.5722812 31.2799693,11.4510387 C31.2799693,12.3299488 30.5717737,13.0423847 29.698077,13.0423847 C28.8243046,13.0423847 28.116109,12.3299488 28.116109,11.4510387 C28.116109,10.5722812 28.8243046,9.85984523 29.698077,9.85984523 Z" id="Stroke-30" stroke="#5D7BDB" stroke-width="0.5"></path>
                                        <path d="M29.698077,2.85838801 C30.5717737,2.85838801 31.2799693,3.57082398 31.2799693,4.44958147 C31.2799693,5.32841526 30.5717737,6.04085123 29.698077,6.04085123 C28.8243046,6.04085123 28.116109,5.32841526 28.116109,4.44958147 C28.116109,3.57082398 28.8243046,2.85838801 29.698077,2.85838801 Z" id="Stroke-32" stroke="#20BEE2" stroke-width="0.5"></path>
                                    </g>
                                </g>
                                <polygon id="Fill-1" fill="#E0B27E" points="26.1666667 106.504414 81.5662576 135.924966 81.5662576 78.6642759 26.1666667 49.2413793"></polygon>
                                <polygon id="Fill-3" fill="#BA8656" points="80.8787879 78.6947586 80.8787879 135.955448 131.527939 108.112966 131.527939 53.9310345"></polygon>
                                <g id="Group-11" transform="translate(23.787879, 49.241379)">
                                    <polygon id="Fill-7" fill="#E0B27E" points="1.97463182 35.8960276 32.1566924 51.8830621 57.3742227 29.4969931 1.97463182 0.0764413793"></polygon>
                                    <polygon id="Fill-9" fill="#BA8656" points="57.3742227 29.4981655 80.8266924 54.0977517 108.023374 39.4425793 108.023374 4.73678621"></polygon>
                                </g>
                                <polygon id="Fill-12" fill="#EECB96" points="0 67.8171034 55.3995909 97.24 81.1618636 78.6642759 25.7622727 49.2413793"></polygon>
                                <polygon id="Fill-13" fill="#EECB96" points="80.8787879 78.6947586 105.332727 97.9223448 155.9795 70.0775172 131.527939 53.9310345"></polygon>
                            </g>
                            <polygon id="Fill-1" fill="#D4D4D4" points="61.8484848 23.4482759 67.5701022 31.507119 76.2891031 29.3171841 86.7616009 31.507119 90.7292449 23.4482759"></polygon>
                        </g>
                        <path id="Line-2" d="M122.842315,144.363664 L128.278698,132.218367 L116.782578,132.517058 L122.842315,144.363664 Z M37.7806309,62.5622153 C65.1550327,60.7304165 86.0877458,66.8247507 100.629965,80.8182066 C113.293897,93.0042551 120.355958,110.451444 121.802474,133.197566 L121.850073,133.946054 L123.347049,133.850855 L123.29945,133.102367 C121.830578,110.004703 114.625331,92.2037659 101.670035,79.737349 C86.7937769,65.4224588 65.4468604,59.2075338 37.6804802,61.0655625 L36.9321537,61.1156378 L37.0323045,62.6122907 L37.7806309,62.5622153 Z" fill="#00ACEE" fill-rule="nonzero"></path>
                        <path id="Line-2" d="M251.28676,144.363664 L256.723142,132.218367 L245.227022,132.517058 L251.28676,144.363664 Z M166.225075,62.5622153 C193.599477,60.7304165 214.53219,66.8247507 229.074409,80.8182066 C241.738342,93.0042551 248.800403,110.451444 250.246919,133.197566 L250.294518,133.946054 L251.791494,133.850855 L251.743895,133.102367 C250.275023,110.004703 243.069776,92.2037659 230.11448,79.737349 C215.238221,65.4224588 193.891305,59.2075338 166.124925,61.0655625 L165.376598,61.1156378 L165.476749,62.6122907 L166.225075,62.5622153 Z" fill="#00ACEE" fill-rule="nonzero"></path>
                    </g>
                </g>
            </g>
        </g>
    </g>
</svg>