<?xml version="1.0" encoding="UTF-8"?>
<svg width="160px" height="246px" viewBox="0 0 160 246" version="1.1" xmlns="http://www.w3.org/2000/svg" xmlns:xlink="http://www.w3.org/1999/xlink">
    <!-- Generator: Sketch 51.3 (57544) - http://www.bohemiancoding.com/sketch -->
    <title>VECTOR-DOORSTEP</title>
    <desc>Created with Sketch.</desc>
    <defs>
        <polygon id="path-1" points="0.739804292 0.73232 24.172879 0.73232 24.172879 20.8773697 0.739804292 20.8773697"></polygon>
        <polygon id="path-3" points="1.41264317 0.89197037 23.5104404 0.89197037 23.5104404 16.3594667 1.41264317 16.3594667"></polygon>
    </defs>
    <g id="STATIC-PAGES" stroke="none" stroke-width="1" fill="none" fill-rule="evenodd">
        <g id="SERVICES" transform="translate(-773.000000, -883.000000)">
            <g id="DOOR-TO-DOOR" transform="translate(735.000000, 870.000000)">
                <g id="Group">
                    <g id="VECTOR-DOORSTEP" transform="translate(-4.000000, 11.000000)">
                        <g id="DOOR" transform="translate(42.666667, 1.422222)">
                            <path d="M4.47885716,225.584123 C4.49746208,228.991272 3.07418572,228.991272 7.3595189,230.389147 C8.17813536,230.655939 19.9426463,225.931508 23.2636244,224.194585 C26.578401,222.454883 20.0542758,221.610044 16.8170198,221.935196 C11.8433046,222.429871 4.47885716,225.584123 4.47885716,225.584123" id="Fill-1" fill="#0A1925"></path>
                            <path d="M33.9758822,70.3255901 C34.2683164,79.0248495 34.4084411,88.4920478 31.9958592,88.9352062 C29.5802312,89.3783645 26.4335177,89.2994459 23.490899,88.5132951 C21.0752709,87.8698049 20.9717005,89.8215229 20.9656081,95.2820839 C20.9656081,95.2820839 15.3027424,95.5916877 13.4750288,92.0342794 C11.6442691,88.4768711 9.85310988,69.7701244 13.4750288,64.3854468 C16.1099825,60.4607634 33.4214758,53.9287305 33.9758822,70.3255901" id="Fill-3" fill="#FFA784"></path>
                            <path d="M4.20960289,134.70513 C-0.328726697,141.833483 -0.573957913,152.086677 0.782574256,166.949159 C2.13289804,181.808643 2.80961203,187.005713 2.80961203,187.005713 C2.80961203,187.005713 -0.477727942,192.202784 0.0592973787,203.727505 C0.5963227,215.252227 4.20960289,226.797941 4.20960289,226.797941 C4.84285819,227.74259 5.85172078,227.871542 7.41933805,226.797941 L18.4888889,145.756027 C18.4888889,145.756027 16.1886822,129.538048 4.20960289,134.70513" id="Fill-5" fill="#0F3858"></path>
                            <path d="M36.8786705,111.799212 C39.5338168,110.122535 44.2821579,108.81743 47.3803241,109.916789 C50.7163533,111.095991 50.3595588,114.747215 47.6122406,116.387042 C43.4258509,118.889774 38.7072427,120.437476 33.890516,120.888889 C33.2839652,119.2767 32.1868219,117.873327 31.2888889,116.393184 C31.2888889,116.393184 33.4653358,113.95494 36.8786705,111.799212" id="Fill-7" fill="#EB9073"></path>
                            <path d="M30.079752,241.228568 C30.0983578,244.638495 28.6719073,244.638495 32.9605618,246.033592 C33.7792204,246.300383 45.5443363,241.575953 48.8623843,239.83903 C52.1804323,238.099328 45.6528706,237.254488 42.4185491,237.57964 C37.4445781,238.074316 30.079752,241.228568 30.079752,241.228568" id="Fill-9" fill="#0A1925"></path>
                            <path d="M12.3190842,140.010968 C12.3190842,140.010968 10.4181089,146.058462 12.0190865,152.615627 C15.1319336,165.375273 25.5368031,192.88556 25.373438,195.651491 C25.210073,198.417422 22.1952449,208.047513 23.4308789,217.966715 C24.6665128,227.882936 30.2031034,241.185039 30.2031034,241.185039 C30.9278502,241.894405 31.9080406,242.052373 33.3634748,241.185039 C33.3634748,241.185039 34.3763382,207.612355 34.7268306,196.494981 C35.0802932,185.380587 36.6693897,175.991919 34.1981218,141.280673 C34.1981218,141.280673 22.3170262,134.735431 12.3190842,140.010968" id="Fill-11" fill="#08668D"></path>
                            <path d="M17.6531102,89.643937 C22.8042589,91.0830482 27.7204534,95.0852921 32.7615602,99.3995958 C40.509102,106.022537 39.2926933,110.194444 34.9713197,114.311817 C32.8478093,119.032102 32.9102654,123.758446 33.5586202,131.138814 C34.2040008,138.522211 34.3824471,141.221681 34.3824471,141.221681 C34.3824471,141.221681 15.3303348,146.081332 4.26666667,134.380601 C6.10466314,128.799879 10.4260367,125.812588 10.5717678,122.140582 C10.7591364,117.462713 6.63702782,108.652323 5.51579048,101.674906 C4.39455315,94.6944598 2.92534562,87.8957957 8.7575642,89.9832643 C14.5897828,92.0737626 17.6531102,89.643937 17.6531102,89.643937" id="Fill-13" fill="#FF4D7C"></path>
                            <path d="M31.7861916,61.567269 C34.1804079,64.2380684 31.4929001,71.0584654 28.6497683,72.9794095 C25.8036436,74.9063285 24.2025115,75.1722135 24.2025115,75.1722135 C24.2025115,75.1722135 24.7382174,80.1224534 23.5351237,79.644458 C22.3380155,79.1664626 22.7001407,74.6374561 21.9399771,73.3080313 C21.1798134,71.9756191 18.1571153,70.8433675 17.6244022,73.8965632 C17.091689,76.9467714 17.4448359,79.7460321 21.3593796,80.5645992 C21.3593796,80.5645992 22.6911624,90.7937011 22.6911624,95.6752292 C22.6911624,100.559745 21.6287289,105.766907 18.4713562,105.202275 C15.3109907,104.640631 15.3109907,102.689812 15.3109907,102.689812 C15.3109907,102.689812 12.1985095,105.70417 7.84103579,104.553994 C3.48655489,103.397843 2.86405865,98.0741687 2.86405865,98.0741687 C2.86405865,98.0741687 0.356117071,98.5432017 0.0179340174,95.2330835 C-0.323241806,91.9199777 4.28861735,97.2346892 6.59604332,90.5517159 C8.90945482,83.87173 7.75424545,78.6526176 7.75424545,70.422134 C7.75424545,62.1916505 11.7555795,56.8888889 18.4234719,56.8888889 C25.094357,56.8888889 28.9909441,58.4543239 31.7861916,61.567269" id="Fill-15" fill="#1B1F3A"></path>
                            <path d="M25.1870501,104.016132 C29.8028714,102.206426 33.9759136,113.483912 37.0814333,120.354764 C40.1839203,127.228631 42.8466608,133.143355 42.8466608,133.143355 C42.8466608,133.143355 63.9332611,124.11292 65.5254465,123.52175 C68.7583411,122.315279 73.1254782,120.60209 76.4948458,121.371215 C77.5654009,121.612509 79.8217551,124.070694 76.4099292,126.733978 C75.0361007,127.810753 73.5712901,128.763865 72.1519705,129.777301 C71.8456644,129.997482 71.5120636,130.253857 71.4332125,130.62183 C71.2633794,131.433182 72.3490982,131.888625 73.1800674,131.933868 C74.0140693,131.97911 75.0937226,132.126903 75.2514248,132.941271 C75.3484723,133.457037 74.9451186,133.966771 74.4568484,134.165839 C73.9685783,134.367922 73.4196534,134.340777 72.8919576,134.301567 C71.0419898,134.171871 69.1980875,133.9909 67.3602506,133.755638 C65.8863419,133.568636 64.0454723,132.941271 62.5685307,133.267018 C61.4403537,133.517361 60.363733,134.407133 59.3235052,134.892737 C57.6464033,135.679959 55.9480722,136.424955 54.2467084,137.166935 C46.4525817,140.56315 40.5023574,144.556569 38.3430507,140.532988 C36.183744,136.509408 28.4290429,120.228084 25.1870501,113.815692 C21.9450574,107.406315 21.9450574,105.282927 25.1870501,104.016132" id="Fill-17" fill="#FFA784"></path>
                            <path d="M122.311111,55.4666667 C122.311111,55.4666667 120.757514,67.7370725 120.537693,69.9029603 C120.320843,72.0658894 118.084019,74.3974736 113.949015,76.7320167 C109.808069,79.060642 101.544,84.3718015 97.2010572,88.277501 C93.6185747,91.5056207 87.0328667,88.3011719 90.6539664,84.274159 C92.2640042,82.4840468 97.1149113,80.3714184 96.5683302,79.3239809 C96.5683302,79.3239809 90.9985501,78.9452464 93.2116094,76.8474123 C94.7206485,75.4123637 99.0606211,77.11371 101.00336,76.4420481 C102.943129,75.7703861 112.142921,68.7105385 112.142921,68.7105385 L113.862869,56.5466517 L122.311111,55.4666667 Z" id="Fill-19" fill="#FFA784"></path>
                            <path d="M122.407586,36.9778724 C119.029778,37.008431 115.157799,39.8626079 114.262476,44.3211132 C113.372968,48.7796186 112.355556,58.4911539 112.355556,58.4911539 C112.355556,58.4911539 118.596652,61.4217273 122.698276,58.2802993 C122.698276,58.2802993 128.416131,36.9259227 122.407586,36.9778724" id="Fill-21" fill="#E0DEDF"></path>
                            <g id="Group-25" transform="translate(135.111111, 176.355556)">
                                <mask id="mask-2" fill="white">
                                    <use xlink:href="#path-1"></use>
                                </mask>
                                <g id="Clip-24"></g>
                                <path d="M22.8617007,0.73232 C22.8617007,0.73232 24.6301551,6.02423111 24.0596859,7.76200889 C23.4892168,9.49978667 9.91205136,17.9106311 5.40234272,19.9596978 C0.889631605,22.0087644 -1.0649758,20.75152 2.82021926,14.9186311 C6.90958222,8.77747556 15.6527723,1.79312 15.6527723,1.79312 L22.8617007,0.73232 Z" id="Fill-23" fill="#0A1925" mask="url(#mask-2)"></path>
                            </g>
                            <path d="M125.303404,160.711111 C125.303404,160.711111 127.023718,165.938878 126.466803,167.656573 C125.912803,169.374268 112.727619,177.687911 108.348108,179.713297 C103.968598,181.741671 102.070421,180.498956 105.840532,174.730489 C109.811833,168.660304 118.305518,161.756665 118.305518,161.756665 L125.303404,160.711111 Z" id="Fill-26" fill="#0A1925"></path>
                            <path d="M119.135269,80.5063866 C118.273026,93.3247835 119.476694,111.934354 119.248113,116.315894 C119.019531,120.700426 118.044444,163.13312 118.044444,163.13312 C118.044444,163.13312 124.109081,164.668455 126.684236,161.8851 C127.086424,160.173187 128.567862,156.195683 129.817825,146.453941 C130.928903,137.798605 133.695025,131.567481 130.506462,125.512936 C130.506462,125.512936 132.916692,115.166637 135.4687,103.997304 C138.017815,92.8249767 135.639413,82.4427636 132.028408,80.5063866 C128.417403,78.5670167 119.135269,80.5063866 119.135269,80.5063866" id="Fill-28" fill="#A0641C"></path>
                            <path d="M129.422222,84.0870388 C129.422222,84.0870388 138.406574,126.313718 139.363105,129.090529 C140.319636,131.870333 143.077732,150.341513 145.169778,160.13815 C147.261823,169.931796 148.896142,178.88761 148.896142,178.88761 C148.896142,178.88761 154.473951,180.425628 157.854086,176.676335 C158.015464,175.491402 156.574799,158.279961 156.366474,147.513833 C156.15815,136.75369 151.821484,132.429884 151.821484,132.429884 C151.821484,132.429884 152.522745,111.433242 152.437654,102.402622 C152.34963,93.3749933 150.879624,87.7136499 145.920919,78.2222222 L129.422222,84.0870388 Z" id="Fill-30" fill="#B77825"></path>
                            <path d="M128.688666,35.5597299 C128.688666,35.5597299 125.250136,35.3833652 121.702157,37.3233762 C115.946952,40.4710366 116.649251,55.8745447 116.649251,55.8745447 L118.753108,80.2367785 C118.753108,80.2367785 135.939678,89.8082966 146.480247,78.0546397 C146.182302,74.8352378 144.203095,66.8001845 144.312544,64.4416811 C144.476718,60.8934638 145.671539,51.7494057 147.295036,47.0832159 C148.921573,42.4200153 147.337599,40.695229 142.421505,38.8957118 C137.49933,37.0991839 128.688666,35.5597299 128.688666,35.5597299" id="Fill-32" fill="#EAEAEA"></path>
                            <path d="M119.683486,9.91700503 C119.683486,16.8261488 118.723928,27.3100234 120.842085,28.7609435 C122.960242,30.2148677 128.782945,28.7609435 128.782945,28.7609435 L128.782945,45.5111111 C128.782945,45.5111111 137.43679,44.5528429 137.43679,38.8122457 C137.258544,32.5339368 137.43679,25.4175188 137.43679,25.4175188 C137.43679,25.4175188 140.787816,23.4649347 140.787816,18.7186533 C140.787816,13.972372 141.494858,6.83192215 132.136942,6.11697598 C122.781996,5.4020298 120.310318,5.79855457 120.310318,5.79855457 L119.683486,9.91700503 Z" id="Fill-34" fill="#FFA784"></path>
                            <polygon id="Fill-36" fill="#BA8656" points="85.437628 96.8066235 85.3333333 75.3777778 103.717928 85.2407722 103.822222 106.666667"></polygon>
                            <polygon id="Fill-38" fill="#E0B27E" points="85.3333333 75.3537229 111.991454 59.7333333 130.844444 69.6888889 103.822222 85.3333333"></polygon>
                            <polygon id="Fill-40" fill="#E0B27E" points="130.733267 69.6888889 130.844444 91.1822962 103.930395 106.666667 103.822222 85.1762194"></polygon>
                            <polygon id="Fill-42" fill="#FFD8A4" points="103.353863 65.4222222 120.888889 75.09878 112.838895 79.6444444 95.2888889 69.9707838"></polygon>
                            <polygon id="Fill-44" fill="#FFD8A4" points="120.854098 75.3777778 120.888889 81.4841265 119.465612 80.7248793 119.471938 82.2522022 118.045499 81.4958978 118.054987 83.0232207 116.631711 82.2669163 116.638036 83.7912964 115.21476 83.0379348 115.221086 84.5623148 113.800972 83.8060104 113.804135 85.3333333 112.380858 84.5770289 112.355556 79.9950603"></polygon>
                            <path d="M129.422222,46.0240748 C129.422222,46.0240748 137.924622,38.3834877 137.892215,34.843091 L137.924622,32.7111111 C137.924622,32.7111111 139.565591,34.4917312 140.081155,35.6768261 C140.593774,36.8648987 140.8,39.4911644 140.8,39.4911644 C139.854307,41.9298397 136.475148,44.0618196 134.557247,44.5918369 L133.567363,48.3555556 L129.422222,46.0240748 Z" id="Fill-50" fill="#F2F2F2"></path>
                            <path d="M128,46.0952381 L125.155556,46.9333333 L126.28056,43.6923077 C126.28056,43.6923077 125.155556,40.8380952 126.103704,37.8783883 C126.889733,35.4197802 128,34.1333333 128,34.1333333 L128,46.0952381 Z" id="Fill-52" fill="#F2F2F2"></path>
                            <path d="M130.844444,9.95555556 C130.844444,9.95555556 131.203627,12.5989421 132.123257,14.0925148 C133.042887,15.589051 133.501154,16.9996474 132.953092,18.8488326 C132.398836,20.6980178 135.343511,17.7019822 135.343511,15.4142081 C135.343511,13.1234706 137.54505,12.4715143 139.393599,14.6911293 C141.235956,16.9107442 137.207542,21.1366066 136.046393,20.1675625 C136.046393,20.1675625 134.910015,21.930808 135.355896,24.3074852 C135.804874,26.6871258 137.687484,28.4444444 137.687484,28.4444444 C137.687484,28.4444444 138.501837,27.3835337 139.867348,26.1833413 C141.235956,24.9801856 142.756288,19.9927196 142.037923,15.4142081 C141.322655,10.8356966 130.844444,9.95555556 130.844444,9.95555556" id="Fill-54" fill="#1B1F3A"></path>
                            <g id="Group-58" transform="translate(118.044444, 0.000000)">
                                <mask id="mask-4" fill="white">
                                    <use xlink:href="#path-3"></use>
                                </mask>
                                <g id="Clip-57"></g>
                                <path d="M23.3160217,16.3594667 C23.3160217,16.3594667 16.6445353,7.69125926 1.41901432,9.40148148 C1.41901432,9.40148148 1.00167111,5.61742222 6.92254025,2.0768 C12.8404069,-1.46074074 22.1630736,3.62062222 23.0337896,8.11034074 C23.9045057,12.5969778 23.3160217,16.3594667 23.3160217,16.3594667" id="Fill-56" fill="#E6354B" mask="url(#mask-4)"></path>
                            </g>
                            <path d="M136.533333,9.95555556 C136.533333,9.95555556 131.518081,3.57059053 126.28652,2.9772345 C121.048779,2.38387848 111.74445,3.9226295 112.387194,4.76014159 C113.029937,5.59481465 119.528444,8.96473617 119.528444,8.96473617 C119.528444,8.96473617 122.72671,6.38974138 136.533333,9.95555556" id="Fill-59" fill="#D32A46"></path>
                            <path d="M149.333333,56.8888889 C149.333333,56.8888889 148.559458,69.5974129 148.483588,71.8363307 C148.401648,74.0752485 146.28032,76.6218272 142.216716,79.2902517 C138.150078,81.95563 130.077498,87.9626313 125.910711,92.2637904 C122.469243,95.8155975 115.546853,92.9644042 118.970113,88.5870914 C120.493585,86.6406036 125.297681,84.1458095 124.669476,83.1070735 C124.669476,83.1070735 118.970113,83.0887966 121.082337,80.7859097 C122.526904,79.214098 127.063937,80.6762484 129.003177,79.8537888 C130.936348,79.0343754 139.846534,71.1692246 139.846534,71.1692246 L140.790358,58.5612234 L149.333333,56.8888889 Z" id="Fill-61" fill="#FFA784"></path>
                            <path d="M148.373301,40.6361952 C146.302324,38.1214103 140.70369,41.8381364 140.05898,46.2652369 C139.414271,50.6893399 139.377778,61.7106319 139.377778,61.7106319 C139.377778,61.7106319 146.086407,64.1654696 150.161458,60.8144213 C150.161458,60.8144213 152.332791,45.449955 148.373301,40.6361952" id="Fill-63" fill="#E0DEDF"></path>
                        </g>
                    </g>
                </g>
            </g>
        </g>
    </g>
</svg>