<?xml version="1.0" encoding="UTF-8"?>
<svg width="244px" height="226px" viewBox="0 0 244 226" version="1.1" xmlns="http://www.w3.org/2000/svg" xmlns:xlink="http://www.w3.org/1999/xlink">
    <!-- Generator: Sketch 51.3 (57544) - http://www.bohemiancoding.com/sketch -->
    <title>VECTOR-BOX-SPEED</title>
    <desc>Created with Sketch.</desc>
    <defs>
        <polygon id="path-1" points="1.02343318 0.442572816 220.422794 0.442572816 220.422794 178.033457 1.02343318 178.033457"></polygon>
        <path d="M66.1668296,98.404733 C105.257139,107.266019 124.723291,115.737379 124.563108,123.816626 C124.331004,135.484951 83.1484978,146.336286 1.02321525,156.369539 C1.02321525,156.369539 141.302865,161.542354 172.783897,105.192961 C185.273879,82.8338592 162.122408,41.6348301 129.648673,0.0655339806 L66.1668296,98.404733 Z" id="path-3"></path>
        <linearGradient x1="38.5490005%" y1="52.3991172%" x2="75.2927813%" y2="101.080965%" id="linearGradient-5">
            <stop stop-color="#AFE2DB" offset="0%"></stop>
            <stop stop-color="#AFE2DB" offset="100%"></stop>
        </linearGradient>
        <path d="M0.901170404,9.85303398 C24.2705785,22.9773058 75.7582466,56.6410194 82.6014753,101.714199 C85.1883901,118.75085 79.8652735,132.328398 71.0235605,143.024636 C75.9761839,138.476578 79.8140583,133.248058 82.2353408,127.199272 C95.5295112,93.9811893 64.7120987,40.2258495 6.9761704,0.442354369 L0.901170404,9.85303398 Z" id="path-6"></path>
        <linearGradient x1="-9.53670604%" y1="7.22295077%" x2="82.9987389%" y2="71.639863%" id="linearGradient-8">
            <stop stop-color="#FFFFFF" offset="0%"></stop>
            <stop stop-color="#FFFFFF" offset="100%"></stop>
        </linearGradient>
        <path d="M4.131,58.6769417 L4.13644843,58.6813107 C123.873336,42.8024272 29.2722377,0.0983009709 29.2722377,0.0983009709 L7.22679821,1.04745146 L0.785663677,11.025 C39.8759731,19.8873786 59.3421256,28.3587379 59.1819417,36.4368932" id="path-9"></path>
        <linearGradient x1="11.456412%" y1="35.9334799%" x2="70.084784%" y2="84.2243532%" id="linearGradient-11">
            <stop stop-color="#FFFFFF" offset="0%"></stop>
            <stop stop-color="#FFFFFF" offset="100%"></stop>
        </linearGradient>
        <path d="M37.4873812,0.1125 C37.4873812,0.1125 95.7147578,37.2309466 103.834009,82.4625 C111.95326,127.692961 12.6109372,139.319782 12.6109372,139.319782 C14.8665874,139.021602 97.258843,126.241383 93.7816547,88.5735437 C90.3044664,50.9057039 0.532856502,28.1970874 0.532856502,28.1970874 L37.4873812,0.1125 Z" id="path-12"></path>
        <linearGradient x1="-0.457082549%" y1="19.0838757%" x2="101.629545%" y2="120.139604%" id="linearGradient-14">
            <stop stop-color="#FFFFFF" offset="0%"></stop>
            <stop stop-color="#FFFFFF" offset="100%"></stop>
        </linearGradient>
        <path d="M2.7198565,1.08677184 C3.98389238,2.06650485 40.2911435,6.01711165 54.9234484,35.3533981 C69.556843,64.6896845 39.7659148,75.3848301 39.7659148,75.3848301 C41.8581121,74.4793689 55.0585695,62.2146845 51.1465964,46.8109223 C47.235713,31.4071602 0.70393722,17.1415049 0.70393722,17.1415049 L2.7198565,1.08677184 Z" id="path-15"></path>
        <linearGradient x1="22.8644258%" y1="22.9061217%" x2="103.05089%" y2="90.2392801%" id="linearGradient-17">
            <stop stop-color="#FFFFFF" offset="0%"></stop>
            <stop stop-color="#FFFFFF" offset="100%"></stop>
        </linearGradient>
        <path d="M0.788932735,1.08131068 C2.18155157,1.86662621 38.675139,0.489320388 57.4046637,27.384466 C76.1330987,54.2785194 48.2088027,69.1973301 48.2088027,69.1973301 C50.1473543,67.9980583 61.4310538,53.9421117 55.327722,39.2712379 C49.2254798,24.5992718 1.121287,17.259466 1.121287,17.259466 L0.788932735,1.08131068 Z" id="path-18"></path>
        <linearGradient x1="21.6424526%" y1="22.3012462%" x2="106.410643%" y2="84.9845323%" id="linearGradient-20">
            <stop stop-color="#FFFFFF" offset="0%"></stop>
            <stop stop-color="#FFFFFF" offset="100%"></stop>
        </linearGradient>
        <polygon id="path-21" points="0 0.696080097 82.4900004 0.696080097 82.4900004 136.995837 0 136.995837"></polygon>
    </defs>
    <g id="STATIC-PAGES" stroke="none" stroke-width="1" fill="none" fill-rule="evenodd">
        <g id="SERVICES" transform="translate(-111.000000, -1273.000000)">
            <g id="CONSILIDATE" transform="translate(98.000000, 1233.000000)">
                <g id="Group">
                    <g id="VECTOR-BOX-SPEED" transform="translate(13.000000, 40.000000)">
                        <g id="Group-3" transform="translate(22.883408, 47.362500)">
                            <mask id="mask-2" fill="white">
                                <use xlink:href="#path-1"></use>
                            </mask>
                            <g id="Clip-2"></g>
                            <path d="M66.1670475,118.064053 C105.257357,126.926432 124.723509,135.397791 124.562236,143.475947 C124.330133,155.145364 83.1487157,165.995607 1.02343318,176.029951 C20.7064332,177.986141 48.5904108,179.332864 81.6460386,176.029951 C135.986505,170.597184 202.6535,163.933471 217.356635,127.19949 C230.650805,93.9814078 199.834483,40.226068 142.097465,0.442572816 L66.1670475,118.064053 Z" id="Fill-1" fill="#BFEFE9" mask="url(#mask-2)"></path>
                        </g>
                        <g id="Group-6" transform="translate(22.883408, 67.022694)">
                            <mask id="mask-4" fill="white">
                                <use xlink:href="#path-3"></use>
                            </mask>
                            <g id="Clip-5"></g>
                            <path d="M66.1668296,98.404733 C105.257139,107.266019 124.723291,115.737379 124.563108,123.816626 C124.331004,135.484951 83.1484978,146.336286 1.02321525,156.369539 C1.02321525,156.369539 141.302865,161.542354 172.783897,105.192961 C185.273879,82.8338592 162.122408,41.6348301 129.648673,0.0655339806 L66.1668296,98.404733 Z" id="Fill-4" fill="url(#linearGradient-5)" mask="url(#mask-4)"></path>
                        </g>
                        <g id="Group-9" transform="translate(158.004484, 47.362500)">
                            <mask id="mask-7" fill="white">
                                <use xlink:href="#path-6"></use>
                            </mask>
                            <g id="Clip-8"></g>
                            <path d="M0.901170404,9.85303398 C24.2705785,22.9773058 75.7582466,56.6410194 82.6014753,101.714199 C85.1883901,118.75085 79.8652735,132.328398 71.0235605,143.024636 C75.9761839,138.476578 79.8140583,133.248058 82.2353408,127.199272 C95.5295112,93.9811893 64.7120987,40.2258495 6.9761704,0.442354369 L0.901170404,9.85303398 Z" id="Fill-7" fill="url(#linearGradient-8)" mask="url(#mask-7)"></path>
                        </g>
                        <g id="Group-100" transform="translate(0.000000, -0.695752)">
                            <g id="Group-12" transform="translate(88.264574, 155.097087)">
                                <mask id="mask-10" fill="white">
                                    <use xlink:href="#path-9"></use>
                                </mask>
                                <g id="Clip-11"></g>
                                <path d="M4.131,58.6769417 L4.13644843,58.6813107 C123.873336,42.8024272 29.2722377,0.0983009709 29.2722377,0.0983009709 L7.22679821,1.04745146 L0.785663677,11.025 C39.8759731,19.8873786 59.3421256,28.3587379 59.1819417,36.4368932 C59.0272063,44.2135922 40.6583677,51.6276699 4.131,58.6769417" id="Fill-10" fill="url(#linearGradient-11)" mask="url(#mask-10)"></path>
                            </g>
                            <g id="Group-15" transform="translate(127.493274, 77.548544)">
                                <mask id="mask-13" fill="white">
                                    <use xlink:href="#path-12"></use>
                                </mask>
                                <g id="Clip-14"></g>
                                <path d="M37.4873812,0.1125 C37.4873812,0.1125 95.7147578,37.2309466 103.834009,82.4625 C111.95326,127.692961 12.6109372,139.319782 12.6109372,139.319782 C14.8665874,139.021602 97.258843,126.241383 93.7816547,88.5735437 C90.3044664,50.9057039 0.532856502,28.1970874 0.532856502,28.1970874 L37.4873812,0.1125 Z" id="Fill-13" fill="url(#linearGradient-14)" mask="url(#mask-13)"></path>
                            </g>
                            <g id="Group-18" transform="translate(143.838565, 119.053398)">
                                <mask id="mask-16" fill="white">
                                    <use xlink:href="#path-15"></use>
                                </mask>
                                <g id="Clip-17"></g>
                                <path d="M2.7198565,1.08677184 C3.98389238,2.06650485 40.2911435,6.01711165 54.9234484,35.3533981 C69.556843,64.6896845 39.7659148,75.3848301 39.7659148,75.3848301 C41.8581121,74.4793689 55.0585695,62.2146845 51.1465964,46.8109223 C47.235713,31.4071602 0.70393722,17.1415049 0.70393722,17.1415049 L2.7198565,1.08677184 Z" id="Fill-16" fill="url(#linearGradient-17)" mask="url(#mask-16)"></path>
                            </g>
                            <g id="Group-21" transform="translate(105.699552, 132.160194)">
                                <mask id="mask-19" fill="white">
                                    <use xlink:href="#path-18"></use>
                                </mask>
                                <g id="Clip-20"></g>
                                <path d="M0.788932735,1.08131068 C2.18155157,1.86662621 38.675139,0.489320388 57.4046637,27.384466 C76.1330987,54.2785194 48.2088027,69.1973301 48.2088027,69.1973301 C50.1473543,67.9980583 61.4310538,53.9421117 55.327722,39.2712379 C49.2254798,24.5992718 1.121287,17.259466 1.121287,17.259466 L0.788932735,1.08131068 Z" id="Fill-19" fill="url(#linearGradient-20)" mask="url(#mask-19)"></path>
                            </g>
                            <g id="Group-24">
                                <mask id="mask-22" fill="white">
                                    <use xlink:href="#path-21"></use>
                                </mask>
                                <g id="Clip-23"></g>
                                <polygon id="Fill-22" fill="#E0B27E" mask="url(#mask-22)" points="82.4900004 98.4935316 -0.00032690583 136.995837 -0.00032690583 48.5009345 82.4900004 0.696080097"></polygon>
                            </g>
                            <polygon id="Fill-25" fill="#BA8656" points="82.4900004 98.4935316 164.981417 136.995837 164.981417 48.5009345 82.4900004 0.696080097"></polygon>
                            <polygon id="Fill-29" fill="#BA8656" points="164.980982 136.996274 89.0505646 166.122852 0.00032690583 136.996274 82.4895646 98.4939684"></polygon>
                            <polygon id="Fill-33" fill="#FFD8A4" points="28.3606063 123.758847 46.9190502 115.096347 46.9190502 21.3095752 28.3606063 32.0647937"></polygon>
                            <polygon id="Fill-35" fill="#DBB17F" points="46.9192682 115.096238 134.645537 148.633252 114.110403 156.510437 28.3608242 123.758738"></polygon>
                            <path d="M164.980982,77.6610437 L164.980982,62.263835 L130.623179,58.1657767 C130.623179,58.1657767 132.154188,68.8467233 164.980982,77.6610437" id="Fill-45" fill="#997044"></path>
                            <path d="M135.610563,62.9356675 C132.890707,61.7189199 130.822483,59.3815413 129.946375,56.5286286 C126.463738,45.1956189 122.062496,16.8969539 166.046586,19.3337257 C192.541213,20.8016869 214.954967,32.2297209 224.939761,28.3140655 C224.939761,28.3140655 225.807151,40.9315413 210.181052,44.8471966 L217.995191,46.5871238 C217.995191,46.5871238 217.126711,60.9456189 196.724518,61.8161286 L203.670178,63.9907646 C203.670178,63.9907646 193.160155,88.6828762 135.610563,62.9356675" id="Fill-47" fill="#E8EFEE"></path>
                            <path d="M46.9192682,115.096238 L28.3608242,123.758738 L30.6328197,124.627063 C35.8131874,121.502184 42.1028556,118.334709 48.4339318,115.675121 L46.9192682,115.096238 Z" id="Fill-61" fill="#C49D72"></path>
                            <path d="M133.822824,148.31858 C131.870107,149.286299 129.865084,150.252925 127.887304,151.225012 L134.645537,148.633143 L133.822824,148.31858 Z" id="Fill-70" fill="#C49D72"></path>
                            <path d="M134.90935,59.2830218 C130.414395,55.6502549 128.026893,46.9222209 128.026893,46.9222209 C128.346171,50.6161529 129.167794,53.9966141 129.94583,56.5284102 C130.823027,59.3813228 132.890162,61.7187015 135.611108,62.935449 C193.1607,88.6826578 203.670722,63.9916383 203.670722,63.9916383 C181.811619,79.8890898 139.404305,62.9168811 134.90935,59.2830218" id="Fill-88" fill="#CEDBD8"></path>
                            <path d="M217.994646,46.5873422 C209.880843,58.0164684 189.570184,60.0097937 189.570184,60.0097937 C194.210068,61.6077306 196.723974,61.8152549 196.723974,61.8152549 C217.126166,60.9458374 217.994646,46.5873422 217.994646,46.5873422" id="Fill-90" fill="#CEDBD8"></path>
                            <path d="M200.300105,44.8471966 C204.649043,46.3970752 210.180289,44.8471966 210.180289,44.8471966 C225.807478,40.9315413 224.938998,28.3140655 224.938998,28.3140655 C220.291487,40.0719539 200.300105,44.8471966 200.300105,44.8471966" id="Fill-92" fill="#CEDBD8"></path>
                            <path d="M203.781979,26.365085 C193.222921,23.7524636 180.219697,20.1186044 166.04615,19.3332888 C142.597195,18.0346238 132.902257,25.4716383 129.487181,34.4170267 L129.487181,34.4181189 C129.487181,34.4181189 139.519921,19.1727306 164.981526,21.4970024 C190.440952,23.8223665 203.781979,26.365085 203.781979,26.365085 Z" id="Fill-94" fill="#F7F9F9"></path>
                            <path d="M215.088453,33.1238228 C215.521059,32.9709102 194.789781,44.459017 172.171166,41.552585 C172.171166,41.552585 201.894534,37.774551 215.088453,33.1238228" id="Fill-96" fill="#F7F9F9"></path>
                            <path d="M201.235492,51.8895874 C201.668097,51.7366748 180.936819,63.2247816 158.318205,60.3183495 C158.318205,60.3183495 188.041573,56.5403155 201.235492,51.8895874" id="Fill-98" fill="#F7F9F9"></path>
                        </g>
                    </g>
                </g>
            </g>
        </g>
    </g>
</svg>