<?xml version="1.0" encoding="UTF-8"?>
<svg width="24px" height="16px" viewBox="0 0 24 16" version="1.1" xmlns="http://www.w3.org/2000/svg" xmlns:xlink="http://www.w3.org/1999/xlink">
    <!-- Generator: Sketch 51.3 (57544) - http://www.bohemiancoding.com/sketch -->
    <title>eye</title>
    <desc>Created with Sketch.</desc>
    <defs></defs>
    <g id="Symbols" stroke="none" stroke-width="1" fill="none" fill-rule="evenodd">
        <g id="SVG" transform="translate(-15.000000, -302.000000)" fill="#AFB7CA" fill-rule="nonzero">
            <g id="eye" transform="translate(15.000000, 302.000000)">
                <path d="M23.7230961,6.94047826 C21.3737218,2.78034783 16.9920147,0 12.0000162,0 C7.00585099,0 2.62518561,2.78234783 0.276936303,6.94043478 C-0.0923121009,7.59425387 -0.0923121009,8.40570265 0.276936303,9.05952174 C2.62635228,13.2196957 7.00801765,16 12.0000162,16 C16.9941814,16 21.3748468,13.2176522 23.7230961,9.05952174 C24.0923013,8.40570594 24.0923013,7.59429406 23.7230961,6.94047826 Z M17.3333479,6.7826087 C17.3333479,9.76013043 14.9455153,12.173913 12.0000162,12.173913 C9.05451705,12.173913 6.66668442,9.76013043 6.66668442,6.7826087 C6.66668442,3.80508696 9.05451705,1.39130435 12.0000162,1.39130435 C14.9455153,1.39130435 17.3333479,3.80508696 17.3333479,6.7826087 Z M22.5743464,8.35317391 C20.4098887,12.1859565 16.4110565,14.6086957 12.0000162,14.6086957 C7.57122582,14.6086957 3.58081033,12.1693478 1.42568596,8.35321739 C1.30264878,8.13525434 1.30264878,7.86478914 1.42568596,7.64682609 C2.63701894,5.50191304 4.48156006,3.71486957 6.74485106,2.60826087 C5.86855966,3.74743478 5.33335148,5.1986087 5.33335148,6.7826087 C5.33335148,10.5138261 8.30089227,13.5652174 12.0000162,13.5652174 C15.6987651,13.5652174 18.6666809,10.514 18.6666809,6.7826087 C18.6666809,5.19952174 18.1319727,3.74808696 17.255223,2.60826087 C19.4952223,3.70343478 21.3499718,5.47873913 22.5743881,7.64682609 C22.697396,7.86478613 22.6973801,8.13522968 22.5743464,8.35317391 Z M9.3333503,6.60869565 C9.3333503,6.13491304 9.44697527,5.68886957 9.64710021,5.2983913 L9.64710021,5.29926087 C9.64710021,5.93204348 10.1387251,6.44504348 10.7451416,6.44504348 C11.351558,6.44504348 11.8431829,5.93204348 11.8431829,5.29926087 C11.8431829,4.66647826 11.351558,4.15347826 10.7451416,4.15347826 L10.7443082,4.15347826 C11.1185164,3.94465217 11.5459746,3.82608696 12.0000162,3.82608696 C13.4727657,3.82608696 14.6666821,5.07191304 14.6666821,6.60869565 C14.6666821,8.14547826 13.4727657,9.39130435 12.0000162,9.39130435 C10.5272666,9.39130435 9.3333503,8.14547826 9.3333503,6.60869565 Z" id="Shape"></path>
            </g>
        </g>
    </g>
</svg>