<?xml version="1.0" encoding="UTF-8"?>
<svg width="18px" height="18px" viewBox="0 0 18 18" version="1.1" xmlns="http://www.w3.org/2000/svg" xmlns:xlink="http://www.w3.org/1999/xlink">
    <!-- Generator: Sketch 51.3 (57544) - http://www.bohemiancoding.com/sketch -->
    <title>pencil</title>
    <desc>Created with Sketch.</desc>
    <defs></defs>
    <g id="Symbols" stroke="none" stroke-width="1" fill="none" fill-rule="evenodd">
        <g id="SVG" transform="translate(-54.000000, -301.000000)" fill="#AFB7CA" fill-rule="nonzero">
            <g id="pencil" transform="translate(54.000000, 301.000000)">
                <path d="M17.2831161,2.58837214 L15.3895663,0.695596532 C14.4622152,-0.231789337 12.9611143,-0.231929962 12.0335523,0.695561376 L0.875737502,11.7804575 L0.0115621474,17.0185933 C-0.0824807749,17.5886514 0.4112182,18.0824556 0.981417137,17.9884479 L6.21952002,17.1242377 L17.3051942,5.96642764 C18.2308578,5.04072927 18.239682,3.54490252 17.2831161,2.58837214 Z M4.24138428,10.6171734 L10.2270493,4.67032336 L13.329622,7.77289474 L7.3828046,13.7585572 L7.3828046,12.3046718 L5.69530543,12.3046718 L5.69530543,10.6171734 L4.24138428,10.6171734 Z M2.88744745,16.106184 L1.89382684,15.1125638 L2.32062351,12.5255232 L2.96749819,11.8827972 L4.42968106,11.8827972 L4.42968106,13.5702957 L6.11718023,13.5702957 L6.11718023,15.0324428 L5.47445398,15.6793523 L2.88744745,16.106184 Z M16.2111323,4.87261224 L16.2093393,4.8744052 L16.2075463,4.87619817 L14.5189925,6.57579037 L11.4241893,3.48098851 L13.1237822,1.79243537 L13.12554,1.79067756 L13.1272979,1.78891975 C13.4488719,1.46738098 13.970274,1.46340833 14.2957504,1.78888459 L16.1890542,3.68218755 C16.5363274,4.02942551 16.538472,4.54523754 16.2111323,4.87261224 Z" id="Shape"></path>
            </g>
        </g>
    </g>
</svg>