<?xml version="1.0" encoding="UTF-8"?>
<svg width="16px" height="18px" viewBox="0 0 16 18" version="1.1" xmlns="http://www.w3.org/2000/svg" xmlns:xlink="http://www.w3.org/1999/xlink">
    <!-- Generator: Sketch 51.3 (57544) - http://www.bohemiancoding.com/sketch -->
    <title>trash-alt</title>
    <desc>Created with Sketch.</desc>
    <defs></defs>
    <g id="Symbols" stroke="none" stroke-width="1" fill="none" fill-rule="evenodd">
        <g id="SVG" transform="translate(-83.000000, -301.000000)" fill="#AFB7CA" fill-rule="nonzero">
            <g id="trash-alt" transform="translate(83.000000, 301.000000)">
                <path d="M11.8125,2.25 L10.63125,0.675 C10.3113281,0.249609375 9.81210938,0 9.28125,0 L6.46875,0 C5.93789063,0 5.43867187,0.249609375 5.11875,0.675 L3.9375,2.25 L0.84375,2.25 C0.376171875,2.25 0,2.62617188 0,3.09375 L0,3.1640625 C0,3.28007812 0.094921875,3.375 0.2109375,3.375 L1.125,3.375 L1.125,16.3125 C1.125,17.2441406 1.88085938,18 2.8125,18 L12.9375,18 C13.8691406,18 14.625,17.2441406 14.625,16.3125 L14.625,3.375 L15.5390625,3.375 C15.6550781,3.375 15.75,3.28007812 15.75,3.1640625 L15.75,3.09375 C15.75,2.62617188 15.3738281,2.25 14.90625,2.25 L11.8125,2.25 Z M6.46875,1.125 L9.28125,1.125 C9.45703125,1.125 9.62578125,1.209375 9.73125,1.35 L10.40625,2.25 L5.34375,2.25 L6.01875,1.35 C6.12421875,1.209375 6.29296875,1.125 6.46875,1.125 Z M13.5,16.3125 C13.5,16.621875 13.246875,16.875 12.9375,16.875 L2.8125,16.875 C2.503125,16.875 2.25,16.621875 2.25,16.3125 L2.25,3.375 L13.5,3.375 L13.5,16.3125 Z M7.3125,14.765625 L7.3125,5.484375 C7.3125,5.25234375 7.50234375,5.0625 7.734375,5.0625 L8.015625,5.0625 C8.24765625,5.0625 8.4375,5.25234375 8.4375,5.484375 L8.4375,14.765625 C8.4375,14.9976563 8.24765625,15.1875 8.015625,15.1875 L7.734375,15.1875 C7.50234375,15.1875 7.3125,14.9976563 7.3125,14.765625 Z M4.5,14.765625 L4.5,5.484375 C4.5,5.25234375 4.68984375,5.0625 4.921875,5.0625 L5.203125,5.0625 C5.43515625,5.0625 5.625,5.25234375 5.625,5.484375 L5.625,14.765625 C5.625,14.9976563 5.43515625,15.1875 5.203125,15.1875 L4.921875,15.1875 C4.68984375,15.1875 4.5,14.9976563 4.5,14.765625 Z M10.125,14.765625 L10.125,5.484375 C10.125,5.25234375 10.3148437,5.0625 10.546875,5.0625 L10.828125,5.0625 C11.0601563,5.0625 11.25,5.25234375 11.25,5.484375 L11.25,14.765625 C11.25,14.9976563 11.0601563,15.1875 10.828125,15.1875 L10.546875,15.1875 C10.3148437,15.1875 10.125,14.9976563 10.125,14.765625 Z" id="Shape"></path>
            </g>
        </g>
    </g>
</svg>