<?xml version="1.0" encoding="UTF-8"?>
<svg width="17px" height="17px" viewBox="0 0 17 17" version="1.1" xmlns="http://www.w3.org/2000/svg" xmlns:xlink="http://www.w3.org/1999/xlink">
    <!-- Generator: Sketch 51.3 (57544) - http://www.bohemiancoding.com/sketch -->
    <title>paper-plane</title>
    <desc>Created with Sketch.</desc>
    <defs></defs>
    <g id="Symbols" stroke="none" stroke-width="1" fill="none" fill-rule="evenodd">
        <g id="SVG" transform="translate(-56.000000, -50.000000)" fill="#FFFFFF" fill-rule="nonzero">
            <g id="paper-plane" transform="translate(56.000000, 50.000000)">
                <path d="M15.40625,0.175976562 L0.53125,8.75566406 C-0.232421875,9.19726562 -0.156054687,10.3228516 0.657421875,10.6582031 L5.3125,12.5839844 L5.3125,15.9707031 C5.3125,16.9734375 6.56757813,17.4083984 7.19511719,16.6447266 L9.21054688,14.1943359 L13.4074219,15.9275391 C14.0416016,16.1898437 14.7587891,15.7880859 14.8617188,15.1074219 L16.9867188,1.25839844 C17.1228516,0.371875 16.1699219,-0.265625 15.40625,0.175976562 Z M6.375,15.9707031 L6.375,13.0222656 L8.18457031,13.7693359 L6.375,15.9707031 Z M13.8125,14.9447266 L6.96601563,12.1158203 L13.5900391,4.28652344 C13.7494141,4.10058594 13.49375,3.84824219 13.3078125,4.00761719 L4.83105469,11.2326172 L1.0625,9.67871094 L15.9375,1.09570312 L13.8125,14.9447266 Z" id="Shape"></path>
            </g>
        </g>
    </g>
</svg>