<?xml version="1.0" encoding="UTF-8"?>
<svg width="22px" height="24px" viewBox="0 0 22 24" version="1.1" xmlns="http://www.w3.org/2000/svg" xmlns:xlink="http://www.w3.org/1999/xlink">
    <!-- Generator: Sketch 51.3 (57544) - http://www.bohemiancoding.com/sketch -->
    <title>paperclip</title>
    <desc>Created with Sketch.</desc>
    <defs></defs>
    <g id="Symbols" stroke="none" stroke-width="1" fill="none" fill-rule="evenodd">
        <g id="SVG" transform="translate(-21.000000, -47.000000)" fill="#BDC6DB" fill-rule="nonzero">
            <g id="paperclip" transform="translate(21.000000, 47.000000)">
                <path d="M6.00493023,23.8139535 C4.46651163,23.8139535 2.92804651,23.2283721 1.75688372,22.0571628 C-0.585627907,19.7147907 -0.585627907,15.9034419 1.7567907,13.5611163 L13.9461395,1.372 C15.7754884,-0.457348837 18.752093,-0.457348837 20.5814884,1.372 C22.4108372,3.20139535 22.4108372,6.17790698 20.5814884,8.0072093 L10.2266047,18.361907 C8.91046512,19.6782326 6.76860465,19.6783256 5.45218605,18.361907 C4.13590698,17.0455814 4.13590698,14.903814 5.45218605,13.5875349 L13.3731628,5.66669767 C13.5911163,5.44874419 13.9445116,5.44874419 14.1624651,5.66669767 L14.4257674,5.93 C14.6437209,6.14795349 14.6437209,6.50134884 14.4257674,6.71934884 L6.50483721,14.6401395 C5.76897674,15.376 5.76897674,16.5733023 6.50488372,17.3092093 C7.24074419,18.0450233 8.43809302,18.0450233 9.17395349,17.3092093 L19.5288372,6.95451163 C20.7777209,5.70562791 20.7777209,3.67353488 19.5288372,2.42455814 C18.2797674,1.17567442 16.2477209,1.17576744 14.9988372,2.42455814 L2.80948837,14.6137674 C1.04753488,16.3757209 1.04753488,19.2425581 2.80948837,21.0045116 C4.57153488,22.7664186 7.43846512,22.7664651 9.20037209,21.0045581 L19.3279535,10.8771628 C19.545907,10.6592093 19.8993023,10.6592093 20.1172558,10.8771628 L20.3805581,11.1404651 C20.5985116,11.3584186 20.5985116,11.711814 20.3805581,11.929814 L10.2530233,22.0571628 C9.08186047,23.2283721 7.54339535,23.8139535 6.00493023,23.8139535 Z" id="Shape"></path>
            </g>
        </g>
    </g>
</svg>