<?xml version="1.0" encoding="UTF-8"?>
<svg width="28px" height="31px" viewBox="0 0 28 31" version="1.1" xmlns="http://www.w3.org/2000/svg" xmlns:xlink="http://www.w3.org/1999/xlink">
    <!-- Generator: Sketch 51.3 (57544) - http://www.bohemiancoding.com/sketch -->
    <title>bell</title>
    <desc>Created with Sketch.</desc>
    <defs></defs>
    <g id="Symbols" stroke="none" stroke-width="1" fill="none" fill-rule="evenodd">
        <g id="SVG" transform="translate(-75.000000, -98.000000)" fill="#CCD5D8" fill-rule="nonzero">
            <g id="bell" transform="translate(75.000000, 98.000000)">
                <path d="M13.6230469,29.0625 C12.5537891,29.0625 11.6855469,28.1918359 11.6855469,27.1231836 L9.74804688,27.1231836 C9.74804688,29.2610937 11.4869531,31 13.6230469,31 C15.7591406,31 17.4980469,29.2610937 17.4980469,27.1231836 L15.5605469,27.1231836 C15.5605469,28.1918359 14.6923047,29.0625 13.6230469,29.0625 Z M26.3003516,20.2716992 C24.6074609,18.6599414 23.3129688,16.9731055 23.3129688,11.2556641 C23.3129688,6.43673828 19.4749023,2.50664062 14.5917969,2.03134766 L14.5917969,0.96875 C14.5917969,0.433515625 14.1582813,0 13.6230469,0 C13.0878125,0 12.6542969,0.433515625 12.6542969,0.96875 L12.6542969,2.03195312 C7.77119141,2.50724609 3.933125,6.43673828 3.933125,11.2556641 C3.933125,16.9725 2.63802734,18.6599414 0.945136719,20.2716992 C0.099296875,21.0769727 -0.167714844,22.2945703 0.263984375,23.3735156 C0.704765625,24.4754687 1.76554688,25.1875 2.96679688,25.1875 L24.2792969,25.1875 C25.4805469,25.1875 26.5413281,24.4748633 26.9821094,23.3729102 C27.4138086,22.2939648 27.1461914,21.0769727 26.3003516,20.2716992 Z M24.2792969,23.25 L2.96679688,23.25 C2.10521484,23.25 1.67472656,22.252793 2.28140625,21.6751758 C4.39207031,19.665625 5.870625,17.4163086 5.870625,11.2562695 C5.870625,7.17662109 9.33814453,3.875 13.6230469,3.875 C17.9073437,3.875 21.3754687,7.17601563 21.3754687,11.2556641 C21.3754687,17.3920898 22.8413086,19.6535156 24.9646875,21.6745703 C25.5737891,22.2552148 25.1372461,23.25 24.2792969,23.25 Z" id="Shape"></path>
            </g>
        </g>
    </g>
</svg>