<?xml version="1.0" encoding="UTF-8"?>
<svg width="38px" height="31px" viewBox="0 0 38 31" version="1.1" xmlns="http://www.w3.org/2000/svg" xmlns:xlink="http://www.w3.org/1999/xlink">
    <!-- Generator: Sketch 51.3 (57544) - http://www.bohemiancoding.com/sketch -->
    <title>warehouse-alt</title>
    <desc>Created with Sketch.</desc>
    <defs></defs>
    <g id="Symbols" stroke="none" stroke-width="1" fill="none" fill-rule="evenodd">
        <g id="SVG" transform="translate(-16.000000, -98.000000)" fill="#CCD5D8" fill-rule="nonzero">
            <g id="warehouse-alt" transform="translate(16.000000, 98.000000)">
                <path d="M31.35,20.959375 L20.9,20.959375 L20.9,14.309375 C20.9,13.786875 20.4725,13.359375 19.95,13.359375 L6.65,13.359375 C6.1275,13.359375 5.7,13.786875 5.7,14.309375 L5.7,29.509375 C5.7,30.031875 6.1275,30.459375 6.65,30.459375 L31.35,30.459375 C31.8725,30.459375 32.3,30.031875 32.3,29.509375 L32.3,21.909375 C32.3,21.386875 31.8725,20.959375 31.35,20.959375 Z M19,28.559375 L7.6,28.559375 L7.6,22.859375 L19,22.859375 L19,28.559375 Z M19,20.959375 L7.6,20.959375 L7.6,15.259375 L19,15.259375 L19,20.959375 Z M30.4,28.559375 L20.9,28.559375 L20.9,22.859375 L30.4,22.859375 L30.4,28.559375 Z M36.254375,7.0834375 L20.104375,0.2790625 C19.40375,-0.0178125 18.6021875,-0.0178125 17.895625,0.2790625 L1.745625,7.0834375 C0.6828125,7.52875 0,8.561875 0,9.7078125 L0,29.984375 C0,30.245625 0.21375,30.459375 0.475,30.459375 L1.425,30.459375 C1.68625,30.459375 1.9,30.245625 1.9,29.984375 L1.9,9.7078125 C1.9,9.321875 2.125625,8.9834375 2.481875,8.8290625 L18.631875,2.0246875 C18.8634375,1.92375 19.1365625,1.92375 19.368125,2.0246875 L35.518125,8.8290625 C35.874375,8.9775 36.1,9.321875 36.1,9.7078125 L36.1,29.984375 C36.1,30.245625 36.31375,30.459375 36.575,30.459375 L37.525,30.459375 C37.78625,30.459375 38,30.245625 38,29.984375 L38,9.7078125 C38,8.561875 37.3171875,7.52875 36.254375,7.0834375 Z" id="Shape"></path>
            </g>
        </g>
    </g>
</svg>