<?xml version="1.0" encoding="UTF-8"?>
<svg width="18px" height="18px" viewBox="0 0 18 18" version="1.1" xmlns="http://www.w3.org/2000/svg" xmlns:xlink="http://www.w3.org/1999/xlink">
    <!-- Generator: Sketch 51.3 (57544) - http://www.bohemiancoding.com/sketch -->
    <title>Shape</title>
    <desc>Created with Sketch.</desc>
    <defs></defs>
    <g id="Symbols" stroke="none" stroke-width="1" fill="none" fill-rule="evenodd">
        <g id="ICON-BOX" transform="translate(-9.000000, -9.000000)" fill="#EBCC98" fill-rule="nonzero">
            <g id="box" transform="translate(9.000000, 9.000000)">
                <path d="M17.9121094,6.48984375 L16.1332031,1.153125 C15.9046875,0.4640625 15.2613281,0 14.5335937,0 L3.46640625,0 C2.73867187,0 2.0953125,0.4640625 1.86679687,1.153125 L0.087890625,6.48984375 C0.031640625,6.66210938 0,6.84140625 0,7.02421875 L0,16.3125 C0,17.2441406 0.755859375,18 1.6875,18 L16.3125,18 C17.2441406,18 18,17.2441406 18,16.3125 L18,7.02421875 C18,6.84140625 17.971875,6.66210938 17.9121094,6.48984375 Z M1.125,7.02421875 C1.125,6.96445313 1.13554687,6.9046875 1.153125,6.84492188 L2.93203125,1.50820313 C3.009375,1.2796875 3.22382813,1.125 3.46640625,1.125 L8.4375,1.125 L8.4375,7.03125 L1.125,7.03125 L1.125,7.02421875 Z M16.875,16.3125 C16.875,16.621875 16.621875,16.875 16.3125,16.875 L1.6875,16.875 C1.378125,16.875 1.125,16.621875 1.125,16.3125 L1.125,8.15625 L16.875,8.15625 L16.875,16.3125 Z M16.875,7.03125 L9.5625,7.03125 L9.5625,1.125 L14.5335937,1.125 C14.7761719,1.125 14.990625,1.2796875 15.0679687,1.50820313 L16.846875,6.84492188 C16.8644531,6.90117188 16.875,6.9609375 16.875,7.02421875 L16.875,7.03125 Z" id="Shape"></path>
            </g>
        </g>
    </g>
</svg>