<?xml version="1.0" encoding="UTF-8"?>
<svg width="16px" height="18px" viewBox="0 0 16 18" version="1.1" xmlns="http://www.w3.org/2000/svg" xmlns:xlink="http://www.w3.org/1999/xlink">
    <!-- Generator: Sketch 51.3 (57544) - http://www.bohemiancoding.com/sketch -->
    <title>calendar-alt</title>
    <desc>Created with Sketch.</desc>
    <defs></defs>
    <g id="Symbols" stroke="none" stroke-width="1" fill="none" fill-rule="evenodd">
        <g id="SVG" transform="translate(-60.000000, -14.000000)" fill="#858585" fill-rule="nonzero">
            <g id="calendar-alt" transform="translate(60.000000, 14.000000)">
                <path d="M13.9799413,2.23679061 L12.3023483,2.23679061 L12.3023483,0.419398239 C12.3023483,0.188729207 12.1136191,0 11.8829501,0 L11.6033513,0 C11.3726822,0 11.183953,0.188729207 11.183953,0.419398239 L11.183953,2.23679061 L4.47358121,2.23679061 L4.47358121,0.419398239 C4.47358121,0.188729207 4.28485201,0 4.05418297,0 L3.77458415,0 C3.54391512,0 3.35518591,0.188729207 3.35518591,0.419398239 L3.35518591,2.23679061 L1.67759295,2.23679061 C0.751421844,2.23679061 0,2.98821245 0,3.91438356 L0,16.2167319 C0,17.142903 0.751421844,17.8943249 1.67759295,17.8943249 L13.9799413,17.8943249 C14.9061124,17.8943249 15.6575342,17.142903 15.6575342,16.2167319 L15.6575342,3.91438356 C15.6575342,2.98821245 14.9061124,2.23679061 13.9799413,2.23679061 Z M1.67759295,3.35518591 L13.9799413,3.35518591 C14.2875,3.35518591 14.5391389,3.60682485 14.5391389,3.91438356 L14.5391389,5.59197652 L1.1183953,5.59197652 L1.1183953,3.91438356 C1.1183953,3.60682485 1.37003425,3.35518591 1.67759295,3.35518591 Z M13.9799413,16.7759295 L1.67759295,16.7759295 C1.37003425,16.7759295 1.1183953,16.5242906 1.1183953,16.2167319 L1.1183953,6.71037182 L14.5391389,6.71037182 L14.5391389,16.2167319 C14.5391389,16.5242906 14.2875,16.7759295 13.9799413,16.7759295 Z M5.17257828,11.183953 L3.77458415,11.183953 C3.54391512,11.183953 3.35518591,10.9952238 3.35518591,10.7645548 L3.35518591,9.36656067 C3.35518591,9.13589163 3.54391512,8.94716243 3.77458415,8.94716243 L5.17257828,8.94716243 C5.40324731,8.94716243 5.59197652,9.13589163 5.59197652,9.36656067 L5.59197652,10.7645548 C5.59197652,10.9952238 5.40324731,11.183953 5.17257828,11.183953 Z M8.52776419,11.183953 L7.12977006,11.183953 C6.89910103,11.183953 6.71037182,10.9952238 6.71037182,10.7645548 L6.71037182,9.36656067 C6.71037182,9.13589163 6.89910103,8.94716243 7.12977006,8.94716243 L8.52776419,8.94716243 C8.75843322,8.94716243 8.94716243,9.13589163 8.94716243,9.36656067 L8.94716243,10.7645548 C8.94716243,10.9952238 8.75843322,11.183953 8.52776419,11.183953 Z M11.8829501,11.183953 L10.484956,11.183953 C10.2542869,11.183953 10.0655577,10.9952238 10.0655577,10.7645548 L10.0655577,9.36656067 C10.0655577,9.13589163 10.2542869,8.94716243 10.484956,8.94716243 L11.8829501,8.94716243 C12.1136191,8.94716243 12.3023483,9.13589163 12.3023483,9.36656067 L12.3023483,10.7645548 C12.3023483,10.9952238 12.1136191,11.183953 11.8829501,11.183953 Z M8.52776419,14.5391389 L7.12977006,14.5391389 C6.89910103,14.5391389 6.71037182,14.3504097 6.71037182,14.1197407 L6.71037182,12.7217466 C6.71037182,12.4910775 6.89910103,12.3023483 7.12977006,12.3023483 L8.52776419,12.3023483 C8.75843322,12.3023483 8.94716243,12.4910775 8.94716243,12.7217466 L8.94716243,14.1197407 C8.94716243,14.3504097 8.75843322,14.5391389 8.52776419,14.5391389 Z M5.17257828,14.5391389 L3.77458415,14.5391389 C3.54391512,14.5391389 3.35518591,14.3504097 3.35518591,14.1197407 L3.35518591,12.7217466 C3.35518591,12.4910775 3.54391512,12.3023483 3.77458415,12.3023483 L5.17257828,12.3023483 C5.40324731,12.3023483 5.59197652,12.4910775 5.59197652,12.7217466 L5.59197652,14.1197407 C5.59197652,14.3504097 5.40324731,14.5391389 5.17257828,14.5391389 Z M11.8829501,14.5391389 L10.484956,14.5391389 C10.2542869,14.5391389 10.0655577,14.3504097 10.0655577,14.1197407 L10.0655577,12.7217466 C10.0655577,12.4910775 10.2542869,12.3023483 10.484956,12.3023483 L11.8829501,12.3023483 C12.1136191,12.3023483 12.3023483,12.4910775 12.3023483,12.7217466 L12.3023483,14.1197407 C12.3023483,14.3504097 12.1136191,14.5391389 11.8829501,14.5391389 Z" id="Shape"></path>
            </g>
        </g>
    </g>
</svg>