<?xml version="1.0" encoding="UTF-8"?>
<svg width="30px" height="30px" viewBox="0 0 30 30" version="1.1" xmlns="http://www.w3.org/2000/svg" xmlns:xlink="http://www.w3.org/1999/xlink">
    <!-- Generator: Sketch 51.3 (57544) - http://www.bohemiancoding.com/sketch -->
    <title>FLAG</title>
    <desc>Created with Sketch.</desc>
    <defs>
        <circle id="path-1" cx="15" cy="15" r="15"></circle>
    </defs>
    <g id="CUSTOMER-ADMIN" stroke="none" stroke-width="1" fill="none" fill-rule="evenodd">
        <g id="PACKAGES" transform="translate(-323.000000, -1130.000000)">
            <g id="CHINA" transform="translate(304.000000, 1118.000000)">
                <g id="CUSTOMER-FLAG-CIRCLE" transform="translate(19.000000, 12.000000)">
                    <g id="FLAG">
                        <mask id="mask-2" fill="white">
                            <use xlink:href="#path-1"></use>
                        </mask>
                        <use id="Oval" fill="#FFFFFF" xlink:href="#path-1"></use>
                        <g id="CUSTOMER-FLAG" mask="url(#mask-2)" opacity="0.8">
                            <g transform="translate(-8.750000, 0.000000)" id="CUSTOMER-UNITED-STATES">
                                <g>
                                    <g id="united-states">
                                        <path d="M47.1722829,31 L0.827623384,31 C0.370593026,31 0,30.6346896 0,30.184174 L0,0.815825953 C0,0.365310375 0.370593026,0 0.827623384,0 L47.1723766,0 C47.629407,0 48,0.365310375 48,0.815825953 L48,30.184174 C47.9999063,30.634782 47.6293132,31 47.1722829,31 Z" id="Shape" fill="#F5F5F5" fill-rule="nonzero"></path>
                                        <g id="Group" fill="#FF4B55" fill-rule="nonzero">
                                            <path d="M47.9065263,2.40628274 L0,2.40628274 L0,0.839952381 C0,0.390175595 0.369871345,0.0254642857 0.826011696,0.0254642857 L47.0805146,0.0254642857 C47.536655,0.0254642857 47.9065263,0.390175595 47.9065263,0.839952381 L47.9065263,2.40628274 Z" id="Shape"></path>
                                            <rect id="Rectangle-path" x="0" y="9.54827679" width="47.9064327" height="2.38072619"></rect>
                                            <rect id="Rectangle-path" x="0" y="4.78663988" width="47.9064327" height="2.38072619"></rect>
                                            <path d="M47.9064327,16.6904554 L0.826011696,16.6904554 C0.369871345,16.6904554 0,16.325744 0,15.8759673 L0,14.3096369 L47.9064327,14.3096369 L47.9064327,16.6904554 Z" id="Shape"></path>
                                            <rect id="Rectangle-path" x="0" y="23.8331875" width="47.9064327" height="2.38072619"></rect>
                                            <path d="M47.0804211,30.974628 L0.826011696,30.974628 C0.369871345,30.974628 0,30.6099167 0,30.1601399 L0,28.5939018 L47.9064327,28.5939018 L47.9064327,30.1602321 C47.9064327,30.6100089 47.5365614,30.974628 47.0804211,30.974628 Z" id="Shape"></path>
                                            <rect id="Rectangle-path" x="0" y="19.0715506" width="47.9064327" height="2.38072619"></rect>
                                        </g>
                                        <path d="M22.1061482,0 L0.850277218,0 C0.380736956,0 0,0.361742468 0,0.807970842 L0,15.725271 C0,16.1714993 0.380736956,16.5333333 0.850277218,16.5333333 L22.1062445,16.5333333 C22.5757848,16.5333333 22.9565217,16.1714993 22.9565217,15.725271 L22.9565217,0.807970842 C22.9564254,0.361742468 22.5756885,0 22.1061482,0 Z" id="Shape" fill="#41479B" fill-rule="nonzero"></path>
                                        <g id="Group" transform="translate(2.086957, 2.066667)" fill="#F5F5F5" fill-rule="nonzero">
                                            <path d="M0.960405522,0.155592541 L1.13434494,0.748422378 L1.68420359,0.753177156 C1.75541727,0.753885315 1.78488193,0.857074126 1.72764393,0.905127739 L1.28531795,1.27640513 L1.45124583,1.87216876 C1.47278797,1.94925688 1.3954321,2.01319347 1.33748197,1.96605035 L0.890171028,1.60276503 L0.442860087,1.96615152 C0.384909953,2.01319347 0.307732124,1.94935804 0.329096229,1.87226993 L0.495024109,1.27650629 L0.0526981249,0.905228904 C-0.00453987224,0.857074126 0.0249247888,0.75398648 0.096138471,0.753278322 L0.645997115,0.748523543 L0.819936534,0.155693706 C0.842368844,0.0788079254 0.937795178,0.0788079254 0.960405522,0.155592541 Z" id="Shape"></path>
                                            <path d="M0.960405522,3.25671981 L1.13434494,3.84954965 L1.68420359,3.85430443 C1.75541727,3.85501259 1.78488193,3.9582014 1.72764393,4.00625501 L1.28531795,4.3775324 L1.45124583,4.97329604 C1.47278797,5.05038415 1.3954321,5.11432075 1.33748197,5.06717762 L0.890171028,4.70389231 L0.442860087,5.06727879 C0.384909953,5.11432075 0.307732124,5.05048531 0.329096229,4.9733972 L0.495024109,4.37763357 L0.0526981249,4.00635618 C-0.00453987224,3.9582014 0.0249247888,3.85511375 0.096138471,3.85440559 L0.645997115,3.84965082 L0.819936534,3.25682098 C0.842368844,3.18003636 0.937795178,3.18003636 0.960405522,3.25671981 Z" id="Shape"></path>
                                            <path d="M0.960405522,6.35784709 L1.13434494,6.95067692 L1.68420359,6.9554317 C1.75541727,6.95613986 1.78488193,7.05932867 1.72764393,7.10738228 L1.28531795,7.47865967 L1.45124583,8.07442331 C1.47278797,8.15151142 1.3954321,8.21544802 1.33748197,8.1683049 L0.890171028,7.80501958 L0.442860087,8.16840606 C0.384909953,8.21544802 0.307732124,8.15161259 0.329096229,8.07452448 L0.495024109,7.47876084 L0.0526981249,7.10748345 C-0.00453987224,7.05932867 0.0249247888,6.95624103 0.096138471,6.95553287 L0.645997115,6.95077809 L0.819936534,6.35794825 C0.842368844,6.28116364 0.937795178,6.28116364 0.960405522,6.35784709 Z" id="Shape"></path>
                                            <path d="M0.960405522,9.45907552 L1.13434494,10.0519054 L1.68420359,10.0566601 C1.75541727,10.0573683 1.78488193,10.1605571 1.72764393,10.2086107 L1.28531795,10.5798881 L1.45124583,11.1756517 C1.47278797,11.2527399 1.3954321,11.3166765 1.33748197,11.2695333 L0.890171028,10.906248 L0.442860087,11.2696345 C0.384909953,11.3166765 0.307732124,11.252841 0.329096229,11.1757529 L0.495024109,10.5799893 L0.0526981249,10.2087119 C-0.00453987224,10.1605571 0.0249247888,10.0574695 0.096138471,10.0567613 L0.645997115,10.0520065 L0.819936534,9.45917669 C0.842368844,9.38229091 0.937795178,9.38229091 0.960405522,9.45907552 Z" id="Shape"></path>
                                            <path d="M0.960405522,12.5602028 L1.13434494,13.1530326 L1.68420359,13.1577874 C1.75541727,13.1584956 1.78488193,13.2616844 1.72764393,13.309738 L1.28531795,13.6810154 L1.45124583,14.276779 C1.47278797,14.3538671 1.3954321,14.4178037 1.33748197,14.3706606 L0.890171028,14.0073753 L0.442860087,14.3707618 C0.384909953,14.4178037 0.307732124,14.3539683 0.329096229,14.2768802 L0.495024109,13.6811166 L0.0526981249,13.3098392 C-0.00453987224,13.2616844 0.0249247888,13.1585967 0.096138471,13.1578886 L0.645997115,13.1531338 L0.819936534,12.560304 C0.842368844,12.483317 0.937795178,12.483317 0.960405522,12.5602028 Z" id="Shape"></path>
                                            <path d="M3.07838945,1.67600886 L3.25232887,2.26883869 L3.80218751,2.27359347 C3.8734012,2.27430163 3.90286586,2.37749044 3.84562786,2.42554406 L3.40330188,2.79682145 L3.56922975,3.39258508 C3.59077189,3.46967319 3.51341603,3.53360979 3.4554659,3.48646667 L3.00815496,3.12308019 L2.56084401,3.48646667 C2.50289388,3.53350862 2.42571605,3.46967319 2.44708016,3.39258508 L2.61300804,2.79682145 L2.17068205,2.42554406 C2.11344406,2.37738928 2.14290872,2.27430163 2.2141224,2.27359347 L2.76398104,2.26883869 L2.93792046,1.67600886 C2.96026375,1.59932541 3.05586812,1.59932541 3.07838945,1.67600886 Z" id="Shape"></path>
                                            <path d="M3.07838945,4.7772373 L3.25232887,5.37006713 L3.80218751,5.37482191 C3.8734012,5.37553007 3.90286586,5.47871888 3.84562786,5.52677249 L3.40330188,5.89804988 L3.56922975,6.49381352 C3.59077189,6.57090163 3.51341603,6.63483823 3.4554659,6.5876951 L3.00815496,6.22430862 L2.56084401,6.5876951 C2.50289388,6.63473706 2.42571605,6.5710028 2.44708016,6.49381352 L2.61300804,5.89804988 L2.17068205,5.52677249 C2.11344406,5.47861772 2.14290872,5.37553007 2.2141224,5.37482191 L2.76398104,5.37006713 L2.93792046,4.7772373 C2.96026375,4.70045268 3.05586812,4.70045268 3.07838945,4.7772373 Z" id="Shape"></path>
                                            <path d="M3.07838945,7.87836457 L3.25232887,8.47119441 L3.80218751,8.47594918 C3.8734012,8.47665734 3.90286586,8.57984615 3.84562786,8.62789977 L3.40330188,8.99917716 L3.56922975,9.59494079 C3.59077189,9.6720289 3.51341603,9.7359655 3.4554659,9.68882238 L3.00815496,9.3254359 L2.56084401,9.68882238 C2.50289388,9.73586434 2.42571605,9.6720289 2.44708016,9.59494079 L2.61300804,8.99917716 L2.17068205,8.62789977 C2.11344406,8.57974499 2.14290872,8.47665734 2.2141224,8.47594918 L2.76398104,8.47119441 L2.93792046,7.87836457 C2.96026375,7.80157995 3.05586812,7.80157995 3.07838945,7.87836457 Z" id="Shape"></path>
                                            <path d="M3.07838945,10.9794918 L3.25232887,11.5723217 L3.80218751,11.5770765 C3.8734012,11.5777846 3.90286586,11.6809734 3.84562786,11.729027 L3.40330188,12.1003044 L3.56922975,12.6960681 C3.59077189,12.7731562 3.51341603,12.8370928 3.4554659,12.7899497 L3.00815496,12.4265632 L2.56084401,12.7899497 C2.50289388,12.8369916 2.42571605,12.7731562 2.44708016,12.6960681 L2.61300804,12.1003044 L2.17068205,11.729027 C2.11344406,11.6808723 2.14290872,11.5777846 2.2141224,11.5770765 L2.76398104,11.5723217 L2.93792046,10.9794918 C2.96026375,10.9028084 3.05586812,10.9028084 3.07838945,10.9794918 Z" id="Shape"></path>
                                            <path d="M5.19637338,0.155592541 L5.3703128,0.748422378 L5.92017144,0.753177156 C5.99138512,0.753885315 6.02084978,0.857074126 5.96361179,0.905127739 L5.5212858,1.27640513 L5.68721368,1.87216876 C5.70875582,1.94925688 5.63139996,2.01319347 5.57344982,1.96605035 L5.12613888,1.60266387 L4.67882794,1.96605035 C4.62087781,2.01309231 4.54369998,1.94925688 4.56506408,1.87216876 L4.73099196,1.27640513 L4.28866598,0.905127739 C4.23142798,0.85697296 4.26089264,0.753885315 4.33210633,0.753177156 L4.88196497,0.748422378 L5.05590439,0.155592541 C5.0783367,0.0788079254 5.17385205,0.0788079254 5.19637338,0.155592541 Z" id="Shape"></path>
                                            <path d="M5.19637338,3.25671981 L5.3703128,3.84954965 L5.92017144,3.85430443 C5.99138512,3.85501259 6.02084978,3.9582014 5.96361179,4.00625501 L5.5212858,4.3775324 L5.68721368,4.97329604 C5.70875582,5.05038415 5.63139996,5.11432075 5.57344982,5.06717762 L5.12613888,4.70379114 L4.67882794,5.06717762 C4.62087781,5.11421958 4.54369998,5.05038415 4.56506408,4.97329604 L4.73099196,4.3775324 L4.28866598,4.00625501 C4.23142798,3.95810023 4.26089264,3.85501259 4.33210633,3.85430443 L4.88196497,3.84954965 L5.05590439,3.25671981 C5.0783367,3.18003636 5.17385205,3.18003636 5.19637338,3.25671981 Z" id="Shape"></path>
                                            <path d="M5.19637338,6.35784709 L5.3703128,6.95067692 L5.92017144,6.9554317 C5.99138512,6.95613986 6.02084978,7.05932867 5.96361179,7.10738228 L5.5212858,7.47865967 L5.68721368,8.07442331 C5.70875582,8.15151142 5.63139996,8.21544802 5.57344982,8.1683049 L5.12613888,7.80491841 L4.67882794,8.1683049 C4.62087781,8.21534685 4.54369998,8.15151142 4.56506408,8.07442331 L4.73099196,7.47865967 L4.28866598,7.10738228 C4.23142798,7.05922751 4.26089264,6.95613986 4.33210633,6.9554317 L4.88196497,6.95067692 L5.05590439,6.35784709 C5.0783367,6.28116364 5.17385205,6.28116364 5.19637338,6.35784709 Z" id="Shape"></path>
                                            <path d="M5.19637338,9.45907552 L5.3703128,10.0519054 L5.92017144,10.0566601 C5.99138512,10.0573683 6.02084978,10.1605571 5.96361179,10.2086107 L5.5212858,10.5798881 L5.68721368,11.1756517 C5.70875582,11.2527399 5.63139996,11.3166765 5.57344982,11.2695333 L5.12613888,10.9061469 L4.67882794,11.2695333 C4.62087781,11.3165753 4.54369998,11.2527399 4.56506408,11.1756517 L4.73099196,10.5798881 L4.28866598,10.2086107 C4.23142798,10.1604559 4.26089264,10.0573683 4.33210633,10.0566601 L4.88196497,10.0519054 L5.05590439,9.45907552 C5.0783367,9.38229091 5.17385205,9.38229091 5.19637338,9.45907552 Z" id="Shape"></path>
                                            <path d="M5.19637338,12.5602028 L5.3703128,13.1530326 L5.92017144,13.1577874 C5.99138512,13.1584956 6.02084978,13.2616844 5.96361179,13.309738 L5.5212858,13.6810154 L5.68721368,14.276779 C5.70875582,14.3538671 5.63139996,14.4178037 5.57344982,14.3706606 L5.12613888,14.0072741 L4.67882794,14.3706606 C4.62087781,14.4177026 4.54369998,14.3538671 4.56506408,14.276779 L4.73099196,13.6810154 L4.28866598,13.309738 C4.23142798,13.2615832 4.26089264,13.1584956 4.33210633,13.1577874 L4.88196497,13.1530326 L5.05590439,12.5602028 C5.0783367,12.483317 5.17385205,12.483317 5.19637338,12.5602028 Z" id="Shape"></path>
                                            <path d="M7.31444632,1.67600886 L7.48838574,2.26883869 L8.03824438,2.27359347 C8.10945807,2.27430163 8.13892273,2.37749044 8.08168473,2.42554406 L7.63935875,2.79682145 L7.80528663,3.39258508 C7.82682877,3.46967319 7.7494729,3.53360979 7.69152277,3.48646667 L7.24421183,3.12308019 L6.79690089,3.48646667 C6.73895075,3.53350862 6.66177292,3.46967319 6.68313703,3.39258508 L6.84906491,2.79682145 L6.40673892,2.42554406 C6.34950093,2.37738928 6.37896559,2.27430163 6.45017927,2.27359347 L7.00003791,2.26883869 L7.17397733,1.67600886 C7.19632063,1.59932541 7.29192499,1.59932541 7.31444632,1.67600886 Z" id="Shape"></path>
                                            <path d="M7.31444632,4.7772373 L7.48838574,5.37006713 L8.03824438,5.37482191 C8.10945807,5.37553007 8.13892273,5.47871888 8.08168473,5.52677249 L7.63935875,5.89804988 L7.80528663,6.49381352 C7.82682877,6.57090163 7.7494729,6.63483823 7.69152277,6.5876951 L7.24421183,6.22430862 L6.79690089,6.5876951 C6.73895075,6.63473706 6.66177292,6.5710028 6.68313703,6.49381352 L6.84906491,5.89804988 L6.40673892,5.52677249 C6.34950093,5.47861772 6.37896559,5.37553007 6.45017927,5.37482191 L7.00003791,5.37006713 L7.17397733,4.7772373 C7.19632063,4.70045268 7.29192499,4.70045268 7.31444632,4.7772373 Z" id="Shape"></path>
                                            <path d="M7.31444632,7.87836457 L7.48838574,8.47119441 L8.03824438,8.47594918 C8.10945807,8.47665734 8.13892273,8.57984615 8.08168473,8.62789977 L7.63935875,8.99917716 L7.80528663,9.59494079 C7.82682877,9.6720289 7.7494729,9.7359655 7.69152277,9.68882238 L7.24421183,9.3254359 L6.79690089,9.68882238 C6.73895075,9.73586434 6.66177292,9.6720289 6.68313703,9.59494079 L6.84906491,8.99917716 L6.40673892,8.62789977 C6.34950093,8.57974499 6.37896559,8.47665734 6.45017927,8.47594918 L7.00003791,8.47119441 L7.17397733,7.87836457 C7.19632063,7.80157995 7.29192499,7.80157995 7.31444632,7.87836457 Z" id="Shape"></path>
                                            <path d="M7.31444632,10.9794918 L7.48838574,11.5723217 L8.03824438,11.5770765 C8.10945807,11.5777846 8.13892273,11.6809734 8.08168473,11.729027 L7.63935875,12.1003044 L7.80528663,12.6960681 C7.82682877,12.7731562 7.7494729,12.8370928 7.69152277,12.7899497 L7.24421183,12.4265632 L6.79690089,12.7899497 C6.73895075,12.8369916 6.66177292,12.7731562 6.68313703,12.6960681 L6.84906491,12.1003044 L6.40673892,11.729027 C6.34950093,11.6808723 6.37896559,11.5777846 6.45017927,11.5770765 L7.00003791,11.5723217 L7.17397733,10.9794918 C7.19632063,10.9028084 7.29192499,10.9028084 7.31444632,10.9794918 Z" id="Shape"></path>
                                            <path d="M9.43243025,0.155592541 L9.60636967,0.748422378 L10.1562283,0.753177156 C10.227442,0.753885315 10.2569067,0.857074126 10.1996687,0.905127739 L9.75734267,1.27640513 L9.92327055,1.87216876 C9.94481269,1.94925688 9.86745683,2.01319347 9.8095067,1.96605035 L9.36210674,1.60266387 L8.9147958,1.96605035 C8.85684566,2.01309231 8.77966783,1.94925688 8.80103194,1.87216876 L8.96695982,1.27640513 L8.52463383,0.905127739 C8.46739584,0.85697296 8.4968605,0.753885315 8.56807418,0.753177156 L9.11793283,0.748422378 L9.29187224,0.155592541 C9.31439357,0.0788079254 9.40990892,0.0788079254 9.43243025,0.155592541 Z" id="Shape"></path>
                                            <path d="M9.43243025,3.25671981 L9.60636967,3.84954965 L10.1562283,3.85430443 C10.227442,3.85501259 10.2569067,3.9582014 10.1996687,4.00625501 L9.75734267,4.3775324 L9.92327055,4.97329604 C9.94481269,5.05038415 9.86745683,5.11432075 9.8095067,5.06717762 L9.36210674,4.70379114 L8.9147958,5.06717762 C8.85684566,5.11421958 8.77966783,5.05038415 8.80103194,4.97329604 L8.96695982,4.3775324 L8.52463383,4.00625501 C8.46739584,3.95810023 8.4968605,3.85501259 8.56807418,3.85430443 L9.11793283,3.84954965 L9.29187224,3.25671981 C9.31439357,3.18003636 9.40990892,3.18003636 9.43243025,3.25671981 Z" id="Shape"></path>
                                            <path d="M9.43243025,6.35784709 L9.60636967,6.95067692 L10.1562283,6.9554317 C10.227442,6.95613986 10.2569067,7.05932867 10.1996687,7.10738228 L9.75734267,7.47865967 L9.92327055,8.07442331 C9.94481269,8.15151142 9.86745683,8.21544802 9.8095067,8.1683049 L9.36210674,7.80491841 L8.9147958,8.1683049 C8.85684566,8.21534685 8.77966783,8.15151142 8.80103194,8.07442331 L8.96695982,7.47865967 L8.52463383,7.10738228 C8.46739584,7.05922751 8.4968605,6.95613986 8.56807418,6.9554317 L9.11793283,6.95067692 L9.29187224,6.35784709 C9.31439357,6.28116364 9.40990892,6.28116364 9.43243025,6.35784709 Z" id="Shape"></path>
                                            <path d="M9.43243025,9.45907552 L9.60636967,10.0519054 L10.1562283,10.0566601 C10.227442,10.0573683 10.2569067,10.1605571 10.1996687,10.2086107 L9.75734267,10.5798881 L9.92327055,11.1756517 C9.94481269,11.2527399 9.86745683,11.3166765 9.8095067,11.2695333 L9.36210674,10.9061469 L8.9147958,11.2695333 C8.85684566,11.3165753 8.77966783,11.2527399 8.80103194,11.1756517 L8.96695982,10.5798881 L8.52463383,10.2086107 C8.46739584,10.1604559 8.4968605,10.0573683 8.56807418,10.0566601 L9.11793283,10.0519054 L9.29187224,9.45907552 C9.31439357,9.38229091 9.40990892,9.38229091 9.43243025,9.45907552 Z" id="Shape"></path>
                                            <path d="M9.43243025,12.5602028 L9.60636967,13.1530326 L10.1562283,13.1577874 C10.227442,13.1584956 10.2569067,13.2616844 10.1996687,13.309738 L9.75734267,13.6810154 L9.92327055,14.276779 C9.94481269,14.3538671 9.86745683,14.4178037 9.8095067,14.3706606 L9.36210674,14.0072741 L8.9147958,14.3706606 C8.85684566,14.4177026 8.77966783,14.3538671 8.80103194,14.276779 L8.96695982,13.6810154 L8.52463383,13.309738 C8.46739584,13.2615832 8.4968605,13.1584956 8.56807418,13.1577874 L9.11793283,13.1530326 L9.29187224,12.5602028 C9.31439357,12.483317 9.40990892,12.483317 9.43243025,12.5602028 Z" id="Shape"></path>
                                            <path d="M11.5504142,1.67600886 L11.7243536,2.26883869 L12.2742122,2.27359347 C12.3454259,2.27430163 12.3748906,2.37749044 12.3176526,2.42554406 L11.8753266,2.79682145 L12.0412545,3.39258508 C12.0627966,3.46967319 11.9854408,3.53360979 11.9274906,3.48646667 L11.4801797,3.12308019 L11.0328687,3.48646667 C10.9749186,3.53350862 10.8977408,3.46967319 10.9191049,3.39258508 L11.0850328,2.79682145 L10.6427068,2.42554406 C10.5854688,2.37738928 10.6149334,2.27430163 10.6861471,2.27359347 L11.2360058,2.26883869 L11.4099452,1.67600886 C11.4324665,1.59932541 11.5278928,1.59932541 11.5504142,1.67600886 Z" id="Shape"></path>
                                            <path d="M11.5504142,4.7772373 L11.7243536,5.37006713 L12.2742122,5.37482191 C12.3454259,5.37553007 12.3748906,5.47871888 12.3176526,5.52677249 L11.8753266,5.89804988 L12.0412545,6.49381352 C12.0627966,6.57090163 11.9854408,6.63483823 11.9274906,6.5876951 L11.4801797,6.22430862 L11.0328687,6.5876951 C10.9749186,6.63473706 10.8977408,6.5710028 10.9191049,6.49381352 L11.0850328,5.89804988 L10.6427068,5.52677249 C10.5854688,5.47861772 10.6149334,5.37553007 10.6861471,5.37482191 L11.2360058,5.37006713 L11.4099452,4.7772373 C11.4324665,4.70045268 11.5278928,4.70045268 11.5504142,4.7772373 Z" id="Shape"></path>
                                            <path d="M11.5504142,7.87836457 L11.7243536,8.47119441 L12.2742122,8.47594918 C12.3454259,8.47665734 12.3748906,8.57984615 12.3176526,8.62789977 L11.8753266,8.99917716 L12.0412545,9.59494079 C12.0627966,9.6720289 11.9854408,9.7359655 11.9274906,9.68882238 L11.4801797,9.3254359 L11.0328687,9.68882238 C10.9749186,9.73586434 10.8977408,9.6720289 10.9191049,9.59494079 L11.0850328,8.99917716 L10.6427068,8.62789977 C10.5854688,8.57974499 10.6149334,8.47665734 10.6861471,8.47594918 L11.2360058,8.47119441 L11.4099452,7.87836457 C11.4324665,7.80157995 11.5278928,7.80157995 11.5504142,7.87836457 Z" id="Shape"></path>
                                            <path d="M11.5504142,10.9794918 L11.7243536,11.5723217 L12.2742122,11.5770765 C12.3454259,11.5777846 12.3748906,11.6809734 12.3176526,11.729027 L11.8753266,12.1003044 L12.0412545,12.6960681 C12.0627966,12.7731562 11.9854408,12.8370928 11.9274906,12.7899497 L11.4801797,12.4265632 L11.0328687,12.7899497 C10.9749186,12.8369916 10.8977408,12.7731562 10.9191049,12.6960681 L11.0850328,12.1003044 L10.6427068,11.729027 C10.5854688,11.6808723 10.6149334,11.5777846 10.6861471,11.5770765 L11.2360058,11.5723217 L11.4099452,10.9794918 C11.4324665,10.9028084 11.5278928,10.9028084 11.5504142,10.9794918 Z" id="Shape"></path>
                                            <path d="M13.6684871,0.155592541 L13.8424265,0.748422378 L14.3922852,0.753177156 C14.4634989,0.753885315 14.4929635,0.857074126 14.4357255,0.905127739 L13.9933995,1.27640513 L14.1593274,1.87216876 C14.1808696,1.94925688 14.1035137,2.01319347 14.0455636,1.96605035 L13.5982526,1.60266387 L13.1509417,1.96605035 C13.0929916,2.01309231 13.0158137,1.94925688 13.0371778,1.87216876 L13.2031057,1.27640513 L12.7607797,0.905127739 C12.7035417,0.85697296 12.7330064,0.753885315 12.8042201,0.753177156 L13.3540787,0.748422378 L13.5280181,0.155592541 C13.5503614,0.0788079254 13.6459658,0.0788079254 13.6684871,0.155592541 Z" id="Shape"></path>
                                            <path d="M13.6684871,3.25671981 L13.8424265,3.84954965 L14.3922852,3.85430443 C14.4634989,3.85501259 14.4929635,3.9582014 14.4357255,4.00625501 L13.9933995,4.3775324 L14.1593274,4.97329604 C14.1808696,5.05038415 14.1035137,5.11432075 14.0455636,5.06717762 L13.5982526,4.70379114 L13.1509417,5.06717762 C13.0929916,5.11421958 13.0158137,5.05038415 13.0371778,4.97329604 L13.2031057,4.3775324 L12.7607797,4.00625501 C12.7035417,3.95810023 12.7330064,3.85501259 12.8042201,3.85430443 L13.3540787,3.84954965 L13.5280181,3.25671981 C13.5503614,3.18003636 13.6459658,3.18003636 13.6684871,3.25671981 Z" id="Shape"></path>
                                            <path d="M13.6684871,6.35784709 L13.8424265,6.95067692 L14.3922852,6.9554317 C14.4634989,6.95613986 14.4929635,7.05932867 14.4357255,7.10738228 L13.9933995,7.47865967 L14.1593274,8.07442331 C14.1808696,8.15151142 14.1035137,8.21544802 14.0455636,8.1683049 L13.5982526,7.80491841 L13.1509417,8.1683049 C13.0929916,8.21534685 13.0158137,8.15151142 13.0371778,8.07442331 L13.2031057,7.47865967 L12.7607797,7.10738228 C12.7035417,7.05922751 12.7330064,6.95613986 12.8042201,6.9554317 L13.3540787,6.95067692 L13.5280181,6.35784709 C13.5503614,6.28116364 13.6459658,6.28116364 13.6684871,6.35784709 Z" id="Shape"></path>
                                            <path d="M13.6684871,9.45907552 L13.8424265,10.0519054 L14.3922852,10.0566601 C14.4634989,10.0573683 14.4929635,10.1605571 14.4357255,10.2086107 L13.9933995,10.5798881 L14.1593274,11.1756517 C14.1808696,11.2527399 14.1035137,11.3166765 14.0455636,11.2695333 L13.5982526,10.9061469 L13.1509417,11.2695333 C13.0929916,11.3165753 13.0158137,11.2527399 13.0371778,11.1756517 L13.2031057,10.5798881 L12.7607797,10.2086107 C12.7035417,10.1604559 12.7330064,10.0573683 12.8042201,10.0566601 L13.3540787,10.0519054 L13.5280181,9.45907552 C13.5503614,9.38229091 13.6459658,9.38229091 13.6684871,9.45907552 Z" id="Shape"></path>
                                            <path d="M13.6684871,12.5602028 L13.8424265,13.1530326 L14.3922852,13.1577874 C14.4634989,13.1584956 14.4929635,13.2616844 14.4357255,13.309738 L13.9933995,13.6810154 L14.1593274,14.276779 C14.1808696,14.3538671 14.1035137,14.4178037 14.0455636,14.3706606 L13.5982526,14.0072741 L13.1509417,14.3706606 C13.0929916,14.4177026 13.0158137,14.3538671 13.0371778,14.276779 L13.2031057,13.6810154 L12.7607797,13.309738 C12.7035417,13.2615832 12.7330064,13.1584956 12.8042201,13.1577874 L13.3540787,13.1530326 L13.5280181,12.5602028 C13.5503614,12.483317 13.6459658,12.483317 13.6684871,12.5602028 Z" id="Shape"></path>
                                            <path d="M15.786471,1.67600886 L15.9604105,2.26883869 L16.5102691,2.27359347 C16.5814828,2.27430163 16.6109475,2.37749044 16.5537095,2.42554406 L16.1113835,2.79682145 L16.2773114,3.39258508 C16.2988535,3.46967319 16.2214976,3.53360979 16.1635475,3.48646667 L15.7162366,3.12308019 L15.2689256,3.48646667 C15.2109755,3.53350862 15.1337977,3.46967319 15.1551618,3.39258508 L15.3210896,2.79682145 L14.8787637,2.42554406 C14.8215257,2.37738928 14.8509903,2.27430163 14.922204,2.27359347 L15.4720626,2.26883869 L15.6460021,1.67600886 C15.6684344,1.59932541 15.7640387,1.59932541 15.786471,1.67600886 Z" id="Shape"></path>
                                            <path d="M15.786471,4.7772373 L15.9604105,5.37006713 L16.5102691,5.37482191 C16.5814828,5.37553007 16.6109475,5.47871888 16.5537095,5.52677249 L16.1113835,5.89804988 L16.2773114,6.49381352 C16.2988535,6.57090163 16.2214976,6.63483823 16.1635475,6.5876951 L15.7162366,6.22430862 L15.2689256,6.5876951 C15.2109755,6.63473706 15.1337977,6.5710028 15.1551618,6.49381352 L15.3210896,5.89804988 L14.8787637,5.52677249 C14.8215257,5.47861772 14.8509903,5.37553007 14.922204,5.37482191 L15.4720626,5.37006713 L15.6460021,4.7772373 C15.6684344,4.70045268 15.7640387,4.70045268 15.786471,4.7772373 Z" id="Shape"></path>
                                            <path d="M15.786471,7.87836457 L15.9604105,8.47119441 L16.5102691,8.47594918 C16.5814828,8.47665734 16.6109475,8.57984615 16.5537095,8.62789977 L16.1113835,8.99917716 L16.2773114,9.59494079 C16.2988535,9.6720289 16.2214976,9.7359655 16.1635475,9.68882238 L15.7162366,9.3254359 L15.2689256,9.68882238 C15.2109755,9.73586434 15.1337977,9.6720289 15.1551618,9.59494079 L15.3210896,8.99917716 L14.8787637,8.62789977 C14.8215257,8.57974499 14.8509903,8.47665734 14.922204,8.47594918 L15.4720626,8.47119441 L15.6460021,7.87836457 C15.6684344,7.80157995 15.7640387,7.80157995 15.786471,7.87836457 Z" id="Shape"></path>
                                            <path d="M15.786471,10.9794918 L15.9604105,11.5723217 L16.5102691,11.5770765 C16.5814828,11.5777846 16.6109475,11.6809734 16.5537095,11.729027 L16.1113835,12.1003044 L16.2773114,12.6960681 C16.2988535,12.7731562 16.2214976,12.8370928 16.1635475,12.7899497 L15.7162366,12.4265632 L15.2689256,12.7899497 C15.2109755,12.8369916 15.1337977,12.7731562 15.1551618,12.6960681 L15.3210896,12.1003044 L14.8787637,11.729027 C14.8215257,11.6808723 14.8509903,11.5777846 14.922204,11.5770765 L15.4720626,11.5723217 L15.6460021,10.9794918 C15.6684344,10.9028084 15.7640387,10.9028084 15.786471,10.9794918 Z" id="Shape"></path>
                                            <path d="M17.904544,0.155592541 L18.0784834,0.748422378 L18.6283421,0.753177156 C18.6995557,0.753885315 18.7290204,0.857074126 18.6717824,0.905127739 L18.2294564,1.27640513 L18.3953843,1.87216876 C18.4169264,1.94925688 18.3395706,2.01319347 18.2816204,1.96605035 L17.8343095,1.60266387 L17.3869986,1.96605035 C17.3290484,2.01309231 17.2518706,1.94925688 17.2732347,1.87216876 L17.4391626,1.27640513 L16.9968366,0.905127739 C16.9395986,0.85697296 16.9690633,0.753885315 17.0402769,0.753177156 L17.5901356,0.748422378 L17.764075,0.155592541 C17.7865073,0.0788079254 17.8819336,0.0788079254 17.904544,0.155592541 Z" id="Shape"></path>
                                            <path d="M17.904544,3.25671981 L18.0784834,3.84954965 L18.6283421,3.85430443 C18.6995557,3.85501259 18.7290204,3.9582014 18.6717824,4.00625501 L18.2294564,4.3775324 L18.3953843,4.97329604 C18.4169264,5.05038415 18.3395706,5.11432075 18.2816204,5.06717762 L17.8343095,4.70379114 L17.3869986,5.06717762 C17.3290484,5.11421958 17.2518706,5.05038415 17.2732347,4.97329604 L17.4391626,4.3775324 L16.9968366,4.00625501 C16.9395986,3.95810023 16.9690633,3.85501259 17.0402769,3.85430443 L17.5901356,3.84954965 L17.764075,3.25671981 C17.7865073,3.18003636 17.8819336,3.18003636 17.904544,3.25671981 Z" id="Shape"></path>
                                            <path d="M17.904544,6.35784709 L18.0784834,6.95067692 L18.6283421,6.9554317 C18.6995557,6.95613986 18.7290204,7.05932867 18.6717824,7.10738228 L18.2294564,7.47865967 L18.3953843,8.07442331 C18.4169264,8.15151142 18.3395706,8.21544802 18.2816204,8.1683049 L17.8343095,7.80491841 L17.3869986,8.1683049 C17.3290484,8.21534685 17.2518706,8.15151142 17.2732347,8.07442331 L17.4391626,7.47865967 L16.9968366,7.10738228 C16.9395986,7.05922751 16.9690633,6.95613986 17.0402769,6.9554317 L17.5901356,6.95067692 L17.764075,6.35784709 C17.7865073,6.28116364 17.8819336,6.28116364 17.904544,6.35784709 Z" id="Shape"></path>
                                            <path d="M17.904544,9.45907552 L18.0784834,10.0519054 L18.6283421,10.0566601 C18.6995557,10.0573683 18.7290204,10.1605571 18.6717824,10.2086107 L18.2294564,10.5798881 L18.3953843,11.1756517 C18.4169264,11.2527399 18.3395706,11.3166765 18.2816204,11.2695333 L17.8343095,10.9061469 L17.3869986,11.2695333 C17.3290484,11.3165753 17.2518706,11.2527399 17.2732347,11.1756517 L17.4391626,10.5798881 L16.9968366,10.2086107 C16.9395986,10.1604559 16.9690633,10.0573683 17.0402769,10.0566601 L17.5901356,10.0519054 L17.764075,9.45907552 C17.7865073,9.38229091 17.8819336,9.38229091 17.904544,9.45907552 Z" id="Shape"></path>
                                            <path d="M17.904544,12.5602028 L18.0784834,13.1530326 L18.6283421,13.1577874 C18.6995557,13.1584956 18.7290204,13.2616844 18.6717824,13.309738 L18.2294564,13.6810154 L18.3953843,14.276779 C18.4169264,14.3538671 18.3395706,14.4178037 18.2816204,14.3706606 L17.8343095,14.0072741 L17.3869986,14.3706606 C17.3290484,14.4177026 17.2518706,14.3538671 17.2732347,14.276779 L17.4391626,13.6810154 L16.9968366,13.309738 C16.9395986,13.2615832 16.9690633,13.1584956 17.0402769,13.1577874 L17.5901356,13.1530326 L17.764075,12.5602028 C17.7865073,12.483317 17.8819336,12.483317 17.904544,12.5602028 Z" id="Shape"></path>
                                        </g>
                                    </g>
                                </g>
                            </g>
                        </g>
                    </g>
                </g>
            </g>
        </g>
    </g>
</svg>