<?xml version="1.0" encoding="UTF-8"?>
<svg width="30px" height="30px" viewBox="0 0 30 30" version="1.1" xmlns="http://www.w3.org/2000/svg" xmlns:xlink="http://www.w3.org/1999/xlink">
    <!-- Generator: Sketch 51.3 (57544) - http://www.bohemiancoding.com/sketch -->
    <title>FLAG</title>
    <desc>Created with Sketch.</desc>
    <defs>
        <circle id="path-1" cx="15" cy="15" r="15"></circle>
    </defs>
    <g id="CUSTOMER-ADMIN" stroke="none" stroke-width="1" fill="none" fill-rule="evenodd">
        <g id="PACKAGES" transform="translate(-323.000000, -1130.000000)">
            <g id="CHINA" transform="translate(304.000000, 1118.000000)">
                <g id="CUSTOMER-FLAG-CIRCLE" transform="translate(19.000000, 12.000000)">
                    <g id="FLAG">
                        <mask id="mask-2" fill="white">
                            <use xlink:href="#path-1"></use>
                        </mask>
                        <use id="Oval" fill="#FFFFFF" xlink:href="#path-1"></use>
                        <g id="CUSTOMER-FLAG" mask="url(#mask-2)" opacity="0.8">
                            <g transform="translate(-8.750000, 0.000000)" id="CUSTOMER-TAIWAN">
                                <g>
                                    <g id="taiwan">
                                        <path d="M47.0804211,30.974628 L0.826011696,30.974628 C0.369871345,30.974628 0,30.6099167 0,30.1601399 L0,0.839952381 C0,0.390175595 0.369871345,0.0254642857 0.826011696,0.0254642857 L47.0805146,0.0254642857 C47.536655,0.0254642857 47.9065263,0.390175595 47.9065263,0.839952381 L47.9065263,30.1601399 C47.9064327,30.6100089 47.5365614,30.974628 47.0804211,30.974628 Z" id="Shape" fill="#FF4B55" fill-rule="nonzero"></path>
                                        <path d="M0.826011696,0.0255565476 L23.1272982,0.0255565476 C23.5834386,0.0255565476 23.9533099,0.390267857 23.9533099,0.840044643 L23.9533099,14.6856964 C23.9533099,15.1354732 23.5834386,15.5001845 23.1272982,15.5001845 L0.826011696,15.5001845 C0.369871345,15.5000923 0,15.135381 0,14.6856042 L0,0.839952381 C0,0.390175595 0.369871345,0.0255565476 0.826011696,0.0255565476 Z" id="Shape" fill="#41479B" fill-rule="nonzero"></path>
                                        <g id="Group" transform="translate(6.456140, 2.306548)" fill="#F5F5F5" fill-rule="nonzero">
                                            <path d="M2.56402339,5.45627679 C2.56402339,4.65156845 2.89469006,3.92306845 3.42933333,3.39560714 L0.952233918,2.69690774 C0.808421053,2.65640476 0.705403509,2.83244048 0.812818713,2.93494345 L2.66647953,4.70222024 L0.165052632,5.31889881 C0.0200233918,5.35460417 0.0200233918,5.5579494 0.165052632,5.59374702 L2.66647953,6.2104256 L0.812818713,7.97770238 C0.705309942,8.08020536 0.808421053,8.25624107 0.952233918,8.2157381 L3.42933333,7.51703869 C2.89469006,6.98948512 2.56402339,6.26098512 2.56402339,5.45627679 Z" id="Shape"></path>
                                            <path d="M3.43064327,3.39431548 C3.96556725,2.86713095 4.70437427,2.54107738 5.52046784,2.54107738 C6.3365614,2.54107738 7.07536842,2.86713095 7.6102924,3.39431548 L8.31887719,0.95177381 C8.35995322,0.809967262 8.1814269,0.708386905 8.07747368,0.814303571 L6.28519298,2.6420119 L5.65978947,0.175482143 C5.62357895,0.0324761905 5.41735673,0.0324761905 5.38105263,0.175482143 L4.75564912,2.6420119 L2.96336842,0.814303571 C2.8594152,0.708294643 2.68088889,0.809967262 2.72196491,0.95177381 L3.43064327,3.39431548 Z" id="Shape"></path>
                                            <path d="M7.6102924,7.5182381 C7.07536842,8.04542262 6.3365614,8.37147619 5.52046784,8.37147619 C4.70437427,8.37147619 3.96556725,8.04542262 3.43064327,7.5182381 L2.72205848,9.96077976 C2.68098246,10.1025863 2.85950877,10.2041667 2.96346199,10.09825 L4.75574269,8.27054167 L5.3811462,10.7370714 C5.41735673,10.8800774 5.62357895,10.8800774 5.65988304,10.7370714 L6.28528655,8.27054167 L8.07756725,10.09825 C8.18152047,10.2042589 8.36004678,10.1025863 8.31897076,9.96077976 L7.6102924,7.5182381 Z" id="Shape"></path>
                                            <path d="M10.875883,5.31880655 L8.37445614,4.70212798 L10.2280234,2.93485119 C10.3355322,2.83234821 10.2324211,2.6563125 10.0886082,2.69681548 L7.61150877,3.39551488 C8.14615205,3.92297619 8.47681871,4.65147619 8.47681871,5.45618452 C8.47681871,6.26089286 8.14615205,6.98939286 7.61150877,7.51685417 L10.0886082,8.21555357 C10.2324211,8.25605655 10.3354386,8.08002083 10.2280234,7.97751786 L8.37445614,6.21024107 L10.875883,5.5935625 C11.0210058,5.5579494 11.0210058,5.35469643 10.875883,5.31880655 Z" id="Shape"></path>
                                            <ellipse id="Oval" cx="5.52046784" cy="5.45646131" rx="2.35415205" ry="2.32130952"></ellipse>
                                        </g>
                                    </g>
                                </g>
                            </g>
                        </g>
                    </g>
                </g>
            </g>
        </g>
    </g>
</svg>