<?xml version="1.0" encoding="UTF-8"?>
<svg width="30px" height="30px" viewBox="0 0 30 30" version="1.1" xmlns="http://www.w3.org/2000/svg" xmlns:xlink="http://www.w3.org/1999/xlink">
    <!-- Generator: Sketch 51.3 (57544) - http://www.bohemiancoding.com/sketch -->
    <title>FLAG</title>
    <desc>Created with Sketch.</desc>
    <defs>
        <circle id="path-1" cx="15" cy="15" r="15"></circle>
    </defs>
    <g id="CUSTOMER-ADMIN" stroke="none" stroke-width="1" fill="none" fill-rule="evenodd">
        <g id="PACKAGES" transform="translate(-323.000000, -1130.000000)">
            <g id="CHINA" transform="translate(304.000000, 1118.000000)">
                <g id="CUSTOMER-FLAG-CIRCLE" transform="translate(19.000000, 12.000000)">
                    <g id="FLAG">
                        <mask id="mask-2" fill="white">
                            <use xlink:href="#path-1"></use>
                        </mask>
                        <use id="Oval" fill="#FFFFFF" xlink:href="#path-1"></use>
                        <g id="CUSTOMER-FLAG" mask="url(#mask-2)" opacity="0.8">
                            <g transform="translate(-8.750000, 0.000000)" id="CUSTOMER-CANADA">
                                <g>
                                    <g id="canada">
                                        <g id="Group" fill="#F5F5F5" fill-rule="nonzero">
                                            <path d="M47.0804211,30.9743512 L0.826011696,30.9743512 C0.369871345,30.9743512 0,30.6096399 0,30.1598631 L0,0.839675595 C0,0.38989881 0.369871345,0.0251875 0.826011696,0.0251875 L47.0805146,0.0251875 C47.536655,0.0251875 47.9065263,0.38989881 47.9065263,0.839675595 L47.9065263,30.1598631 C47.9064327,30.6097321 47.5365614,30.9743512 47.0804211,30.9743512 Z" id="Shape"></path>
                                            <rect id="Rectangle-path" x="10.7377778" y="0.0256488095" width="26.4308772" height="30.949256"></rect>
                                        </g>
                                        <g id="Group" fill="#FF4B55" fill-rule="nonzero">
                                            <path d="M0.826011696,0.0252797619 C0.369871345,0.0252797619 0,0.38989881 0,0.839675595 L0,30.1598631 C0,30.6096399 0.369871345,30.9743512 0.826011696,30.9743512 L10.7376842,30.9743512 L10.7376842,0.0252797619 L0.826011696,0.0252797619 Z" id="Shape"></path>
                                            <path d="M47.0804211,0.0252797619 L37.1687485,0.0252797619 L37.1687485,30.9743512 L47.0804211,30.9743512 C47.5365614,30.9743512 47.9064327,30.6096399 47.9064327,30.1598631 L47.9064327,0.839675595 C47.9064327,0.38989881 47.5365614,0.0252797619 47.0804211,0.0252797619 Z" id="Shape"></path>
                                            <path d="M28.9655205,19.0758869 L33.8668538,16.3143036 L32.7421754,15.7598095 C32.4267602,15.604256 32.2461754,15.2684226 32.2928655,14.9236399 L32.658807,12.2183363 L30.5837661,12.8136101 C30.1253801,12.9451756 29.6496842,12.6670982 29.5465731,12.2075417 L29.3478363,11.3218274 L27.3994854,13.57025 C27.1293567,13.8819107 26.6148304,13.643875 26.6852865,13.2397679 L27.5173801,8.46908929 L26.243462,8.81267262 C25.871345,8.91305357 25.4783626,8.74605952 25.2969357,8.41041071 L23.955462,5.93124107 L23.955462,5.9275506 L23.9545263,5.92939583 L23.9534971,5.9275506 L23.9534971,5.93124107 L22.6120234,8.41041071 C22.4304094,8.74596726 22.0374269,8.91296131 21.6653099,8.81267262 L20.3912982,8.46908929 L21.2233918,13.2397679 C21.293848,13.6436905 20.7792281,13.8818185 20.5090994,13.57025 L18.5607485,11.3218274 L18.3620117,12.2075417 C18.2589006,12.6671905 17.7832047,12.9450833 17.3248187,12.8136101 L15.2497778,12.2183363 L15.6157193,14.9236399 C15.6624094,15.2683304 15.4818246,15.604256 15.1664094,15.7598095 L14.041731,16.3143036 L18.9430643,19.0759792 C19.4507602,19.3620833 19.6732632,19.9687976 19.4684444,20.5088065 L19.0494503,21.6138274 L23.2492164,21.2602798 C23.4816374,21.2407202 23.6794386,21.425244 23.6726082,21.6550685 L23.5403041,26.0876994 L24.3663158,26.0876994 L24.2339181,21.6548839 C24.2270877,21.4249673 24.4248889,21.2405357 24.6573099,21.2600952 L28.8590409,21.6138274 L28.4400468,20.5088065 C28.2354152,19.9687054 28.4578246,19.3618988 28.9655205,19.0758869 Z" id="Shape"></path>
                                        </g>
                                    </g>
                                </g>
                            </g>
                        </g>
                    </g>
                </g>
            </g>
        </g>
    </g>
</svg>