<?xml version="1.0" encoding="UTF-8"?>
<svg width="30px" height="30px" viewBox="0 0 30 30" version="1.1" xmlns="http://www.w3.org/2000/svg" xmlns:xlink="http://www.w3.org/1999/xlink">
    <!-- Generator: Sketch 51.3 (57544) - http://www.bohemiancoding.com/sketch -->
    <title>FLAG</title>
    <desc>Created with Sketch.</desc>
    <defs>
        <circle id="path-1" cx="15" cy="15" r="15"></circle>
    </defs>
    <g id="CUSTOMER-ADMIN" stroke="none" stroke-width="1" fill="none" fill-rule="evenodd">
        <g id="PACKAGES" transform="translate(-323.000000, -1130.000000)">
            <g id="CHINA" transform="translate(304.000000, 1118.000000)">
                <g id="CUSTOMER-FLAG-CIRCLE" transform="translate(19.000000, 12.000000)">
                    <g id="FLAG">
                        <mask id="mask-2" fill="white">
                            <use xlink:href="#path-1"></use>
                        </mask>
                        <use id="Oval" fill="#FFFFFF" xlink:href="#path-1"></use>
                        <g id="CUSTOMER-FLAG" mask="url(#mask-2)" opacity="0.8">
                            <g transform="translate(-8.750000, 0.000000)" id="CUSTOMER-UNITED-KINGDOM">
                                <g>
                                    <g id="united-kingdom">
                                        <path d="M47.0804211,30.974628 L0.826011696,30.974628 C0.369871345,30.974628 0,30.6099167 0,30.1601399 L0,0.839952381 C0,0.390175595 0.369871345,0.0254642857 0.826011696,0.0254642857 L47.0805146,0.0254642857 C47.536655,0.0254642857 47.9065263,0.390175595 47.9065263,0.839952381 L47.9065263,30.1601399 C47.9064327,30.6099167 47.5365614,30.974628 47.0804211,30.974628 Z" id="Shape" fill="#41479B" fill-rule="nonzero"></path>
                                        <path d="M47.9064327,0.839952381 C47.9064327,0.390175595 47.5365614,0.0254642857 47.0804211,0.0254642857 L43.3849825,0.0254642857 L28.0829942,9.9110506 L28.0829942,0.0254642857 L19.8232515,0.0254642857 L19.8232515,9.9110506 L4.52135673,0.0254642857 L0.826011696,0.0254642857 C0.369871345,0.0254642857 0,0.390175595 0,0.839952381 L0,2.94638393 L13.1283275,11.427744 L0,11.427744 L0,19.572256 L13.1283275,19.572256 L0,28.0537083 L0,30.1601399 C0,30.6099167 0.369871345,30.974628 0.826011696,30.974628 L4.52145029,30.974628 L19.8234386,21.0890417 L19.8234386,30.974628 L28.0831813,30.974628 L28.0831813,21.0890417 L43.3851696,30.974628 L47.0806082,30.974628 C47.5367485,30.974628 47.9066199,30.6099167 47.9066199,30.1601399 L47.9066199,28.0537083 L34.7782924,19.5723482 L47.9064327,19.5723482 L47.9064327,11.4278363 L34.7781053,11.4278363 L47.9064327,2.94638393 L47.9064327,0.839952381 Z" id="Shape" fill="#F5F5F5" fill-rule="nonzero"></path>
                                        <g id="Group" fill="#FF4B55" fill-rule="nonzero">
                                            <polygon id="Shape" points="47.9064327 13.0567202 26.4311579 13.0567202 26.4311579 0.0254642857 21.4752749 0.0254642857 21.4752749 13.0567202 0 13.0567202 0 17.943372 21.4752749 17.943372 21.4752749 30.974628 26.4311579 30.974628 26.4311579 17.943372 47.9064327 17.943372"></polygon>
                                            <path d="M16.7436725,19.572256 L0.0233918129,30.2743601 C0.081871345,30.6676726 0.410760234,30.974628 0.825918129,30.974628 L1.96360234,30.974628 L19.7778713,19.572256 L16.7436725,19.5723482 L16.7436725,19.572256 Z" id="Shape"></path>
                                            <path d="M32.4105731,19.572256 L29.3763743,19.572256 L47.1647251,30.957744 C47.5793216,30.9141964 47.9065263,30.5803929 47.9065263,30.1600476 L47.9065263,29.4904107 L32.4105731,19.572256 Z" id="Shape"></path>
                                            <path d="M0,1.73904464 L15.1372164,11.4278363 L18.1714152,11.4278363 L0.481216374,0.104901786 C0.198643275,0.234345238 0,0.512514881 0,0.839952381 L0,1.73904464 Z" id="Shape"></path>
                                            <path d="M31.1172865,11.4278363 L47.8777076,0.69989881 C47.8080936,0.319595238 47.4862222,0.0255565476 47.0804211,0.0255565476 L45.897076,0.0255565476 L28.0830877,11.4278363 L31.1172865,11.4278363 Z" id="Shape"></path>
                                        </g>
                                    </g>
                                </g>
                            </g>
                        </g>
                    </g>
                </g>
            </g>
        </g>
    </g>
</svg>