<?xml version="1.0" encoding="UTF-8"?>
<svg width="30px" height="30px" viewBox="0 0 30 30" version="1.1" xmlns="http://www.w3.org/2000/svg" xmlns:xlink="http://www.w3.org/1999/xlink">
    <!-- Generator: Sketch 51.3 (57544) - http://www.bohemiancoding.com/sketch -->
    <title>FLAG</title>
    <desc>Created with Sketch.</desc>
    <defs>
        <circle id="path-1" cx="15" cy="15" r="15"></circle>
    </defs>
    <g id="CUSTOMER-ADMIN" stroke="none" stroke-width="1" fill="none" fill-rule="evenodd">
        <g id="PACKAGES" transform="translate(-323.000000, -1130.000000)">
            <g id="CHINA" transform="translate(304.000000, 1118.000000)">
                <g id="CUSTOMER-FLAG-CIRCLE" transform="translate(19.000000, 12.000000)">
                    <g id="FLAG">
                        <mask id="mask-2" fill="white">
                            <use xlink:href="#path-1"></use>
                        </mask>
                        <use id="Oval" fill="#FFFFFF" xlink:href="#path-1"></use>
                        <g id="CUSTOMER-FLAG" mask="url(#mask-2)" opacity="0.8">
                            <g transform="translate(-8.750000, 0.000000)" id="CUSTOMER-CHINA">
                                <g>
                                    <g id="china">
                                        <g id="Group-5" fill-rule="nonzero">
                                            <path d="M47.0804211,30.974628 L0.826011696,30.974628 C0.369871345,30.974628 0,30.6099167 0,30.1601399 L0,0.839952381 C0,0.390175595 0.369871345,0.0254642857 0.826011696,0.0254642857 L47.0805146,0.0254642857 C47.536655,0.0254642857 47.9065263,0.390175595 47.9065263,0.839952381 L47.9065263,30.1601399 C47.9064327,30.6100089 47.5365614,30.974628 47.0804211,30.974628 Z" id="Shape" fill="#FF4B55"></path>
                                            <g id="Group" transform="translate(3.649123, 2.306548)" fill="#FFE15A">
                                                <path d="M4.30474854,2.5586994 L5.09221053,4.88683631 L7.58109942,4.90584226 C7.90334503,4.90824107 8.03695906,5.3138244 7.77768421,5.5025 L5.77553216,6.96033036 L6.52622222,9.30027679 C6.62334503,9.60326488 6.27359064,9.85375595 6.0114152,9.66904762 L3.98661988,8.24184821 L1.96182456,9.66895536 C1.69964912,9.85375595 1.34989474,9.60308036 1.44701754,9.30018452 L2.1977076,6.9602381 L0.195555556,5.5025 C-0.0637192982,5.31373214 0.0698947368,4.90824107 0.392140351,4.90584226 L2.88102924,4.88683631 L3.66849123,2.5586994 C3.77047953,2.2571875 4.2028538,2.2571875 4.30474854,2.5586994 Z" id="Shape"></path>
                                                <path d="M13.3425965,3.13238393 L13.9072749,3.8916994 L14.8185263,3.61066964 C14.9365146,3.57431845 15.0335439,3.70699107 14.9613099,3.80580357 L14.403462,4.5698244 L14.9560702,5.33753571 C15.0276491,5.43690179 14.9296842,5.56892857 14.8119766,5.53174702 L13.9025965,5.24472024 L13.3328655,6.00025298 C13.2591345,6.0980506 13.1014737,6.0469375 13.1010058,5.92515179 L13.0967953,4.98361905 L12.192,4.68275298 C12.0749474,4.64372619 12.0754152,4.4802381 12.1928421,4.44204167 L13.0995088,4.14717262 L13.1101754,3.20573214 C13.1114854,3.08403869 13.2695205,3.034125 13.3425965,3.13238393 Z" id="Shape"></path>
                                                <path d="M9.90474854,0.869199405 L10.8539883,0.970872024 L11.2589474,0.118279762 C11.3114386,0.00793452381 11.476117,0.0268482143 11.5013801,0.146142857 L11.6965614,1.06765476 L12.6440234,1.18390476 C12.7666901,1.19894345 12.799345,1.35929464 12.6920234,1.41991071 L11.8634854,1.88767857 L12.0441637,2.81214286 C12.0675556,2.93189881 11.9229942,3.01198214 11.8313918,2.93014583 L11.124117,2.29769048 L10.2883743,2.75272619 C10.1802105,2.81168155 10.0581053,2.70078274 10.1088187,2.58960714 L10.5002105,1.73083333 L9.80294737,1.08758333 C9.71274854,1.00473214 9.78189474,0.856098214 9.90474854,0.869199405 Z" id="Shape"></path>
                                                <path d="M11.4053801,9.99325595 L10.8407018,10.7525714 L9.92945029,10.4715417 C9.81146199,10.4351905 9.71443275,10.5678631 9.78666667,10.6666756 L10.3445146,11.4306964 L9.79190643,12.1984077 C9.72032749,12.2977738 9.8182924,12.4298006 9.936,12.392619 L10.8453801,12.1055923 L11.4151111,12.861125 C11.4888421,12.9589226 11.6465029,12.9078095 11.6469708,12.7860238 L11.6511813,11.8444911 L12.5559766,11.543625 C12.6731228,11.5045982 12.6725614,11.3411101 12.5551345,11.3029137 L11.6484678,11.0080446 L11.6378012,10.0666042 C11.6363041,9.94500298 11.4784561,9.89490476 11.4053801,9.99325595 Z" id="Shape"></path>
                                                <path d="M14.8430409,7.86652679 L13.8938012,7.9681994 L13.4888421,7.11560714 C13.4363509,7.0052619 13.2716725,7.0241756 13.2464094,7.14347024 L13.0511345,8.06498214 L12.1036725,8.18123214 C11.9810058,8.19627083 11.9483509,8.35662202 12.0556725,8.4172381 L12.8842105,8.88500595 L12.7035322,9.80947024 C12.6801404,9.92922619 12.8247018,10.0093095 12.9163041,9.92747321 L13.6235789,9.29501786 L14.4593216,9.75005357 C14.5674854,9.80900893 14.6895906,9.69811012 14.6388772,9.58693452 L14.2474854,8.72816071 L14.9447485,8.08491071 C15.0352281,8.00205952 14.9660819,7.8534256 14.8430409,7.86652679 Z" id="Shape"></path>
                                            </g>
                                        </g>
                                    </g>
                                </g>
                            </g>
                        </g>
                    </g>
                </g>
            </g>
        </g>
    </g>
</svg>