<?xml version="1.0" encoding="UTF-8"?>
<svg width="30px" height="30px" viewBox="0 0 30 30" version="1.1" xmlns="http://www.w3.org/2000/svg" xmlns:xlink="http://www.w3.org/1999/xlink">
    <!-- Generator: Sketch 51.3 (57544) - http://www.bohemiancoding.com/sketch -->
    <title>FLAG</title>
    <desc>Created with Sketch.</desc>
    <defs>
        <circle id="path-1" cx="15" cy="15" r="15"></circle>
    </defs>
    <g id="CUSTOMER-ADMIN" stroke="none" stroke-width="1" fill="none" fill-rule="evenodd">
        <g id="PACKAGES" transform="translate(-323.000000, -1130.000000)">
            <g id="CHINA" transform="translate(304.000000, 1118.000000)">
                <g id="CUSTOMER-FLAG-CIRCLE" transform="translate(19.000000, 12.000000)">
                    <g id="FLAG">
                        <mask id="mask-2" fill="white">
                            <use xlink:href="#path-1"></use>
                        </mask>
                        <use id="Oval" fill="#FFFFFF" xlink:href="#path-1"></use>
                        <g id="CUSTOMER-FLAG" mask="url(#mask-2)" opacity="0.8">
                            <g transform="translate(-8.750000, 0.000000)" id="CUSTOMER-HONGKONG">
                                <g>
                                    <g id="hong-kong">
                                        <path d="M47.0804211,30.974628 L0.826011696,30.974628 C0.369871345,30.974628 0,30.6099167 0,30.1601399 L0,0.839952381 C0,0.390175595 0.369871345,0.0254642857 0.826011696,0.0254642857 L47.0805146,0.0254642857 C47.536655,0.0254642857 47.9065263,0.390175595 47.9065263,0.839952381 L47.9065263,30.1601399 C47.9064327,30.6100089 47.5365614,30.974628 47.0804211,30.974628 Z" id="Shape" fill="#FF4B55" fill-rule="nonzero"></path>
                                        <g id="Group" transform="translate(14.035088, 5.720238)" fill="#F5F5F5" fill-rule="nonzero">
                                            <path d="M6.96860819,10.9720625 C5.92739181,10.9826726 4.75817544,10.6538512 3.7337076,9.54034226 C3.66306433,9.46358036 3.67298246,9.342625 3.75326316,9.2755506 L3.75354386,9.27527381 C3.83139181,9.21022917 3.94647953,9.22028571 4.01525146,9.29474107 C5.57688889,10.985625 7.51242105,10.6895565 8.66881871,10.2810208 C8.24159064,10.29975 7.70479532,10.2681042 7.35953216,10.044369 C5.91719298,9.10947917 6.57047953,8.11489583 5.61253801,6.91263095 C4.66067836,5.71802381 3.80416374,5.74727083 2.45548538,5.9488631 C1.1202807,6.14833333 0.694923977,5.18262798 0.562526316,4.64667857 C0.538853801,4.55063393 0.402994152,4.5446369 0.368187135,4.6371756 C-1.296,9.07072917 3.70797661,14.556622 8.84547368,10.6121488 C8.33852632,10.7962113 7.68561404,10.9648661 6.96860819,10.9720625 Z M3.21964912,9.46754762 C3.19045614,9.54670833 3.07583626,9.54357143 3.05104094,9.46293452 L2.8594152,8.84025893 L2.19985965,8.81747024 C2.11443275,8.81451786 2.08205848,8.70611012 2.15214035,8.6579494 L2.69352047,8.28585714 L2.5117193,7.66022917 C2.48814035,7.57931548 2.58273684,7.51537798 2.6508538,7.56612202 L3.17707602,7.95878869 L3.72425731,7.59490774 C3.79508772,7.5477619 3.88603509,7.61668155 3.85796491,7.69630357 L3.64182456,8.3111369 L4.16187135,8.71183036 C4.2291462,8.76377381 4.19078363,8.87024405 4.10535673,8.86858333 L3.44552047,8.85585119 L3.21964912,9.46754762 Z" id="Shape"></path>
                                            <path d="M10.6544094,8.02641667 C11.4811696,7.40226488 12.6167018,6.97398512 14.1137778,7.2590744 C14.2169825,7.27872619 14.2826667,7.38132143 14.2592749,7.48244048 L14.2591813,7.48280952 C14.2364444,7.58097619 14.1381988,7.64094643 14.0378947,7.62194048 C11.7599064,7.19227679 10.3910175,8.57380655 9.71424561,9.58453571 C10.0447251,9.31688393 10.4935673,9.02478274 10.9059181,8.99977976 C12.6286784,8.89487798 12.7107368,10.0772143 14.208655,10.4727411 C15.6968421,10.8656845 16.3644444,10.3359167 17.3212632,9.37703869 C18.2683509,8.42775595 19.1961637,8.94903571 19.6279766,9.29963095 C19.7052632,9.36246131 19.8176374,9.28699107 19.789193,9.19233036 C18.4244211,4.6604256 11.0835088,3.22972024 9.37150877,9.42418452 C9.66502924,8.97736012 10.0850526,8.45626488 10.6544094,8.02641667 Z M14.5694503,7.01347321 C14.544655,6.93283631 14.6383158,6.86751488 14.7071813,6.91733631 L15.2392047,7.30225298 L15.7808655,6.9304375 C15.8509474,6.88227679 15.9428304,6.94990476 15.9161637,7.02989583 L15.7092865,7.64786607 L16.2352281,8.04090179 C16.303345,8.09183036 16.2664795,8.19894643 16.1811462,8.19848512 L15.5212164,8.19544048 L15.3047018,8.81018155 C15.2766316,8.88980357 15.1620117,8.88832738 15.136,8.80815179 L14.9350175,8.18833631 L14.2751813,8.17523512 C14.1897544,8.17348214 14.1556959,8.06562798 14.2251228,8.01645238 L14.7608889,7.6364256 L14.5694503,7.01347321 Z" id="Shape"></path>
                                            <path d="M7.89698246,8.45368155 C7.49090058,7.50818155 7.3542924,6.3169881 8.00879532,4.95907738 C8.05389474,4.86543155 8.1711345,4.82843452 8.26451462,4.87613393 L8.26488889,4.87631845 C8.35555556,4.92254167 8.38980117,5.03141071 8.3462924,5.12238095 C7.3545731,7.18978571 8.36884211,8.84219643 9.19195322,9.74110417 C9.01174269,9.35858631 8.83733333,8.85714286 8.91574269,8.45709524 C9.24369591,6.78613988 10.425076,7.00341667 11.188117,5.6722619 C11.9462924,4.3496875 11.5929825,3.57985417 10.8907602,2.42667262 C10.1955556,1.28502381 10.9395088,0.529675595 11.3918129,0.205098214 C11.4727485,0.146973214 11.426807,0.0208511905 11.3267836,0.0243571429 C6.53548538,0.193842262 3.29450292,6.84435714 8.94867836,10.028131 C8.58329825,9.63601786 8.17665497,9.10477381 7.89698246,8.45368155 Z M7.88154386,4.46261607 C7.79611696,4.46612202 7.75550877,4.36038988 7.82166082,4.30715476 L8.33272515,3.89548214 L8.10311111,3.28535417 C8.07335673,3.20637798 8.16280702,3.13552083 8.2345731,3.18109821 L8.78961404,3.53316964 L9.30704094,3.12933929 C9.37403509,3.07702679 9.46994152,3.13893452 9.44814035,3.22049405 L9.28009357,3.84972024 L9.8294269,4.2101875 C9.90053801,4.25687202 9.87050292,4.3659256 9.78526316,4.37072321 L9.12636257,4.40753571 L8.94849123,5.03417857 C8.92547368,5.11527679 8.81094737,5.1208125 8.77997661,5.04229762 L8.54081871,4.43586012 L7.88154386,4.46261607 Z" id="Shape"></path>
                                            <path d="M11.6301287,10.5990476 C12.4907602,11.1769762 13.259883,12.1055 13.4554386,13.5965446 C13.4690058,13.6994167 13.3906901,13.7930625 13.2859883,13.8029345 L13.2854269,13.8029345 C13.1838129,13.8125298 13.0952047,13.7392738 13.0819181,13.6395387 C12.7801637,11.3720179 11.0199766,10.5245 9.83419883,10.2083185 C10.1956491,10.433622 10.6178246,10.7620744 10.7715556,11.140256 C11.413614,12.7200565 10.3010994,13.1683571 10.3906433,14.6948304 C10.4796257,16.2114315 11.1996257,16.6699732 12.4232982,17.2645089 C13.6347135,17.8530476 13.4242807,18.8851815 13.2221754,19.3997262 C13.1860585,19.4918958 13.2939415,19.5732708 13.3760936,19.5168988 C17.3107836,16.8158393 16.3827836,9.49439583 9.88088889,9.83724107 C10.4040234,9.97166667 11.0375673,10.201122 11.6301287,10.5990476 Z M13.8352281,13.9459405 C13.9051228,13.8974107 13.9972865,13.9645774 13.9709942,14.0446607 L13.7674854,14.6636458 L14.2955789,15.054006 C14.363883,15.1044732 14.3277661,15.2117738 14.2423392,15.2118661 L13.5824094,15.2122351 L13.3691696,15.8280833 C13.3415673,15.9077976 13.2268538,15.9069673 13.2004678,15.8268839 L12.996117,15.2080833 L12.3362807,15.1983958 C12.2507602,15.1971964 12.2162339,15.0893423 12.2852865,15.0397976 L12.8189942,14.6569107 L12.6243743,14.0350655 C12.5992047,13.9545208 12.6923977,13.8887381 12.7615439,13.9382827 L13.2957193,14.3204315 L13.8352281,13.9459405 Z" id="Shape"></path>
                                            <path d="M9.47761404,12.4390268 C9.18119298,13.4232768 8.51817544,14.4281935 7.13721637,15.065631 C7.04196491,15.1096399 6.9277193,15.0646161 6.88636257,14.9693095 L6.88617544,14.9689405 C6.84603509,14.8764018 6.88982456,14.7709464 6.98208187,14.7280446 C9.08079532,13.7545893 9.36402339,11.8434762 9.30863158,10.6334613 C9.20093567,11.041628 9.01211696,11.537997 8.69361404,11.7975298 C7.36280702,12.8813304 6.59115789,11.9727351 5.14376608,12.5214167 C3.70563743,13.0665 3.48173099,13.8822798 3.2797193,15.2126042 C3.07985965,16.5295506 2.01852632,16.6458929 1.46011696,16.6127708 C1.36018713,16.6068661 1.31424561,16.7329881 1.39368421,16.7930506 C5.20037427,19.6670089 11.990924,16.5675625 9.68130994,10.5647262 C9.71069006,11.0963393 9.68177778,11.7611786 9.47761404,12.4390268 Z M6.91518129,15.5285089 C6.98329825,15.5794375 6.94652632,15.686369 6.86109942,15.6860923 L6.20126316,15.6832321 L5.98493567,16.2980655 C5.95695906,16.3776875 5.84224561,16.3762113 5.81623392,16.2960357 L5.61497076,15.6762202 L4.9551345,15.6633036 C4.8697076,15.6616429 4.83555556,15.5536964 4.90498246,15.5045208 L5.4405614,15.1243095 L5.24912281,14.5015417 C5.22432749,14.4209048 5.31789474,14.3555833 5.38676023,14.4054048 L5.91897076,14.7901369 L6.46053801,14.4181369 C6.53061988,14.3699762 6.62250292,14.4376042 6.59583626,14.5175952 L6.38923977,15.1355655 L6.91518129,15.5285089 Z" id="Shape"></path>
                                        </g>
                                    </g>
                                </g>
                            </g>
                        </g>
                    </g>
                </g>
            </g>
        </g>
    </g>
</svg>