<?xml version="1.0" encoding="UTF-8"?>
<svg width="27px" height="18px" viewBox="0 0 27 18" version="1.1" xmlns="http://www.w3.org/2000/svg" xmlns:xlink="http://www.w3.org/1999/xlink">
    <!-- Generator: Sketch 51.3 (57544) - http://www.bohemiancoding.com/sketch -->
    <title>users</title>
    <desc>Created with Sketch.</desc>
    <defs></defs>
    <g id="Symbols" stroke="none" stroke-width="1" fill="none" fill-rule="evenodd">
        <g id="SVG" transform="translate(-250.000000, -153.000000)" fill="#898989" fill-rule="nonzero">
            <g id="users" transform="translate(250.795455, 153.000000)">
                <path d="M21.5704918,7.61311475 C23.3230943,7.61311475 24.742623,6.19358607 24.742623,4.44098361 C24.742623,2.68838115 23.3230943,1.26885246 21.5704918,1.26885246 C19.8178893,1.26885246 18.3983607,2.68838115 18.3983607,4.44098361 C18.3983607,6.19358607 19.8178893,7.61311475 21.5704918,7.61311475 Z M21.5704918,2.53770492 C22.6212602,2.53770492 23.4737705,3.39021516 23.4737705,4.44098361 C23.4737705,5.49175205 22.6212602,6.3442623 21.5704918,6.3442623 C20.5197234,6.3442623 19.6672131,5.49175205 19.6672131,4.44098361 C19.6672131,3.39021516 20.5197234,2.53770492 21.5704918,2.53770492 Z M12.6885246,8.88196721 C15.1429611,8.88196721 17.1295082,6.89542008 17.1295082,4.44098361 C17.1295082,1.98654713 15.1429611,0 12.6885246,0 C10.2340881,0 8.24754098,1.98654713 8.24754098,4.44098361 C8.24754098,6.89542008 10.2340881,8.88196721 12.6885246,8.88196721 Z M12.6885246,1.26885246 C14.4371619,1.26885246 15.8606557,2.69234631 15.8606557,4.44098361 C15.8606557,6.1896209 14.4371619,7.61311475 12.6885246,7.61311475 C10.9398873,7.61311475 9.51639344,6.1896209 9.51639344,4.44098361 C9.51639344,2.69234631 10.9398873,1.26885246 12.6885246,1.26885246 Z M22.3635246,8.88196721 L20.777459,8.88196721 C20.1747541,8.88196721 19.615666,9.07229508 19.1477766,9.39347336 C19.520502,9.64724385 19.857541,9.94463115 20.1549283,10.2816701 C20.3492213,10.1984016 20.559375,10.1508197 20.777459,10.1508197 L22.3635246,10.1508197 C23.3230943,10.1508197 24.1081967,11.0033299 24.1081967,12.0540984 C24.1081967,12.4030328 24.3936885,12.6885246 24.742623,12.6885246 C25.0915574,12.6885246 25.3770492,12.4030328 25.3770492,12.0540984 C25.3770492,10.3054611 24.0249283,8.88196721 22.3635246,8.88196721 Z M3.80655738,7.61311475 C5.55915984,7.61311475 6.97868852,6.19358607 6.97868852,4.44098361 C6.97868852,2.68838115 5.55915984,1.26885246 3.80655738,1.26885246 C2.05395492,1.26885246 0.63442623,2.68838115 0.63442623,4.44098361 C0.63442623,6.19358607 2.05395492,7.61311475 3.80655738,7.61311475 Z M3.80655738,2.53770492 C4.85732582,2.53770492 5.70983607,3.39021516 5.70983607,4.44098361 C5.70983607,5.49175205 4.85732582,6.3442623 3.80655738,6.3442623 C2.75578893,6.3442623 1.90327869,5.49175205 1.90327869,4.44098361 C1.90327869,3.39021516 2.75578893,2.53770492 3.80655738,2.53770492 Z M15.8646209,9.675 C14.5402561,9.675 14.2111475,10.1508197 12.6885246,10.1508197 C11.1659016,10.1508197 10.836793,9.675 9.51242828,9.675 C8.07307377,9.675 6.6733709,10.3173566 5.85258197,11.5346619 C5.36090164,12.264252 5.07540984,13.1405533 5.07540984,14.0842623 L5.07540984,15.8606557 C5.07540984,16.9114242 5.92792008,17.7639344 6.97868852,17.7639344 L18.3983607,17.7639344 C19.4491291,17.7639344 20.3016393,16.9114242 20.3016393,15.8606557 L20.3016393,14.0842623 C20.3016393,13.1405533 20.0161475,12.264252 19.5244672,11.5346619 C18.7036783,10.3173566 17.3039754,9.675 15.8646209,9.675 Z M19.0327869,15.8606557 C19.0327869,16.2095902 18.7472951,16.495082 18.3983607,16.495082 L6.97868852,16.495082 C6.6297541,16.495082 6.3442623,16.2095902 6.3442623,15.8606557 L6.3442623,14.0842623 C6.3442623,13.4260451 6.53855533,12.7876537 6.90335041,12.2444262 C7.45054303,11.4315676 8.42597336,10.9438525 9.50846311,10.9438525 C10.594918,10.9438525 10.9835041,11.4196721 12.6885246,11.4196721 C14.3935451,11.4196721 14.7821311,10.9438525 15.8646209,10.9438525 C16.9471107,10.9438525 17.922541,11.4315676 18.4697336,12.2444262 C18.8345287,12.7876537 19.0288217,13.4260451 19.0288217,14.0842623 L19.0288217,15.8606557 L19.0327869,15.8606557 Z M6.22927254,9.39347336 C5.75741803,9.07229508 5.19832992,8.88196721 4.59959016,8.88196721 L3.01352459,8.88196721 C1.3521209,8.88196721 0,10.3054611 0,12.0540984 C0,12.4030328 0.285491803,12.6885246 0.63442623,12.6885246 C0.983360656,12.6885246 1.26885246,12.4030328 1.26885246,12.0540984 C1.26885246,11.0033299 2.05395492,10.1508197 3.01352459,10.1508197 L4.59959016,10.1508197 C4.81767418,10.1508197 5.02782787,10.1984016 5.2221209,10.2816701 C5.5195082,9.94463115 5.8605123,9.64724385 6.22927254,9.39347336 Z" id="Shape"></path>
            </g>
        </g>
    </g>
</svg>