<?xml version="1.0" encoding="UTF-8"?>
<svg width="21px" height="18px" viewBox="0 0 21 18" version="1.1" xmlns="http://www.w3.org/2000/svg" xmlns:xlink="http://www.w3.org/1999/xlink">
    <!-- Generator: Sketch 51.3 (57544) - http://www.bohemiancoding.com/sketch -->
    <title>bullhorn</title>
    <desc>Created with Sketch.</desc>
    <defs></defs>
    <g id="Symbols" stroke="none" stroke-width="1" fill="none" fill-rule="evenodd">
        <g id="SVG" transform="translate(-288.000000, -153.000000)" fill="#898989" fill-rule="nonzero">
            <g id="bullhorn" transform="translate(288.659091, 153.000000)">
                <path d="M19.086263,6.48652262 L19.086263,1.12272135 C19.086263,0.816078084 18.8413694,0 17.9638925,0 L17.9635417,0 C17.7137362,0 17.4656849,0.0835024007 17.2625425,0.246296997 L14.2792614,2.63313243 C12.7807792,3.83093577 10.8995192,4.49088542 8.98177083,4.49088542 L2.24544271,4.49088542 C1.00518646,4.49088542 0,5.49607188 0,6.73632812 L0,10.1044922 C0,11.3447484 1.00518646,12.3499349 2.24544271,12.3499349 L2.22860189,13.4726562 C2.22860189,14.8679884 2.55348938,16.1864843 3.12537557,17.3649908 C3.30746694,17.7400499 3.70498047,17.9635417 4.12179077,17.9635417 L7.85062907,17.9635417 C8.76459442,17.9635417 9.31332448,16.916604 8.75933167,16.1896419 C8.18393697,15.4346118 7.84185781,14.4929293 7.84185781,13.4726562 C7.84185781,13.0828614 7.89869558,12.7081532 7.99658285,12.3499349 L8.98177083,12.3499349 C10.8995192,12.3499349 12.7807792,13.0098845 14.2789105,14.2076879 L17.2621917,16.5945233 C17.4611637,16.7537462 17.7083541,16.8405969 17.9631908,16.8408203 C18.8375101,16.8408203 19.0859122,16.041583 19.0859122,15.718099 L19.0859122,10.3542977 C19.7542822,9.96520457 20.2086335,9.24946971 20.2086335,8.42041016 C20.2089844,7.59135061 19.7546331,6.87561574 19.086263,6.48652262 Z M7.85062907,16.8408203 L4.13547394,16.8397678 C3.61516276,15.7675689 3.35132324,14.657829 3.35097239,13.4894971 L3.36781321,12.3667757 L3.36816406,12.3499349 L6.85316132,12.3499349 C6.77211487,12.7253448 6.7194873,13.1018074 6.7194873,13.4726562 C6.7194873,14.7108074 7.11594828,15.8858055 7.85062907,16.8408203 Z M2.24544271,11.2272135 C1.62654256,11.2272135 1.12272135,10.7233923 1.12272135,10.1044922 L1.12272135,6.73632812 C1.12272135,6.11742798 1.62654256,5.61360677 2.24544271,5.61360677 L8.98177083,5.61360677 L8.98177083,11.2272135 L2.24544271,11.2272135 Z M17.9652959,15.680558 C17.9638925,15.6893292 17.9607349,15.7009073 17.9565247,15.7121345 L14.9802605,13.3309127 C13.5775605,12.2095947 11.8776902,11.5128058 10.1044922,11.3019447 L10.1044922,5.53887563 C11.8776902,5.32801453 13.5775605,4.63122559 14.9806114,3.50955678 L17.9582789,1.12728241 C17.9593315,1.12833496 17.960384,1.12903666 17.9610857,1.12903666 C17.9624891,1.12903666 17.9631908,1.12728241 17.9635417,1.1230722 L17.9652959,15.680558 Z" id="Shape"></path>
            </g>
        </g>
    </g>
</svg>