<?xml version="1.0" encoding="UTF-8"?>
<svg width="25px" height="18px" viewBox="0 0 25 18" version="1.1" xmlns="http://www.w3.org/2000/svg" xmlns:xlink="http://www.w3.org/1999/xlink">
    <!-- Generator: Sketch 51.3 (57544) - http://www.bohemiancoding.com/sketch -->
    <title>chart-line</title>
    <desc>Created with Sketch.</desc>
    <defs></defs>
    <g id="Symbols" stroke="none" stroke-width="1" fill="none" fill-rule="evenodd">
        <g id="SVG" transform="translate(-353.000000, -153.000000)" fill="#898989" fill-rule="nonzero">
            <g id="chart-line" transform="translate(353.636364, 153.000000)">
                <path d="M23.2875,16.2642857 L1.47857143,16.2642857 L1.47857143,0.369642857 C1.47857143,0.165415179 1.31315625,0 1.10892857,0 L0.369642857,0 C0.165415179,0 0,0.165415179 0,0.369642857 L0,17.0035714 C0,17.4120268 0.330830357,17.7428571 0.739285714,17.7428571 L23.2875,17.7428571 C23.4917277,17.7428571 23.6571429,17.577442 23.6571429,17.3732143 L23.6571429,16.6339286 C23.6571429,16.4297009 23.4917277,16.2642857 23.2875,16.2642857 Z M4.54383482,9.19625223 C4.39967411,9.34041295 4.39967411,9.57467411 4.54383482,9.71883482 L5.06641741,10.2414174 C5.21057813,10.3855781 5.44483929,10.3855781 5.589,10.2414174 L8.94766741,6.91416964 L12.8607991,10.8273013 C13.1495826,11.1160848 13.6176429,11.1160848 13.9064263,10.8273013 L18.2280134,6.50571429 L20.2628973,8.54059821 C20.4916138,8.76931473 20.7725424,8.87142857 21.0483884,8.87142857 C21.6250312,8.87142857 22.1785714,8.42323661 22.1785714,7.74679018 L22.1785714,2.22663616 C22.1785714,1.81356027 21.8435826,1.47857143 21.4305067,1.47857143 L15.9103527,1.47857143 C14.9104687,1.47857143 14.4100647,2.68730357 15.1170067,3.39424554 L17.1828482,5.46008705 L13.3838437,9.25909152 L9.47348437,5.34873214 C9.185625,5.06087277 8.71941295,5.05994866 8.43062946,5.34642187 L4.54383482,9.19625223 Z M16.7706964,2.95714286 L20.7,2.95714286 L20.7,6.88644643 L16.7706964,2.95714286 Z" id="Shape"></path>
            </g>
        </g>
    </g>
</svg>