<?xml version="1.0" encoding="UTF-8"?>
<svg width="22px" height="18px" viewBox="0 0 22 18" version="1.1" xmlns="http://www.w3.org/2000/svg" xmlns:xlink="http://www.w3.org/1999/xlink">
    <!-- Generator: Sketch 51.3 (57544) - http://www.bohemiancoding.com/sketch -->
    <title>quote-left</title>
    <desc>Created with Sketch.</desc>
    <defs></defs>
    <g id="Symbols" stroke="none" stroke-width="1" fill="none" fill-rule="evenodd">
        <g id="SVG" transform="translate(-320.000000, -153.000000)" fill="#898989" fill-rule="nonzero">
            <g id="quote-left" transform="translate(320.772727, 153.000000)">
                <path d="M18,7.71428571 L15.4285714,7.71428571 L15.4285714,6.75 C15.4285714,5.50848214 16.4370536,4.5 17.6785714,4.5 L18.3214286,4.5 C19.209375,4.5 19.9285714,3.78080357 19.9285714,2.89285714 L19.9285714,1.60714286 C19.9285714,0.719196429 19.209375,0 18.3214286,0 L17.6785714,0 C13.9580357,0 10.9285714,3.02946429 10.9285714,6.75 L10.9285714,15.4285714 C10.9285714,16.846875 12.0816964,18 13.5,18 L18,18 C19.4183036,18 20.5714286,16.846875 20.5714286,15.4285714 L20.5714286,10.2857143 C20.5714286,8.86741071 19.4183036,7.71428571 18,7.71428571 Z M19.2857143,15.4285714 C19.2857143,16.1397321 18.7111607,16.7142857 18,16.7142857 L13.5,16.7142857 C12.7888393,16.7142857 12.2142857,16.1397321 12.2142857,15.4285714 L12.2142857,6.75 C12.2142857,3.73258929 14.6611607,1.28571429 17.6785714,1.28571429 L18.3214286,1.28571429 C18.4982143,1.28571429 18.6428571,1.43035714 18.6428571,1.60714286 L18.6428571,2.89285714 C18.6428571,3.06964286 18.4982143,3.21428571 18.3214286,3.21428571 L17.6785714,3.21428571 C15.7258929,3.21428571 14.1428571,4.79732143 14.1428571,6.75 L14.1428571,9 L18,9 C18.7111607,9 19.2857143,9.57455357 19.2857143,10.2857143 L19.2857143,15.4285714 Z M7.07142857,7.71428571 L4.5,7.71428571 L4.5,6.75 C4.5,5.50848214 5.50848214,4.5 6.75,4.5 L7.39285714,4.5 C8.28080357,4.5 9,3.78080357 9,2.89285714 L9,1.60714286 C9,0.719196429 8.28080357,0 7.39285714,0 L6.75,0 C3.02946429,0 0,3.02946429 0,6.75 L0,15.4285714 C0,16.846875 1.153125,18 2.57142857,18 L7.07142857,18 C8.48973214,18 9.64285714,16.846875 9.64285714,15.4285714 L9.64285714,10.2857143 C9.64285714,8.86741071 8.48973214,7.71428571 7.07142857,7.71428571 Z M8.35714286,15.4285714 C8.35714286,16.1397321 7.78258929,16.7142857 7.07142857,16.7142857 L2.57142857,16.7142857 C1.86026786,16.7142857 1.28571429,16.1397321 1.28571429,15.4285714 L1.28571429,6.75 C1.28571429,3.73258929 3.73258929,1.28571429 6.75,1.28571429 L7.39285714,1.28571429 C7.56964286,1.28571429 7.71428571,1.43035714 7.71428571,1.60714286 L7.71428571,2.89285714 C7.71428571,3.06964286 7.56964286,3.21428571 7.39285714,3.21428571 L6.75,3.21428571 C4.79732143,3.21428571 3.21428571,4.79732143 3.21428571,6.75 L3.21428571,9 L7.07142857,9 C7.78258929,9 8.35714286,9.57455357 8.35714286,10.2857143 L8.35714286,15.4285714 Z" id="Shape"></path>
            </g>
        </g>
    </g>
</svg>