<?xml version="1.0" encoding="UTF-8"?>
<svg width="23px" height="18px" viewBox="0 0 23 18" version="1.1" xmlns="http://www.w3.org/2000/svg" xmlns:xlink="http://www.w3.org/1999/xlink">
    <!-- Generator: Sketch 51.3 (57544) - http://www.bohemiancoding.com/sketch -->
    <title>dolly</title>
    <desc>Created with Sketch.</desc>
    <defs></defs>
    <g id="Symbols" stroke="none" stroke-width="1" fill="none" fill-rule="evenodd">
        <g id="SVG" transform="translate(-415.000000, -24.000000)" fill="#898989" fill-rule="nonzero">
            <g id="dolly" transform="translate(415.666667, 24.000000)">
                <path d="M21.7848047,10.4175 L21.5935547,9.8475 C21.5410547,9.69 21.3723047,9.60375 21.2148047,9.65625 L19.9248047,10.09125 L17.1310547,1.72125 C17.0298047,1.4175 16.8160547,1.17 16.5310547,1.0275 C16.2423047,0.885 15.9198047,0.8625 15.6160547,0.96375 L6.81105473,3.9 L6.13605473,1.99875 C5.70855473,0.79875 4.57605473,0 3.30480473,0 L0.499804731,0 C0.334804731,0 0.199804731,0.135 0.199804731,0.3 L0.199804731,0.9 C0.199804731,1.065 0.334804731,1.2 0.499804731,1.2 L3.30480473,1.2 C4.06605473,1.2 4.74480473,1.68 4.99980473,2.39625 L8.62605473,12.5925 C7.75230473,13.2375 7.23105473,14.33625 7.44855473,15.55125 C7.65855473,16.725 8.58855473,17.68875 9.75480473,17.9325 C11.6935547,18.33375 13.3998047,16.8675 13.3998047,15 C13.3998047,14.50875 13.2723047,14.055 13.0623047,13.64625 L21.5935547,10.79625 C21.7510547,10.74375 21.8373047,10.575 21.7848047,10.4175 Z M7.21230473,5.02875 L11.2023047,3.6975 L12.1398047,6.50625 C12.1923047,6.66375 12.3610547,6.75 12.5185547,6.6975 L13.0885547,6.50625 C13.2460547,6.45375 13.3323047,6.285 13.2798047,6.1275 L12.3423047,3.31875 L15.9948047,2.1 L18.7885547,10.47375 L12.2485547,12.6525 C11.7348047,12.25125 11.1010547,12 10.3998047,12 C10.1635547,12 9.93855473,12.03375 9.72105473,12.08625 L7.21230473,5.02875 Z M10.3998047,16.8 C9.40605473,16.8 8.59980473,15.99375 8.59980473,15 C8.59980473,14.00625 9.40605473,13.2 10.3998047,13.2 C11.3935547,13.2 12.1998047,14.00625 12.1998047,15 C12.1998047,15.99375 11.3935547,16.8 10.3998047,16.8 Z" id="Shape"></path>
            </g>
        </g>
    </g>
</svg>