<?xml version="1.0" encoding="UTF-8"?>
<svg width="16px" height="18px" viewBox="0 0 16 18" version="1.1" xmlns="http://www.w3.org/2000/svg" xmlns:xlink="http://www.w3.org/1999/xlink">
    <!-- Generator: Sketch 51.3 (57544) - http://www.bohemiancoding.com/sketch -->
    <title>user</title>
    <desc>Created with Sketch.</desc>
    <defs></defs>
    <g id="Symbols" stroke="none" stroke-width="1" fill="none" fill-rule="evenodd">
        <g id="SVG" transform="translate(-159.000000, -153.000000)" fill="#898989" fill-rule="nonzero">
            <g id="user" transform="translate(159.204545, 153.000000)">
                <path d="M11.0181818,10.125 C10.0098214,10.125 9.52496521,10.6875 7.87012987,10.6875 C6.21529453,10.6875 5.73395176,10.125 4.72207792,10.125 C2.1150974,10.125 0,12.2414062 0,14.85 L0,16.3125 C0,17.2441406 0.755391929,18 1.6864564,18 L14.0538033,18 C14.9848678,18 15.7402597,17.2441406 15.7402597,16.3125 L15.7402597,14.85 C15.7402597,12.2414062 13.6251623,10.125 11.0181818,10.125 Z M14.6159555,16.3125 C14.6159555,16.621875 14.362987,16.875 14.0538033,16.875 L1.6864564,16.875 C1.37727273,16.875 1.12430427,16.621875 1.12430427,16.3125 L1.12430427,14.85 C1.12430427,12.8636719 2.7369782,11.25 4.72207792,11.25 C5.41071429,11.25 6.0958372,11.8125 7.87012987,11.8125 C9.64090909,11.8125 10.3295455,11.25 11.0181818,11.25 C13.0032815,11.25 14.6159555,12.8636719 14.6159555,14.85 L14.6159555,16.3125 Z M7.87012987,9 C10.3541396,9 12.3673469,6.98554687 12.3673469,4.5 C12.3673469,2.01445313 10.3541396,0 7.87012987,0 C5.38612013,0 3.3729128,2.01445312 3.3729128,4.5 C3.3729128,6.98554687 5.38612013,9 7.87012987,9 Z M7.87012987,1.125 C9.72874536,1.125 11.2430427,2.64023437 11.2430427,4.5 C11.2430427,6.35976562 9.72874536,7.875 7.87012987,7.875 C6.01151438,7.875 4.49721707,6.35976562 4.49721707,4.5 C4.49721707,2.64023437 6.01151438,1.125 7.87012987,1.125 Z" id="Shape"></path>
            </g>
        </g>
    </g>
</svg>