<?xml version="1.0" encoding="UTF-8"?>
<svg width="16px" height="18px" viewBox="0 0 16 18" version="1.1" xmlns="http://www.w3.org/2000/svg" xmlns:xlink="http://www.w3.org/1999/xlink">
    <!-- Generator: Sketch 51.3 (57544) - http://www.bohemiancoding.com/sketch -->
    <title>book</title>
    <desc>Created with Sketch.</desc>
    <defs></defs>
    <g id="Symbols" stroke="none" stroke-width="1" fill="none" fill-rule="evenodd">
        <g id="SVG" transform="translate(-187.000000, -153.000000)" fill="#898989" fill-rule="nonzero">
            <g id="book" transform="translate(187.068182, 153.000000)">
                <path d="M12.507885,5.625 L6.60528757,5.625 C6.37339981,5.625 6.18367347,5.43515625 6.18367347,5.203125 L6.18367347,4.921875 C6.18367347,4.68984375 6.37339981,4.5 6.60528757,4.5 L12.507885,4.5 C12.7397727,4.5 12.9294991,4.68984375 12.9294991,4.921875 L12.9294991,5.203125 C12.9294991,5.43515625 12.7397727,5.625 12.507885,5.625 Z M12.9294991,7.453125 L12.9294991,7.171875 C12.9294991,6.93984375 12.7397727,6.75 12.507885,6.75 L6.60528757,6.75 C6.37339981,6.75 6.18367347,6.93984375 6.18367347,7.171875 L6.18367347,7.453125 C6.18367347,7.68515625 6.37339981,7.875 6.60528757,7.875 L12.507885,7.875 C12.7397727,7.875 12.9294991,7.68515625 12.9294991,7.453125 Z M15.2027018,16.875 L15.3186456,16.875 C15.5505334,16.875 15.7402597,17.0648437 15.7402597,17.296875 L15.7402597,17.578125 C15.7402597,17.8101563 15.5505334,18 15.3186456,18 L2.81076067,18 C1.2578154,18 0,16.7414063 0,15.1875 L0,2.8125 C0,1.25859375 1.2578154,0 2.81076067,0 L14.8970315,0 C15.3643205,0 15.7402597,0.376171875 15.7402597,0.84375 L15.7402597,13.78125 C15.7402597,14.1328125 15.5224258,14.4351563 15.2167556,14.5617187 C15.0902713,15.1277344 15.0621637,16.1648437 15.2027018,16.875 Z M4.49721707,13.5 L14.6159555,13.5 L14.6159555,1.125 L4.49721707,1.125 L4.49721707,13.5 Z M1.12430427,14.0625 C1.59510668,13.7109375 2.17833952,13.5 2.81076067,13.5 L3.3729128,13.5 L3.3729128,1.125 L2.81076067,1.125 C1.8796962,1.125 1.12430427,1.88085938 1.12430427,2.8125 L1.12430427,14.0625 Z M14.2048817,16.875 C14.0959647,16.1578125 14.1029917,15.2859375 14.2048817,14.625 L2.81076067,14.625 C0.562152134,14.625 0.562152134,16.875 2.81076067,16.875 L14.2048817,16.875 Z" id="Shape"></path>
            </g>
        </g>
    </g>
</svg>