<?xml version="1.0" encoding="UTF-8"?>
<svg width="19px" height="18px" viewBox="0 0 19 18" version="1.1" xmlns="http://www.w3.org/2000/svg" xmlns:xlink="http://www.w3.org/1999/xlink">
    <!-- Generator: Sketch 51.3 (57544) - http://www.bohemiancoding.com/sketch -->
    <title>question-circle</title>
    <desc>Created with Sketch.</desc>
    <defs></defs>
    <g id="Symbols" stroke="none" stroke-width="1" fill="none" fill-rule="evenodd">
        <g id="SVG" transform="translate(-129.000000, -153.000000)" fill="#898989" fill-rule="nonzero">
            <g id="question-circle" transform="translate(129.340909, 153.000000)">
                <path d="M9,12.0483871 C8.43880645,12.0483871 7.98387097,12.5033226 7.98387097,13.0645161 C7.98387097,13.6257097 8.43880645,14.0806452 9,14.0806452 C9.56119355,14.0806452 10.016129,13.6257097 10.016129,13.0645161 C10.016129,12.5033226 9.56119355,12.0483871 9,12.0483871 Z M9.27834677,11.1774194 L8.69770161,11.1774194 C8.45720565,11.1774194 8.26221774,10.9824315 8.26221774,10.7419355 L8.26221774,10.7281089 C8.26221774,8.17533871 11.0725403,8.41935484 11.0725403,6.8302379 C11.0725403,6.10385081 10.4279879,5.37096774 8.98802419,5.37096774 C7.93037903,5.37096774 7.38163306,5.72113306 6.8392379,6.41220968 C6.69741532,6.59293548 6.43808468,6.62977016 6.24959274,6.49843548 L5.77295565,6.16637903 C5.56882258,6.02415726 5.52400403,5.73920565 5.67696774,5.54302016 C6.44726613,4.55494355 7.36120161,3.91935484 8.98802419,3.91935484 C10.8867339,3.91935484 12.5241532,4.99902823 12.5241532,6.8302379 C12.5241532,9.27671371 9.71383065,9.14733871 9.71383065,10.7281089 L9.71383065,10.7419355 C9.71383065,10.9824315 9.51884274,11.1774194 9.27834677,11.1774194 Z M9,1.16129032 C13.3047944,1.16129032 16.8387097,4.64788306 16.8387097,9 C16.8387097,13.3291089 13.3327016,16.8387097 9,16.8387097 C4.67259677,16.8387097 1.16129032,13.3344435 1.16129032,9 C1.16129032,4.67408468 4.66700806,1.16129032 9,1.16129032 Z M9,0 C4.02978629,0 0,4.0312379 0,9 C0,13.9716653 4.02978629,18 9,18 C13.9702137,18 18,13.9716653 18,9 C18,4.0312379 13.9702137,0 9,0 Z" id="Shape"></path>
            </g>
        </g>
    </g>
</svg>