<?xml version="1.0" encoding="UTF-8"?>
<svg width="21px" height="18px" viewBox="0 0 21 18" version="1.1" xmlns="http://www.w3.org/2000/svg" xmlns:xlink="http://www.w3.org/1999/xlink">
    <!-- Generator: Sketch 51.3 (57544) - http://www.bohemiancoding.com/sketch -->
    <title>home</title>
    <desc>Created with Sketch.</desc>
    <defs></defs>
    <g id="Symbols" stroke="none" stroke-width="1" fill="none" fill-rule="evenodd">
        <g id="SVG" transform="translate(-23.000000, -153.000000)" fill="#898989" fill-rule="nonzero">
            <g id="home" transform="translate(23.000000, 153.000000)">
                <path d="M20.2316863,7.78294118 L17.7839216,5.81443137 L17.7839216,2.80423529 C17.7839216,2.67352941 17.6769804,2.56658824 17.5462745,2.56658824 L16.7541176,2.56658824 C16.6234118,2.56658824 16.5164706,2.67352941 16.5164706,2.80423529 L16.5164706,4.78858824 L10.9753333,0.320823529 C10.5119216,-0.0554509804 9.8465098,-0.0554509804 9.38309804,0.320823529 L0.126745098,7.78294118 C0.0237647059,7.86611765 0.00792156863,8.01662745 0.0910980392,8.11564706 L0.590156863,8.73352941 C0.673333333,8.8365098 0.823843137,8.85235294 0.926823529,8.76917647 L2.5745098,7.44231373 L2.5745098,16.5125098 C2.5745098,17.2135686 3.14090196,17.7799608 3.84196078,17.7799608 L8.43647059,17.7799608 C8.69788235,17.7799608 8.91176471,17.5660784 8.91176471,17.3046667 L8.91176471,12.0724706 L11.4466667,12.0843529 L11.4466667,17.3205098 C11.4466667,17.5819216 11.660549,17.7958039 11.9219608,17.7958039 L16.5164706,17.7839216 C17.2175294,17.7839216 17.7839216,17.2175294 17.7839216,16.5164706 L17.7839216,7.44627451 L19.4316078,8.77313725 C19.5345882,8.85631373 19.685098,8.84047059 19.7682745,8.7374902 L20.2673333,8.11960784 C20.3505098,8.01662745 20.3307059,7.86611765 20.2316863,7.78294118 Z M16.5164706,16.5164706 L12.7141176,16.5283529 L12.7141176,11.2882353 C12.7141176,11.0268235 12.5002353,10.8129412 12.2388235,10.8129412 L8.11960784,10.8010588 C7.85819608,10.8010588 7.64431373,11.0149412 7.64431373,11.2763529 L7.64431373,16.5164706 L3.84196078,16.5164706 L3.84196078,6.42043137 L10.0287059,1.42984314 C10.1158431,1.35854902 10.2386275,1.35854902 10.3257647,1.42984314 L16.5125098,6.42043137 L16.5125098,16.5164706 L16.5164706,16.5164706 Z" id="Shape"></path>
            </g>
        </g>
    </g>
</svg>