<?xml version="1.0" encoding="UTF-8"?>
<svg width="25px" height="18px" viewBox="0 0 25 18" version="1.1" xmlns="http://www.w3.org/2000/svg" xmlns:xlink="http://www.w3.org/1999/xlink">
    <!-- Generator: Sketch 51.3 (57544) - http://www.bohemiancoding.com/sketch -->
    <title>shipping-fast</title>
    <desc>Created with Sketch.</desc>
    <defs></defs>
    <g id="Symbols" stroke="none" stroke-width="1" fill="none" fill-rule="evenodd">
        <g id="SVG" transform="translate(-451.000000, -24.000000)" fill="#898989" fill-rule="nonzero">
            <g id="shipping-fast" transform="translate(451.333333, 24.000000)">
                <path d="M10.5,6 C10.665,6 10.8,5.865 10.8,5.7 L10.8,5.1 C10.8,4.935 10.665,4.8 10.5,4.8 L1.5,4.8 C1.335,4.8 1.2,4.935 1.2,5.1 L1.2,5.7 C1.2,5.865 1.335,6 1.5,6 L10.5,6 Z M23.7,13.2 L22.8,13.2 L22.8,9.14625 C22.8,8.51625 22.545,7.8975 22.095,7.45125 L18.94875,4.305 C18.50625,3.855 17.8875,3.6 17.25375,3.6 L15.6,3.6 L15.6,1.7475 C15.6,0.78375 14.7675,0 13.7475,0 L4.2525,0 C3.2325,2.66453526e-16 2.4,0.78375 2.4,1.7475 L2.4,2.4 L0.3,2.4 C0.135,2.4 0,2.535 0,2.7 L0,3.3 C0,3.465 0.135,3.6 0.3,3.6 L9.3,3.6 C9.465,3.6 9.6,3.465 9.6,3.3 L9.6,2.7 C9.6,2.535 9.465,2.4 9.3,2.4 L3.6,2.4 L3.6,1.7475 C3.6,1.44375 3.8925,1.2 4.2525,1.2 L13.7475,1.2 C14.1075,1.2 14.4,1.44375 14.4,1.7475 L14.4,13.2 L7.785,13.2 C7.2375,12.47625 6.375,12 5.4,12 C4.72125,12 4.1025,12.2325 3.6,12.615 L3.6,9.6 L2.4,9.6 L2.4,15 C2.4,16.6575 3.7425,18 5.4,18 C7.0575,18 8.4,16.6575 8.4,15 C8.4,14.79375 8.3775,14.595 8.34,14.4 L15.66,14.4 C15.61875,14.595 15.6,14.79375 15.6,15 C15.6,16.6575 16.9425,18 18.6,18 C20.2575,18 21.6,16.6575 21.6,15 C21.6,14.79375 21.5775,14.595 21.54,14.4 L23.7,14.4 C23.865,14.4 24,14.265 24,14.1 L24,13.5 C24,13.335 23.865,13.2 23.7,13.2 Z M5.4,16.8 C4.40625,16.8 3.6,15.99375 3.6,15 C3.6,14.00625 4.40625,13.2 5.4,13.2 C6.39375,13.2 7.2,14.00625 7.2,15 C7.2,15.99375 6.39375,16.8 5.4,16.8 Z M15.6,4.8 L17.25375,4.8 C17.56875,4.8 17.88,4.9275 18.10125,5.1525 L21.2475,8.29875 C21.2775,8.32875 21.28875,8.37 21.315,8.40375 L15.6,8.40375 L15.6,4.8 Z M18.6,16.8 C17.60625,16.8 16.8,15.99375 16.8,15 C16.8,14.00625 17.60625,13.2 18.6,13.2 C19.59375,13.2 20.4,14.00625 20.4,15 C20.4,15.99375 19.59375,16.8 18.6,16.8 Z M21.6,13.2 L20.985,13.2 C20.4375,12.47625 19.575,12 18.6,12 C17.625,12 16.7625,12.47625 16.215,13.2 L15.6,13.2 L15.6,9.6 L21.6,9.6 L21.6,13.2 Z M9.6,8.1 L9.6,7.5 C9.6,7.335 9.465,7.2 9.3,7.2 L0.3,7.2 C0.135,7.2 0,7.335 0,7.5 L0,8.1 C0,8.265 0.135,8.4 0.3,8.4 L9.3,8.4 C9.465,8.4 9.6,8.265 9.6,8.1 Z" id="Shape"></path>
            </g>
        </g>
    </g>
</svg>