<?xml version="1.0" encoding="UTF-8"?>
<svg width="26px" height="18px" viewBox="0 0 26 18" version="1.1" xmlns="http://www.w3.org/2000/svg" xmlns:xlink="http://www.w3.org/1999/xlink">
    <!-- Generator: Sketch 51.3 (57544) - http://www.bohemiancoding.com/sketch -->
    <title>box-open</title>
    <desc>Created with Sketch.</desc>
    <defs></defs>
    <g id="Symbols" stroke="none" stroke-width="1" fill="none" fill-rule="evenodd">
        <g id="SVG" transform="translate(-55.000000, -153.000000)" fill="#898989" fill-rule="nonzero">
            <g id="box-open" transform="translate(55.863636, 153.000000)">
                <path d="M24.6840072,4.49194326 L22.6937083,0.36160545 C22.5838145,0.136606503 22.3640269,0 22.1279588,0 C22.1035379,0 12.3759015,1.28570827 12.3759015,1.28570827 C12.3759015,1.28570827 2.64826498,0 2.62384414,0 C2.38777597,0 2.16798837,0.140624342 2.05809457,0.36160545 L0.0677957273,4.49194326 C-0.111290467,4.86158438 0.0800061497,5.3035466 0.458529243,5.41604607 L2.47324893,6.01470399 L2.47324893,14.5043964 C2.47324893,15.0950186 2.85991231,15.6093019 3.40938131,15.7499263 L11.7694505,17.9235768 C12.2985688,18.0601833 12.7340738,17.9838444 12.970142,17.9235768 L21.3383515,15.7499263 C21.8878205,15.6052841 22.2744838,15.0910008 22.2744838,14.5043964 L22.2744838,6.01470399 L24.2892035,5.41604607 C24.6717968,5.3035466 24.8590232,4.86158438 24.6840072,4.49194326 Z M2.97387625,1.33794017 L10.3367609,2.31427488 L8.01271054,6.32407754 L1.50455542,4.3914973 L2.97387625,1.33794017 Z M3.71464187,6.38434511 C8.48077673,7.79862421 8.16330575,7.7142496 8.28948011,7.7142496 C8.50926771,7.7142496 8.71684489,7.59773229 8.83080884,7.39684037 L11.7572401,2.35445326 L11.7572401,16.5936723 L3.71464187,14.5043964 L3.71464187,6.38434511 Z M21.037161,14.5043964 L12.9945629,16.5936723 L12.9945629,2.35043543 L15.9209941,7.39282253 C16.0390282,7.59371445 16.2466053,7.71023176 16.4623228,7.71023176 C16.5884972,7.71023176 16.2588158,7.79460637 21.037161,6.38032727 L21.037161,14.5043964 Z M16.7431625,6.3200597 L14.4191121,2.31025704 L21.7779267,1.33794017 L23.2472475,4.3914973 L16.7431625,6.3200597 Z" id="Shape"></path>
            </g>
        </g>
    </g>
</svg>