<?xml version="1.0" encoding="UTF-8"?>
<svg width="25px" height="18px" viewBox="0 0 25 18" version="1.1" xmlns="http://www.w3.org/2000/svg" xmlns:xlink="http://www.w3.org/1999/xlink">
    <!-- Generator: Sketch 51.3 (57544) - http://www.bohemiancoding.com/sketch -->
    <title>sign-out-alt</title>
    <desc>Created with Sketch.</desc>
    <defs></defs>
    <g id="Symbols" stroke="none" stroke-width="1" fill="none" fill-rule="evenodd">
        <g id="SVG" transform="translate(-214.000000, -153.000000)" fill="#898989" fill-rule="nonzero">
            <g id="sign-out-alt" transform="translate(214.931818, 153.000000)">
                <path d="M7.5,7.1765625 C7.5,6.7640625 7.8375,6.4265625 8.25,6.4265625 L15,6.4265625 L15,2.025 C15,1.6921875 15.403125,1.5234375 15.6375,1.7578125 L22.275,8.465625 C22.5703125,8.7609375 22.5703125,9.234375 22.275,9.5296875 L15.6375,16.2375 C15.403125,16.471875 15,16.3078125 15,15.9703125 L15,11.56875 L8.25,11.56875 C7.8375,11.56875 7.5,11.23125 7.5,10.81875 L7.5,7.1765625 Z M6,7.1765625 L6,10.81875 C6,12.0609375 7.0078125,13.06875 8.25,13.06875 L13.5,13.06875 L13.5,15.9703125 C13.5,17.634375 15.515625,18.478125 16.696875,17.296875 L23.3390625,10.59375 C24.2203125,9.7125 24.2203125,8.2875 23.3390625,7.40625 L16.696875,0.6984375 C15.5203125,-0.478125 13.5,0.35625 13.5,2.025 L13.5,4.9265625 L8.25,4.9265625 C7.0078125,4.9265625 6,5.9390625 6,7.1765625 Z M0,2.25 L0,15.75 C0,16.9921875 1.0078125,18 2.25,18 L8.4375,18 C8.746875,18 9,17.746875 9,17.4375 L9,17.0625 C9,16.753125 8.746875,16.5 8.4375,16.5 L2.25,16.5 C1.8375,16.5 1.5,16.1625 1.5,15.75 L1.5,2.25 C1.5,1.8375 1.8375,1.5 2.25,1.5 L8.4375,1.5 C8.746875,1.5 9,1.246875 9,0.9375 L9,0.5625 C9,0.253125 8.746875,0 8.4375,0 L2.25,0 C1.0078125,0 0,1.0078125 0,2.25 Z" id="Shape"></path>
            </g>
        </g>
    </g>
</svg>