<?xml version="1.0" encoding="UTF-8"?>
<svg width="25px" height="18px" viewBox="0 0 25 18" version="1.1" xmlns="http://www.w3.org/2000/svg" xmlns:xlink="http://www.w3.org/1999/xlink">
    <!-- Generator: Sketch 51.3 (57544) - http://www.bohemiancoding.com/sketch -->
    <title>envelope</title>
    <desc>Created with Sketch.</desc>
    <defs></defs>
    <g id="Symbols" stroke="none" stroke-width="1" fill="none" fill-rule="evenodd">
        <g id="SVG" transform="translate(-92.000000, -153.000000)" fill="#898989" fill-rule="nonzero">
            <g id="envelope" transform="translate(92.477273, 153.000000)">
                <path d="M21.7814306,0 L2.25325145,0 C1.00926888,0 0,1.0078125 0,2.25 L0,15.75 C0,16.9921875 1.00926888,18 2.25325145,18 L21.7814306,18 C23.0254132,18 24.0346821,16.9921875 24.0346821,15.75 L24.0346821,2.25 C24.0346821,1.0078125 23.0254132,0 21.7814306,0 Z M2.25325145,1.5 L21.7814306,1.5 C22.1945267,1.5 22.5325145,1.8375 22.5325145,2.25 L22.5325145,4.190625 C21.5044685,5.0578125 20.0351608,6.253125 15.462938,9.8765625 C14.6696058,10.5046875 13.1064126,12.01875 12.017341,12 C10.9282695,12.01875 9.36038204,10.5046875 8.57174404,9.8765625 C3.99952132,6.253125 2.5302136,5.0578125 1.50216763,4.190625 L1.50216763,2.25 C1.50216763,1.8375 1.84015535,1.5 2.25325145,1.5 Z M21.7814306,16.5 L2.25325145,16.5 C1.84015535,16.5 1.50216763,16.1625 1.50216763,15.75 L1.50216763,6.140625 C2.57246207,7.0171875 4.26240065,8.371875 7.63758354,11.0484375 C8.59990968,11.8171875 10.2992368,13.509375 12.017341,13.5 C13.7260567,13.5140625 15.411301,11.8359375 16.3970985,11.0484375 C19.7722814,8.371875 21.46222,7.0171875 22.5325145,6.140625 L22.5325145,15.75 C22.5325145,16.1625 22.1945267,16.5 21.7814306,16.5 Z" id="Shape"></path>
            </g>
        </g>
    </g>
</svg>