<?xml version="1.0" encoding="UTF-8"?>
<svg width="18px" height="18px" viewBox="0 0 18 18" version="1.1" xmlns="http://www.w3.org/2000/svg" xmlns:xlink="http://www.w3.org/1999/xlink">
    <!-- Generator: Sketch 51.3 (57544) - http://www.bohemiancoding.com/sketch -->
    <title>cog</title>
    <desc>Created with Sketch.</desc>
    <defs></defs>
    <g id="Symbols" stroke="none" stroke-width="1" fill="none" fill-rule="evenodd">
        <g id="SVG" transform="translate(-389.000000, -153.000000)" fill="#898989" fill-rule="nonzero">
            <g id="cog" transform="translate(389.500000, 153.000000)">
                <path d="M16.6449744,10.4108293 L15.479423,9.73791192 C15.5526945,9.15763068 15.5526945,8.57043796 15.479423,7.99015673 L16.6449744,7.31723934 C16.9872412,7.11965676 17.1523342,6.71312559 17.0397821,6.33429459 C16.6389697,4.98506432 15.9255207,3.77058194 14.9833578,2.77455556 C14.7105022,2.48611645 14.2750557,2.42299582 13.9312162,2.62150769 L12.7673805,3.29338855 C12.3018545,2.93910345 11.7933915,2.64511504 11.2540938,2.41842082 L11.2540938,1.07401574 C11.2540938,0.676205659 10.9805949,0.330436139 10.5934359,0.238829019 C9.24795858,-0.079597759 7.83707312,-0.0796335012 6.49130984,0.238829019 C6.10418665,0.330436139 5.83065201,0.676169917 5.83065201,1.07401574 L5.83065201,2.41842082 C5.29135017,2.6451068 4.78288613,2.93909579 4.31736529,3.29338855 L3.15352954,2.62150769 C2.80965435,2.42299582 2.37420779,2.48611645 2.10138799,2.77455556 C1.15922502,3.77058194 0.445776044,4.98510006 0.0449636196,6.33429459 C-0.067588398,6.71312559 0.0975045741,7.11962102 0.439771364,7.31723934 L1.60532274,7.99015673 C1.5320513,8.57043796 1.5320513,9.15763068 1.60532274,9.73791192 L0.439771364,10.4108293 C0.0975045741,10.6084119 -0.067588398,11.0149431 0.0449636196,11.3937741 C0.445776044,12.7429686 1.15922502,13.9574867 2.10138799,14.9535131 C2.37424353,15.2419522 2.80969009,15.3050728 3.15352954,15.1065967 L4.31736529,14.4347158 C4.78288359,14.7890028 5.29134843,15.0829802 5.83065201,15.3096478 L5.83065201,16.6540529 C5.83065201,17.051863 6.10415091,17.3976325 6.49130984,17.4892396 C7.83682292,17.8076664 9.24767265,17.8077021 10.5934359,17.4892396 C10.9805591,17.3976325 11.2540938,17.0518987 11.2540938,16.6540529 L11.2540938,15.3096478 C11.7933874,15.0829603 12.3018498,14.7889843 12.7673805,14.4347158 L13.9312162,15.1065967 C14.2750557,15.3051086 14.7105022,15.2419879 14.9833578,14.9535131 C15.9255207,13.9574867 16.6389697,12.7429686 17.0397821,11.3937741 C17.1523342,11.0149431 16.9872412,10.6084476 16.6449744,10.4108293 Z M14.3046144,14.001521 L12.6494314,13.045776 C11.6848224,13.8703831 11.3427343,14.0778663 10.1103451,14.5133128 L10.1103451,16.424767 C9.0759197,16.6381481 8.00882607,16.6381481 6.97440068,16.424767 L6.97440068,14.5133128 C5.77271399,14.0887319 5.42479994,13.8915782 4.43531437,13.045776 L2.78013134,14.001521 C2.07565364,13.211977 1.54027204,12.2862912 1.21001461,11.2866191 L2.86591249,10.3308741 C2.63233756,9.06499454 2.63223034,8.66371747 2.86591249,7.39719453 L1.21001461,6.44144954 C1.54027204,5.44177746 2.07568938,4.51605588 2.78013134,3.72615446 L4.43531437,4.68261428 C5.4138271,3.84503283 5.76002553,3.64376881 6.97440068,3.21472009 L6.97440068,1.30330161 C8.00878962,1.08956379 9.07595614,1.08956379 10.1103451,1.30330161 L10.1103451,3.21475583 C11.3247917,3.6438403 11.6710259,3.84514006 12.6494314,4.68265002 L14.3046144,3.7261902 C15.0090564,4.51605588 15.5444737,5.44177746 15.8747312,6.44148528 L14.2188333,7.39723027 C14.4524439,8.66343153 14.4525154,9.06438692 14.2188333,10.3309099 L15.8747312,11.2866548 C15.5444737,12.2862912 15.0090921,13.2120128 14.3046144,14.001521 Z M8.54237288,5.43280618 C6.65036239,5.43280618 5.11112687,6.9720417 5.11112687,8.86405219 C5.11112687,10.7560627 6.65036239,12.2952982 8.54237288,12.2952982 C10.4343834,12.2952982 11.9736189,10.7560627 11.9736189,8.86405219 C11.9736189,6.9720417 10.4343834,5.43280618 8.54237288,5.43280618 Z M8.54237288,11.1515495 C7.28103255,11.1515495 6.25487554,10.1253925 6.25487554,8.86405219 C6.25487554,7.60271186 7.28103255,6.57655485 8.54237288,6.57655485 C9.80371321,6.57655485 10.8298702,7.60271186 10.8298702,8.86405219 C10.8298702,10.1253925 9.80371321,11.1515495 8.54237288,11.1515495 Z" id="Shape"></path>
            </g>
        </g>
    </g>
</svg>