<?xml version="1.0" encoding="UTF-8"?>
<svg width="18px" height="18px" viewBox="0 0 18 18" version="1.1" xmlns="http://www.w3.org/2000/svg" xmlns:xlink="http://www.w3.org/1999/xlink">
    <!-- Generator: Sketch 51.3 (57544) - http://www.bohemiancoding.com/sketch -->
    <title>times-circle</title>
    <desc>Created with Sketch.</desc>
    <defs></defs>
    <g id="Symbols" stroke="none" stroke-width="1" fill="none" fill-rule="evenodd">
        <g id="SVG" transform="translate(-381.000000, -75.000000)" fill="#002C3D" fill-rule="nonzero">
            <g id="times-circle" transform="translate(381.000000, 75.000000)">
                <path d="M9,0 C4.02822581,0 0,4.02822581 0,9 C0,13.9717742 4.02822581,18 9,18 C13.9717742,18 18,13.9717742 18,9 C18,4.02822581 13.9717742,0 9,0 Z M9,16.8387097 C4.69233871,16.8387097 1.16129032,13.3512097 1.16129032,9 C1.16129032,4.69233871 4.64879032,1.16129032 9,1.16129032 C13.3076613,1.16129032 16.8387097,4.64879032 16.8387097,9 C16.8387097,13.3076613 13.3512097,16.8387097 9,16.8387097 Z M12.4403226,6.48508065 L9.92540323,9 L12.4403226,11.5149194 C12.6108871,11.6854839 12.6108871,11.9612903 12.4403226,12.1318548 L12.1318548,12.4403226 C11.9612903,12.6108871 11.6854839,12.6108871 11.5149194,12.4403226 L9,9.92540323 L6.48508065,12.4403226 C6.31451613,12.6108871 6.03870968,12.6108871 5.86814516,12.4403226 L5.55967742,12.1318548 C5.3891129,11.9612903 5.3891129,11.6854839 5.55967742,11.5149194 L8.07459677,9 L5.55967742,6.48508065 C5.3891129,6.31451613 5.3891129,6.03870968 5.55967742,5.86814516 L5.86814516,5.55967742 C6.03870968,5.3891129 6.31451613,5.3891129 6.48508065,5.55967742 L9,8.07459677 L11.5149194,5.55967742 C11.6854839,5.3891129 11.9612903,5.3891129 12.1318548,5.55967742 L12.4403226,5.86814516 C12.6072581,6.03870968 12.6072581,6.31451613 12.4403226,6.48508065 Z" id="Shape"></path>
            </g>
        </g>
    </g>
</svg>