<?xml version="1.0" encoding="UTF-8"?>
<svg width="18px" height="18px" viewBox="0 0 18 18" version="1.1" xmlns="http://www.w3.org/2000/svg" xmlns:xlink="http://www.w3.org/1999/xlink">
    <!-- Generator: Sketch 51.3 (57544) - http://www.bohemiancoding.com/sketch -->
    <title>search</title>
    <desc>Created with Sketch.</desc>
    <defs></defs>
    <g id="Symbols" stroke="none" stroke-width="1" fill="none" fill-rule="evenodd">
        <g id="SVG" transform="translate(-18.000000, -254.000000)" fill="#D2D2D2" fill-rule="nonzero">
            <g id="search" transform="translate(18.000000, 254.000000)">
                <path d="M17.8421053,16.4526316 L13.5824561,12.1929825 C13.5017544,12.1122807 13.3964912,12.0701754 13.2842105,12.0701754 L12.8210526,12.0701754 C13.9263158,10.7894737 14.5964912,9.12280702 14.5964912,7.29824561 C14.5964912,3.26666667 11.3298246,0 7.29824561,0 C3.26666667,0 0,3.26666667 0,7.29824561 C0,11.3298246 3.26666667,14.5964912 7.29824561,14.5964912 C9.12280702,14.5964912 10.7894737,13.9263158 12.0701754,12.8210526 L12.0701754,13.2842105 C12.0701754,13.3964912 12.1157895,13.5017544 12.1929825,13.5824561 L16.4526316,17.8421053 C16.6175439,18.0070175 16.8842105,18.0070175 17.0491228,17.8421053 L17.8421053,17.0491228 C18.0070175,16.8842105 18.0070175,16.6175439 17.8421053,16.4526316 Z M7.29824561,12.9122807 C4.19649123,12.9122807 1.68421053,10.4 1.68421053,7.29824561 C1.68421053,4.19649123 4.19649123,1.68421053 7.29824561,1.68421053 C10.4,1.68421053 12.9122807,4.19649123 12.9122807,7.29824561 C12.9122807,10.4 10.4,12.9122807 7.29824561,12.9122807 Z" id="Shape"></path>
            </g>
        </g>
    </g>
</svg>