<?xml version="1.0" encoding="UTF-8"?>
<svg width="814px" height="453px" viewBox="0 0 814 453" version="1.1" xmlns="http://www.w3.org/2000/svg" xmlns:xlink="http://www.w3.org/1999/xlink">
    <!-- Generator: Sketch 51.3 (57544) - http://www.bohemiancoding.com/sketch -->
    <title>TRUCK</title>
    <desc>Created with Sketch.</desc>
    <defs>
        <path d="M205.604678,58.0832689 C183.919884,103.276873 139.752843,102.313179 64.647124,116.509042 C-29.1497355,134.238448 -30.4290744,275.224877 134.778347,306.456627 C240.89524,326.521873 393.398826,359.759722 449.337917,291.573627 C497.016744,233.456321 456.436116,212.852854 436.11595,198.088986 C428.427124,192.500415 421.998446,187.452193 416.65081,182.980486 C402.765719,171.365108 399.710231,151.225406 409.441736,135.9765 C464.681455,49.4206651 392.036331,0.655226415 317.084132,0.655226415 C271.166529,0.657353774 224.38324,18.9568915 205.604678,58.0832689 Z" id="path-1"></path>
        <polygon id="path-3" points="0.000639669421 1.88399727 1414.90676 1.88399727 1414.90676 451 0.000639669421 451"></polygon>
        <polygon id="path-5" points="0.0332766234 0.911651613 4.29737727 0.911651613 4.29737727 2.12903226 0.0332766234 2.12903226"></polygon>
        <path d="M180.368961,50.9999434 C161.345738,90.6821321 122.599716,89.8359623 56.7123994,102.300623 C-25.5719256,117.867906 -26.6942397,241.660868 118.235785,269.083868 C211.327994,286.702132 345.113441,315.886585 394.186623,256.015868 C436.013397,204.986038 400.413595,186.895189 382.587507,173.931792 C375.842399,169.024755 370.202771,164.59217 365.511499,160.665792 C353.33065,150.466925 350.65019,132.783283 359.187259,119.394 C407.646909,43.3937547 343.918176,0.575320755 278.165537,0.575320755 C237.883815,0.577188679 196.842661,16.6450755 180.368961,50.9999434 Z" id="path-7"></path>
        <polygon id="path-9" points="0.000561157025 1.6542415 1241.24249 1.6542415 1241.24249 396 0.000561157025 396"></polygon>
        <polygon id="path-11" points="0.029174026 0.801148387 3.76756364 0.801148387 3.76756364 1.87096774 0.029174026 1.87096774"></polygon>
        <polygon id="path-13" points="0 0.0116604651 168.335462 0.0116604651 168.335462 4.27896279 0 4.27896279"></polygon>
        <polygon id="path-15" points="0 91.5475953 168.336 91.5475953 168.336 0.000106976744 0 0.000106976744"></polygon>
    </defs>
    <g id="CUSTOMER-ADMIN" stroke="none" stroke-width="1" fill="none" fill-rule="evenodd">
        <g id="HOME" transform="translate(-550.000000, -26.000000)">
            <g id="TRUCK" transform="translate(552.000000, -39.000000)">
                <g stroke-width="1" fill-rule="evenodd">
                    <g id="VECTOR-BACKGROUND" transform="translate(417.000000, 292.500000) scale(-1, 1) translate(-417.000000, -292.500000) translate(30.000000, 67.000000)">
                        <path d="M443.91479,256.822127 C449.267473,261.29481 455.700084,266.344134 463.398302,271.933924 C483.737646,286.703141 524.35444,307.308975 476.630614,365.438962 C420.640861,433.637806 267.993339,400.392705 161.776292,380.327337 C-3.58705479,349.086645 -2.30650849,208.071582 91.5767436,190.338308 C166.755483,176.13722 210.962075,177.098996 232.669469,131.897659 C282.14551,28.8812534 525.861216,70.1971858 436.698911,209.807886 C426.958223,225.060118 430.016594,245.206343 443.91479,256.822127 Z" id="Fill-1" fill="#E5F6FD" fill-rule="evenodd"></path>
                        <g id="Group-5" stroke-width="1" fill-rule="evenodd" transform="translate(27.719008, 74.457547)">
                            <mask id="mask-2" fill="white">
                                <use xlink:href="#path-1"></use>
                            </mask>
                            <g id="Clip-4"></g>
                            <path d="M450.656702,156.921833 C569.846306,242.520357 316.652355,283.814513 279.937463,130.414947 C243.218306,-22.982492 -3.36999174,109.994433 -3.36999174,109.994433 L157.044174,-31.8195392 L435.148983,-31.8195392 L450.656702,156.921833 Z" id="Fill-3" fill="#E5F6FD" mask="url(#mask-2)"></path>
                        </g>
                        <g id="Group-19" stroke-width="1" fill-rule="evenodd">
                            <mask id="mask-4" fill="white">
                                <use xlink:href="#path-3"></use>
                            </mask>
                            <g id="Clip-7"></g>
                            <polygon id="Fill-6" fill="#F5F6FA" mask="url(#mask-4)" points="24.3500826 482.910377 767.603306 482.910377 767.603306 351.609811 24.3500826 351.609811"></polygon>
                            <path d="M117.333069,126.900976 C117.333069,126.900976 113.143235,121.408136 110.573896,118.889344 C105.949086,114.35807 100.644094,106.344311 83.6779289,112.249858 C82.3602099,112.709367 81.0830033,113.317792 79.8121934,113.930471 C78.3174992,114.653773 73.6841603,114.670792 68.9399455,110.377783 C61.4003752,103.555344 58.4514992,98.4071363 48.1229702,98.2475844 C36.1035818,98.0625042 34.2144248,115.136683 24.873119,119.506278 C18.9284579,122.288863 3.24376364,125.052301 0.000639669421,126.284042 L117.333069,126.900976 Z" id="Fill-13" fill="#E5F6FD" mask="url(#mask-4)"></path>
                            <path d="M416.170418,17.9974528 C416.170418,17.9974528 413.479542,14.9085283 411.829195,13.4917075 C408.858997,10.9431321 405.451691,6.43738679 394.555988,9.7581934 C393.709493,10.0177311 392.888583,10.3602358 392.071939,10.7048679 C391.112435,11.109066 388.137972,11.1197028 385.091013,8.70515094 C380.246583,4.86952358 378.355294,1.97631604 371.71979,1.88483962 C364.001112,1.78059906 362.787873,11.3813679 356.787774,13.838467 C352.968947,15.4020755 342.898418,16.9571745 340.813096,17.6506934 L416.170418,17.9974528 Z" id="Stroke-14" stroke="#E5F6FD" stroke-width="0.99" stroke-linecap="round" stroke-linejoin="round" mask="url(#mask-4)"></path>
                            <path d="M458.435936,100.076262 C458.435936,100.076262 460.81977,97.3383514 462.280349,96.0853373 C464.913655,93.8260825 467.930762,89.835158 477.583374,92.7772948 C478.333919,93.0049222 479.06101,93.3091344 479.783836,93.6133467 C480.634597,93.9749976 483.270035,93.9835071 485.96944,91.8455118 C490.261621,88.4459929 491.937555,85.8825259 497.816117,85.8038137 C504.654183,85.7102099 505.73096,94.2153892 511.044481,96.3938042 C514.428332,97.7765873 523.349588,99.1551156 525.198233,99.7677948 L458.435936,100.076262 Z" id="Fill-15" fill="#E5F6FD" mask="url(#mask-4)"></path>
                            <path d="M396.099511,127.221782 L395.355362,125.098678 L394.613345,127.221782 C393.986469,129.01089 392.500304,130.521315 390.483213,131.414805 C392.500304,132.308296 393.986469,133.81872 394.613345,135.607829 L395.355362,137.730933 L396.099511,135.607829 C396.724255,133.81872 398.212552,132.308296 400.227511,131.414805 C398.212552,130.521315 396.724255,129.01089 396.099511,127.221782" id="Fill-16" fill="#FFFFFF" mask="url(#mask-4)"></path>
                            <path d="M439.493618,305.1015 L438.749469,302.978396 L438.007453,305.1015 C437.380577,306.892736 435.894412,308.40316 433.879453,309.294524 C435.894412,310.188014 437.380577,311.698439 438.007453,313.487547 L438.749469,315.610651 L439.493618,313.487547 C440.120494,311.698439 441.60666,310.188014 443.621618,309.294524 C441.60666,308.40316 440.120494,306.892736 439.493618,305.1015" id="Fill-17" fill="#FFFFFF" mask="url(#mask-4)"></path>
                            <path d="M147.161494,210.21578 L145.914139,206.654582 L144.668916,210.21578 C143.619858,213.217483 141.125147,215.751167 137.747693,217.248827 C141.125147,218.74436 143.619858,221.275917 144.668916,224.27762 L145.914139,227.838818 L147.161494,224.27762 C148.210552,221.275917 150.705263,218.74436 154.082717,217.248827 C150.705263,215.751167 148.210552,213.217483 147.161494,210.21578" id="Fill-18" fill="#FFFFFF" mask="url(#mask-4)"></path>
                        </g>
                        <g id="VECTOR-DASH-LINE" transform="translate(-10.661157, 155.297170)" stroke-width="1">
                            <path d="M654.866883,146.903226 C654.866883,146.903226 654.140016,145.355796 652.733766,142.645161" id="Stroke-1" stroke="#FFFFFF"></path>
                            <path d="M648.467532,133.590395 C624.363001,104.199658 546.836402,24.827248 451.565093,82.8290191 C336.212724,153.057456 346.05571,0 278.303759,0 C181.338918,0 237.280994,184.215801 8.53246753,195.870968" id="Stroke-3" stroke="#FFFFFF" stroke-dasharray="4.025,4.025"></path>
                            <g id="Group-7" fill-rule="evenodd" transform="translate(0.000000, 195.870968)">
                                <mask id="mask-6" fill="white">
                                    <use xlink:href="#path-5"></use>
                                </mask>
                                <g id="Clip-6"></g>
                                <path d="M4.29737727,0.911651613 C2.88738701,0.969135484 1.46459805,1.02023226 0.0332766234,1.06494194" id="Stroke-5" stroke="#FFFFFF" mask="url(#mask-6)"></path>
                            </g>
                        </g>
                    </g>
                    <g id="VECTOR-BACKGROUND">
                        <path d="M389.429124,225.502356 C394.124825,229.42959 399.767903,233.863142 406.521249,238.77125 C424.364162,251.739343 459.995691,269.832271 418.12944,320.873235 C369.011815,380.755147 235.1001,351.564326 141.920029,333.945955 C-3.14678321,306.515103 -2.02340991,182.696999 80.336704,167.12632 C146.288078,154.657071 185.068797,155.501557 204.111847,115.812579 C247.515247,25.3591493 461.317527,61.6365534 383.098916,184.221558 C374.55379,197.613763 377.23678,215.303131 389.429124,225.502356 Z" id="Fill-1" fill="#E5F6FD" fill-rule="evenodd"></path>
                        <g id="Group-5" stroke-width="1" fill-rule="evenodd" transform="translate(24.316804, 65.377358)">
                            <mask id="mask-8" fill="white">
                                <use xlink:href="#path-7"></use>
                            </mask>
                            <g id="Clip-4"></g>
                            <path d="M395.343541,137.785025 C499.90393,212.944704 277.786756,249.202987 245.578213,114.510685 C213.36593,-20.1797491 -2.95636226,96.5804774 -2.95636226,96.5804774 L137.768726,-27.9391075 L381.739225,-27.9391075 L395.343541,137.785025 Z" id="Fill-3" fill="#E5F6FD" mask="url(#mask-8)"></path>
                        </g>
                        <g id="Group-19" stroke-width="1" fill-rule="evenodd">
                            <mask id="mask-10" fill="white">
                                <use xlink:href="#path-9"></use>
                            </mask>
                            <g id="Clip-7"></g>
                            <polygon id="Fill-6" fill="#F5F6FA" mask="url(#mask-10)" points="21.3613774 424.018868 673.38843 424.018868 673.38843 308.730566 21.3613774 308.730566"></polygon>
                            <path d="M102.931724,111.425247 C102.931724,111.425247 99.2561452,106.602266 97.0021645,104.390643 C92.9449992,100.411964 88.2911369,93.3754925 73.4073821,98.5608509 C72.2513986,98.9643226 71.1309551,99.4985491 70.0161231,100.036511 C68.7048862,100.671606 64.6402388,100.686549 60.4783242,96.9170774 C53.8641534,90.9266434 51.2772196,86.406266 42.2164041,86.2661717 C31.6722636,86.1036623 30.0149799,101.095625 21.8202168,104.932342 C16.6051975,107.375587 2.84562727,109.802021 0.000561157025,110.883549 L102.931724,111.425247 Z" id="Fill-13" fill="#E5F6FD" mask="url(#mask-10)"></path>
                            <path d="M365.09007,15.8026415 C365.09007,15.8026415 362.729469,13.0904151 361.281684,11.8463774 C358.676045,9.60860377 355.686948,5.65233962 346.128574,8.56816981 C345.385976,8.7960566 344.665825,9.09679245 343.949414,9.39939623 C343.107679,9.75430189 340.498298,9.76364151 337.82532,7.64354717 C333.575491,4.27567925 331.916337,1.73530189 326.095268,1.65498113 C319.323973,1.56345283 318.259645,9.99339623 312.995993,12.1508491 C309.645885,13.5237736 300.811403,14.8892264 298.982031,15.4981698 L365.09007,15.8026415 Z" id="Stroke-14" stroke="#E5F6FD" stroke-width="0.99" stroke-linecap="round" stroke-linejoin="round" mask="url(#mask-10)"></path>
                            <path d="M402.167959,87.8718396 C402.167959,87.8718396 404.259204,85.4678208 405.540513,84.3676132 C407.850609,82.3838774 410.4974,78.8796509 418.965259,81.4629906 C419.623683,81.6628585 420.261532,81.9299717 420.895639,82.1970849 C421.641978,82.5146321 423.953945,82.5221038 426.322028,80.6448396 C430.087391,77.6598962 431.557623,75.4090472 436.714656,75.339934 C442.713425,75.2577453 443.658039,82.7257075 448.319383,84.6384623 C451.287904,85.8526132 459.114174,87.0630283 460.735918,87.6009906 L402.167959,87.8718396 Z" id="Fill-15" fill="#E5F6FD" mask="url(#mask-10)"></path>
                            <path d="M347.482646,111.70693 L346.829833,109.842742 L346.178891,111.70693 C345.628957,113.277855 344.325202,114.604081 342.555687,115.388609 C344.325202,116.173138 345.628957,117.499364 346.178891,119.070289 L346.829833,120.934477 L347.482646,119.070289 C348.030709,117.499364 349.336334,116.173138 351.103979,115.388609 C349.336334,114.604081 348.030709,113.277855 347.482646,111.70693" id="Fill-16" fill="#FFFFFF" mask="url(#mask-10)"></path>
                            <path d="M385.550603,267.894 L384.89779,266.029811 L384.246848,267.894 C383.696914,269.466792 382.39316,270.793019 380.625515,271.575679 C382.39316,272.360208 383.696914,273.686434 384.246848,275.257358 L384.89779,277.121547 L385.550603,275.257358 C386.100537,273.686434 387.404292,272.360208 389.171936,271.575679 C387.404292,270.793019 386.100537,269.466792 385.550603,267.894" id="Fill-17" fill="#FFFFFF" mask="url(#mask-10)"></path>
                            <path d="M129.099037,184.579709 L128.004781,181.452804 L126.912395,184.579709 C125.992098,187.215351 123.803585,189.440049 120.840676,190.755068 C123.803585,192.068219 125.992098,194.291049 126.912395,196.926691 L128.004781,200.053596 L129.099037,196.926691 C130.019334,194.291049 132.207847,192.068219 135.170756,190.755068 C132.207847,189.440049 130.019334,187.215351 129.099037,184.579709" id="Fill-18" fill="#FFFFFF" mask="url(#mask-10)"></path>
                        </g>
                        <g id="VECTOR-DASH-LINE" transform="translate(-9.352617, 136.358491)" stroke-width="1">
                            <path d="M574.12987,129.096774 C574.12987,129.096774 573.492617,127.736911 572.25974,125.354839" id="Stroke-1" stroke="#FFFFFF"></path>
                            <path d="M568.519481,117.39762 C547.38674,91.5693966 479.418216,21.8178846 395.892684,72.789138 C294.76184,134.505037 303.391308,0 243.992337,0 C158.982065,0 208.027173,161.886613 7.48051948,172.129032" id="Stroke-3" stroke="#FFFFFF" stroke-dasharray="4.025,4.025"></path>
                            <g id="Group-7" fill-rule="evenodd" transform="translate(0.000000, 172.129032)">
                                <mask id="mask-12" fill="white">
                                    <use xlink:href="#path-11"></use>
                                </mask>
                                <g id="Clip-6"></g>
                                <path d="M3.76756364,0.801148387 C2.53140779,0.851664516 1.28403117,0.896567742 0.029174026,0.935858065" id="Stroke-5" stroke="#FFFFFF" mask="url(#mask-12)"></path>
                            </g>
                        </g>
                    </g>
                    <g id="VECTOR-TRUCK" transform="translate(297.000000, 244.000000) scale(-1, 1) translate(-297.000000, -244.000000) translate(213.000000, 198.000000)">
                        <g id="Group-3" stroke-width="1" fill-rule="evenodd" transform="translate(0.000000, 87.268526)">
                            <mask id="mask-14" fill="white">
                                <use xlink:href="#path-13"></use>
                            </mask>
                            <g id="Clip-2"></g>
                            <path d="M168.335462,2.14477674 C168.335462,3.32366047 126.072692,4.27896279 73.9399231,4.27896279 C21.8071538,4.27896279 -0.000538461538,3.32366047 -0.000538461538,2.14477674 C-0.000538461538,0.965893023 21.8071538,0.0116604651 73.9399231,0.0116604651 C126.072692,0.0116604651 168.335462,0.965893023 168.335462,2.14477674" id="Fill-1" fill="#E5F6FD" mask="url(#mask-14)"></path>
                        </g>
                        <path d="M28.0904615,66.4038884 C34.7609231,66.4038884 40.1703077,71.7751907 40.1703077,78.4034698 C40.1703077,85.0296093 34.7609231,90.4019814 28.0904615,90.4019814 L24.7423077,90.4019814 L24.7423077,66.4038884 L28.0904615,66.4038884 Z" id="Fill-4" fill="#0F222C" fill-rule="evenodd"></path>
                        <path d="M91.1482923,66.4038884 C97.8187538,66.4038884 103.227062,71.7751907 103.227062,78.4034698 C103.227062,85.0296093 97.8187538,90.4019814 91.1482923,90.4019814 L87.8001385,90.4019814 L87.8001385,66.4038884 L91.1482923,66.4038884 Z" id="Fill-6" fill="#81B5C1" fill-rule="evenodd"></path>
                        <path d="M28.0904615,66.4038884 C34.7609231,66.4038884 40.1703077,71.7751907 40.1703077,78.4034698 C40.1703077,85.0296093 34.7609231,90.4019814 28.0904615,90.4019814 L24.7423077,90.4019814 L24.7423077,66.4038884 L28.0904615,66.4038884 Z" id="Fill-8" fill="#81B5C1" fill-rule="evenodd"></path>
                        <path d="M38.8607692,76.1633767 C38.8607692,69.5372372 44.268,64.1648651 50.9406154,64.1648651 C57.6110769,64.1648651 63.0193846,69.5372372 63.0193846,76.1633767 C63.0193846,82.7895163 57.6110769,88.1629581 50.9406154,88.1629581 C44.268,88.1629581 38.8607692,82.7895163 38.8607692,76.1633767" id="Fill-10" fill="#81B5C1" fill-rule="evenodd"></path>
                        <path d="M118.774923,64.1650791 C125.445385,64.1650791 130.853692,69.5363814 130.853692,76.1635907 C130.853692,82.7897302 125.445385,88.1631721 118.774923,88.1631721 L115.425692,88.1631721 L115.425692,64.1650791 L118.774923,64.1650791 Z" id="Fill-12" fill="#81B5C1" fill-rule="evenodd"></path>
                        <path d="M103.346708,76.1633767 C103.346708,69.5372372 108.753938,64.1648651 115.425477,64.1648651 C122.097015,64.1648651 127.505323,69.5372372 127.505323,76.1633767 C127.505323,82.7895163 122.097015,88.1629581 115.425477,88.1629581 C108.753938,88.1629581 103.346708,82.7895163 103.346708,76.1633767" id="Fill-14" fill="#81B5C1" fill-rule="evenodd"></path>
                        <mask id="mask-16" fill="white">
                            <use xlink:href="#path-15"></use>
                        </mask>
                        <g id="Clip-17"></g>
                        <polygon id="Fill-16" fill="#ACDEEA" fill-rule="evenodd" mask="url(#mask-16)" points="87.7993846 21.2553163 149.749385 21.2553163 149.749385 0.000106976744 87.7993846 0.000106976744"></polygon>
                        <polygon id="Fill-18" fill="#9CD1E2" fill-rule="evenodd" mask="url(#mask-16)" points="63.0193846 70.4293163 112.580462 70.4293163 112.580462 21.1975488 63.0193846 21.1975488"></polygon>
                        <polygon id="Fill-19" fill="#81B5C1" fill-rule="evenodd" mask="url(#mask-16)" points="63.0183077 49.5945256 112.579385 49.5945256 112.579385 42.0323395 63.0183077 42.0323395"></polygon>
                        <polygon id="Fill-20" fill="#6DA1AA" fill-rule="evenodd" mask="url(#mask-16)" points="82.6301538 49.5945256 92.9707692 49.5945256 92.9707692 42.0323395 82.6301538 42.0323395"></polygon>
                        <polygon id="Fill-21" fill="#81B5C1" fill-rule="evenodd" mask="url(#mask-16)" points="83.9924615 70.4293163 91.6052308 70.4293163 91.6052308 21.1975488 83.9924615 21.1975488"></polygon>
                        <polygon id="Fill-22" fill="#81B5C1" fill-rule="evenodd" mask="url(#mask-16)" points="112.579385 70.4293163 149.750462 70.4293163 149.750462 21.1975488 112.579385 21.1975488"></polygon>
                        <polygon id="Fill-23" fill="#6DA1AA" fill-rule="evenodd" mask="url(#mask-16)" points="112.579385 49.5945256 149.750462 49.5945256 149.750462 42.0323395 112.579385 42.0323395"></polygon>
                        <polygon id="Fill-24" fill="#5F9499" fill-rule="evenodd" mask="url(#mask-16)" points="125.843846 49.5945256 136.184462 49.5945256 136.184462 42.0323395 125.843846 42.0323395"></polygon>
                        <polygon id="Fill-25" fill="#81B5C1" fill-rule="evenodd" mask="url(#mask-16)" points="112.579492 21.2553163 149.750569 21.2553163 168.335031 2.90345581 131.165031 2.90345581"></polygon>
                        <polygon id="Fill-26" fill="#6DA1AA" fill-rule="evenodd" mask="url(#mask-16)" points="127.208308 70.4293163 134.82 70.4293163 134.82 21.1975488 127.208308 21.1975488"></polygon>
                        <polygon id="Fill-27" fill="#6DA1AA" fill-rule="evenodd" mask="url(#mask-16)" points="127.208415 21.1978698 134.820108 21.1978698 153.237646 2.90270698 145.625954 2.90270698"></polygon>
                        <polygon id="Fill-28" fill="#9CD1E2" fill-rule="evenodd" mask="url(#mask-16)" points="112.579492 21.1978698 63.0184154 21.1978698 44.4350308 2.73689302 93.9939538 2.73689302"></polygon>
                        <polygon id="Fill-29" fill="#81B5C1" fill-rule="evenodd" mask="url(#mask-16)" points="91.6057692 21.1978698 83.993 21.1978698 65.4074615 2.73689302 73.0202308 2.73689302"></polygon>
                        <path d="M2.3842,78.4032558 L112.579277,78.4032558 L112.579277,70.4292093 L2.3842,70.4292093 C1.06712308,70.4292093 -0.000107692308,71.4893488 -0.000107692308,72.7966047 L-0.000107692308,76.0347907 C-0.000107692308,77.3431163 1.06712308,78.4032558 2.3842,78.4032558" id="Fill-30" fill="#81B5C1" fill-rule="evenodd" mask="url(#mask-16)"></path>
                        <path d="M2.3842,70.4291023 L63.0192769,70.4291023 L63.0192769,21.1973349 L32.6349692,21.1973349 C26.7032769,21.1973349 21.1592769,24.1231488 17.8402,29.0044977 L5.44481538,47.227986 C3.44927692,50.1602186 2.3842,53.617707 2.3842,57.1586372 L2.3842,70.4291023 Z" id="Fill-31" fill="#9CD1E2" fill-rule="evenodd" mask="url(#mask-16)"></path>
                        <path d="M48.4668154,50.3291349 L48.4668154,26.7386233 L32.6349692,26.7386233 C28.5502,26.7386233 24.7475846,28.745507 22.4612769,32.107786 L10.0669692,50.3291349 L48.4668154,50.3291349 Z" id="Fill-32" fill="#F2F2F2" fill-rule="evenodd" mask="url(#mask-16)"></path>
                        <polygon id="Fill-33" fill="#81B5C1" fill-rule="evenodd" mask="url(#mask-16)" points="55.7167692 70.4293163 63.0183077 70.4293163 63.0183077 21.1975488 55.7167692 21.1975488"></polygon>
                        <path d="M87.2413231,64.1650791 C95.1577846,64.1650791 101.575169,70.5398233 101.575169,78.4036837 L72.9074769,78.4036837 C72.9074769,70.5398233 79.3248615,64.1650791 87.2413231,64.1650791" id="Fill-34" fill="#81B5C1" fill-rule="evenodd" mask="url(#mask-16)"></path>
                        <path d="M24.1834923,64.1650791 C32.1010308,64.1650791 38.5184154,70.5398233 38.5184154,78.4036837 L9.85072308,78.4036837 C9.85072308,70.5398233 16.2681077,64.1650791 24.1834923,64.1650791" id="Fill-35" fill="#81B5C1" fill-rule="evenodd" mask="url(#mask-16)"></path>
                        <path d="M75.7200769,78.4032558 C75.7200769,71.7760465 81.1273077,66.4036744 87.7999231,66.4036744 C94.4703846,66.4036744 99.8786923,71.7760465 99.8786923,78.4032558 C99.8786923,85.0293953 94.4703846,90.4017674 87.7999231,90.4017674 C81.1273077,90.4017674 75.7200769,85.0293953 75.7200769,78.4032558" id="Fill-36" fill="#9CD1E2" fill-rule="evenodd" mask="url(#mask-16)"></path>
                        <path d="M81.8556308,78.4032558 C81.8556308,75.1426047 84.5167077,72.4992093 87.8002462,72.4992093 C91.0816308,72.4992093 93.7427077,75.1426047 93.7427077,78.4032558 C93.7427077,81.663907 91.0816308,84.3073023 87.8002462,84.3073023 C84.5167077,84.3073023 81.8556308,81.663907 81.8556308,78.4032558" id="Fill-37" fill="#F2F2F2" fill-rule="evenodd" mask="url(#mask-16)"></path>
                        <path d="M12.6633231,78.4032558 C12.6633231,71.7760465 18.0705538,66.4036744 24.7420923,66.4036744 C31.4125538,66.4036744 36.8219385,71.7760465 36.8219385,78.4032558 C36.8219385,85.0293953 31.4125538,90.4017674 24.7420923,90.4017674 C18.0705538,90.4017674 12.6633231,85.0293953 12.6633231,78.4032558" id="Fill-38" fill="#9CD1E2" fill-rule="evenodd" mask="url(#mask-16)"></path>
                        <path d="M18.7988769,78.4032558 C18.7988769,75.1426047 21.4599538,72.4992093 24.7424154,72.4992093 C28.0238,72.4992093 30.6848769,75.1426047 30.6848769,78.4032558 C30.6848769,81.663907 28.0238,84.3073023 24.7424154,84.3073023 C21.4599538,84.3073023 18.7988769,81.663907 18.7988769,78.4032558" id="Fill-39" fill="#F2F2F2" fill-rule="evenodd" mask="url(#mask-16)"></path>
                        <polygon id="Fill-40" fill="#57868E" fill-rule="evenodd" mask="url(#mask-16)" points="112.579385 66.6113163 117.756154 66.6113163 117.756154 61.7171302 112.579385 61.7171302"></polygon>
                        <polygon id="Fill-41" fill="#81B5C1" fill-rule="evenodd" mask="url(#mask-16)" points="107.402615 66.6113163 112.579385 66.6113163 112.579385 61.7171302 107.402615 61.7171302"></polygon>
                        <polygon id="Fill-42" fill="#57868E" fill-rule="evenodd" mask="url(#mask-16)" points="144.572615 66.6113163 149.750462 66.6113163 149.750462 61.7171302 144.572615 61.7171302"></polygon>
                        <path d="M42.1882462,54.8839907 L46.9525538,54.8839907 C47.7871692,54.8839907 48.4667077,54.2100372 48.4667077,53.3798977 L48.4667077,52.3037116 L40.6740923,52.3037116 L40.6740923,53.3798977 C40.6740923,54.2100372 41.3514769,54.8839907 42.1882462,54.8839907" id="Fill-43" fill="#81B5C1" fill-rule="evenodd" mask="url(#mask-16)"></path>
                        <path d="M42.1882462,54.2457674 L46.9525538,54.2457674 C47.7871692,54.2457674 48.4667077,53.571814 48.4667077,52.7416744 L48.4667077,52.3041395 L40.6740923,52.3041395 L40.6740923,52.7416744 C40.6740923,53.571814 41.3514769,54.2457674 42.1882462,54.2457674" id="Fill-44" fill="#81B5C1" fill-rule="evenodd" mask="url(#mask-16)"></path>
                        <path d="M7.08938462,64.1650791 C7.08938462,61.5826605 4.98292308,59.4901953 2.38430769,59.4901953 L2.38430769,68.8399628 C4.98292308,68.8399628 7.08938462,66.7464279 7.08938462,64.1650791" id="Fill-45" fill="#F2F2F2" fill-rule="evenodd" mask="url(#mask-16)"></path>
                        <path d="M149.750138,70.4291023 L112.579062,70.4291023 C111.263062,70.4291023 110.195831,71.4892419 110.195831,72.7964977 L110.195831,76.0346837 C110.195831,77.3430093 111.263062,78.4031488 112.579062,78.4031488 L149.750138,78.4031488 C151.067215,78.4031488 152.133369,77.3430093 152.133369,76.0346837 L152.133369,72.7964977 C152.133369,71.4892419 151.067215,70.4291023 149.750138,70.4291023" id="Fill-46" fill="#61959E" fill-rule="evenodd" mask="url(#mask-16)"></path>
                        <path d="M116.873508,74.4156977 C116.873508,73.4807209 116.109969,72.7222558 115.167662,72.7222558 C114.226431,72.7222558 113.461815,73.4807209 113.461815,74.4156977 C113.461815,75.3517442 114.226431,76.1102093 115.167662,76.1102093 C116.109969,76.1102093 116.873508,75.3517442 116.873508,74.4156977" id="Fill-47" fill="#F2F2F2" fill-rule="evenodd" mask="url(#mask-16)"></path>
                        <path d="M119.810815,74.4156977 C119.810815,73.9482093 119.429585,73.5684419 118.957892,73.5684419 C118.487277,73.5684419 118.104969,73.9482093 118.104969,74.4156977 C118.104969,74.883186 118.487277,75.2629535 118.957892,75.2629535 C119.429585,75.2629535 119.810815,74.883186 119.810815,74.4156977" id="Fill-48" fill="#F2F2F2" fill-rule="evenodd" mask="url(#mask-16)"></path>
                        <path d="M145.456123,74.4156977 C145.456123,75.3517442 146.219662,76.1102093 147.161969,76.1102093 C148.1032,76.1102093 148.866738,75.3517442 148.866738,74.4156977 C148.866738,73.4807209 148.1032,72.7222558 147.161969,72.7222558 C146.219662,72.7222558 145.456123,73.4807209 145.456123,74.4156977" id="Fill-49" fill="#F2F2F2" fill-rule="evenodd" mask="url(#mask-16)"></path>
                        <path d="M142.518815,74.4156977 C142.518815,74.883186 142.900046,75.2629535 143.371738,75.2629535 C143.842354,75.2629535 144.224662,74.883186 144.224662,74.4156977 C144.224662,73.9482093 143.842354,73.5684419 143.371738,73.5684419 C142.900046,73.5684419 142.518815,73.9482093 142.518815,74.4156977" id="Fill-50" fill="#F2F2F2" fill-rule="evenodd" mask="url(#mask-16)"></path>
                    </g>
                    <g id="VECTOR-TREE" transform="translate(599.000000, 197.000000)">
                        <path d="M16.4204,78.2402 C15.9894,78.3182 4.8694,78.2872 3.1744,68.1492 C1.4804,58.0112 8.1724,54.6662 5.0014,43.5302 C1.8304,32.3942 -3.3766,29.6992 6.4634,20.1442 C6.4634,20.1442 10.8934,16.2432 10.5684,11.5372 C10.1804,5.9042 19.0874,-1.7318 26.0124,1.2442 C32.9364,4.2202 32.0894,10.1732 27.6314,20.1662 C23.1734,30.1602 28.7174,31.1632 30.1384,34.0572 C31.5604,36.9532 34.4074,39.8312 29.5854,47.7152 C24.7634,55.5982 32.5504,63.6202 28.5364,71.0982 C28.5364,71.0982 24.9024,76.7112 16.4204,78.2402" id="Fill-8" fill="#9CD1E2"></path>
                        <path d="M19.9668,93.6689 C20.1948,93.5809 20.3188,93.3299 20.2448,93.0939 C10.7028,62.6609 17.7308,18.8089 17.8028,18.3689 C17.8438,18.1149 17.6728,17.8749 17.4178,17.8339 C17.1638,17.7909 16.9248,17.9639 16.8828,18.2179 C16.8098,18.6599 9.7478,62.7319 19.3548,93.3729 C19.4318,93.6189 19.6938,93.7549 19.9398,93.6789 C19.9488,93.6759 19.9578,93.6719 19.9668,93.6689" id="Fill-9" fill="#7AB3C1"></path>
                        <path d="M15.6367,35.5127 C15.6617,35.5027 15.6857,35.4917 15.7087,35.4777 C15.9297,35.3457 16.0027,35.0597 15.8707,34.8387 C15.8397,34.7857 12.7467,29.5737 11.1927,24.9937 C11.1097,24.7507 10.8447,24.6197 10.6007,24.7027 C10.3547,24.7847 10.2267,25.0507 10.3087,25.2937 C11.8967,29.9677 15.0387,35.2627 15.0707,35.3157 C15.1877,35.5137 15.4287,35.5917 15.6367,35.5127" id="Fill-10" fill="#7AB3C1"></path>
                        <path d="M15.1582,45.1143 C15.2202,45.0913 15.2792,45.0523 15.3282,45.0013 C17.4292,42.8033 22.8592,38.4923 22.9142,38.4493 C23.1162,38.2893 23.1492,37.9963 22.9892,37.7943 C22.8302,37.5923 22.5372,37.5553 22.3342,37.7183 C22.1092,37.8963 16.8002,42.1123 14.6542,44.3563 C14.4762,44.5433 14.4822,44.8383 14.6692,45.0153 C14.8032,45.1443 14.9952,45.1763 15.1582,45.1143" id="Fill-11" fill="#7AB3C1"></path>
                        <path d="M14.9189,54.4365 C14.9499,54.4235 14.9809,54.4085 15.0099,54.3895 C15.2249,54.2475 15.2829,53.9575 15.1409,53.7435 L11.1219,47.6795 C10.9799,47.4655 10.6909,47.4055 10.4759,47.5485 C10.2609,47.6915 10.2019,47.9805 10.3449,48.1955 L14.3639,54.2585 C14.4869,54.4435 14.7189,54.5125 14.9189,54.4365" id="Fill-12" fill="#7AB3C1"></path>
                    </g>
                    <g id="VECTOR-TREE" transform="translate(105.000000, 136.000000)">
                        <path d="M26.8697455,129.013096 C26.1644727,129.141713 7.96810909,129.090596 5.19447273,112.373681 C2.42247273,95.656766 13.3730182,90.1410745 8.18410909,71.7785213 C2.9952,53.4159681 -5.52534545,48.9720851 10.5764727,33.2165 C10.5764727,33.2165 17.8255636,26.784 17.2937455,19.0241064 C16.6588364,9.73564894 31.2339273,-2.85562766 42.5657455,2.05160638 C53.8959273,6.95884043 52.5099273,16.7749574 45.2150182,33.2527766 C37.9201091,49.7322447 46.9921091,51.3861277 49.3173818,56.1581489 C51.6442909,60.9334681 56.3030182,65.6791064 48.4124727,78.6793191 C40.5219273,91.677883 53.2642909,104.905649 46.6959273,117.236394 C46.6959273,117.236394 40.7493818,126.491872 26.8697455,129.013096" id="Fill-8" fill="#9CD1E2"></path>
                        <path d="M32.6729455,154.454037 C33.0460364,154.308931 33.2489455,153.895048 33.1278545,153.505899 C17.5136727,103.323824 29.0140364,31.0146755 29.1318545,30.2891436 C29.1989455,29.8703138 28.9191273,29.4745691 28.5018545,29.4069628 C28.0862182,29.3360585 27.6951273,29.6213245 27.6264,30.0401543 C27.5069455,30.768984 15.9509455,103.440899 31.6714909,153.965952 C31.7974909,154.37159 32.2262182,154.595846 32.6287636,154.470527 C32.6434909,154.46558 32.6582182,154.458984 32.6729455,154.454037" id="Fill-9" fill="#7AB3C1"></path>
                        <path d="M25.5873273,58.5581755 C25.6282364,58.5416862 25.6675091,58.5235479 25.7051455,58.5004628 C26.0667818,58.2828032 26.1862364,57.8112074 25.9702364,57.4467926 C25.9195091,57.3593989 20.8582364,48.7651436 18.3153273,41.213016 C18.1795091,40.8123245 17.7458727,40.5963138 17.3466,40.7331755 C16.9440545,40.8683883 16.7346,41.3070053 16.8687818,41.7076968 C19.4673273,49.4148245 24.6087818,58.1459415 24.6611455,58.2333351 C24.8526,58.5598245 25.2469636,58.6884415 25.5873273,58.5581755" id="Fill-10" fill="#7AB3C1"></path>
                        <path d="M24.8043273,74.3906011 C24.9057818,74.3526755 25.0023273,74.288367 25.0825091,74.2042713 C28.5205091,70.5799096 37.4059636,63.4713457 37.4959636,63.4004415 C37.8265091,63.1366117 37.8805091,62.6534734 37.6186909,62.3203883 C37.3585091,61.9873032 36.8790545,61.9262926 36.5468727,62.1950691 C36.1786909,62.4885798 27.4912364,69.4404947 23.9796,73.1407074 C23.6883273,73.4490585 23.6981455,73.9354947 24.0041455,74.2273564 C24.2234182,74.4400691 24.5376,74.4928351 24.8043273,74.3906011" id="Fill-11" fill="#7AB3C1"></path>
                        <path d="M24.4127455,89.7623138 C24.4634727,89.7408777 24.5142,89.7161436 24.5616545,89.6848138 C24.9134727,89.4506649 25.0083818,88.9724734 24.7760182,88.6196011 L18.1994727,78.6204521 C17.9671091,78.2675798 17.4942,78.1686436 17.1423818,78.4044415 C16.7905636,78.6402394 16.6940182,79.1167819 16.9280182,79.4713032 L23.5045636,89.4688032 C23.7058364,89.7738564 24.0854727,89.887633 24.4127455,89.7623138" id="Fill-12" fill="#7AB3C1"></path>
                    </g>
                </g>
                <rect id="Rectangle-5" fill="#F5F6FA" fill-rule="nonzero" x="0" y="290" width="812" height="228"></rect>
            </g>
        </g>
    </g>
</svg>