<?xml version="1.0" encoding="UTF-8"?>
<svg width="1440px" height="921px" viewBox="0 0 1440 921" version="1.1" xmlns="http://www.w3.org/2000/svg" xmlns:xlink="http://www.w3.org/1999/xlink">
    <!-- Generator: Sketch 51.3 (57544) - http://www.bohemiancoding.com/sketch -->
    <title>BG</title>
    <desc>Created with Sketch.</desc>
    <defs>
        <path d="M422.897477,119.515019 C378.295163,212.507623 287.450292,210.524679 132.969278,239.734792 C-59.956562,276.215698 -62.5879669,566.316377 277.218512,630.580377 C495.484782,671.867623 809.16141,740.259472 924.219592,599.956377 C1022.28767,480.371321 938.819504,437.976604 897.024022,407.597736 C881.209278,396.098415 867.986468,385.710943 856.987196,376.509736 C828.42768,352.609358 822.143008,311.168906 842.159229,279.792 C955.778909,101.690415 806.358964,1.34822642 652.193719,1.34822642 C557.748209,1.35260377 461.522116,39.0066415 422.897477,119.515019 Z" id="path-1"></path>
        <polygon id="path-3" points="0.00131570248 3.87660635 2910.24749 3.87660635 2910.24749 928 0.00131570248 928"></polygon>
        <polygon id="path-5" points="0.0684272727 1.87395054 8.83676818 1.87395054 8.83676818 4.37634409 0.0684272727 4.37634409"></polygon>
    </defs>
    <g id="CUSTOMER-ADMIN" stroke="none" stroke-width="1" fill="none" fill-rule="evenodd">
        <g id="HOME---NEW">
            <g id="BG" transform="translate(-56.000000, -7.000000)">
                <g id="VECTOR-BACKGROUND" transform="translate(796.000000, 464.000000) scale(-1, 1) translate(-796.000000, -464.000000) ">
                    <path d="M913.065046,528.449965 C924.0747,537.65318 937.3056,548.042918 953.13966,559.544748 C994.974589,589.934622 1078.51714,632.334211 980.356508,751.945359 C865.194122,892.274688 551.221441,823.867916 332.749169,782.580419 C-7.37802485,718.298019 -4.74413633,428.138422 188.3594,391.649557 C342.990605,362.428692 433.916827,364.40769 478.565627,271.399175 C580.330299,59.4275014 1081.61635,144.441216 898.223084,431.711126 C878.187972,463.094878 884.478576,504.548751 913.065046,528.449965 Z" id="Fill-1" fill="#E5F6FD" fill-rule="evenodd"></path>
                    <g id="Group-5" stroke-width="1" fill-rule="evenodd" transform="translate(57.013774, 153.207547)">
                        <mask id="mask-2" fill="white">
                            <use xlink:href="#path-1"></use>
                        </mask>
                        <g id="Clip-4"></g>
                        <path d="M926.932132,322.890158 C1172.08698,499.021932 651.30562,583.990838 575.788683,268.348272 C500.262975,-47.289917 -6.93155923,226.330008 -6.93155923,226.330008 L323.015923,-65.4734642 L895.035118,-65.4734642 L926.932132,322.890158 Z" id="Fill-3" fill="#E5F6FD" mask="url(#mask-2)"></path>
                    </g>
                    <g id="Group-19" stroke-width="1" fill-rule="evenodd">
                        <mask id="mask-4" fill="white">
                            <use xlink:href="#path-3"></use>
                        </mask>
                        <g id="Clip-7"></g>
                        <polygon id="Fill-6" fill="#F5F6FA" mask="url(#mask-4)" points="50.0844077 993.660377 1578.84298 993.660377 1578.84298 723.489811 50.0844077 723.489811"></polygon>
                        <path d="M241.336236,261.117751 C241.336236,261.117751 232.718385,249.815411 227.433646,244.632619 C217.921117,235.308845 207.009558,218.819336 172.112743,230.970883 C169.402396,231.916392 166.775376,233.168317 164.161514,234.428996 C161.087156,235.917298 151.557084,235.952317 141.798958,227.118808 C126.291211,213.080619 120.225823,202.487411 98.9816132,202.159109 C74.2595636,201.778279 70.3738556,236.910958 51.1602138,245.902053 C38.9329521,251.627638 6.67192727,257.313826 0.00131570248,259.848317 L241.336236,261.117751 Z" id="Fill-13" fill="#E5F6FD" mask="url(#mask-4)"></path>
                        <path d="M855.999103,37.0324528 C855.999103,37.0324528 850.464381,30.6765283 847.069869,27.7612075 C840.960624,22.5171321 833.952315,13.2458868 811.541516,20.0789434 C809.800403,20.6129811 808.111918,21.3177358 806.432205,22.0268679 C804.458651,22.858566 798.340635,22.8804528 792.073505,17.9121509 C782.109252,10.0197736 778.219158,4.06656604 764.570938,3.87833962 C748.694794,3.66384906 746.199345,23.4188679 733.858056,28.474717 C726.003312,31.6920755 705.28977,34.8919245 701.00058,36.3189434 L855.999103,37.0324528 Z" id="Stroke-14" stroke="#E5F6FD" stroke-width="0.99" stroke-linecap="round" stroke-linejoin="round" mask="url(#mask-4)"></path>
                        <path d="M942.932829,205.921887 C942.932829,205.921887 947.836013,200.288226 950.840201,197.709962 C956.256509,193.061208 962.462239,184.849283 982.31619,190.90317 C983.859947,191.371547 985.355462,191.997509 986.842206,192.623472 C988.59209,193.367623 994.012785,193.385132 999.565049,188.985887 C1008.39341,181.990868 1011.84055,176.716151 1023.93186,176.554189 C1037.99672,176.361585 1040.21148,193.862264 1051.14059,198.344679 C1058.10065,201.189962 1076.45032,204.026491 1080.2527,205.28717 L942.932829,205.921887 Z" id="Fill-15" fill="#E5F6FD" mask="url(#mask-4)"></path>
                        <path d="M814.716306,261.777857 L813.185706,257.409253 L811.659491,261.777857 C810.370102,265.459215 807.313287,268.56714 803.164439,270.40563 C807.313287,272.244121 810.370102,275.352045 811.659491,279.033404 L813.185706,283.402008 L814.716306,279.033404 C816.001309,275.352045 819.06251,272.244121 823.206973,270.40563 C819.06251,268.56714 816.001309,265.459215 814.716306,261.777857" id="Fill-16" fill="#FFFFFF" mask="url(#mask-4)"></path>
                        <path d="M903.97137,627.792 L902.440769,623.423396 L900.914554,627.792 C899.625166,631.477736 896.56835,634.58566 892.423888,636.419774 C896.56835,638.258264 899.625166,641.366189 900.914554,645.047547 L902.440769,649.416151 L903.97137,645.047547 C905.260758,641.366189 908.317574,638.258264 912.462036,636.419774 C908.317574,634.58566 905.260758,631.477736 903.97137,627.792" id="Fill-17" fill="#FFFFFF" mask="url(#mask-4)"></path>
                        <path d="M302.688758,432.55043 L300.123138,425.222732 L297.561904,432.55043 C295.404152,438.726883 290.272912,443.940317 283.326003,447.021977 C290.272912,450.09926 295.404152,455.308317 297.561904,461.48477 L300.123138,468.812468 L302.688758,461.48477 C304.84651,455.308317 309.97775,450.09926 316.924659,447.021977 C309.97775,443.940317 304.84651,438.726883 302.688758,432.55043" id="Fill-18" fill="#FFFFFF" mask="url(#mask-4)"></path>
                    </g>
                    <g id="VECTOR-DASH-LINE" transform="translate(-21.928375, 319.547170)" stroke-width="1">
                        <path d="M1346.61364,301.967742 C1346.61364,301.967742 1345.11897,298.786913 1342.22727,293.215054" id="Stroke-1" stroke="#FFFFFF"></path>
                        <path d="M1333.45455,274.602478 C1283.888,214.188186 1124.46877,51.0337875 928.560792,170.25965 C691.359803,314.618103 711.600099,0 572.280637,0 C372.890225,0 487.924844,378.665812 17.5454545,402.623656" id="Stroke-3" stroke="#FFFFFF" stroke-dasharray="4.025,4.025"></path>
                        <g id="Group-7" fill-rule="evenodd" transform="translate(0.000000, 402.623656)">
                            <mask id="mask-6" fill="white">
                                <use xlink:href="#path-5"></use>
                            </mask>
                            <g id="Clip-6"></g>
                            <path d="M8.83676818,1.87395054 C5.93738182,1.99211183 3.01167727,2.09714409 0.0684272727,2.18904731" id="Stroke-5" stroke="#FFFFFF" mask="url(#mask-6)"></path>
                        </g>
                    </g>
                </g>
                <g id="VECTOR-TREE" transform="translate(854.000000, 440.000000)">
                    <path d="M51.7491394,248.870423 C50.3908364,249.11853 15.3459879,249.019923 10.0041697,216.772455 C4.66550303,184.524987 25.7554424,173.88504 15.7619879,138.463083 C5.76853333,103.041126 -10.6414061,94.4687319 20.369503,64.0757 C20.369503,64.0757 34.3307152,51.6672 33.3064727,36.6981149 C32.0836848,18.7803809 60.1542303,-5.50859787 81.9784727,3.95761489 C103.799564,13.4238277 101.13023,32.359434 87.0807758,64.1456787 C73.0313212,95.9351043 90.5033212,99.1254979 94.9816242,108.330881 C99.4630788,117.542626 108.435442,126.697115 93.2388364,151.774945 C78.0422303,176.849594 102.583079,202.366381 89.932897,226.152785 C89.932897,226.152785 78.4802909,244.006902 51.7491394,248.870423" id="Fill-8" fill="#9CD1E2"></path>
                    <path d="M62.9256727,297.94682 C63.6442182,297.666905 64.0350061,296.868512 63.8017939,296.117831 C33.7300364,199.31499 55.8788848,59.8283096 56.1057939,58.4287351 C56.2350061,57.6207989 55.696097,56.8573947 54.8924606,56.7269798 C54.0919758,56.5902032 53.3387636,57.1404904 53.2064,57.9484266 C52.9763394,59.3543628 30.7203394,199.540831 60.9969455,297.005288 C61.2396121,297.787778 62.0653091,298.220373 62.8405818,297.978629 C62.8689455,297.969086 62.8973091,297.956363 62.9256727,297.94682" id="Fill-9" fill="#7AB3C1"></path>
                    <path d="M49.279297,112.96061 C49.3580848,112.928801 49.4337212,112.893812 49.5062061,112.84928 C50.2026909,112.429407 50.4327515,111.519684 50.0167515,110.816716 C49.9190545,110.648131 40.1714182,94.0695351 35.2739636,79.5012372 C35.0123879,78.7282904 34.1772364,78.3115989 33.4082667,78.5756096 C32.6329939,78.8364394 32.2296,79.6825457 32.4880242,80.4554926 C37.4926303,95.3227904 47.3946909,112.165397 47.4955394,112.333982 C47.8642667,112.96379 48.6237818,113.211897 49.279297,112.96061" id="Fill-10" fill="#7AB3C1"></path>
                    <path d="M47.771297,143.501869 C47.9666909,143.42871 48.1526303,143.304656 48.3070545,143.142433 C54.9283879,136.150922 72.0411152,122.438273 72.2144485,122.301497 C72.8510545,121.792561 72.9550545,120.860571 72.4508121,120.218039 C71.9497212,119.575507 71.0263273,119.457816 70.3865697,119.976295 C69.6774788,120.542486 52.9460848,133.952954 46.1829333,141.090784 C45.6219636,141.685603 45.6408727,142.623954 46.2302061,143.186965 C46.6525091,143.597295 47.2576,143.699082 47.771297,143.501869" id="Fill-11" fill="#7AB3C1"></path>
                    <path d="M47.0171394,173.154399 C47.1148364,173.113048 47.2125333,173.065335 47.3039273,173.004899 C47.981503,172.553218 48.1642909,171.630771 47.7167758,170.950069 L35.0508364,151.661388 C34.6033212,150.980686 33.6925333,150.789835 33.0149576,151.244697 C32.3373818,151.699559 32.1514424,152.618824 32.6021091,153.302707 L45.2680485,172.588207 C45.6556848,173.176665 46.3868364,173.396144 47.0171394,173.154399" id="Fill-12" fill="#7AB3C1"></path>
                </g>
            </g>
        </g>
    </g>
</svg>