<?xml version="1.0" encoding="UTF-8"?>
<svg width="214px" height="201px" viewBox="0 0 214 201" version="1.1" xmlns="http://www.w3.org/2000/svg" xmlns:xlink="http://www.w3.org/1999/xlink">
    <!-- Generator: Sketch 51.3 (57544) - http://www.bohemiancoding.com/sketch -->
    <title>stats</title>
    <desc>Created with Sketch.</desc>
    <defs></defs>
    <g id="STATIC-PAGES" stroke="none" stroke-width="1" fill="none" fill-rule="evenodd">
        <g id="PARTNER-WITH-US" transform="translate(-783.000000, -732.000000)" fill-rule="nonzero">
            <g id="DOOR-TO-DOOR" transform="translate(745.000000, 695.000000)">
                <g id="Group">
                    <g id="stats" transform="translate(38.000000, 37.000000)">
                        <path d="M214,39.9874 L214,155.0126 C214,160.099867 210.548032,164.3834 205.856802,165.6301 C204.954029,165.87259 204.005661,166 203.029936,166 L17.9705199,166 C11.9109958,166 7,161.0817 7,155.0126 L7,39.9874 C7,33.9183 11.9109958,29 17.9705199,29 L203.029936,29 C204.005661,29 204.954029,29.1278667 205.856802,29.3699 C210.548032,30.6166 214,34.9001333 214,39.9874" id="Shape" fill="#E6E6E6"></path>
                        <path d="M214,40.0275 L214,51 L7,51 L7,40.0275 C7,33.93625 11.9110066,29 17.9700881,29 L203.029912,29 C209.088993,29.0004583 214,33.9367083 214,40.0275" id="Shape" fill="#B3B3B3"></path>
                        <rect id="Rectangle-path" fill="#999999" x="19" y="58" width="55" height="7"></rect>
                        <polyline id="Shape" fill="#FFFFFF" points="201 95 117 95 117 155 201 155 201 95"></polyline>
                        <polyline id="Shape" fill="#29ABE2" points="198 144 121 144 121 151 198 151 198 144"></polyline>
                        <polyline id="Shape" fill="#FC7A51" points="131 129 121 129 121 136 131 136 131 129"></polyline>
                        <polyline id="Shape" fill="#F9DE58" points="160 115 121 115 121 122 160 122 160 115"></polyline>
                        <polyline id="Shape" fill="#999999" points="188 100 121 100 121 107 188 107 188 100"></polyline>
                        <circle id="Oval" fill="#FC7A51" cx="22" cy="40" r="7"></circle>
                        <circle id="Oval" fill="#F9DE58" cx="40" cy="40" r="7"></circle>
                        <path d="M211.786521,34.0640884 C213.175739,35.9061734 213.999541,38.1973353 213.999541,40.6803047 L213.999541,51.6394285 L203.296547,51.6394285 C203.314905,68.0730787 194.383887,83.9509906 178.768834,92.0824407 C177.804137,92.5040511 176.830721,92.8968217 175.847666,93.2607525 L177.120772,95.692909 L202.005542,95.692909 L202.005542,155.996014 L136,155.996014 L139.362211,167 L202.957848,167 C203.939984,167 204.894584,166.871823 205.80329,166.629203 C210.525806,165.379478 214,161.085552 214,155.985943 L214,40.681678 C214.000459,38.1982508 213.176657,35.9066312 211.786521,34.0640884 M211.768622,34.0407419 C211.77413,34.0480663 211.779178,34.054933 211.785144,34.0622573 C211.779637,34.0553907 211.77413,34.0476086 211.768622,34.0407419 M211.7521,34.0187688 C211.755772,34.0233465 211.758984,34.0279243 211.762656,34.032502 C211.758984,34.0279243 211.755772,34.0233465 211.7521,34.0187688 M211.737873,34 C211.73925,34.0018311 211.740627,34.0036622 211.742004,34.0054933 C211.740627,34.0036622 211.73925,34.0018311 211.737873,34" id="Shape" fill="#EEEEEE"></path>
                        <path d="M202.575008,29 L197,29 C197.188066,29.3281872 197.372332,29.6586662 197.553274,29.9932704 C201.188736,36.7137738 202.916471,43.9091402 202.924545,51 L214,51 L214,40.0268142 C214,37.5406588 213.14753,35.2465571 211.709968,33.4021085 C211.709493,33.4016501 211.709018,33.4011917 211.708543,33.4007334 C211.702844,33.3933996 211.69762,33.3865242 211.691446,33.3791904 C211.689071,33.3764402 211.687172,33.37369 211.684797,33.3709399 C211.680998,33.3663562 211.677673,33.3617726 211.673874,33.357189 C211.67055,33.3526054 211.667225,33.3484801 211.663426,33.3438965 C211.662001,33.342063 211.660577,33.3402296 211.659152,33.3383961 C210.145603,31.4265683 207.998519,30.0065629 205.518522,29.3717316 C204.579143,29.1283414 203.591323,29 202.575008,29" id="Shape" fill="#CBCBCB"></path>
                        <path d="M201,95 L176.294118,95 L178.720873,99.6467422 C178.484394,99.7701756 178.247004,99.8913316 178.009614,100.01021 L186.952066,100.01021 L186.952066,107.540101 L121,107.540101 L123.146535,114.580357 L159.157835,114.580357 L159.157835,122.110247 L125.442065,122.110247 L127.5886,129.150959 L129.996674,129.150959 L129.996674,136.68085 L129.884586,136.68085 L132.03112,143.721106 L197.432314,143.721106 L197.432314,151.250996 L134.326651,151.250996 L135.469859,155 L201,155 L201,95" id="Shape" fill="#FFFFFF"></path>
                        <polyline id="Shape" fill="#6EC6EB" points="198 144 133 144 135.281901 151 198 151 198 144"></polyline>
                        <polyline id="Shape" fill="#FDA589" points="131 129 129 129 130.906906 136 131 136 131 129"></polyline>
                        <polyline id="Shape" fill="#FBE98E" points="160 115 124 115 126.29481 122 160 122 160 115"></polyline>
                        <path d="M112.82198,51 L105,51 L118.354923,95 L147,95 C146.332914,94.8710643 145.66765,94.7297837 145.003751,94.5752437 L144.547947,94.4691689 C133.491169,90.9828751 123.760823,83.2627346 117.972885,72.1317414 C114.457593,65.3708461 112.801945,58.1312426 112.82198,51" id="Shape" fill="#EEEEEE"></path>
                        <path d="M117,29 L97,29 L103.608539,51 L111.369099,51 C111.381748,46.379615 112.089225,41.8041503 113.441382,37.4349529 C114.344477,34.516043 115.535803,31.688349 117,29" id="Shape" fill="#CBCBCB"></path>
                        <path d="M146.268157,95 L117,95 L120.320048,106 L120.320048,100.167628 L145.435818,100.167628 L147,95.137177 C146.756207,95.0930173 146.511949,95.0474482 146.268157,95" id="Shape" fill="#FFFFFF"></path>
                        <path d="M188,100 L178.993548,100 C172.454164,103.01857 165.49213,104.451851 158.626007,104.451851 C153.957575,104.451851 149.33274,103.788773 144.919,102.510041 L145.773021,100 L121,100 L121,105.256775 L121.575925,107 L188,107 L188,100" id="Shape" fill="#BABABA"></path>
                        <path d="M175.726053,93 C172.879542,93.8658009 169.959985,94.5332204 167,95 L177,95 L175.726053,93" id="Shape" fill="#CECECE"></path>
                        <path d="M177.550411,95 L167.542866,95 C164.127786,95.6490909 160.658914,95.9759091 157.181767,95.9759091 C153.963923,95.9759091 150.738263,95.6959091 147.545705,95.1327273 L146,100 L179.282318,100 C179.521852,99.8813636 179.761386,99.7604545 180,99.6372727 L177.550411,95" id="Shape" fill="#DBDBDB"></path>
                        <path d="M179,100 L145.852152,100 L145,102.819098 C149.404083,104.255279 154.018801,105 158.677019,105 C165.52812,105 172.475381,103.390242 179,100" id="Shape" fill="#A4A4A4"></path>
                        <path d="M157.461632,6 C150.420572,6 143.276894,7.63157792 136.604074,11.0732787 C128.451482,15.2785059 122.140091,21.6002536 118,29 L197,29 C191.175358,18.6013263 181.725071,11.3751902 171.028399,8.05820168 C166.659917,6.7034133 162.082569,6 157.461632,6" id="Shape" fill="#DBDBDB"></path>
                        <polyline id="Shape" fill="#9F9F9F" points="196.999092 29 118.000908 29 118 29.003 197 29.003 196.999092 29"></polyline>
                        <path d="M202.999971,51 L112.000177,51 C111.98023,58.1312426 113.643493,65.3703888 117.174952,72.1317414 C122.98951,83.2627346 132.764608,90.9828751 143.872238,94.4691689 L144.330138,94.5752437 C144.99709,94.7297837 145.665414,94.8710643 146.335568,95 L166.952064,95 C169.899369,94.4335058 172.805962,93.6228568 175.640736,92.5707962 C176.620578,92.2073072 177.590815,91.8150134 178.55236,91.3939148 C194.116399,83.2723362 203.018696,67.4141572 202.999971,51" id="Shape" fill="#CECECE"></path>
                        <path d="M197.293373,29 L117.702052,29 C116.219473,31.688349 115.013191,34.5155846 114.0983,37.4349529 C112.729167,41.8041503 112.012808,46.3800733 112,51 L203,51 C202.992223,43.9094508 201.327581,36.7134761 197.826297,29.9928327 C197.65201,29.6586799 197.474521,29.328194 197.293373,29" id="Shape" fill="#B2B2B2"></path>
                        <path d="M167,95 L146,95 C146.244159,95.0470424 146.488784,95.0922217 146.733409,95.1360037 C149.969447,95.713088 153.238102,96 156.499301,96 C160.023298,96 163.538907,95.6651141 167,95" id="Shape" fill="#DBDBDB"></path>
                        <path d="M157,44.6212899 L154.629289,52.2526873 L143.522234,88 C132.537334,84.515803 122.868994,76.7929568 117.118661,65.6636451 C111.368329,54.5297609 110.62635,42.1018771 114.073835,31 L151.833297,42.979785 L157,44.6212899 Z" id="Shape" fill="#F9DE58"></path>
                        <path d="M180,92.8828318 C176.547085,94.6471585 172.969533,95.9409981 169.345819,96.7869701 C161.175152,98.6915382 152.769058,98.3160533 145,95.9229024 L157.219071,57.7908256 L158.751649,53 L180,92.8828318 Z" id="Shape" fill="#29ABE2"></path>
                        <path d="M177.799487,85 L156.961642,45.0641545 L151.790669,43.4377259 L114,31.567968 C117.454862,20.5635246 125.098122,10.8819702 136.119269,5.12377856 C137.273908,4.52122978 138.437603,3.97304631 139.619411,3.48375858 C149.703262,-0.743143726 160.60668,-1.01497024 170.450547,2.07932159 C181.449053,5.53151833 191.125385,13.1789043 196.88047,24.2105304 C208.386112,46.269252 199.846308,73.4836166 177.799487,85 Z" id="Shape" fill="#FC7A51"></path>
                        <polyline id="Shape" fill="#FFFFFF" points="102 70 18 70 18 154 102 154 102 70"></polyline>
                        <polyline id="Shape" fill="#2BE0C6" points="43 109 26 109 26 150 43 150 43 109"></polyline>
                        <polyline id="Shape" fill="#F9DE58" points="70 96 53 96 53 151 70 151 70 96"></polyline>
                        <polyline id="Shape" fill="#FC7A51" points="96 80 79 80 79 149 96 149 96 80"></polyline>
                        <polyline id="Shape" fill="#29ABE2" points="111 141 111 201 0 201 0 141 111 141"></polyline>
                        <polyline id="Shape" fill="#F2F2F2" points="7 194 7 149 104 149 104 194 7 194"></polyline>
                        <polyline id="Shape" fill="#FC7A51" points="49.3556072 190 40.0136809 179.83143 36.059101 185.223344 33 182.959067 39.6844341 173.84516 48.5799777 183.527522 62.5503545 158.183344 73.1993184 175.378307 85.6853709 153 89 154.866676 73.3698212 182.879093 62.7412092 165.716847 49.3556072 190"></polyline>
                        <rect id="Rectangle-path" fill="#999999" x="12" y="157" width="12" height="5"></rect>
                        <rect id="Rectangle-path" fill="#999999" x="12" y="169" width="12" height="5"></rect>
                        <rect id="Rectangle-path" fill="#999999" x="12" y="181" width="12" height="5"></rect>
                        <polyline id="Shape" fill="#6EC6EB" points="111 141 95.8545248 141 79.5304435 141 69.5909703 141 53.265982 141 43.3265088 141 43 141 45.0728776 147.976744 104.195919 147.976744 104.195919 194.023256 58.7535979 194.023256 60.8264755 201 111 201 111 141"></polyline>
                        <polyline id="Shape" fill="#F6F6F6" points="104 149 45 149 53.1869147 175.986364 63.0056913 158.179091 73.6612157 175.379545 86.1549607 152.994091 89.4716318 154.861364 73.8318236 182.882727 63.1966635 165.715 54.7296261 181.070455 58.6522493 194 104 194 104 149"></polyline>
                        <polyline id="Shape" fill="#FDA589" points="85.709354 153 73.3136443 176.217824 62.7417311 158.377796 53 176.847206 54.5306061 182.120341 62.9312048 166.193917 73.4829134 184 89 154.936704 85.709354 153"></polyline>
                        <path d="M179.731204,183.900874 L183.608862,174.457774 L195.148609,185.998173 C195.817659,186.667261 196.696473,187.003177 197.572088,186.999977 C198.450902,186.999977 199.326974,186.667261 199.995567,185.998173 C201.33641,184.657255 201.333211,182.48866 199.995567,181.150483 L188.455821,169.610084 L197.901586,165.729007 L162,148 L179.731204,183.900874 Z" id="Shape" fill="#CCCCCC"></path>
                        <path d="M179.733516,183.900874 L183.61158,174.457774 L195.152534,185.998173 C195.821655,186.667261 196.70056,187.003177 197.576267,186.999977 C198.455173,186.999977 199.331337,186.667261 200,185.998173 L162,148 L179.733516,183.900874 Z" id="Shape" fill="#808080"></path>
                    </g>
                </g>
            </g>
        </g>
    </g>
</svg>