<?xml version="1.0" encoding="UTF-8"?>
<svg width="205px" height="205px" viewBox="0 0 205 205" version="1.1" xmlns="http://www.w3.org/2000/svg" xmlns:xlink="http://www.w3.org/1999/xlink">
    <!-- Generator: Sketch 51.3 (57544) - http://www.bohemiancoding.com/sketch -->
    <title>money (2)</title>
    <desc>Created with Sketch.</desc>
    <defs></defs>
    <g id="STATIC-PAGES" stroke="none" stroke-width="1" fill="none" fill-rule="evenodd">
        <g id="PARTNER-WITH-US" transform="translate(-157.000000, -1096.000000)" fill-rule="nonzero">
            <g id="CONSILIDATE" transform="translate(108.000000, 1058.000000)">
                <g id="Group">
                    <g id="money-(2)" transform="translate(49.000000, 38.000000)">
                        <rect id="Rectangle-path" fill="#31978C" transform="translate(106.000000, 84.000000) rotate(149.650359) translate(-106.000000, -84.000000) " x="18" y="39" width="176" height="90"></rect>
                        <path d="M148.779686,17 L28.5834583,87.4060295 C31.1977474,91.8725739 29.592783,97.6743949 25,100.364615 L52.1693651,146.784624 C56.7625664,144.094403 62.6056071,145.533456 65.2194779,150 L185.416123,79.5939705 C182.801834,75.1274261 184.405962,69.3260236 189,66.6353846 L161.829798,20.2153763 C157.236179,22.9064338 151.393975,21.4665444 148.779686,17 Z" id="Shape" fill="#44C4A1"></path>
                        <g id="Group" transform="translate(70.000000, 44.000000)" fill="#31978C">
                            <ellipse id="Oval" transform="translate(36.914441, 40.109462) rotate(-120.349641) translate(-36.914441, -40.109462) " cx="36.9144407" cy="40.1094616" rx="30.785766" ry="24.0911799"></ellipse>
                            <ellipse id="Oval" cx="96.3522222" cy="5.63810526" rx="5.5017037" ry="5.44975263"></ellipse>
                        </g>
                        <circle id="Oval" fill="#3EA69B" cx="47.5" cy="118.5" r="5.5"></circle>
                        <path d="M118.598696,106 L116.376961,102.292724 C111.342973,104.53683 105.972934,105.131101 100.272763,104.074298 L101.419561,97.4856961 C105.811038,98.2922361 109.687662,98.0502328 113.060421,96.7588602 L107.155661,86.9065175 C102.691056,88.2338189 99.1022942,88.6719853 96.3906445,88.2226686 C93.6789948,87.7733519 91.4454239,86.0846974 89.6907774,83.1567052 C87.9361308,80.228713 87.5455518,77.2358838 88.526649,74.1720228 C89.5090144,71.1098138 91.6293004,68.5345022 94.8908887,66.4415453 L93.3687297,63.9021625 L96.6937237,62 L98.2454721,64.5893528 C102.220163,62.6818216 106.584587,61.8889097 111.341282,62.214747 L110.761331,68.8202808 C107.519187,68.538219 104.45627,68.9722556 101.562857,70.1252816 L107.284163,79.6720228 L107.440564,79.5824073 C111.97407,78.2183511 115.641878,77.7793588 118.443986,78.2658432 C121.25159,78.7519147 123.541381,80.4777369 125.315894,83.4387671 C127.091676,86.4018621 127.463656,89.4302072 126.429298,92.5192596 C125.397476,95.6124418 123.167287,98.2505256 119.73239,100.443009 L121.923268,104.09825 L118.598696,106 Z M95.2861175,75.3188542 C94.8579178,76.5850353 94.98642,77.7851404 95.6661289,78.9195825 C96.3458378,80.0540246 97.2305584,80.7523652 98.3190227,81.0146043 C99.4049506,81.2813861 101.104646,81.1607974 103.411767,80.6598588 L98.1461365,71.8738174 C96.6670933,72.9029509 95.7134718,74.0506082 95.2861175,75.3188542 Z M119.574721,91.3261751 C120.077739,89.9951569 119.975868,88.7351704 119.265301,87.5491065 C118.55558,86.3651074 117.611681,85.6428142 116.434026,85.383879 C115.252144,85.1274215 113.440855,85.2897207 110.998468,85.8682985 L116.475874,95.0078465 C118.03819,93.8895104 119.068744,92.661736 119.574721,91.3261751 Z" id="Shape" fill="#44C4A1"></path>
                        <rect id="Rectangle-path" fill="#F6C358" transform="translate(106.500000, 84.000000) rotate(149.650359) translate(-106.500000, -84.000000) " x="89" y="39" width="35" height="90"></rect>
                        <g id="Group" transform="translate(71.000000, 37.000000)" fill="#FFFFFF">
                            <rect id="Rectangle-path" transform="translate(24.008309, 52.688292) rotate(149.650359) translate(-24.008309, -52.688292) " x="22.6985045" y="7.93436377" width="2.61960951" height="89.5078562"></rect>
                            <rect id="Rectangle-path" transform="translate(46.930164, 39.294251) rotate(149.650359) translate(-46.930164, -39.294251) " x="45.6203595" y="-5.45967736" width="2.61960951" height="89.5078562"></rect>
                        </g>
                        <rect id="Rectangle-path" fill="#3EA69B" transform="translate(107.000000, 114.000000) rotate(169.117070) translate(-107.000000, -114.000000) " x="19" y="69" width="176" height="90"></rect>
                        <path d="M33.0524704,160.912787 L21,97.9540913 C24.4641756,97.285677 26.7324601,93.9244007 26.0667363,90.4462251 L173.469883,62 C174.135607,65.4781757 177.48377,67.7556272 180.94753,67.0872129 L193,130.045909 C189.535824,130.714323 187.26754,134.075599 187.933264,137.553775 L40.5301165,166 C39.8643927,162.521824 36.516646,160.243955 33.0524704,160.912787 Z" id="Shape" fill="#44C4A1"></path>
                        <g id="Group" transform="translate(35.000000, 79.000000)" fill="#3EA69B">
                            <ellipse id="Oval" transform="translate(72.955643, 35.115052) rotate(-100.882930) translate(-72.955643, -35.115052) " cx="72.9556426" cy="35.115052" rx="30.6800298" ry="24.2850181"></ellipse>
                            <ellipse id="Oval" cx="140.369587" cy="22.135509" rx="5.48315759" ry="5.4939521"></ellipse>
                            <ellipse id="Oval" cx="5.54967335" cy="48.1017365" rx="5.48315759" ry="5.4939521"></ellipse>
                        </g>
                        <path d="M72,190.148662 C72,198.350583 55.8823886,205 36,205 C16.1176114,205 0,198.350583 0,190.148662 L0,178 L72,178 L72,190.148662 Z" id="Shape" fill="#F6C358"></path>
                        <ellipse id="Oval" fill="#FCD462" cx="36" cy="178" rx="36" ry="15"></ellipse>
                        <g id="Group" transform="translate(4.000000, 165.000000)" fill="#DC8744">
                            <path d="M31.616404,0.391525424 C14.3673377,0.391525424 0.38384106,5.89661017 0.38384106,12.6877119 C0.38384106,19.4788136 14.3673377,24.9838983 31.616404,24.9838983 C48.8654702,24.9838983 62.8489669,19.4788136 62.8489669,12.6877119 C62.8489669,5.89661017 48.8654702,0.391525424 31.616404,0.391525424 Z M31.616404,23.6173729 C16.2840397,23.6173729 3.8542649,18.7237288 3.8542649,12.6872881 C3.8542649,6.65084746 16.2840397,1.75720339 31.616404,1.75720339 C46.9487682,1.75720339 59.378543,6.65084746 59.378543,12.6872881 C59.378543,18.7241525 46.9487682,23.6173729 31.616404,23.6173729 Z" id="Shape"></path>
                            <path d="M30.4728079,21.1817797 L30.4728079,19.6855932 C25.7156821,19.4944915 21.4454503,18.75 17.6671192,17.4525424 L21.4667285,15.6699153 C24.381,16.6673729 27.3803841,17.2610169 30.4728079,17.4525424 L30.4728079,13.4766949 C26.5501192,13.1080508 23.6779868,12.6228814 21.8564106,12.0216102 C20.0348344,11.420339 19.1240464,10.5288136 19.1240464,9.34745763 C19.1240464,8.16567797 20.1704305,7.19957627 22.271543,6.4470339 C24.3726556,5.69576271 27.1050199,5.28644068 30.4728079,5.21779661 L30.4728079,4.19279661 L33.8022119,4.19279661 L33.8022119,5.23771186 C37.6189272,5.34788136 41.2282848,5.85974576 44.6298675,6.77542373 L41.2453907,8.66101695 C38.9536093,8.0190678 36.4753311,7.62288136 33.8026291,7.4720339 L33.8026291,11.3245763 L33.9595033,11.3245763 C37.9497815,11.6940678 40.8811589,12.1927966 42.7536358,12.820339 C44.6302848,13.4491525 45.5665232,14.3614407 45.5665232,15.5563559 C45.5665232,16.7521186 44.4905166,17.7262712 42.3385033,18.4766949 C40.1864901,19.2288136 37.3439801,19.6381356 33.8026291,19.7067797 L33.8026291,21.1817797 L30.4728079,21.1817797 Z M26.8000331,7.95423729 C25.9146954,8.26101695 25.4741126,8.6440678 25.4741126,9.10169492 C25.4741126,9.55932203 25.8216556,9.92161017 26.5163245,10.1872881 C27.2068212,10.4542373 28.5285695,10.7101695 30.4728079,10.9559322 L30.4728079,7.41016949 C28.9094901,7.46525424 27.6853709,7.64661017 26.8000331,7.95423729 Z M37.7586954,16.9398305 C38.7287285,16.6262712 39.2160397,16.2300847 39.2160397,15.7516949 C39.2160397,15.2737288 38.834702,14.8944915 38.0724437,14.6144068 C37.305596,14.334322 35.8824636,14.0716102 33.8026291,13.8254237 L33.8026291,17.5135593 C35.4669139,17.4461864 36.7844901,17.2542373 37.7586954,16.9398305 Z" id="Shape"></path>
                        </g>
                        <path d="M72,175.148662 C72,183.350583 55.8823886,190 36,190 C16.1176114,190 0,183.350995 0,175.148662 L0,163 L72,163 L72,175.148662 Z" id="Shape" fill="#F6C358"></path>
                        <ellipse id="Oval" fill="#FCD462" cx="36" cy="163" rx="36" ry="15"></ellipse>
                        <g id="Group" transform="translate(4.000000, 151.000000)" fill="#DC8744">
                            <path d="M31.616404,0.0402542373 C14.3673377,0.0402542373 0.38384106,5.54533898 0.38384106,12.3364407 C0.38384106,19.1275424 14.3673377,24.6326271 31.616404,24.6326271 C48.8654702,24.6326271 62.8489669,19.1275424 62.8489669,12.3364407 C62.8489669,5.54533898 48.8654702,0.0402542373 31.616404,0.0402542373 Z M31.616404,23.2661017 C16.2840397,23.2661017 3.8542649,18.3724576 3.8542649,12.3360169 C3.8542649,6.29957627 16.2840397,1.4059322 31.616404,1.4059322 C46.9487682,1.4059322 59.378543,6.29957627 59.378543,12.3360169 C59.378543,18.3728814 46.9487682,23.2661017 31.616404,23.2661017 Z" id="Shape"></path>
                            <path d="M30.4728079,20.8305085 L30.4728079,19.334322 C25.7156821,19.1432203 21.4454503,18.3987288 17.6671192,17.1012712 L21.4667285,15.3186441 C24.381,16.3161017 27.3803841,16.9097458 30.4728079,17.1012712 L30.4728079,13.1254237 C26.5501192,12.7567797 23.6779868,12.2716102 21.8564106,11.670339 C20.0348344,11.0690678 19.1240464,10.1775424 19.1240464,8.99618644 C19.1240464,7.81440678 20.1704305,6.84830508 22.271543,6.09576271 C24.3726556,5.34449153 27.1050199,4.93516949 30.4728079,4.86652542 L30.4728079,3.84152542 L33.8022119,3.84152542 L33.8022119,4.88644068 C37.6189272,4.99661017 41.2282848,5.50847458 44.6298675,6.42415254 L41.2453907,8.30974576 C38.9536093,7.66779661 36.4753311,7.27161017 33.8026291,7.12076271 L33.8026291,10.9733051 L33.9595033,10.9733051 C37.9497815,11.3427966 40.8811589,11.8415254 42.7536358,12.4694915 C44.6302848,13.0983051 45.5665232,14.0105932 45.5665232,15.2055085 C45.5665232,16.4012712 44.4905166,17.3754237 42.3385033,18.1258475 C40.1864901,18.8779661 37.3439801,19.2872881 33.8026291,19.3559322 L33.8026291,20.8309322 L30.4728079,20.8309322 L30.4728079,20.8305085 Z M26.8000331,7.6029661 C25.9146954,7.90974576 25.4741126,8.29279661 25.4741126,8.75042373 C25.4741126,9.20805085 25.8216556,9.57033898 26.5163245,9.83601695 C27.2068212,10.1029661 28.5285695,10.3588983 30.4728079,10.604661 L30.4728079,7.05889831 C28.9094901,7.11440678 27.6853709,7.29533898 26.8000331,7.6029661 Z M37.7586954,16.5885593 C38.7287285,16.275 39.2160397,15.8788136 39.2160397,15.4004237 C39.2160397,14.9224576 38.834702,14.5432203 38.0724437,14.2631356 C37.305596,13.9830508 35.8824636,13.720339 33.8026291,13.4741525 L33.8026291,17.1622881 C35.4669139,17.0949153 36.7844901,16.9029661 37.7586954,16.5885593 Z" id="Shape"></path>
                        </g>
                        <path d="M72,160.148662 C72,168.350583 55.8823886,175 36,175 C16.1176114,175 0,168.350995 0,160.148662 L0,148 L72,148 L72,160.148662 Z" id="Shape" fill="#F6C358"></path>
                        <ellipse id="Oval" fill="#FCD462" cx="36" cy="148" rx="36" ry="15"></ellipse>
                        <g id="Group" transform="translate(4.000000, 136.000000)" fill="#DC8744">
                            <path d="M31.616404,0.112711864 C14.3673377,0.112711864 0.38384106,5.61779661 0.38384106,12.4088983 C0.38384106,19.2 14.3673377,24.7050847 31.616404,24.7050847 C48.8654702,24.7050847 62.8489669,19.2 62.8489669,12.4088983 C62.8489669,5.61779661 48.8654702,0.112711864 31.616404,0.112711864 Z M31.616404,23.3389831 C16.2840397,23.3389831 3.8542649,18.445339 3.8542649,12.4088983 C3.8542649,6.37245763 16.2840397,1.47881356 31.616404,1.47881356 C46.9487682,1.47881356 59.378543,6.37245763 59.378543,12.4088983 C59.378543,18.445339 46.9487682,23.3389831 31.616404,23.3389831 Z" id="Shape"></path>
                            <path d="M30.4728079,20.9033898 L30.4728079,19.4072034 C25.7156821,19.2161017 21.4454503,18.4716102 17.6671192,17.1741525 L21.4667285,15.3915254 C24.381,16.3889831 27.3803841,16.9826271 30.4728079,17.1741525 L30.4728079,13.1983051 C26.5501192,12.829661 23.6779868,12.3444915 21.8564106,11.7432203 C20.0348344,11.1419492 19.1240464,10.2504237 19.1240464,9.0690678 C19.1240464,7.88771186 20.1704305,6.92118644 22.271543,6.16864407 C24.3726556,5.41737288 27.1050199,5.00805085 30.4728079,4.93940678 L30.4728079,3.91440678 L33.8022119,3.91440678 L33.8022119,4.95932203 C37.6189272,5.06949153 41.2282848,5.58135593 44.6298675,6.4970339 L41.2453907,8.38262712 C38.9536093,7.74067797 36.4753311,7.34449153 33.8026291,7.19364407 L33.8026291,11.0461864 L33.9595033,11.0461864 C37.9497815,11.415678 40.8811589,11.9144068 42.7536358,12.5423729 C44.6302848,13.1711864 45.5665232,14.0834746 45.5665232,15.2783898 C45.5665232,16.4741525 44.4905166,17.4483051 42.3385033,18.1987288 C40.1864901,18.9508475 37.3439801,19.3601695 33.8026291,19.4288136 L33.8026291,20.9038136 L30.4728079,20.9038136 L30.4728079,20.9033898 Z M26.8000331,7.67542373 C25.9146954,7.98220339 25.4741126,8.36525424 25.4741126,8.82288136 C25.4741126,9.28050847 25.8216556,9.64237288 26.5163245,9.90847458 C27.2068212,10.1754237 28.5285695,10.4313559 30.4728079,10.6771186 L30.4728079,7.13135593 C28.9094901,7.18686441 27.6853709,7.36779661 26.8000331,7.67542373 Z M37.7586954,16.6614407 C38.7287285,16.3478814 39.2160397,15.9516949 39.2160397,15.4733051 C39.2160397,14.995339 38.834702,14.6161017 38.0724437,14.3360169 C37.305596,14.0559322 35.8824636,13.7932203 33.8026291,13.5470339 L33.8026291,17.2351695 C35.4669139,17.1673729 36.7844901,16.9754237 37.7586954,16.6614407 Z" id="Shape"></path>
                        </g>
                        <path d="M72,145.148662 C72,153.350583 55.8823886,160 36,160 C16.1176114,160 0,153.350995 0,145.148662 L0,133 L72,133 L72,145.148662 Z" id="Shape" fill="#F6C358"></path>
                        <ellipse id="Oval" fill="#FCD462" cx="36" cy="133" rx="36" ry="15"></ellipse>
                        <g id="Group" transform="translate(4.000000, 121.000000)" fill="#DC8744">
                            <path d="M31.4206009,0.182672277 C14.2783596,0.182672277 0.381463899,5.61351488 0.381463899,12.3130311 C0.381463899,19.0125473 14.2783596,24.4433899 31.4206009,24.4433899 C48.5628421,24.4433899 62.4597378,19.0125473 62.4597378,12.3130311 C62.4597378,5.61351488 48.5628421,0.182672277 31.4206009,0.182672277 Z M31.4206009,23.0957116 C16.1831913,23.0957116 3.83039511,18.2680637 3.83039511,12.3130311 C3.83039511,6.35799846 16.1831913,1.53035058 31.4206009,1.53035058 C46.6580104,1.53035058 59.0108066,6.35799846 59.0108066,12.3130311 C59.0108066,18.2680637 46.6580104,23.0957116 31.4206009,23.0957116 Z" id="Shape"></path>
                        </g>
                        <path d="M147,190.148662 C147,198.350583 130.882389,205 111,205 C91.1176114,205 75,198.350995 75,190.148662 L75,178 L147,178 L147,190.148662 Z" id="Shape" fill="#F6C358"></path>
                        <ellipse id="Oval" fill="#FCD462" cx="111" cy="178" rx="36" ry="15"></ellipse>
                        <g id="Group" transform="translate(80.000000, 165.000000)" fill="#DC8744">
                            <path d="M31.5675894,0.391525424 C14.3185232,0.391525424 0.33502649,5.89661017 0.33502649,12.6877119 C0.33502649,19.4788136 14.3185232,24.9838983 31.5675894,24.9838983 C48.8166556,24.9838983 62.8001523,19.4788136 62.8001523,12.6877119 C62.8001523,5.89661017 48.8170728,0.391525424 31.5675894,0.391525424 Z M31.5675894,23.6173729 C16.2352252,23.6173729 3.80545033,18.7237288 3.80545033,12.6872881 C3.80545033,6.65084746 16.2352252,1.75720339 31.5675894,1.75720339 C46.8999536,1.75720339 59.3297285,6.65084746 59.3297285,12.6872881 C59.3297285,18.7241525 46.8999536,23.6173729 31.5675894,23.6173729 Z" id="Shape"></path>
                            <path d="M30.4239934,21.1817797 L30.4239934,19.6855932 C25.6668675,19.4944915 21.3966358,18.75 17.6183046,17.4525424 L21.4179139,15.6699153 C24.3321854,16.6673729 27.3315695,17.2610169 30.4239934,17.4525424 L30.4239934,13.4766949 C26.5013046,13.1080508 23.6291722,12.6228814 21.807596,12.0216102 C19.9860199,11.420339 19.0752318,10.5288136 19.0752318,9.34745763 C19.0752318,8.16567797 20.1216159,7.19957627 22.2227285,6.4470339 C24.3238411,5.69576271 27.0562053,5.28644068 30.4239934,5.21779661 L30.4239934,4.19279661 L33.7533974,4.19279661 L33.7533974,5.23771186 C37.5701126,5.34788136 41.1794702,5.85974576 44.581053,6.77542373 L41.1965762,8.66101695 C38.9047947,8.0190678 36.4265166,7.62288136 33.7538146,7.4720339 L33.7538146,11.3245763 L33.9106887,11.3245763 C37.9009669,11.6940678 40.8323444,12.1927966 42.7048212,12.820339 C44.5814702,13.4491525 45.5177086,14.3614407 45.5177086,15.5563559 C45.5177086,16.7521186 44.441702,17.7262712 42.2896887,18.4766949 C40.1376755,19.2288136 37.2951656,19.6381356 33.7538146,19.7067797 L33.7538146,21.1817797 L30.4239934,21.1817797 Z M26.7512185,7.95423729 C25.8658808,8.26101695 25.425298,8.6440678 25.425298,9.10169492 C25.425298,9.55932203 25.7728411,9.92161017 26.4675099,10.1872881 C27.1580066,10.4542373 28.479755,10.7101695 30.4239934,10.9559322 L30.4239934,7.41016949 C28.8606755,7.46525424 27.6365563,7.64661017 26.7512185,7.95423729 Z M37.710298,16.9398305 C38.6803311,16.6262712 39.1676424,16.2300847 39.1676424,15.7516949 C39.1676424,15.2737288 38.7863046,14.8944915 38.0240464,14.6144068 C37.2571987,14.334322 35.8340662,14.0716102 33.7542318,13.8254237 L33.7542318,17.5135593 C35.4185166,17.4461864 36.7356755,17.2542373 37.710298,16.9398305 Z" id="Shape"></path>
                        </g>
                        <path d="M147,175.148662 C147,183.350583 130.882389,190 111,190 C91.1176114,190 75,183.350995 75,175.148662 L75,163 L147,163 L147,175.148662 Z" id="Shape" fill="#F6C358"></path>
                        <ellipse id="Oval" fill="#FCD462" cx="111" cy="163" rx="36" ry="15"></ellipse>
                        <g id="Group" transform="translate(80.000000, 151.000000)" fill="#DC8744">
                            <path d="M31.3720886,0.0391818796 C14.2298473,0.0391818796 0.332951642,5.39761325 0.332951642,12.0078026 C0.332951642,18.6179919 14.2298473,23.9764233 31.3720886,23.9764233 C48.5143299,23.9764233 62.4112256,18.6179919 62.4112256,12.0078026 C62.4112256,5.39761325 48.5147445,0.0391818796 31.3720886,0.0391818796 Z M31.3720886,22.6463016 C16.134679,22.6463016 3.78188285,17.8830223 3.78188285,12.0073901 C3.78188285,6.13175794 16.134679,1.3684787 31.3720886,1.3684787 C46.6094982,1.3684787 58.9622944,6.13175794 58.9622944,12.0073901 C58.9622944,17.8834348 46.6094982,22.6463016 31.3720886,22.6463016 Z" id="Shape"></path>
                        </g>
                    </g>
                </g>
            </g>
        </g>
    </g>
</svg>