<?xml version="1.0" encoding="UTF-8"?>
<svg width="219px" height="219px" viewBox="0 0 219 219" version="1.1" xmlns="http://www.w3.org/2000/svg" xmlns:xlink="http://www.w3.org/1999/xlink">
    <!-- Generator: Sketch 51.3 (57544) - http://www.bohemiancoding.com/sketch -->
    <title>school-material</title>
    <desc>Created with Sketch.</desc>
    <defs></defs>
    <g id="STATIC-PAGES" stroke="none" stroke-width="1" fill="none" fill-rule="evenodd">
        <g id="PARTNER-WITH-US" transform="translate(-780.000000, -1093.000000)" fill-rule="nonzero">
            <g id="DOOR-TO-DOOR" transform="translate(745.000000, 1058.000000)">
                <g id="Group">
                    <g id="school-material" transform="translate(35.000000, 35.000000)">
                        <path d="M166.434429,53 L7.56514287,53 C3.38685297,53 0,56.3780126 0,60.5453963 L0,211.454604 C0,215.621987 3.38685297,219 7.56514287,219 L166.434857,219 C170.613147,219 174,215.621987 174,211.454604 L174,60.5453963 C174,56.3780126 170.61229,53 166.434429,53 Z" id="Shape" fill="#EFF2FA"></path>
                        <g id="Group" transform="translate(15.000000, 53.000000)" fill="#D7DEED">
                            <path d="M158.6025,7.818 C158.6025,3.639 155.22375,0.251571429 151.056411,0.251571429 L146.368048,0.251571429 L75.7092177,71.1008571 L69.0393387,85.8145714 L64.4509919,95.9357143 C63.7299355,97.527 65.36225,99.1637143 66.9492581,98.4402857 L74.1435806,95.1612857 L91.7165,87.1517143 L158.6025,20.0858571 L158.6025,7.818 Z" id="Shape"></path>
                            <path d="M34.0905403,30.5177143 L3.90575806,30.5177143 C1.82208871,30.5177143 0.1325,28.8235714 0.1325,26.7342857 C0.1325,24.645 1.82208871,22.9508571 3.90575806,22.9508571 L34.0905403,22.9508571 C36.1742097,22.9508571 37.8637984,24.645 37.8637984,26.7342857 C37.8637984,28.8235714 36.1742097,30.5177143 34.0905403,30.5177143 Z" id="Shape"></path>
                            <path d="M139.737065,30.5177143 L128.417718,30.5177143 C126.334048,30.5177143 124.64446,28.8235714 124.64446,26.7342857 C124.64446,24.645 126.334048,22.9508571 128.417718,22.9508571 L139.737065,22.9508571 C141.820734,22.9508571 143.510323,24.645 143.510323,26.7342857 C143.509895,28.8235714 141.820734,30.5177143 139.737065,30.5177143 Z" id="Shape"></path>
                        </g>
                        <path d="M128.209939,84 L63.7896318,84 C61.6969206,84 60,82.2088808 60,80 C60,77.7911192 61.6969206,76 63.7896318,76 L128.210368,76 C130.303079,76 132,77.7911192 132,80 C131.999571,82.2088808 130.303079,84 128.209939,84 Z" id="Shape" fill="#C7CFE2"></path>
                        <g id="Group" transform="translate(15.000000, 113.000000)" fill="#D7DEED">
                            <path d="M49.3157143,7.92171429 L3.91628571,7.92171429 C1.827,7.92171429 0.132857143,6.22757143 0.132857143,4.13828571 C0.132857143,2.049 1.827,0.354857143 3.91628571,0.354857143 L49.3157143,0.354857143 C51.405,0.354857143 53.0991429,2.049 53.0991429,4.13828571 C53.0987143,6.22757143 51.405,7.92171429 49.3157143,7.92171429 Z" id="Shape"></path>
                            <path d="M30.3994286,26.838 L3.91628571,26.838 C1.827,26.838 0.132857143,25.1438571 0.132857143,23.0545714 C0.132857143,20.9652857 1.827,19.2711429 3.91628571,19.2711429 L30.399,19.2711429 C32.4882857,19.2711429 34.1824286,20.9652857 34.1824286,23.0545714 C34.1824286,25.1438571 32.4887143,26.838 30.3994286,26.838 Z" id="Shape"></path>
                            <path d="M140.113714,26.838 L79.5814286,26.838 C77.4921429,26.838 75.798,25.1438571 75.798,23.0545714 C75.798,20.9652857 77.4921429,19.2711429 79.5814286,19.2711429 L140.113286,19.2711429 C142.202571,19.2711429 143.896714,20.9652857 143.896714,23.0545714 C143.896714,25.1438571 142.203,26.838 140.113714,26.838 Z" id="Shape"></path>
                            <path d="M140.113714,7.92171429 L109.847571,7.92171429 C107.758286,7.92171429 106.064143,6.22757143 106.064143,4.13828571 C106.064143,2.049 107.758286,0.354857143 109.847571,0.354857143 L140.113714,0.354857143 C142.203,0.354857143 143.897143,2.049 143.897143,4.13828571 C143.896714,6.22757143 142.203,7.92171429 140.113714,7.92171429 Z" id="Shape"></path>
                        </g>
                        <g id="Group" transform="translate(15.000000, 94.000000)" fill="#C7CFE2">
                            <path d="M94.1656435,26.8618505 L64.0749565,26.8618505 C61.9977826,26.8618505 60.3134609,25.1624299 60.3134609,23.0666355 C60.3134609,20.9708411 61.9977826,19.2714206 64.0749565,19.2714206 L94.1656435,19.2714206 C96.2428174,19.2714206 97.9271391,20.9708411 97.9271391,23.0666355 C97.926713,25.1628598 96.2428174,26.8618505 94.1656435,26.8618505 Z" id="Shape"></path>
                            <path d="M60.3134609,7.88706542 L3.89358261,7.88706542 C1.8164087,7.88706542 0.132086957,6.18764486 0.132086957,4.09185047 C0.132086957,1.99605607 1.8164087,0.296635514 3.89358261,0.296635514 L60.3134609,0.296635514 C62.3906348,0.296635514 64.0749565,1.99605607 64.0749565,4.09185047 C64.0749565,6.18764486 62.3906348,7.88706542 60.3134609,7.88706542 Z" id="Shape"></path>
                            <path d="M56.5523913,45.8374953 L45.2683304,45.8374953 C43.1911565,45.8374953 41.5068348,44.1380748 41.5068348,42.0422804 C41.5068348,39.946486 43.1911565,38.2470654 45.2683304,38.2470654 L56.5523913,38.2470654 C58.6295652,38.2470654 60.313887,39.946486 60.313887,42.0422804 C60.3134609,44.1380748 58.6295652,45.8374953 56.5523913,45.8374953 Z" id="Shape"></path>
                        </g>
                        <g id="Group" transform="translate(15.000000, 151.000000)" fill="#D7DEED">
                            <path d="M19.0495714,7.73419355 L3.91671429,7.73419355 C1.82742857,7.73419355 0.133285714,6.01272581 0.133285714,3.88974194 C0.133285714,1.76675806 1.82742857,0.0452903226 3.91671429,0.0452903226 L19.0495714,0.0452903226 C21.1388571,0.0452903226 22.833,1.76675806 22.833,3.88974194 C22.8325714,6.01272581 21.1388571,7.73419355 19.0495714,7.73419355 Z" id="Shape"></path>
                            <path d="M90.9312857,26.9555806 L75.7984286,26.9555806 C73.7091429,26.9555806 72.015,25.2341129 72.015,23.111129 C72.015,20.9881452 73.7091429,19.2666774 75.7984286,19.2666774 L90.9312857,19.2666774 C93.0205714,19.2666774 94.7147143,20.9881452 94.7147143,23.111129 C94.7147143,25.2341129 93.0205714,26.9555806 90.9312857,26.9555806 Z" id="Shape"></path>
                            <path d="M140.113714,26.9555806 L106.064571,26.9555806 C103.975286,26.9555806 102.281143,25.2341129 102.281143,23.111129 C102.281143,20.9881452 103.975286,19.2666774 106.064571,19.2666774 L140.113714,19.2666774 C142.203,19.2666774 143.897143,20.9881452 143.897143,23.111129 C143.896714,25.2341129 142.203,26.9555806 140.113714,26.9555806 Z" id="Shape"></path>
                            <path d="M140.113714,7.73419355 L124.980857,7.73419355 C122.891571,7.73419355 121.197429,6.01272581 121.197429,3.88974194 C121.197429,1.76675806 122.891571,0.0452903226 124.980857,0.0452903226 L140.113714,0.0452903226 C142.203,0.0452903226 143.897143,1.76675806 143.897143,3.88974194 C143.896714,6.01272581 142.203,7.73419355 140.113714,7.73419355 Z" id="Shape"></path>
                        </g>
                        <path d="M124.227117,159 L48.7728827,159 C46.6894206,159 45,157.208881 45,155 C45,152.791119 46.6894206,151 48.7728827,151 L124.227117,151 C126.310579,151 128,152.791119 128,155 C127.999573,157.208881 126.310579,159 124.227117,159 Z" id="Shape" fill="#C7CFE2"></path>
                        <g id="Group" transform="translate(15.000000, 189.000000)" fill="#D7DEED">
                            <path d="M49.3157143,7.59410526 L3.91628571,7.59410526 C1.827,7.59410526 0.132857143,5.92968421 0.132857143,3.87705263 C0.132857143,1.82442105 1.827,0.16 3.91628571,0.16 L49.3157143,0.16 C51.405,0.16 53.0991429,1.82442105 53.0991429,3.87705263 C53.0987143,5.92968421 51.405,7.59410526 49.3157143,7.59410526 Z" id="Shape"></path>
                            <path d="M140.113714,7.59410526 L113.631,7.59410526 C111.541714,7.59410526 109.847571,5.92968421 109.847571,3.87705263 C109.847571,1.82442105 111.541714,0.16 113.631,0.16 L140.113714,0.16 C142.203,0.16 143.897143,1.82442105 143.897143,3.87705263 C143.896714,5.92968421 142.203,7.59410526 140.113714,7.59410526 Z" id="Shape"></path>
                        </g>
                        <g id="Group" transform="translate(15.000000, 170.000000)" fill="#C7CFE2">
                            <path d="M98.08559,26.5868571 L64.1789121,26.5868571 C62.0983682,26.5868571 60.4113138,24.8927143 60.4113138,22.8034286 C60.4113138,20.7141429 62.0983682,19.02 64.1789121,19.02 L98.08559,19.02 C100.166134,19.02 101.853188,20.7141429 101.853188,22.8034286 C101.853188,24.8927143 100.166134,26.5868571 98.08559,26.5868571 Z" id="Shape"></path>
                            <path d="M60.4113138,7.67057143 L3.89989958,7.67057143 C1.81935565,7.67057143 0.132301255,5.97642857 0.132301255,3.88714286 C0.132301255,1.79785714 1.81935565,0.103714286 3.89989958,0.103714286 L60.4113138,0.103714286 C62.4918577,0.103714286 64.1789121,1.79785714 64.1789121,3.88714286 C64.1789121,5.97642857 62.4918577,7.67057143 60.4113138,7.67057143 Z" id="Shape"></path>
                        </g>
                        <path d="M155.210368,102 L90.7896318,102 C88.6969206,102 87,100.208881 87,98 C87,95.7911192 88.6969206,94 90.7896318,94 L155.210368,94 C157.303079,94 159,95.7911192 159,98 C158.999571,100.208881 157.303079,102 155.210368,102 Z" id="Shape" fill="#D7DEED"></path>
                        <rect id="Rectangle-path" fill="#FFC36E" transform="translate(146.500000, 63.500000) rotate(-135.000000) translate(-146.500000, -63.500000) " x="141" y="-12" width="11" height="151"></rect>
                        <rect id="Rectangle-path" fill="#FFD782" transform="translate(154.500000, 71.500000) rotate(-135.000000) translate(-154.500000, -71.500000) " x="149" y="-4" width="11" height="151"></rect>
                        <path d="M212.687822,22 L197,6.3121784 L202.229274,1.08290454 C203.673147,-0.36096818 206.014675,-0.36096818 207.458548,1.08290454 L217.917095,11.5414523 C219.360968,12.985325 219.360968,15.3268534 217.917095,16.7707261 L212.687822,22 Z" id="Shape" fill="#EFF2FA"></path>
                        <g id="Group" transform="translate(82.000000, 0.000000)" fill="#D7DEED">
                            <path d="M122.953346,14.4224968 L114.93666,6.4311465 L120.281118,1.10357962 C121.756794,-0.367433121 124.149899,-0.367433121 125.625575,1.10357962 L130.970033,6.4311465 L122.953346,14.4224968 Z" id="Shape"></path>
                            <polygon id="Shape" points="3.26258497 133.735414 16.0641961 120.974688 8.0470817 112.983764 0.0462352941 130.529229"></polygon>
                        </g>
                        <polygon id="Shape" fill="#FFFFFF" points="88.2449206 137 106 129.008125 97.9136094 121 85 133.786829"></polygon>
                        <path d="M80.7225757,140.821134 L91,136.149804 L82.8502149,128 L78.1788957,138.277448 C77.4442966,139.893309 79.1062836,141.555735 80.7225757,140.821134 Z" id="Shape" fill="#707487"></path>
                    </g>
                </g>
            </g>
        </g>
    </g>
</svg>