<?xml version="1.0" encoding="UTF-8"?>
<svg width="243px" height="205px" viewBox="0 0 243 205" version="1.1" xmlns="http://www.w3.org/2000/svg" xmlns:xlink="http://www.w3.org/1999/xlink">
    <!-- Generator: Sketch 51.3 (57544) - http://www.bohemiancoding.com/sketch -->
    <title>Group 2</title>
    <desc>Created with Sketch.</desc>
    <defs></defs>
    <g id="STATIC-PAGES" stroke="none" stroke-width="1" fill="none" fill-rule="evenodd">
        <g id="PARTNER-WITH-US" transform="translate(-141.000000, -742.000000)" fill-rule="nonzero">
            <g id="CONSILIDATE" transform="translate(108.000000, 695.000000)">
                <g id="Group">
                    <g id="Group-2" transform="translate(17.000000, 14.000000)">
                        <g id="globe" transform="translate(99.756655, 102.480640) scale(-1, 1) rotate(-15.000000) translate(-99.756655, -102.480640) translate(19.757230, 18.292764)">
                            <ellipse id="Oval" fill="#6DAFDF" cx="89.2140174" cy="97.1720753" rx="70.7848307" ry="71.2036759"></ellipse>
                            <g id="Group" transform="translate(18.429187, 30.994541)" fill="#E8EFF3">
                                <path d="M32.37764,124.036912 C32.3618369,124.063328 32.3407661,124.079178 32.324963,124.105594 C32.4303171,124.137293 32.5304036,124.184842 32.6357577,124.211258 L32.37764,124.036912 Z" id="Shape"></path>
                                <path d="M34.3951723,23.7245883 L34.2687473,23.4287285 C35.4645171,23.3283475 35.5962098,22.4988834 36.5127911,22.2505725 C37.5557973,21.9811288 37.18179,22.3245375 38.19319,22.3562367 C39.0096848,22.3773696 39.4679755,23.0007885 40.4266984,22.6309637 C40.1791161,23.0166381 39.7893057,23.264949 39.404763,23.5185431 C38.5988036,24.0151649 37.7823088,24.5276364 36.8551921,24.6755663 C35.9333432,24.8234962 34.8745338,24.5276364 34.3951723,23.7245883 Z" id="Shape"></path>
                                <path d="M44.4564952,87.89975 C44.3985505,88.5231689 43.9982046,89.0462068 43.6452682,89.553395 C42.0702234,91.7881932 41.0324848,94.4297986 40.669013,97.145369 C40.3108088,99.7499919 40.21599,102.983317 37.8613244,104.119207 C36.5180588,104.758476 34.7006994,104.510165 33.7577796,105.677754 C33.462788,106.03173 33.3047567,106.486086 33.1467255,106.914026 C32.4566557,108.916363 31.7665859,110.9187 31.0712484,112.921036 C30.35484,112.810089 29.6226286,112.683292 28.911488,112.556495 C29.7437859,112.884054 30.2600213,114.07806 29.6963765,114.833559 C28.9062202,114.347503 27.8000015,114.791293 27.2995692,115.583775 C26.81494,116.376256 26.81494,117.374783 26.9993098,118.288779 C27.5629546,120.999066 29.7016442,123.297262 32.3302307,124.110877 C31.8087275,124.961474 30.4075171,124.485985 29.5857546,123.83615 C23.6595827,119.22919 19.3980067,112.524796 17.7334109,105.196982 C17.1434275,102.613492 16.8379005,99.8820722 15.5051702,97.6050083 C14.3884161,95.6819196 12.6184661,94.213187 11.5069796,92.284815 C9.94773796,89.5428286 9.8476515,86.0823255 8.00395358,83.5305347 C6.97148275,82.0776517 5.35429629,80.2655104 6.43944421,78.8548931 C6.876664,78.2684567 7.76690671,77.7454189 7.47191504,77.0850175 C7.37182858,76.8684059 7.15585254,76.7257592 6.99255358,76.5355636 C6.36569629,75.769498 6.90300254,74.6600238 7.29808066,73.7513115 C7.96181191,72.1663482 8.07243379,70.4334551 7.94600879,68.6847123 C6.36042858,67.0680498 5.15412337,65.1026954 4.45878587,62.9471454 C4.04263691,61.6316259 3.48952754,59.9832641 2.11465566,59.8775999 C1.82493171,58.8579402 1.51940462,57.8435637 1.23494837,56.8239041 C1.08218483,57.1673128 0.718712956,57.373358 0.328902539,57.3944908 C2.44652129,41.2014497 9.93720254,26.873382 20.8466265,16.1009151 C21.0678702,16.0163838 21.2996494,15.9001531 21.5314286,15.7839225 C24.0388577,14.5265183 26.093264,12.5294646 28.532213,11.1399802 C29.0326452,10.8494036 29.59629,10.5799598 30.1862734,10.6803409 C30.7604536,10.7648722 31.2661536,11.3935743 31.023839,11.9271786 C30.9290202,12.1490735 30.7288473,12.312853 30.5234067,12.4449333 C27.6367025,14.6004833 24.5129515,16.4443238 21.2206338,17.9236229 C20.8255557,18.0926856 20.4094067,18.2881644 20.2092338,18.6632724 C19.8457619,19.3025409 20.3356588,20.158421 21.0099255,20.4437144 C21.6841921,20.7290078 22.4585452,20.63391 23.1749536,20.5176794 C22.5270255,21.3312938 22.2794432,22.4566177 22.5217577,23.4762774 C23.1749536,23.5819416 23.438339,22.6943622 23.6701182,22.0815098 C24.6288411,19.6459496 28.6481025,18.8904504 28.5585515,16.2541283 C29.59629,16.8881136 30.7657213,15.7046743 31.4873973,14.7167139 C32.2090734,13.7181871 33.7314411,12.7830588 34.474188,13.7498863 C34.4899911,14.267641 34.5215973,14.7853957 34.5374005,15.3031503 C35.9702171,15.0389898 37.4188369,14.7642628 38.8463859,14.5001023 C38.0088202,15.0125737 37.6611515,16.1960129 38.066765,17.0941588 C38.4723786,17.9923046 39.5996682,18.4994928 40.5320525,18.203633 C40.46884,18.9591322 39.7576994,19.4927365 39.1203067,19.8995437 C37.4925848,20.9720355 35.7489734,22.0709434 33.9052755,22.5305827 L34.2634796,23.4234453 C34.2160702,23.4340117 34.1633932,23.4498614 34.1159838,23.4445782 C32.957088,23.4815606 31.7929244,22.5675652 30.5497452,22.6520965 C29.7911952,22.6996454 28.8640786,22.6415301 28.3794494,23.3811796 C28.3109692,23.4709942 27.952765,24.8023633 28.1476702,24.7019823 C28.8430077,24.3585736 29.543613,24.0204481 30.2231473,23.6770394 C30.3969817,24.2370598 30.4075171,24.8499122 30.2547536,25.4363486 C31.0765161,25.4099326 31.9140817,25.6423939 32.6041515,26.1178828 C31.7402473,27.8190767 29.7279827,28.8651525 27.8316077,28.6009919 C27.8526786,28.0198387 27.8579463,27.4439687 27.8790171,26.8628156 C26.3197755,26.6356375 24.9501713,27.8983249 24.0809994,29.1979947 C23.1960244,30.508231 22.4848838,32.0297957 21.1152796,32.8117109 C20.277714,33.3083327 19.2873848,33.4509794 18.3971421,33.8472203 C17.5174348,34.2593107 16.6798692,35.0887748 16.7904911,36.0503192 C16.8431682,36.5046753 17.1012859,36.9431818 17.0591442,37.4081043 C16.95379,38.2692677 15.9213192,38.6073932 15.2101786,39.1251478 C13.993338,40.0127273 13.5929921,41.76147 12.3076713,42.5328188 C11.3700192,43.1034056 10.1900525,43.0083078 9.12597546,43.2619019 C8.06716608,43.515496 6.95567962,44.49289 7.30861608,45.5283993 C6.78711296,45.671046 6.18659421,45.2483892 6.17079108,44.6989353 C4.095314,48.2069872 2.62562337,52.0795808 1.87234108,56.0895378 C2.74151296,56.7922048 3.76344837,55.3921539 4.01103066,54.2932461 C4.27441608,53.1996214 5.32795775,51.8154202 6.1813265,52.5286537 C5.87053171,54.1030505 5.55973691,55.6668809 5.25420983,57.2412777 C5.18572962,57.5424207 5.13305254,57.8646966 5.25947754,58.1447068 C5.41224108,58.4933987 5.78624837,58.6624614 6.06016921,58.9213388 C6.82925462,59.6821211 6.63961712,60.9236756 6.61854629,62.0014507 C6.58167233,63.3222534 6.93460879,64.6324896 7.54566296,65.8000792 C7.49825358,65.5729012 7.46137962,65.3404399 7.42977337,65.1132618 C8.66768483,65.3562895 9.98987962,65.0392969 10.9854765,64.2626649 C11.5122473,63.8452912 11.9652702,63.2958373 12.602663,63.1109249 C13.2558588,62.9101629 13.9511963,63.1320578 14.5938567,63.3539526 C16.5903182,64.0460532 18.7132046,64.8121188 19.9669192,66.5080295 C20.6043119,67.3691928 20.9677838,68.425835 21.7421369,69.1549181 C23.4962838,70.8455455 26.6779796,70.3594902 28.2635598,72.2191804 C29.5330775,73.7196122 29.1327317,75.9808265 28.6375671,77.9039152 C27.7420567,77.3333284 26.4093265,78.5326173 26.8992234,79.4835952 C27.4312619,78.9711238 28.0423161,78.4269531 28.7639921,78.474502 C29.5014713,78.5062012 30.0756515,79.5575602 29.5014713,79.9907835 C30.8868786,78.4375195 33.9790234,79.3145325 34.347763,81.3855511 C36.1335161,81.6285788 37.9350723,81.8768897 39.7155577,82.135767 C39.241464,84.74039 44.7356838,85.2581446 44.4564952,87.89975 Z" id="Shape"></path>
                                <path d="M38.3512213,12.9257054 C37.634813,13.2215653 36.712964,12.7724923 36.5022557,12.0275596 C36.2915473,11.2826269 36.839389,10.4108971 37.6032067,10.2893833 C38.0878359,10.2101351 38.7410317,10.3052329 38.9148661,9.84559354 C38.9675432,9.70823006 38.95174,9.54973374 38.9622755,9.40180384 C38.9991494,8.52479084 39.8314473,7.84853986 40.6953515,7.68476032 C41.5592557,7.52098079 42.438963,7.74815885 43.287064,7.97533692 C43.5504494,8.62517185 43.5925911,9.37010457 43.4029536,10.0463556 C42.8129702,10.0357891 42.2229869,10.0199395 41.6277359,10.0093731 C41.6172005,10.9920503 41.4433661,12.2230384 40.5109817,12.5241814 C39.6786838,12.7936252 38.6567484,12.1226574 37.94034,12.6298456" id="Shape"></path>
                                <path d="M48.1596942,3.717069 C49.8190223,3.05138444 51.2571067,1.92077733 52.895364,1.20754387 C55.713588,-0.0181610372 58.9058192,0.061087125 61.9768932,0.166751341 C68.9671421,0.404495828 75.9573911,0.636957103 82.94764,0.87470159 C81.2725088,1.65661679 79.5973775,2.4438152 77.9222463,3.2257304 C76.5526421,3.86499891 75.0039359,4.52011705 73.5816546,4.01292881 C73.4710327,5.1805184 74.4666296,6.33225836 75.6307932,6.39565689 C72.6492702,7.98590334 68.78804,5.90960149 65.6695567,7.20398814 C64.363165,7.74815885 63.262214,8.86291633 61.8557359,8.9949966 C61.0392411,9.06896155 60.2174786,8.7995178 59.4062515,8.92631486 C58.0471827,9.13236008 57.1200661,10.3527818 56.0665244,11.2403612 C54.8496838,12.2653041 53.1271432,12.9045726 51.667988,12.2811537 C50.2088327,11.6577349 49.57144,9.38067099 50.8409577,8.41912663 C51.4625473,7.94363765 52.3106484,7.9172216 53.0270567,7.60551216 C53.743465,7.29380272 54.3545192,6.37452404 53.86989,5.75638838 C53.6591817,5.48694463 53.2957098,5.36543078 53.1008046,5.0854206 C52.895364,4.77899438 52.9427734,4.36162072 52.7794744,4.02877844 C52.1526171,2.73439179 50.0718723,4.28765577 48.7654807,3.69593616" id="Shape"></path>
                                <path d="M68.9618744,11.0026167 C69.9205973,10.8441204 70.7739661,10.3369321 71.6800119,9.98824024 C72.5860577,9.63954832 73.6501348,9.46520237 74.4877005,9.95125776 C74.7036765,10.6116591 73.9240557,11.1505466 73.2603244,11.3407422 C71.985539,11.7000005 70.6159348,11.7316998 69.3253463,11.4305568" id="Shape"></path>
                                <path d="M125.537062,21.7698003 C125.278944,21.78565 125.005023,21.7539507 124.741638,21.6694193 C123.556404,21.3365771 122.703035,20.3433334 121.723241,19.6036839 C119.452859,17.876074 116.234289,17.4587003 113.589899,18.578741 C114.253631,17.7334273 114.627638,16.6609355 114.632906,15.5831605 L114.258898,15.6888247 C110.223834,12.9785376 105.472361,10.1256037 100.789368,11.4675393 C99.709488,11.7845319 98.7086234,12.3022866 97.61294,12.6034296 C96.4487765,12.9309887 95.1739911,13.0102368 94.1520557,13.6547885 C93.1143171,14.2993403 92.4874598,15.820905 93.2776161,16.724334 C93.9518827,17.4956828 95.1160463,17.3741689 96.1169109,17.5379485 C97.1019723,17.6964448 98.1765848,18.7689366 97.5760661,19.5825511 C93.0563723,21.3524267 88.5261432,23.1434352 84.0064494,24.9291604 C85.98184,25.7163588 87.1618067,28.0990869 86.5981619,30.1595391 C85.1074005,30.3233186 83.743064,29.330075 82.262838,29.1398794 C80.1083452,28.8862853 77.9222463,30.6667273 77.7326088,32.8275606 C77.5271682,34.993677 79.3866692,37.1280942 81.5464296,37.2337584 C83.1636161,37.323573 84.8124088,36.44656 86.3558473,36.9643146 C86.5138786,35.4902988 87.6042942,34.3068596 88.710513,33.313616 C90.8544702,31.4222265 93.857064,29.7738647 96.4803827,30.9467375 C97.3390192,31.3218455 98.0554275,31.9663972 98.750765,32.6056657 C100.283668,33.9951502 101.816571,35.4004842 103.349474,36.8058183 C103.897316,36.3091965 104.43989,35.8125747 104.987732,35.3318025 C105.809494,36.3197629 106.631257,37.3077233 107.463555,38.3115334 C107.932381,38.0368064 108.41701,37.7779291 108.880568,37.4979189 C109.149221,38.3537991 109.42841,39.1938296 109.697063,40.0497097 C109.8867,39.1409975 110.055267,38.2534181 110.223834,37.3605554 C111.277375,37.4609364 112.39413,37.5666007 113.389726,37.1439438 C114.380056,36.7424198 115.159676,35.6276623 114.822543,34.6080026 C114.648709,34.0638319 114.179883,33.614759 114.11667,33.0494554 C113.97971,31.9135651 115.628503,31.2425973 116.639903,31.8290337 C117.630232,32.3943373 118.067451,33.5989093 118.430923,34.7031004 C118.741718,33.6253254 119.03671,32.5634 119.342237,31.4909082 C120.179803,34.190629 121.465123,36.7529862 123.119184,39.0353333 C119.879543,38.1953027 116.397588,38.327383 113.242231,39.3998748 C114.132473,40.8421914 115.760195,41.7720365 117.440594,41.8143022 C118.193876,41.8460014 119.03671,41.7244876 119.584551,42.2422422 C119.995433,42.638483 120.069181,43.2407691 120.111322,43.790223 C120.269354,45.3487702 120.427385,46.8914677 120.569613,48.4288821 C118.931356,46.8861845 116.423926,46.8861845 114.169347,46.6959889 C111.914768,46.4846605 109.317788,45.6921789 108.617183,43.5313457 C107.653192,44.4876068 107.163295,45.9035073 107.331862,47.2665757 C105.029873,46.5533422 102.401287,45.4808505 101.874516,43.1245384 C100.00448,43.6792756 97.8078452,42.3637561 97.433838,40.4512338 C97.3021452,39.780266 97.3021452,38.9772179 96.7490359,38.5862603 C96.4119025,38.3537991 95.9588796,38.3590823 95.5427307,38.3802151 C92.0449723,38.5598443 88.5630171,38.7183406 85.0810619,38.8979698 C83.1794192,39.003634 81.2092963,39.0987318 79.4867557,39.9229127 C77.764215,40.7312439 76.320863,42.4430042 76.3893432,44.3502433 C73.0812223,46.0408708 70.1997859,48.6085113 68.1717182,51.7203224 C67.5290577,52.6765836 66.9601452,53.7860578 67.1129088,54.9219482 C67.218263,55.7989612 67.7450338,56.5755932 67.8661911,57.4367565 C68.0768994,58.9160555 67.1550505,60.2738407 66.7072952,61.7003076 C65.4535807,65.7472471 68.3086786,69.8153194 70.9899421,73.1173262 C72.2594598,74.6494573 73.7238827,76.3242352 75.7045411,76.5302804 C76.9319171,76.6570774 78.1382223,76.1868717 79.318189,75.8117637 C82.7000577,74.7234223 86.3242411,74.3641639 89.848338,74.7339887 C89.0055046,75.3098587 89.7535192,76.7257592 90.733313,77.0004861 C91.7131067,77.2752131 92.8035223,77.021619 93.7464421,77.4178598 C95.8903994,78.3477049 95.3794317,81.5546139 94.2521421,83.5939332 C94.7525744,83.5305347 95.2740775,83.4671362 95.790313,83.4037376 C95.4742505,84.090555 95.158188,84.7826557 94.8368577,85.4536234 C97.8183807,86.0347766 98.7033557,90.0711497 97.8078452,92.9927653 C96.928138,95.919664 94.994889,98.5348534 94.7525744,101.577983 C94.6314171,103.247477 95.0370307,104.901122 95.4479119,106.523068 C96.4698473,110.633406 97.4917827,114.749027 98.5137182,118.875215 C102.069421,119.5409 104.429355,115.097719 107.848097,113.882581 C109.133418,113.417658 110.608376,113.401809 111.646115,112.530079 C112.64698,111.690048 112.478413,109.571481 111.261572,109.492233 C112.9209,109.423551 114.427465,108.002367 114.580229,106.338156 C114.627638,105.873233 114.590764,105.403027 114.685583,104.943388 C114.838346,104.293553 115.291369,103.738816 115.728589,103.205212 C118.509939,99.7077262 120.427385,95.6238042 122.339563,91.5927144 C122.845263,90.5149394 123.345695,89.4477308 123.846128,88.3699558 C125.742503,84.3494324 127.623074,80.3447586 129.519449,76.3242352 C130.262196,74.7445551 131.004943,73.1807247 131.752958,71.6010447 C130.778432,73.0063788 128.486979,72.6629701 127.243799,71.4900973 C125.984817,70.3119413 125.405369,68.6160306 124.451914,67.1842805 C123.645955,65.9532923 122.5292,64.8385349 122.202603,63.3803687 C122.012965,62.5456214 122.118319,61.6686084 122.028768,60.807445 C121.828595,58.9424716 120.711841,57.3205259 119.984897,55.5981992 C119.257954,53.8758724 118.96823,51.6780567 120.227212,50.2938555 C123.208735,56.4012472 125.879463,62.6671352 128.249932,69.0598203 C128.613404,68.1141256 129.371954,67.3269271 130.29907,66.9201199 C130.978605,66.6084105 131.721351,66.5133127 132.432492,66.2650018 C134.307796,65.5781844 135.698471,63.7184942 135.824896,61.7267237 C135.935518,59.7349532 134.797693,57.7114835 133.006672,56.8080544 C132.121697,56.3642647 131.089226,56.1687859 130.256929,55.5823495 C129.424631,55.0117628 128.876789,53.8019075 129.477308,52.9830098 C130.040953,52.211661 131.273596,52.3067588 132.090091,52.8139471 C132.906586,53.3369849 133.480766,54.1611658 134.249851,54.742319 C134.802961,55.1649759 135.456157,55.4661189 136.056675,55.8570765 C139.312119,58.0179097 139.859961,62.487506 140.318251,66.3865156 C140.571101,68.4839503 140.871361,70.5655354 141.250636,72.6207044 C141.292778,72.1874811 141.324384,71.7384082 141.350722,71.3051849 C142.567563,52.6237515 136.472824,35.194439 125.537062,21.7698003 Z M130.504511,45.5125497 C130.040953,45.4491512 129.630071,45.1163089 129.282403,44.8045995 C128.702955,44.2815616 128.134042,43.6845588 128.007617,42.9184932 C127.854854,42.0044977 128.355286,41.0059709 127.928601,40.1712236 C127.728429,39.7696996 127.343886,39.505539 127.027823,39.2096792 C126.190258,38.4488969 125.616078,37.3922547 125.447511,36.2880636 C125.300015,35.3106696 125.689825,34.0479823 126.674887,33.9476013 C127.143713,33.8947691 127.638878,34.1853457 127.81798,34.6344187 L127.138445,34.9461281 C128.234129,35.1468901 128.639742,36.848084 127.744232,37.5137686 C127.623074,37.6194328 127.475579,37.7039641 127.465043,37.8677437 C127.459775,37.9628415 127.51772,38.0632225 127.591468,38.1319042 C128.234129,38.929669 129.240261,39.2677945 130.104165,39.8119653 C130.973337,40.3350031 131.795099,41.259565 131.589659,42.2422422 C131.294667,42.33734 131.015479,42.4165882 130.720487,42.5064028 C130.393889,42.7916962 130.59933,43.3517165 130.904857,43.6792756 C131.205116,44.0068346 131.600194,44.3343937 131.589659,44.7887498 C131.552785,45.2748052 130.983872,45.5759482 130.504511,45.5125497 Z" id="Shape"></path>
                                <path d="M127.775838,94.9264204 L126.569533,95.6713531 C126.880328,97.1189529 125.963746,98.7303322 124.562536,99.1952547 C123.819789,99.4435657 122.850531,99.5069642 122.560807,100.236047 C122.313224,100.854183 122.766247,101.525151 122.787318,102.190835 C122.824192,103.289743 121.74958,104.039959 120.964691,104.806025 C120.179803,105.57209 119.689906,107.072522 120.638093,107.627259 C120.859337,107.754056 121.117455,107.796322 121.370305,107.838588 C122.429114,108.002367 123.58801,108.108031 124.499323,107.542728 C127.101571,105.920782 125.052433,100.938714 127.628342,99.2692197 C127.991814,99.0314752 128.444837,98.8729789 128.666081,98.4978709 C129.298206,97.3778302 127.233264,96.0992932 127.775838,94.9264204 Z" id="Shape"></path>
                            </g>
                            <path d="M69.1200999,42.7222055 C68.4179133,43.2314286 67.7000061,43.7144031 66.9454176,44.15013 C66.3375546,44.5018614 65.9445397,44.7013509 65.6720494,44.8168448 C64.3148381,46.1607737 62.9157052,47.4469558 61.6056556,48.8433819 C60.2746453,50.2660567 59.0327183,51.7569779 57.7593501,53.2269002 C57.7383894,53.2636483 57.7488698,53.2583985 57.7226688,53.3003963 C53.9811672,59.8940477 50.0038568,66.4299522 45.2352764,72.3411397 C107.71416,106.091606 129.639149,141.301494 109.600631,165.02499 C109.642553,165.009241 109.689714,164.988242 109.731636,164.972493 C125.336946,158.452337 136.01647,142.89741 134.769303,125.998553 C132.940474,101.193614 111.649548,71.8686647 69.1200999,42.7222055 Z" id="Shape" fill="#FFD93B"></path>
                            <path d="M69.4892639,10.7325477 L59.2720677,12.5137798 L55.6731275,8.91442622 C54.5718412,7.81301349 52.7802751,7.81301349 51.6737195,8.91442622 C50.5724333,10.0158389 50.5724333,11.8076109 51.6737195,12.9090236 L52.4641164,13.6995112 L47.9272386,14.4899988 L44.9500773,11.5124955 C43.848791,10.4058128 42.0572249,10.4058128 40.9506693,11.5124955 C39.8493831,12.6139082 39.8493831,14.4056801 40.9506693,15.5070928 L41.114018,15.6757302 L29.2686043,17.7362679 L20.3634668,8.83010754 C17.4864224,5.95273266 14.1614864,3.54965034 10.4676986,1.85273695 C7.70657905,0.587956781 4.61349282,-0.355358427 2.11583887,0.12947397 C1.11466956,0.324460913 0.324272741,1.11494852 0.129308191,2.11623282 C-0.413430959,4.91455894 0.835396018,8.46121333 2.32661135,11.4545264 C3.94955949,14.7113353 6.12578541,17.6572191 8.69720973,20.2342087 L17.7393494,29.2773869 L15.673779,41.1241612 L15.505161,40.9607937 C14.3986055,39.859381 12.6123087,39.859381 11.5057531,40.9607937 C10.3991976,42.0622065 10.3991976,43.8539784 11.5057531,44.9553911 L14.4829145,47.9328944 L13.6925176,52.4702933 L12.9021208,51.6850756 C11.8008346,50.5783929 10.0092685,50.5783929 8.9027129,51.6850756 C7.80142667,52.7864883 7.80142667,54.5782602 8.9027129,55.6796729 L12.5016531,59.2790265 L10.7206256,69.4973963 C10.5309304,70.5935391 10.8839743,71.7160315 11.6691018,72.5012492 C13.260434,74.0927642 15.926706,73.7396797 17.0490695,71.7950802 L21.6228324,63.8638546 C24.3101816,66.2089678 27.3031509,67.1153936 27.3031509,67.1153936 C27.3031509,67.1153936 26.2492885,63.5792791 23.4249372,60.7440635 L26.4864075,55.4425266 C29.2580657,58.0300561 32.5250392,59.0155306 32.5250392,59.0155306 C32.5250392,59.0155306 31.4711768,55.4636063 28.6310176,52.6231209 C28.5256313,52.5071827 28.4097064,52.4175941 28.2990509,52.3121957 L32.8622752,44.4020498 L44.3441064,55.8851997 L41.1614418,70.150866 C40.6555879,72.6593467 42.1046487,75.1678274 44.5338016,75.9741247 C46.9682238,76.7804221 49.6344957,75.6263102 50.7463206,73.2653872 L55.0197328,62.8573004 C57.8019296,63.3157832 60.5893957,63.2736239 61.9014544,62.8994597 C63.2820142,63.7531863 64.2094131,64.2169391 64.2094131,64.2169391 C64.2094131,64.2169391 63.7457137,63.2894336 62.8920851,61.9087153 C63.2662063,60.6017758 63.3083607,57.8139895 62.8499306,55.0262032 L73.3200538,50.7259506 C73.8522543,50.4782645 74.3264924,50.1409898 74.7374988,49.7299362 C76.1022506,48.3597577 76.5764887,46.3729989 75.9705178,44.5443375 C75.1643131,42.1096357 72.6561205,40.6604084 70.1479279,41.1715904 L55.8838999,44.3546205 L44.3967995,32.8662007 L52.306037,28.3024522 C52.4114232,28.4131205 52.5010016,28.5290587 52.6116571,28.6397269 C55.4518163,31.4802124 59.0033327,32.5341959 59.0033327,32.5341959 C59.0033327,32.5341959 58.012702,29.272117 55.4254698,26.4948706 L60.7263978,23.4330486 C63.566557,26.2577243 67.1022655,27.3117077 67.1022655,27.3117077 C67.1022655,27.3117077 66.1959438,24.3236646 63.8510999,21.6307368 L71.7814147,17.0564486 C73.7310602,15.9339562 74.0788348,13.267378 72.4927718,11.6758629 C71.7076443,10.8959152 70.5852808,10.5375608 69.4892639,10.7325477 Z" id="Shape" fill="#5A5F63"></path>
                            <path d="M124.34895,146.109508 C123.879945,149.404647 123.916833,149.367741 121.766786,155.810397 C122.999901,151.19193 123.532143,150.126941 123.821978,146.056786 C126.356714,128.305213 114.267972,105.940447 103.059275,93.756341 C97.4470212,86.9657187 89.8533524,79.4633465 82.5600577,73.4582854 C76.2785496,68.2124243 73.4434394,66.3618743 68.1737178,62.5975076 C66.9616819,61.8066742 66.6454986,60.1195631 67.488654,58.9596742 C68.3318095,57.7470631 69.9654232,57.4307298 71.1774591,58.2742854 C71.1774591,58.3270076 71.2301564,58.3270076 71.2828536,58.3797298 C76.4524504,62.4024354 78.6920821,63.9313798 85.4584046,70.0840632 C93.1574678,77.0908465 100.192546,84.8041076 105.536044,91.8056187 C117.129431,106.098613 127.120823,126.644463 124.34895,146.109508 Z" id="Shape" fill="#E9B02C"></path>
                        </g>
                        <g id="cargo" transform="translate(96.000000, 126.000000)">
                            <path d="M20.1649485,53.4925373 L20.1649485,5.6307934 C20.1649485,2.52120956 22.7043361,0 25.8363402,0 L59.8646907,0 C62.9966948,0 65.5360825,2.52120956 65.5360825,5.6307934 L65.5360825,53.4925373 L20.1649485,53.4925373 Z" id="Shape" fill="#CCAB86"></path>
                            <path d="M36.128866,52.6567164 L36.128866,16.4378109 C36.128866,13.3606186 38.6548177,10.8656716 41.7702504,10.8656716 L69.9771723,10.8656716 C73.092605,10.8656716 75.6185567,13.3606186 75.6185567,16.4378109 L75.6185567,52.6567164 L36.128866,52.6567164 Z" id="Shape" fill="#E6C097"></path>
                            <path d="M152.07732,61.8507463 L142.171862,34.6263145 C141.364263,32.4052007 139.250494,30.9253731 136.885381,30.9253731 L99.719314,30.9253731 C97.3734292,30.9253731 95.2747688,32.3791183 94.4506875,34.5741497 L87.3814433,53.4165536 L87.3814433,61.8507463 L152.07732,61.8507463 Z" id="Shape" fill="#5E89CC"></path>
                            <g id="Group" transform="translate(89.902062, 39.283582)" fill="#476899">
                                <polygon id="Shape" points="0 5.85074627 19.2547251 5.85074627 19.2547251 0 2.10051546 0"></polygon>
                                <polygon id="Shape" points="24.8560997 0 30.4574742 0 30.4574742 5.85074627 24.8560997 5.85074627"></polygon>
                                <polygon id="Shape" points="36.0588488 0 41.6602234 0 41.6602234 5.85074627 36.0588488 5.85074627"></polygon>
                            </g>
                            <polygon id="Shape" fill="#565656" points="106.706186 8.35820896 112.587629 8.35820896 112.587629 30.9253731 106.706186 30.9253731"></polygon>
                            <polygon id="Shape" fill="#565656" points="117.628866 20.0597015 123.510309 20.0597015 123.510309 30.9253731 117.628866 30.9253731"></polygon>
                            <path d="M50.4123711,53.4925373 L50.4123711,30.758209 C50.4123711,27.6194728 47.8864194,25.0746269 44.7709867,25.0746269 L16.5640648,25.0746269 C13.4486321,25.0746269 10.9226804,27.6194728 10.9226804,30.758209 L10.9226804,53.4925373 L50.4123711,53.4925373 Z" id="Shape" fill="#FFD5A7"></path>
                            <path d="M0,78.5671642 L0,59.0646766 C0,55.9874843 2.51668557,53.4925373 5.62068966,53.4925373 L115.026536,53.4925373 C116.90513,53.4925373 118.660224,54.423041 119.703125,55.9738806 L121.98653,59.369403 C123.029432,60.9202425 124.784525,61.8507463 126.66312,61.8507463 L157.37931,61.8507463 C160.483314,61.8507463 163,64.3456932 163,67.4228856 L163,78.5671642 L0,78.5671642 Z" id="Shape" fill="#6A9BE6"></path>
                            <path d="M163,78.5671642 L163,85.4466339 C163,86.4165888 162.744764,87.3674984 162.260363,88.2095771 L150.445388,108.733714 C149.534222,110.722598 147.533498,112 145.329683,112 L16.862069,112 L0.944100216,88.329291 C0.327965134,87.4137516 0,86.3376866 0,85.238495 L0,78.5671642 L163,78.5671642 Z" id="Shape" fill="#5E89CC"></path>
                        </g>
                    </g>
                </g>
            </g>
        </g>
    </g>
</svg>