<?xml version="1.0" encoding="UTF-8"?>
<svg width="289px" height="38px" viewBox="0 0 289 38" version="1.1" xmlns="http://www.w3.org/2000/svg" xmlns:xlink="http://www.w3.org/1999/xlink">
    <!-- Generator: Sketch 51.3 (57544) - http://www.bohemiancoding.com/sketch -->
    <title>LOGO-WHITE</title>
    <desc>Created with Sketch.</desc>
    <defs>
        <polygon id="path-1" points="0 0.447408696 8.7368517 0.447408696 8.7368517 12.3199304 0 12.3199304"></polygon>
    </defs>
    <g id="STATIC-PAGES" stroke="none" stroke-width="1" fill="none" fill-rule="evenodd">
        <g id="HOMEPAGE" transform="translate(-95.000000, -3883.000000)">
            <g id="FOOTER" transform="translate(0.000000, 3716.000000)">
                <g id="LOGO-WHITE" transform="translate(95.000000, 167.000000)">
                    <g id="LOGO">
                        <polygon id="Fill-1" fill="#00ACEE" points="240.568944 19.8947072 240.296302 37.5178957 276.830265 37.5178957 277.285031 16.7968812 259.086755 10.5329391 258.200125 10.2570261"></polygon>
                        <polygon id="Fill-2" fill="#FFF000" points="259.018213 11.2672754 259.836138 28.6145507 275.694058 17.4166667"></polygon>
                        <polygon id="Fill-3" fill="#BC1E2C" points="240.296575 30.4506116 240.296575 37.5180609 259.290964 37.5180609 259.290964 29.8079159"></polygon>
                        <polygon id="Fill-4" fill="#BC1E2C" points="259.653904 29.6243594 259.653904 37.5178957 276.830319 37.5178957 276.830319 26.871287"></polygon>
                        <polygon id="Fill-5" fill="#FFFFFF" points="252.338714 0.000220289855 232.367178 8.12285797 240.023497 20.3539014 258.745244 10.532829"></polygon>
                        <polygon id="Fill-6" fill="#FFFFFF" points="259.086592 10.532829 277.012225 17.4163362 259.665682 29.618742 271.740429 32.7452058 288.644748 18.4263652 277.285412 16.796771 282.64609 6.58523478 265.016544 1.03282899"></polygon>
                        <polygon id="Fill-7" fill="#FFFFFF" points="259.290855 29.807971 249.134958 36.692029 229.913732 26.0217391 240.569107 19.8949275"></polygon>
                        <g id="Group-49" transform="translate(0.000000, 11.634058)">
                            <g id="Group-10">
                                <mask id="mask-2" fill="white">
                                    <use xlink:href="#path-1"></use>
                                </mask>
                                <g id="Clip-9"></g>
                                <path d="M4.20173283,6.86390145 C6.1358517,6.86390145 7.40308943,5.81972754 7.40308943,4.27053913 L7.40308943,4.2363942 C7.40308943,2.55282899 6.15275547,1.67717681 4.26880264,1.67717681 L1.31718566,1.67717681 L1.31718566,6.86390145 L4.20173283,6.86390145 Z M-0.000218113208,1.12149565 C-0.000218113208,0.750857971 0.30023283,0.447408696 0.650304528,0.447408696 L4.36858943,0.447408696 C7.0028517,0.447408696 8.7368517,1.86222029 8.7368517,4.18627826 L8.7368517,4.21987246 C8.7368517,6.76256812 6.63642151,8.0765971 4.15156679,8.0765971 L1.31718566,8.0765971 L1.31718566,11.6463942 C1.31718566,12.0170319 1.01728,12.3199304 0.650304528,12.3199304 C0.30023283,12.3199304 -0.000218113208,12.0170319 -0.000218113208,11.6463942 L-0.000218113208,1.12149565 Z" id="Fill-8" fill="#FFFFFF" mask="url(#mask-2)"></path>
                            </g>
                            <path d="M11.5885728,1.03690435 C11.5885728,0.666817391 11.8890238,0.363368116 12.2390955,0.363368116 C12.6055257,0.363368116 12.9059766,0.666817391 12.9059766,1.03690435 L12.9059766,11.6466145 C12.9059766,12.0167014 12.6055257,12.3196 12.2390955,12.3196 C11.8890238,12.3196 11.5885728,12.0167014 11.5885728,11.6466145 L11.5885728,1.03690435 Z" id="Fill-11" fill="#FFFFFF"></path>
                            <path d="M16.6574692,1.05386667 C16.6574692,0.700301449 16.9573749,0.397402899 17.3074466,0.397402899 L17.491207,0.397402899 C17.7911126,0.397402899 17.974873,0.548852174 18.1580881,0.784562319 L25.2445862,9.91172174 L25.2445862,1.02027246 C25.2445862,0.666707246 25.5281334,0.363257971 25.8945636,0.363257971 C26.2451806,0.363257971 26.5287277,0.666707246 26.5287277,1.02027246 L26.5287277,11.6635768 C26.5287277,12.017142 26.2784428,12.2864464 25.9278258,12.2864464 L25.8613013,12.2864464 C25.5777542,12.2864464 25.3781806,12.1179246 25.1775164,11.8822145 L17.9410655,2.53586667 L17.9410655,11.6635768 C17.9410655,12.017142 17.6575183,12.3200406 17.2910881,12.3200406 C16.9410164,12.3200406 16.6574692,12.017142 16.6574692,11.6635768 L16.6574692,1.05386667 Z" id="Fill-13" fill="#FFFFFF"></path>
                            <path d="M40.184523,6.37529855 L40.184523,6.34170435 C40.184523,3.66408116 38.2504042,1.47495072 35.5823343,1.47495072 C32.9142645,1.47495072 31.0139532,3.63048696 31.0139532,6.30811014 L31.0139532,6.34170435 C31.0139532,9.01987826 32.9480721,11.208458 35.6155966,11.208458 C38.2836664,11.208458 40.184523,9.05292174 40.184523,6.37529855 M29.6463834,6.37529855 L29.6463834,6.34170435 C29.6463834,3.09187826 32.0641683,0.245733333 35.6155966,0.245733333 C39.1670249,0.245733333 41.5515475,3.05773333 41.5515475,6.30811014 L41.5515475,6.34170435 C41.5515475,9.59208116 39.1337626,12.4382261 35.5823343,12.4382261 C32.030906,12.4382261 29.6463834,9.62512464 29.6463834,6.37529855" id="Fill-15" fill="#FFFFFF"></path>
                            <path d="M47.3711896,7.60473623 L43.0361896,1.47517101 C42.9527613,1.34024348 42.8856915,1.1887942 42.8856915,1.02027246 C42.8856915,0.666707246 43.2025009,0.363257971 43.5694764,0.363257971 C43.8530236,0.363257971 44.0362387,0.53177971 44.2030953,0.767489855 L48.0549745,6.37551884 L51.940116,0.767489855 C52.1069726,0.53177971 52.273284,0.363257971 52.5568311,0.363257971 C52.9238066,0.363257971 53.2073538,0.666707246 53.2073538,1.02027246 C53.2073538,1.1887942 53.1070217,1.37383768 53.0235934,1.50876522 L48.7049519,7.57114203 L48.7049519,11.6465043 C48.7049519,12.017142 48.4050462,12.3200406 48.0380708,12.3200406 C47.6716406,12.3200406 47.3711896,12.017142 47.3711896,11.6465043 L47.3711896,7.60473623 Z" id="Fill-17" fill="#FFFFFF"></path>
                            <path d="M61.1438391,11.0403217 C62.9116466,11.0403217 64.0120277,10.2489304 64.0120277,8.93545217 L64.0120277,8.90130725 C64.0120277,7.62142319 62.9449089,6.88069855 60.9104579,6.88069855 L57.2254353,6.88069855 L57.2254353,11.0403217 L61.1438391,11.0403217 Z M60.6770768,5.70214783 C62.261124,5.70214783 63.3615051,4.97794493 63.3615051,3.59672754 L63.3615051,3.56313333 C63.3615051,2.40110435 62.4443391,1.64330725 60.7774089,1.64330725 L57.2254353,1.64330725 L57.2254353,5.70214783 L60.6770768,5.70214783 Z M55.9249353,1.12122029 C55.9249353,0.750582609 56.2248409,0.447684058 56.5754579,0.447684058 L60.8940994,0.447684058 C62.2278617,0.447684058 63.2780768,0.834843478 63.9455032,1.49185797 C64.428624,1.99687246 64.6958126,2.61974203 64.6958126,3.37753913 L64.6958126,3.41113333 C64.6958126,4.9438 63.7617428,5.73574203 62.8445768,6.13997391 C64.2285051,6.56072754 65.34579,7.36864058 65.34579,8.98556812 L65.34579,9.01971304 C65.34579,11.0403217 63.661956,12.2359449 61.1105768,12.2359449 L56.5754579,12.2359449 C56.2248409,12.2359449 55.9249353,11.9324957 55.9249353,11.5624087 L55.9249353,1.12122029 Z" id="Fill-19" fill="#FFFFFF"></path>
                            <path d="M78.3181275,6.37529855 L78.3181275,6.34170435 C78.3181275,3.66408116 76.3840087,1.47495072 73.7164842,1.47495072 C71.0484143,1.47495072 69.1475577,3.63048696 69.1475577,6.30811014 L69.1475577,6.34170435 C69.1475577,9.01987826 71.0816766,11.208458 73.7497464,11.208458 C76.4172709,11.208458 78.3181275,9.05292174 78.3181275,6.37529855 M67.7805332,6.37529855 L67.7805332,6.34170435 C67.7805332,3.09187826 70.1977728,0.245733333 73.7497464,0.245733333 C77.3011747,0.245733333 79.6856974,3.05773333 79.6856974,6.30811014 L79.6856974,6.34170435 C79.6856974,9.59208116 77.2679125,12.4382261 73.7164842,12.4382261 C70.1645106,12.4382261 67.7805332,9.62512464 67.7805332,6.37529855" id="Fill-21" fill="#FFFFFF"></path>
                            <path d="M81.7200392,11.2253101 L85.6215392,6.22362899 L81.9201581,1.50832464 C81.8034675,1.35687536 81.7031355,1.20542609 81.7031355,1.00331014 C81.7031355,0.666817391 81.9866826,0.363368116 82.3536581,0.363368116 C82.6203015,0.363368116 82.7702543,0.497744928 82.9371109,0.700411594 L86.4558223,5.31438261 L89.9238223,0.750527536 C90.1070374,0.531889855 90.273894,0.363368116 90.5574411,0.363368116 C90.8742506,0.363368116 91.1577977,0.632672464 91.1577977,0.986237681 C91.1577977,1.15475942 91.0907279,1.32328116 90.9740374,1.4582087 L87.2557525,6.20710725 L91.1076317,11.1751942 C91.2406808,11.3266435 91.3241091,11.4780928 91.3241091,11.663687 C91.3241091,12.0167014 91.0405619,12.3196 90.6741317,12.3196 C90.4074883,12.3196 90.2569902,12.1852232 90.0906789,11.9831072 L86.4056562,7.14994783 L82.7702543,11.9324406 C82.5870392,12.1521797 82.4201826,12.3196 82.120277,12.3196 C81.8203713,12.3196 81.5368242,12.0508464 81.5368242,11.6967304 C81.5368242,11.5287594 81.6033487,11.3602377 81.7200392,11.2253101" id="Fill-23" fill="#FFFFFF"></path>
                            <path d="M98.4608823,11.0064522 C101.411954,11.0064522 103.296452,8.98529275 103.296452,6.3754087 L103.296452,6.34181449 C103.296452,3.73137971 101.411954,1.67717681 98.4608823,1.67717681 L95.7262879,1.67717681 L95.7262879,11.0064522 L98.4608823,11.0064522 Z M94.4088842,1.12149565 C94.4088842,0.750857971 94.7093351,0.447408696 95.0594068,0.447408696 L98.4608823,0.447408696 C102.129001,0.447408696 104.663477,2.99065507 104.663477,6.30822029 L104.663477,6.34181449 C104.663477,9.65937971 102.129001,12.2356696 98.4608823,12.2356696 L95.0594068,12.2356696 C94.7093351,12.2356696 94.4088842,11.932771 94.4088842,11.5626841 L94.4088842,1.12149565 Z" id="Fill-25" fill="#FFFFFF"></path>
                            <path d="M107.781787,11.5625188 L107.781787,1.12133043 C107.781787,0.750692754 108.081692,0.447243478 108.431764,0.447243478 L115.685119,0.447243478 C116.018832,0.447243478 116.285475,0.717098551 116.285475,1.0535913 C116.285475,1.39063478 116.018832,1.66048986 115.685119,1.66048986 L109.09919,1.66048986 L109.09919,5.68518551 L114.934809,5.68518551 C115.268522,5.68518551 115.535166,5.97156232 115.535166,6.29098261 C115.535166,6.62802609 115.268522,6.89733043 114.934809,6.89733043 L109.09919,6.89733043 L109.09919,11.0233594 L115.768547,11.0233594 C116.10226,11.0233594 116.368904,11.2926638 116.368904,11.6297072 C116.368904,11.9662 116.10226,12.2360551 115.768547,12.2360551 L108.431764,12.2360551 C108.081692,12.2360551 107.781787,11.9326058 107.781787,11.5625188" id="Fill-27" fill="#FFFFFF"></path>
                            <path d="M119.28704,1.03690435 C119.28704,0.666817391 119.586946,0.363368116 119.937018,0.363368116 C120.303993,0.363368116 120.604444,0.666817391 120.604444,1.03690435 L120.604444,11.0066725 L126.657085,11.0066725 C126.990253,11.0066725 127.257442,11.2924986 127.257442,11.629542 C127.257442,11.9665855 126.990253,12.2358899 126.657085,12.2358899 L119.937018,12.2358899 C119.586946,12.2358899 119.28704,11.9324406 119.28704,11.5623536 L119.28704,1.03690435 Z" id="Fill-29" fill="#FFFFFF"></path>
                            <path d="M130.058506,1.03690435 C130.058506,0.666817391 130.358412,0.363368116 130.709029,0.363368116 C131.075459,0.363368116 131.37591,0.666817391 131.37591,1.03690435 L131.37591,11.6466145 C131.37591,12.0167014 131.075459,12.3196 130.709029,12.3196 C130.358412,12.3196 130.058506,12.0167014 130.058506,11.6466145 L130.058506,1.03690435 Z" id="Fill-31" fill="#FFFFFF"></path>
                            <path d="M138.878623,11.8147507 L134.376766,1.32344638 C134.3266,1.22211304 134.310242,1.13785217 134.310242,1.0199971 C134.310242,0.683504348 134.610147,0.363533333 134.977123,0.363533333 C135.310836,0.363533333 135.544217,0.582171014 135.660908,0.868547826 L139.696002,10.6362 L143.747455,0.834953623 C143.864145,0.599243478 144.097527,0.363533333 144.397978,0.363533333 C144.764408,0.363533333 145.047955,0.666431884 145.047955,1.00347536 C145.047955,1.10425797 145.031596,1.18851884 144.998334,1.27277971 L140.479574,11.8147507 C140.329621,12.1517942 140.095695,12.3704319 139.712361,12.3704319 L139.645836,12.3704319 C139.262502,12.3704319 139.012217,12.1517942 138.878623,11.8147507" id="Fill-33" fill="#FFFFFF"></path>
                            <path d="M147.866196,11.5625188 L147.866196,1.12133043 C147.866196,0.750692754 148.166101,0.447243478 148.516173,0.447243478 L155.769528,0.447243478 C156.103241,0.447243478 156.369884,0.717098551 156.369884,1.0535913 C156.369884,1.39063478 156.103241,1.66048986 155.769528,1.66048986 L149.183599,1.66048986 L149.183599,5.68518551 L155.019218,5.68518551 C155.352386,5.68518551 155.619575,5.97156232 155.619575,6.29098261 C155.619575,6.62802609 155.352386,6.89733043 155.019218,6.89733043 L149.183599,6.89733043 L149.183599,11.0233594 L155.852956,11.0233594 C156.186669,11.0233594 156.453313,11.2926638 156.453313,11.6297072 C156.453313,11.9662 156.186669,12.2360551 155.852956,12.2360551 L148.516173,12.2360551 C148.166101,12.2360551 147.866196,11.9326058 147.866196,11.5625188" id="Fill-35" fill="#FFFFFF"></path>
                            <path d="M164.273707,6.45972464 C166.024066,6.45972464 167.274945,5.55047826 167.274945,4.03488406 L167.274945,4.00073913 C167.274945,2.55288406 166.174018,1.67668116 164.290066,1.67668116 L160.688471,1.67668116 L160.688471,6.45972464 L164.273707,6.45972464 Z M159.371613,1.12155072 C159.371613,0.750913043 159.671518,0.447463768 160.02159,0.447463768 L164.390398,0.447463768 C165.824492,0.447463768 166.975039,0.885289855 167.708445,1.62656522 C168.275539,2.19931884 168.608707,3.02430435 168.608707,3.95007246 L168.608707,3.98421739 C168.608707,5.92056522 167.308207,7.049 165.490234,7.40256522 L168.39223,11.1755797 C168.525824,11.3264783 168.608707,11.4779275 168.608707,11.6635217 C168.608707,12.017087 168.275539,12.3199855 167.942371,12.3199855 C167.674637,12.3199855 167.475064,12.1685362 167.325111,11.9664203 L164.039781,7.65534783 L160.688471,7.65534783 L160.688471,11.6464493 C160.688471,12.017087 160.388566,12.3199855 160.02159,12.3199855 C159.671518,12.3199855 159.371613,12.017087 159.371613,11.6464493 L159.371613,1.12155072 Z" id="Fill-37" fill="#FFFFFF"></path>
                            <path d="M174.978594,7.60473623 L170.643594,1.47517101 C170.559621,1.34024348 170.493096,1.1887942 170.493096,1.02027246 C170.493096,0.666707246 170.809906,0.363257971 171.176881,0.363257971 C171.460428,0.363257971 171.644189,0.53177971 171.8105,0.767489855 L175.662379,6.37551884 L179.547521,0.767489855 C179.714377,0.53177971 179.880689,0.363257971 180.164236,0.363257971 C180.531211,0.363257971 180.814758,0.666707246 180.814758,1.02027246 C180.814758,1.1887942 180.714972,1.37383768 180.630998,1.50876522 L176.312357,7.57114203 L176.312357,11.6465043 C176.312357,12.017142 176.012451,12.3200406 175.645475,12.3200406 C175.279045,12.3200406 174.978594,12.017142 174.978594,11.6465043 L174.978594,7.60473623 Z" id="Fill-39" fill="#FFFFFF"></path>
                            <path d="M181.764805,10.3836377 C182.215209,10.3836377 182.548377,10.7201304 182.548377,11.175029 L182.548377,11.5120725 C182.548377,11.9664203 182.215209,12.3199855 181.764805,12.3199855 C181.298588,12.3199855 180.96433,11.9664203 180.96433,11.5120725 L180.96433,11.175029 C180.96433,10.7201304 181.298588,10.3836377 181.764805,10.3836377" id="Fill-41" fill="#FFFFFF"></path>
                            <path d="M184.599895,6.37529855 L184.599895,6.34170435 C184.599895,3.00761739 187.067301,0.245733333 190.502584,0.245733333 C192.386537,0.245733333 193.58725,0.868602899 194.671272,1.77784928 C194.804867,1.89570435 194.937916,2.08129855 194.937916,2.3170087 C194.937916,2.67057391 194.621106,2.97347246 194.271035,2.97347246 C194.087274,2.97347246 193.937322,2.88921159 193.836989,2.82202319 C192.936727,2.01411014 191.919774,1.47495072 190.486225,1.47495072 C187.901584,1.47495072 185.967465,3.59689275 185.967465,6.30811014 L185.967465,6.34170435 C185.967465,9.0699942 187.917942,11.208458 190.486225,11.208458 C191.936678,11.208458 192.953631,10.7028928 193.954225,9.77712464 C194.054012,9.6757913 194.203965,9.59208116 194.370822,9.59208116 C194.704535,9.59208116 195.00444,9.89553043 195.00444,10.2320232 C195.00444,10.4341391 194.904108,10.6021101 194.787963,10.7028928 C193.637416,11.7641391 192.370178,12.4382261 190.452418,12.4382261 C187.08475,12.4382261 184.599895,9.76005217 184.599895,6.37529855" id="Fill-43" fill="#FFFFFF"></path>
                            <path d="M207.443709,6.37529855 L207.443709,6.34170435 C207.443709,3.66408116 205.509045,1.47495072 202.841521,1.47495072 C200.173451,1.47495072 198.273139,3.63048696 198.273139,6.30811014 L198.273139,6.34170435 C198.273139,9.01987826 200.207258,11.208458 202.874783,11.208458 C205.542853,11.208458 207.443709,9.05292174 207.443709,6.37529855 M196.90557,6.37529855 L196.90557,6.34170435 C196.90557,3.09187826 199.323355,0.245733333 202.874783,0.245733333 C206.426756,0.245733333 208.810734,3.05773333 208.810734,6.30811014 L208.810734,6.34170435 C208.810734,9.59208116 206.392949,12.4382261 202.841521,12.4382261 C199.290092,12.4382261 196.90557,9.62512464 196.90557,6.37529855" id="Fill-45" fill="#FFFFFF"></path>
                            <path d="M211.928989,1.05386667 C211.928989,0.700301449 212.22944,0.397402899 212.578967,0.397402899 L212.729465,0.397402899 C213.012467,0.397402899 213.212585,0.548852174 213.346725,0.750968116 L217.514868,7.08264928 L221.683557,0.750968116 C221.816606,0.53177971 222.033084,0.397402899 222.300272,0.397402899 L222.450225,0.397402899 C222.800297,0.397402899 223.100202,0.700301449 223.100202,1.05386667 L223.100202,11.6465043 C223.100202,12.017142 222.800297,12.3200406 222.450225,12.3200406 C222.08325,12.3200406 221.783344,12.0000696 221.783344,11.6465043 L221.783344,2.85583768 L218.048701,8.39667826 C217.898202,8.61531594 217.731891,8.73317101 217.497965,8.73317101 C217.264584,8.73317101 217.081368,8.61531594 216.931416,8.39667826 L213.212585,2.87235942 L213.212585,11.6635768 C213.212585,12.0336638 212.929584,12.3200406 212.562608,12.3200406 C212.212536,12.3200406 211.928989,12.0336638 211.928989,11.6635768 L211.928989,1.05386667 Z" id="Fill-47" fill="#FFFFFF"></path>
                        </g>
                    </g>
                </g>
            </g>
        </g>
    </g>
</svg>